solid OpenSCAD_Model
  facet normal -0.467174 -0.884165 0
    outer loop
      vertex -15.722 28.107 2
      vertex -8.375 24.225 3
      vertex -15.722 28.107 3
    endloop
  endfacet
  facet normal -0.467174 -0.884165 -0
    outer loop
      vertex -8.375 24.225 3
      vertex -15.722 28.107 2
      vertex -8.375 24.225 2
    endloop
  endfacet
  facet normal 0.499872 -0.866099 0
    outer loop
      vertex -38.259 -1.818 2
      vertex -33.418 0.976 3
      vertex -38.259 -1.818 3
    endloop
  endfacet
  facet normal 0.499872 -0.866099 0
    outer loop
      vertex -33.418 0.976 3
      vertex -38.259 -1.818 2
      vertex -33.418 0.976 2
    endloop
  endfacet
  facet normal 0.969768 -0.244031 0
    outer loop
      vertex -21.456 -25.595 3
      vertex -19.728 -18.728 2
      vertex -19.728 -18.728 3
    endloop
  endfacet
  facet normal 0.969768 -0.244031 0
    outer loop
      vertex -19.728 -18.728 2
      vertex -21.456 -25.595 3
      vertex -21.456 -25.595 2
    endloop
  endfacet
  facet normal 0.67406 0.738676 -0
    outer loop
      vertex -19.728 -18.728 2
      vertex -38.259 -1.818 3
      vertex -19.728 -18.728 3
    endloop
  endfacet
  facet normal 0.67406 0.738676 0
    outer loop
      vertex -38.259 -1.818 3
      vertex -19.728 -18.728 2
      vertex -38.259 -1.818 2
    endloop
  endfacet
  facet normal -0.705549 -0.708662 0
    outer loop
      vertex -25.738 15.653 2
      vertex -13.217 3.187 3
      vertex -25.738 15.653 3
    endloop
  endfacet
  facet normal -0.705549 -0.708662 -0
    outer loop
      vertex -13.217 3.187 3
      vertex -25.738 15.653 2
      vertex -13.217 3.187 2
    endloop
  endfacet
  facet normal 0.999718 -0.0237266 0
    outer loop
      vertex -2.708 -38.148 3
      vertex -2.315 -21.589 2
      vertex -2.315 -21.589 3
    endloop
  endfacet
  facet normal 0.999718 -0.0237266 0
    outer loop
      vertex -2.315 -21.589 2
      vertex -2.708 -38.148 3
      vertex -2.708 -38.148 2
    endloop
  endfacet
  facet normal 0.00120279 0.999999 -0
    outer loop
      vertex 1.449 -38.153 2
      vertex -2.708 -38.148 3
      vertex 1.449 -38.153 3
    endloop
  endfacet
  facet normal 0.00120279 0.999999 0
    outer loop
      vertex -2.708 -38.148 3
      vertex 1.449 -38.153 2
      vertex -2.708 -38.148 2
    endloop
  endfacet
  facet normal 0.98653 -0.163577 0
    outer loop
      vertex -26.739 9.616 3
      vertex -25.738 15.653 2
      vertex -25.738 15.653 3
    endloop
  endfacet
  facet normal 0.98653 -0.163577 0
    outer loop
      vertex -25.738 15.653 2
      vertex -26.739 9.616 3
      vertex -26.739 9.616 2
    endloop
  endfacet
  facet normal -0.279899 -0.960029 0
    outer loop
      vertex -38.092 12.926 2
      vertex -26.739 9.616 3
      vertex -38.092 12.926 3
    endloop
  endfacet
  facet normal -0.279899 -0.960029 -0
    outer loop
      vertex -26.739 9.616 3
      vertex -38.092 12.926 2
      vertex -26.739 9.616 2
    endloop
  endfacet
  facet normal 0.931298 0.364258 0
    outer loop
      vertex -33.418 0.976 3
      vertex -38.092 12.926 2
      vertex -38.092 12.926 3
    endloop
  endfacet
  facet normal 0.931298 0.364258 0
    outer loop
      vertex -38.092 12.926 2
      vertex -33.418 0.976 3
      vertex -33.418 0.976 2
    endloop
  endfacet
  facet normal 0.994986 0.100018 0
    outer loop
      vertex -13.217 3.187 3
      vertex -15.722 28.107 2
      vertex -15.722 28.107 3
    endloop
  endfacet
  facet normal 0.994986 0.100018 0
    outer loop
      vertex -15.722 28.107 2
      vertex -13.217 3.187 3
      vertex -13.217 3.187 2
    endloop
  endfacet
  facet normal -0.98653 -0.163577 0
    outer loop
      vertex 25.48 9.61 2
      vertex 24.479 15.647 3
      vertex 24.479 15.647 2
    endloop
  endfacet
  facet normal -0.98653 -0.163577 0
    outer loop
      vertex 24.479 15.647 3
      vertex 25.48 9.61 2
      vertex 25.48 9.61 3
    endloop
  endfacet
  facet normal 0.279899 -0.960029 0
    outer loop
      vertex 25.48 9.61 2
      vertex 36.833 12.92 3
      vertex 25.48 9.61 3
    endloop
  endfacet
  facet normal 0.279899 -0.960029 0
    outer loop
      vertex 36.833 12.92 3
      vertex 25.48 9.61 2
      vertex 36.833 12.92 2
    endloop
  endfacet
  facet normal -0.931298 0.364258 0
    outer loop
      vertex 32.159 0.969999 2
      vertex 36.833 12.92 3
      vertex 36.833 12.92 2
    endloop
  endfacet
  facet normal -0.931298 0.364258 0
    outer loop
      vertex 36.833 12.92 3
      vertex 32.159 0.969999 2
      vertex 32.159 0.969999 3
    endloop
  endfacet
  facet normal -0.499795 -0.866144 0
    outer loop
      vertex 32.159 0.969999 2
      vertex 37.001 -1.824 3
      vertex 32.159 0.969999 3
    endloop
  endfacet
  facet normal -0.499795 -0.866144 -0
    outer loop
      vertex 37.001 -1.824 3
      vertex 32.159 0.969999 2
      vertex 37.001 -1.824 2
    endloop
  endfacet
  facet normal -0.674019 0.738714 0
    outer loop
      vertex 37.001 -1.824 2
      vertex 18.469 -18.733 3
      vertex 37.001 -1.824 3
    endloop
  endfacet
  facet normal -0.674019 0.738714 0
    outer loop
      vertex 18.469 -18.733 3
      vertex 37.001 -1.824 2
      vertex 18.469 -18.733 2
    endloop
  endfacet
  facet normal -0.969776 -0.243997 0
    outer loop
      vertex 20.197 -25.601 2
      vertex 18.469 -18.733 3
      vertex 18.469 -18.733 2
    endloop
  endfacet
  facet normal -0.969776 -0.243997 0
    outer loop
      vertex 18.469 -18.733 3
      vertex 20.197 -25.601 2
      vertex 20.197 -25.601 3
    endloop
  endfacet
  facet normal 0.204851 0.978793 -0
    outer loop
      vertex 20.197 -25.601 2
      vertex 1.056 -21.595 3
      vertex 20.197 -25.601 3
    endloop
  endfacet
  facet normal 0.204851 0.978793 0
    outer loop
      vertex 1.056 -21.595 3
      vertex 20.197 -25.601 2
      vertex 1.056 -21.595 2
    endloop
  endfacet
  facet normal -0.999718 -0.0237281 0
    outer loop
      vertex 1.449 -38.153 2
      vertex 1.056 -21.595 3
      vertex 1.056 -21.595 2
    endloop
  endfacet
  facet normal -0.999718 -0.0237281 0
    outer loop
      vertex 1.056 -21.595 3
      vertex 1.449 -38.153 2
      vertex 1.449 -38.153 3
    endloop
  endfacet
  facet normal -0.204851 0.978793 0
    outer loop
      vertex -2.315 -21.589 2
      vertex -21.456 -25.595 3
      vertex -2.315 -21.589 3
    endloop
  endfacet
  facet normal -0.204851 0.978793 0
    outer loop
      vertex -21.456 -25.595 3
      vertex -2.315 -21.589 2
      vertex -21.456 -25.595 2
    endloop
  endfacet
  facet normal 0.854516 -0.519425 0
    outer loop
      vertex -8.375 24.225 3
      vertex -0.609 37.001 2
      vertex -0.609 37.001 3
    endloop
  endfacet
  facet normal 0.854516 -0.519425 0
    outer loop
      vertex -0.609 37.001 2
      vertex -8.375 24.225 3
      vertex -8.375 24.225 2
    endloop
  endfacet
  facet normal -0.855804 -0.5173 0
    outer loop
      vertex 7.116 24.221 2
      vertex -0.609 37.001 3
      vertex -0.609 37.001 2
    endloop
  endfacet
  facet normal -0.855804 -0.5173 0
    outer loop
      vertex -0.609 37.001 3
      vertex 7.116 24.221 2
      vertex 7.116 24.221 3
    endloop
  endfacet
  facet normal 0.467174 -0.884165 0
    outer loop
      vertex 7.116 24.221 2
      vertex 14.463 28.103 3
      vertex 7.116 24.221 3
    endloop
  endfacet
  facet normal 0.467174 -0.884165 0
    outer loop
      vertex 14.463 28.103 3
      vertex 7.116 24.221 2
      vertex 14.463 28.103 2
    endloop
  endfacet
  facet normal -0.994986 0.10001 0
    outer loop
      vertex 11.958 3.181 2
      vertex 14.463 28.103 3
      vertex 14.463 28.103 2
    endloop
  endfacet
  facet normal -0.994986 0.10001 0
    outer loop
      vertex 14.463 28.103 3
      vertex 11.958 3.181 2
      vertex 11.958 3.181 3
    endloop
  endfacet
  facet normal 0.705549 -0.708662 0
    outer loop
      vertex 11.958 3.181 2
      vertex 24.479 15.647 3
      vertex 11.958 3.181 3
    endloop
  endfacet
  facet normal 0.705549 -0.708662 0
    outer loop
      vertex 24.479 15.647 3
      vertex 11.958 3.181 2
      vertex 24.479 15.647 2
    endloop
  endfacet
  facet normal 0 0 1
    outer loop
      vertex 14.463 28.103 2
      vertex 7.116 24.221 2
      vertex 11.958 3.181 2
    endloop
  endfacet
  facet normal 0 0 1
    outer loop
      vertex 36.833 12.92 2
      vertex 25.48 9.61 2
      vertex 32.159 0.969999 2
    endloop
  endfacet
  facet normal 0 0 1
    outer loop
      vertex 32.159 0.969999 2
      vertex 18.469 -18.733 2
      vertex 37.001 -1.824 2
    endloop
  endfacet
  facet normal -0 0 1
    outer loop
      vertex 11.958 3.181 2
      vertex 32.159 0.969999 2
      vertex 25.48 9.61 2
    endloop
  endfacet
  facet normal 0 0 1
    outer loop
      vertex 11.958 3.181 2
      vertex 25.48 9.61 2
      vertex 24.479 15.647 2
    endloop
  endfacet
  facet normal 0 0 1
    outer loop
      vertex 32.159 0.969999 2
      vertex 11.958 3.181 2
      vertex 18.469 -18.733 2
    endloop
  endfacet
  facet normal 0 0 1
    outer loop
      vertex 1.056 -21.595 2
      vertex 18.469 -18.733 2
      vertex 11.958 3.181 2
    endloop
  endfacet
  facet normal 0 0 1
    outer loop
      vertex 18.469 -18.733 2
      vertex 1.056 -21.595 2
      vertex 20.197 -25.601 2
    endloop
  endfacet
  facet normal -0 0 1
    outer loop
      vertex -13.217 3.187 2
      vertex 11.958 3.181 2
      vertex 7.116 24.221 2
    endloop
  endfacet
  facet normal -0 0 1
    outer loop
      vertex -8.375 24.225 2
      vertex 7.116 24.221 2
      vertex -0.609 37.001 2
    endloop
  endfacet
  facet normal 0 0 1
    outer loop
      vertex -13.217 3.187 2
      vertex 7.116 24.221 2
      vertex -8.375 24.225 2
    endloop
  endfacet
  facet normal 0 0 1
    outer loop
      vertex 1.056 -21.595 2
      vertex -2.315 -21.589 2
      vertex 1.449 -38.153 2
    endloop
  endfacet
  facet normal 0 0 1
    outer loop
      vertex 1.449 -38.153 2
      vertex -2.315 -21.589 2
      vertex -2.708 -38.148 2
    endloop
  endfacet
  facet normal 0 0 1
    outer loop
      vertex -26.739 9.616 2
      vertex -38.092 12.926 2
      vertex -33.418 0.976 2
    endloop
  endfacet
  facet normal -0 0 1
    outer loop
      vertex -26.739 9.616 2
      vertex -13.217 3.187 2
      vertex -25.738 15.653 2
    endloop
  endfacet
  facet normal 0 0 1
    outer loop
      vertex -33.418 0.976 2
      vertex -13.217 3.187 2
      vertex -26.739 9.616 2
    endloop
  endfacet
  facet normal 0 0 1
    outer loop
      vertex -13.217 3.187 2
      vertex -33.418 0.976 2
      vertex -19.728 -18.728 2
    endloop
  endfacet
  facet normal 0 0 1
    outer loop
      vertex -19.728 -18.728 2
      vertex -33.418 0.976 2
      vertex -38.259 -1.818 2
    endloop
  endfacet
  facet normal 0 0 1
    outer loop
      vertex -8.375 24.225 2
      vertex -15.722 28.107 2
      vertex -13.217 3.187 2
    endloop
  endfacet
  facet normal 0 0 1
    outer loop
      vertex 11.958 3.181 2
      vertex -13.217 3.187 2
      vertex 1.056 -21.595 2
    endloop
  endfacet
  facet normal 0 0 1
    outer loop
      vertex 1.056 -21.595 2
      vertex -13.217 3.187 2
      vertex -2.315 -21.589 2
    endloop
  endfacet
  facet normal -0 0 1
    outer loop
      vertex -19.728 -18.728 2
      vertex -2.315 -21.589 2
      vertex -13.217 3.187 2
    endloop
  endfacet
  facet normal 0 0 1
    outer loop
      vertex -2.315 -21.589 2
      vertex -19.728 -18.728 2
      vertex -21.456 -25.595 2
    endloop
  endfacet
  facet normal 0.998822 -0.0485171 0
    outer loop
      vertex 67.8658 -2.76278 3
      vertex 68 0 0
      vertex 68 0 3
    endloop
  endfacet
  facet normal 0.998822 -0.0485171 0
    outer loop
      vertex 68 0 0
      vertex 67.8658 -2.76278 3
      vertex 67.8658 -2.76278 0
    endloop
  endfacet
  facet normal 0.989498 0.144548 0
    outer loop
      vertex 67.8658 2.76278 3
      vertex 67.4638 5.51466 0
      vertex 67.4638 5.51466 3
    endloop
  endfacet
  facet normal 0.989498 0.144548 0
    outer loop
      vertex 67.4638 5.51466 0
      vertex 67.8658 2.76278 3
      vertex 67.8658 2.76278 0
    endloop
  endfacet
  facet normal 0.998822 0.0485171 0
    outer loop
      vertex 68 0 3
      vertex 67.8658 2.76278 0
      vertex 67.8658 2.76278 3
    endloop
  endfacet
  facet normal 0.998822 0.0485171 0
    outer loop
      vertex 67.8658 2.76278 0
      vertex 68 0 3
      vertex 68 0 0
    endloop
  endfacet
  facet normal -0.143126 -0.989704 0
    outer loop
      vertex -16.9109 -42.6177 0
      vertex -12.7419 -43.2206 3
      vertex -16.9109 -42.6177 3
    endloop
  endfacet
  facet normal -0.143126 -0.989704 -0
    outer loop
      vertex -12.7419 -43.2206 3
      vertex -16.9109 -42.6177 0
      vertex -12.7419 -43.2206 0
    endloop
  endfacet
  facet normal 0.785673 -0.618643 0
    outer loop
      vertex 59.5889 -21.1972 3
      vertex 61.5282 -18.7343 0
      vertex 61.5282 -18.7343 3
    endloop
  endfacet
  facet normal 0.785673 -0.618643 0
    outer loop
      vertex 61.5282 -18.7343 0
      vertex 59.5889 -21.1972 3
      vertex 59.5889 -21.1972 0
    endloop
  endfacet
  facet normal 0.495508 0.868603 -0
    outer loop
      vertex 46.5492 32.0746 0
      vertex 43.3448 33.9026 3
      vertex 46.5492 32.0746 3
    endloop
  endfacet
  facet normal 0.495508 0.868603 0
    outer loop
      vertex 43.3448 33.9026 3
      vertex 46.5492 32.0746 0
      vertex 43.3448 33.9026 0
    endloop
  endfacet
  facet normal 0.313112 0.949716 -0
    outer loop
      vertex 32.7593 38.5575 0
      vertex 28.953 39.8124 3
      vertex 32.7593 38.5575 3
    endloop
  endfacet
  facet normal 0.313112 0.949716 0
    outer loop
      vertex 28.953 39.8124 3
      vertex 32.7593 38.5575 0
      vertex 28.953 39.8124 0
    endloop
  endfacet
  facet normal 0.831233 0.555925 0
    outer loop
      vertex 63.2248 16.1975 3
      vertex 61.5282 18.7343 0
      vertex 61.5282 18.7343 3
    endloop
  endfacet
  facet normal 0.831233 0.555925 0
    outer loop
      vertex 61.5282 18.7343 0
      vertex 63.2248 16.1975 3
      vertex 63.2248 16.1975 0
    endloop
  endfacet
  facet normal 0.101949 -0.99479 0
    outer loop
      vertex 8.52266 -43.653 0
      vertex 12.7419 -43.2206 3
      vertex 8.52266 -43.653 3
    endloop
  endfacet
  facet normal 0.101949 -0.99479 0
    outer loop
      vertex 12.7419 -43.2206 3
      vertex 8.52266 -43.653 0
      vertex 12.7419 -43.2206 0
    endloop
  endfacet
  facet normal 0.873856 -0.486185 0
    outer loop
      vertex 63.2248 -16.1975 3
      vertex 64.6718 -13.5967 0
      vertex 64.6718 -13.5967 3
    endloop
  endfacet
  facet normal 0.873856 -0.486185 0
    outer loop
      vertex 64.6718 -13.5967 0
      vertex 63.2248 -16.1975 3
      vertex 63.2248 -16.1975 0
    endloop
  endfacet
  facet normal -0.912247 0.40964 0
    outer loop
      vertex -65.8637 10.9424 0
      vertex -64.6718 13.5967 3
      vertex -64.6718 13.5967 0
    endloop
  endfacet
  facet normal -0.912247 0.40964 0
    outer loop
      vertex -64.6718 13.5967 3
      vertex -65.8637 10.9424 0
      vertex -65.8637 10.9424 3
    endloop
  endfacet
  facet normal 0.269644 -0.96296 0
    outer loop
      vertex 25.0325 -40.9102 0
      vertex 28.953 -39.8124 3
      vertex 25.0325 -40.9102 3
    endloop
  endfacet
  facet normal 0.269644 -0.96296 0
    outer loop
      vertex 28.953 -39.8124 3
      vertex 25.0325 -40.9102 0
      vertex 28.953 -39.8124 0
    endloop
  endfacet
  facet normal -0.738132 -0.674656 0
    outer loop
      vertex -57.4143 -23.5764 0
      vertex -59.5889 -21.1972 3
      vertex -59.5889 -21.1972 0
    endloop
  endfacet
  facet normal -0.738132 -0.674656 0
    outer loop
      vertex -59.5889 -21.1972 3
      vertex -57.4143 -23.5764 0
      vertex -57.4143 -23.5764 3
    endloop
  endfacet
  facet normal 0.831233 -0.555925 0
    outer loop
      vertex 61.5282 -18.7343 3
      vertex 63.2248 -16.1975 0
      vertex 63.2248 -16.1975 3
    endloop
  endfacet
  facet normal 0.831233 -0.555925 0
    outer loop
      vertex 63.2248 -16.1975 0
      vertex 61.5282 -18.7343 3
      vertex 61.5282 -18.7343 0
    endloop
  endfacet
  facet normal 0.402542 0.915402 -0
    outer loop
      vertex 39.9694 35.5967 0
      vertex 36.4362 37.1504 3
      vertex 39.9694 35.5967 3
    endloop
  endfacet
  facet normal 0.402542 0.915402 0
    outer loop
      vertex 36.4362 37.1504 3
      vertex 39.9694 35.5967 0
      vertex 36.4362 37.1504 0
    endloop
  endfacet
  facet normal 0.873856 0.486185 0
    outer loop
      vertex 64.6718 13.5967 3
      vertex 63.2248 16.1975 0
      vertex 63.2248 16.1975 3
    endloop
  endfacet
  facet normal 0.873856 0.486185 0
    outer loop
      vertex 63.2248 16.1975 0
      vertex 64.6718 13.5967 3
      vertex 64.6718 13.5967 0
    endloop
  endfacet
  facet normal 0.0610675 -0.998134 0
    outer loop
      vertex 4.26975 -43.9132 0
      vertex 8.52266 -43.653 3
      vertex 4.26975 -43.9132 3
    endloop
  endfacet
  facet normal 0.0610675 -0.998134 0
    outer loop
      vertex 8.52266 -43.653 3
      vertex 4.26975 -43.9132 0
      vertex 8.52266 -43.653 0
    endloop
  endfacet
  facet normal -0.785673 0.618643 0
    outer loop
      vertex -61.5282 18.7343 0
      vertex -59.5889 21.1972 3
      vertex -59.5889 21.1972 0
    endloop
  endfacet
  facet normal -0.785673 0.618643 0
    outer loop
      vertex -59.5889 21.1972 3
      vertex -61.5282 18.7343 0
      vertex -61.5282 18.7343 3
    endloop
  endfacet
  facet normal 0.357409 0.933948 -0
    outer loop
      vertex 36.4362 37.1504 0
      vertex 32.7593 38.5575 3
      vertex 36.4362 37.1504 3
    endloop
  endfacet
  facet normal 0.357409 0.933948 0
    outer loop
      vertex 32.7593 38.5575 3
      vertex 36.4362 37.1504 0
      vertex 32.7593 38.5575 0
    endloop
  endfacet
  facet normal -0.313112 -0.949716 0
    outer loop
      vertex -32.7593 -38.5575 0
      vertex -28.953 -39.8124 3
      vertex -32.7593 -38.5575 3
    endloop
  endfacet
  facet normal -0.313112 -0.949716 -0
    outer loop
      vertex -28.953 -39.8124 3
      vertex -32.7593 -38.5575 0
      vertex -28.953 -39.8124 0
    endloop
  endfacet
  facet normal 0.543237 0.839579 -0
    outer loop
      vertex 49.5699 30.1201 0
      vertex 46.5492 32.0746 3
      vertex 49.5699 30.1201 3
    endloop
  endfacet
  facet normal 0.543237 0.839579 0
    outer loop
      vertex 46.5492 32.0746 3
      vertex 49.5699 30.1201 0
      vertex 46.5492 32.0746 0
    endloop
  endfacet
  facet normal -0.873856 -0.486185 0
    outer loop
      vertex -63.2248 -16.1975 0
      vertex -64.6718 -13.5967 3
      vertex -64.6718 -13.5967 0
    endloop
  endfacet
  facet normal -0.873856 -0.486185 0
    outer loop
      vertex -64.6718 -13.5967 3
      vertex -63.2248 -16.1975 0
      vertex -63.2248 -16.1975 3
    endloop
  endfacet
  facet normal 0.313112 -0.949716 0
    outer loop
      vertex 28.953 -39.8124 0
      vertex 32.7593 -38.5575 3
      vertex 28.953 -39.8124 3
    endloop
  endfacet
  facet normal 0.313112 -0.949716 0
    outer loop
      vertex 32.7593 -38.5575 3
      vertex 28.953 -39.8124 0
      vertex 32.7593 -38.5575 0
    endloop
  endfacet
  facet normal -0.143126 0.989704 0
    outer loop
      vertex -12.7419 43.2206 0
      vertex -16.9109 42.6177 3
      vertex -12.7419 43.2206 3
    endloop
  endfacet
  facet normal -0.143126 0.989704 0
    outer loop
      vertex -16.9109 42.6177 3
      vertex -12.7419 43.2206 0
      vertex -16.9109 42.6177 0
    endloop
  endfacet
  facet normal -0.945202 0.326487 0
    outer loop
      vertex -66.7955 8.24478 0
      vertex -65.8637 10.9424 3
      vertex -65.8637 10.9424 0
    endloop
  endfacet
  facet normal -0.945202 0.326487 0
    outer loop
      vertex -65.8637 10.9424 3
      vertex -66.7955 8.24478 0
      vertex -66.7955 8.24478 3
    endloop
  endfacet
  facet normal -0.831233 -0.555925 0
    outer loop
      vertex -61.5282 -18.7343 0
      vertex -63.2248 -16.1975 3
      vertex -63.2248 -16.1975 0
    endloop
  endfacet
  facet normal -0.831233 -0.555925 0
    outer loop
      vertex -63.2248 -16.1975 3
      vertex -61.5282 -18.7343 0
      vertex -61.5282 -18.7343 3
    endloop
  endfacet
  facet normal -0.357409 0.933948 0
    outer loop
      vertex -32.7593 38.5575 0
      vertex -36.4362 37.1504 3
      vertex -32.7593 38.5575 3
    endloop
  endfacet
  facet normal -0.357409 0.933948 0
    outer loop
      vertex -36.4362 37.1504 3
      vertex -32.7593 38.5575 0
      vertex -36.4362 37.1504 0
    endloop
  endfacet
  facet normal 0.143126 -0.989704 0
    outer loop
      vertex 12.7419 -43.2206 0
      vertex 16.9109 -42.6177 3
      vertex 12.7419 -43.2206 3
    endloop
  endfacet
  facet normal 0.143126 -0.989704 0
    outer loop
      vertex 16.9109 -42.6177 3
      vertex 12.7419 -43.2206 0
      vertex 16.9109 -42.6177 0
    endloop
  endfacet
  facet normal -0.543237 -0.839579 0
    outer loop
      vertex -49.5699 -30.1201 0
      vertex -46.5492 -32.0746 3
      vertex -49.5699 -30.1201 3
    endloop
  endfacet
  facet normal -0.543237 -0.839579 -0
    outer loop
      vertex -46.5492 -32.0746 3
      vertex -49.5699 -30.1201 0
      vertex -46.5492 -32.0746 0
    endloop
  endfacet
  facet normal -0.689566 -0.724223 0
    outer loop
      vertex -57.4143 -23.5764 0
      vertex -55.0132 -25.8626 3
      vertex -57.4143 -23.5764 3
    endloop
  endfacet
  facet normal -0.689566 -0.724223 -0
    outer loop
      vertex -55.0132 -25.8626 3
      vertex -57.4143 -23.5764 0
      vertex -55.0132 -25.8626 0
    endloop
  endfacet
  facet normal -0.689566 0.724223 0
    outer loop
      vertex -55.0132 25.8626 0
      vertex -57.4143 23.5764 3
      vertex -55.0132 25.8626 3
    endloop
  endfacet
  facet normal -0.689566 0.724223 0
    outer loop
      vertex -57.4143 23.5764 3
      vertex -55.0132 25.8626 0
      vertex -57.4143 23.5764 0
    endloop
  endfacet
  facet normal 0.689566 0.724223 -0
    outer loop
      vertex 57.4143 23.5764 0
      vertex 55.0132 25.8626 3
      vertex 57.4143 23.5764 3
    endloop
  endfacet
  facet normal 0.689566 0.724223 0
    outer loop
      vertex 55.0132 25.8626 3
      vertex 57.4143 23.5764 0
      vertex 55.0132 25.8626 0
    endloop
  endfacet
  facet normal -0.989498 -0.144548 0
    outer loop
      vertex -67.4638 -5.51466 0
      vertex -67.8658 -2.76278 3
      vertex -67.8658 -2.76278 0
    endloop
  endfacet
  facet normal -0.989498 -0.144548 0
    outer loop
      vertex -67.8658 -2.76278 3
      vertex -67.4638 -5.51466 0
      vertex -67.4638 -5.51466 3
    endloop
  endfacet
  facet normal -0.998822 0.0485171 0
    outer loop
      vertex -68 0 0
      vertex -67.8658 2.76278 3
      vertex -67.8658 2.76278 0
    endloop
  endfacet
  facet normal -0.998822 0.0485171 0
    outer loop
      vertex -67.8658 2.76278 3
      vertex -68 0 0
      vertex -68 0 3
    endloop
  endfacet
  facet normal -0.184756 0.982784 0
    outer loop
      vertex -16.9109 42.6177 0
      vertex -21.0132 41.8465 3
      vertex -16.9109 42.6177 3
    endloop
  endfacet
  facet normal -0.184756 0.982784 0
    outer loop
      vertex -21.0132 41.8465 3
      vertex -16.9109 42.6177 0
      vertex -21.0132 41.8465 0
    endloop
  endfacet
  facet normal -0.101949 0.99479 0
    outer loop
      vertex -8.52266 43.653 0
      vertex -12.7419 43.2206 3
      vertex -8.52266 43.653 3
    endloop
  endfacet
  facet normal -0.101949 0.99479 0
    outer loop
      vertex -12.7419 43.2206 3
      vertex -8.52266 43.653 0
      vertex -12.7419 43.2206 0
    endloop
  endfacet
  facet normal -0.873856 0.486185 0
    outer loop
      vertex -64.6718 13.5967 0
      vertex -63.2248 16.1975 3
      vertex -63.2248 16.1975 0
    endloop
  endfacet
  facet normal -0.873856 0.486185 0
    outer loop
      vertex -63.2248 16.1975 3
      vertex -64.6718 13.5967 0
      vertex -64.6718 13.5967 3
    endloop
  endfacet
  facet normal -0.543237 0.839579 0
    outer loop
      vertex -46.5492 32.0746 0
      vertex -49.5699 30.1201 3
      vertex -46.5492 32.0746 3
    endloop
  endfacet
  facet normal -0.543237 0.839579 0
    outer loop
      vertex -49.5699 30.1201 3
      vertex -46.5492 32.0746 0
      vertex -49.5699 30.1201 0
    endloop
  endfacet
  facet normal 0.971322 -0.237768 0
    outer loop
      vertex 66.7955 -8.24478 3
      vertex 67.4638 -5.51466 0
      vertex 67.4638 -5.51466 3
    endloop
  endfacet
  facet normal 0.971322 -0.237768 0
    outer loop
      vertex 67.4638 -5.51466 0
      vertex 66.7955 -8.24478 3
      vertex 66.7955 -8.24478 0
    endloop
  endfacet
  facet normal -0.971322 0.237768 0
    outer loop
      vertex -67.4638 5.51466 0
      vertex -66.7955 8.24478 3
      vertex -66.7955 8.24478 0
    endloop
  endfacet
  facet normal -0.971322 0.237768 0
    outer loop
      vertex -66.7955 8.24478 3
      vertex -67.4638 5.51466 0
      vertex -67.4638 5.51466 3
    endloop
  endfacet
  facet normal -0.226876 -0.973924 0
    outer loop
      vertex -25.0325 -40.9102 0
      vertex -21.0132 -41.8465 3
      vertex -25.0325 -40.9102 3
    endloop
  endfacet
  facet normal -0.226876 -0.973924 -0
    outer loop
      vertex -21.0132 -41.8465 3
      vertex -25.0325 -40.9102 0
      vertex -21.0132 -41.8465 0
    endloop
  endfacet
  facet normal 0.912247 -0.40964 0
    outer loop
      vertex 64.6718 -13.5967 3
      vertex 65.8637 -10.9424 0
      vertex 65.8637 -10.9424 3
    endloop
  endfacet
  facet normal 0.912247 -0.40964 0
    outer loop
      vertex 65.8637 -10.9424 0
      vertex 64.6718 -13.5967 3
      vertex 64.6718 -13.5967 0
    endloop
  endfacet
  facet normal 0.945202 -0.326487 0
    outer loop
      vertex 65.8637 -10.9424 3
      vertex 66.7955 -8.24478 0
      vertex 66.7955 -8.24478 3
    endloop
  endfacet
  facet normal 0.945202 -0.326487 0
    outer loop
      vertex 66.7955 -8.24478 0
      vertex 65.8637 -10.9424 3
      vertex 65.8637 -10.9424 0
    endloop
  endfacet
  facet normal 0.912247 0.40964 0
    outer loop
      vertex 65.8637 10.9424 3
      vertex 64.6718 13.5967 0
      vertex 64.6718 13.5967 3
    endloop
  endfacet
  facet normal 0.912247 0.40964 0
    outer loop
      vertex 64.6718 13.5967 0
      vertex 65.8637 10.9424 3
      vertex 65.8637 10.9424 0
    endloop
  endfacet
  facet normal 0.689566 -0.724223 0
    outer loop
      vertex 55.0132 -25.8626 0
      vertex 57.4143 -23.5764 3
      vertex 55.0132 -25.8626 3
    endloop
  endfacet
  facet normal 0.689566 -0.724223 0
    outer loop
      vertex 57.4143 -23.5764 3
      vertex 55.0132 -25.8626 0
      vertex 57.4143 -23.5764 0
    endloop
  endfacet
  facet normal -0.495508 0.868603 0
    outer loop
      vertex -43.3448 33.9026 0
      vertex -46.5492 32.0746 3
      vertex -43.3448 33.9026 3
    endloop
  endfacet
  facet normal -0.495508 0.868603 0
    outer loop
      vertex -46.5492 32.0746 3
      vertex -43.3448 33.9026 0
      vertex -46.5492 32.0746 0
    endloop
  endfacet
  facet normal -0.831233 0.555925 0
    outer loop
      vertex -63.2248 16.1975 0
      vertex -61.5282 18.7343 3
      vertex -61.5282 18.7343 0
    endloop
  endfacet
  facet normal -0.831233 0.555925 0
    outer loop
      vertex -61.5282 18.7343 3
      vertex -63.2248 16.1975 0
      vertex -63.2248 16.1975 3
    endloop
  endfacet
  facet normal 0.640562 -0.767906 0
    outer loop
      vertex 52.3949 -28.0467 0
      vertex 55.0132 -25.8626 3
      vertex 52.3949 -28.0467 3
    endloop
  endfacet
  facet normal 0.640562 -0.767906 0
    outer loop
      vertex 55.0132 -25.8626 3
      vertex 52.3949 -28.0467 0
      vertex 55.0132 -25.8626 0
    endloop
  endfacet
  facet normal 0.402542 -0.915402 0
    outer loop
      vertex 36.4362 -37.1504 0
      vertex 39.9694 -35.5967 3
      vertex 36.4362 -37.1504 3
    endloop
  endfacet
  facet normal 0.402542 -0.915402 0
    outer loop
      vertex 39.9694 -35.5967 3
      vertex 36.4362 -37.1504 0
      vertex 39.9694 -35.5967 0
    endloop
  endfacet
  facet normal -0.402542 0.915402 0
    outer loop
      vertex -36.4362 37.1504 0
      vertex -39.9694 35.5967 3
      vertex -36.4362 37.1504 3
    endloop
  endfacet
  facet normal -0.402542 0.915402 0
    outer loop
      vertex -39.9694 35.5967 3
      vertex -36.4362 37.1504 0
      vertex -39.9694 35.5967 0
    endloop
  endfacet
  facet normal 0.989498 -0.144548 0
    outer loop
      vertex 67.4638 -5.51466 3
      vertex 67.8658 -2.76278 0
      vertex 67.8658 -2.76278 3
    endloop
  endfacet
  facet normal 0.989498 -0.144548 0
    outer loop
      vertex 67.8658 -2.76278 0
      vertex 67.4638 -5.51466 3
      vertex 67.4638 -5.51466 0
    endloop
  endfacet
  facet normal 0.0610675 0.998134 -0
    outer loop
      vertex 8.52266 43.653 0
      vertex 4.26975 43.9132 3
      vertex 8.52266 43.653 3
    endloop
  endfacet
  facet normal 0.0610675 0.998134 0
    outer loop
      vertex 4.26975 43.9132 3
      vertex 8.52266 43.653 0
      vertex 4.26975 43.9132 0
    endloop
  endfacet
  facet normal 0.785673 0.618643 0
    outer loop
      vertex 61.5282 18.7343 3
      vertex 59.5889 21.1972 0
      vertex 59.5889 21.1972 3
    endloop
  endfacet
  facet normal 0.785673 0.618643 0
    outer loop
      vertex 59.5889 21.1972 0
      vertex 61.5282 18.7343 3
      vertex 61.5282 18.7343 0
    endloop
  endfacet
  facet normal -0.998822 -0.0485171 0
    outer loop
      vertex -67.8658 -2.76278 0
      vertex -68 0 3
      vertex -68 0 0
    endloop
  endfacet
  facet normal -0.998822 -0.0485171 0
    outer loop
      vertex -68 0 3
      vertex -67.8658 -2.76278 0
      vertex -67.8658 -2.76278 3
    endloop
  endfacet
  facet normal -0 0 1
    outer loop
      vertex -21.456 -25.595 3
      vertex -2.708 -38.148 3
      vertex -2.315 -21.589 3
    endloop
  endfacet
  facet normal 0 0 1
    outer loop
      vertex -2.708 -38.148 3
      vertex -8.52266 -43.653 3
      vertex -4.26975 -43.9132 3
    endloop
  endfacet
  facet normal 0 0 1
    outer loop
      vertex -2.708 -38.148 3
      vertex -12.7419 -43.2206 3
      vertex -8.52266 -43.653 3
    endloop
  endfacet
  facet normal 0 0 1
    outer loop
      vertex -2.708 -38.148 3
      vertex -21.456 -25.595 3
      vertex -12.7419 -43.2206 3
    endloop
  endfacet
  facet normal 0 0 1
    outer loop
      vertex -12.7419 -43.2206 3
      vertex -21.456 -25.595 3
      vertex -16.9109 -42.6177 3
    endloop
  endfacet
  facet normal 0 0 1
    outer loop
      vertex -16.9109 -42.6177 3
      vertex -21.456 -25.595 3
      vertex -21.0132 -41.8465 3
    endloop
  endfacet
  facet normal 0 0 1
    outer loop
      vertex -21.0132 -41.8465 3
      vertex -21.456 -25.595 3
      vertex -25.0325 -40.9102 3
    endloop
  endfacet
  facet normal 0 0 1
    outer loop
      vertex 12.7419 43.2206 3
      vertex 14.463 28.103 3
      vertex 16.9109 42.6177 3
    endloop
  endfacet
  facet normal 0 0 1
    outer loop
      vertex 8.52266 43.653 3
      vertex 14.463 28.103 3
      vertex 12.7419 43.2206 3
    endloop
  endfacet
  facet normal -0 0 1
    outer loop
      vertex -0.609 37.001 3
      vertex 14.463 28.103 3
      vertex 8.52266 43.653 3
    endloop
  endfacet
  facet normal 0 0 1
    outer loop
      vertex -0.609 37.001 3
      vertex 8.52266 43.653 3
      vertex 4.26975 43.9132 3
    endloop
  endfacet
  facet normal 0 0 1
    outer loop
      vertex -0.609 37.001 3
      vertex 4.26975 43.9132 3
      vertex 0 44 3
    endloop
  endfacet
  facet normal 0 0 1
    outer loop
      vertex 14.463 28.103 3
      vertex -0.609 37.001 3
      vertex 7.116 24.221 3
    endloop
  endfacet
  facet normal -0 0 1
    outer loop
      vertex -4.26975 43.9132 3
      vertex -0.609 37.001 3
      vertex 0 44 3
    endloop
  endfacet
  facet normal -0 0 1
    outer loop
      vertex -8.52266 43.653 3
      vertex -0.609 37.001 3
      vertex -4.26975 43.9132 3
    endloop
  endfacet
  facet normal 0 0 1
    outer loop
      vertex -15.722 28.107 3
      vertex -0.609 37.001 3
      vertex -8.52266 43.653 3
    endloop
  endfacet
  facet normal 0 0 1
    outer loop
      vertex -15.722 28.107 3
      vertex -8.52266 43.653 3
      vertex -12.7419 43.2206 3
    endloop
  endfacet
  facet normal 0 0 1
    outer loop
      vertex -0.609 37.001 3
      vertex -15.722 28.107 3
      vertex -8.375 24.225 3
    endloop
  endfacet
  facet normal 0 -0 1
    outer loop
      vertex -15.722 28.107 3
      vertex -12.7419 43.2206 3
      vertex -16.9109 42.6177 3
    endloop
  endfacet
  facet normal 0 0 1
    outer loop
      vertex 37.001 -1.824 3
      vertex 68 0 3
      vertex 67.8658 2.76278 3
    endloop
  endfacet
  facet normal 0 0 1
    outer loop
      vertex 37.001 -1.824 3
      vertex 67.8658 2.76278 3
      vertex 67.4638 5.51466 3
    endloop
  endfacet
  facet normal 0 0 1
    outer loop
      vertex 68 0 3
      vertex 37.001 -1.824 3
      vertex 67.8658 -2.76278 3
    endloop
  endfacet
  facet normal 0 0 1
    outer loop
      vertex 37.001 -1.824 3
      vertex 67.4638 5.51466 3
      vertex 66.7955 8.24478 3
    endloop
  endfacet
  facet normal 0 0 1
    outer loop
      vertex 67.8658 -2.76278 3
      vertex 37.001 -1.824 3
      vertex 67.4638 -5.51466 3
    endloop
  endfacet
  facet normal 0 0 1
    outer loop
      vertex 37.001 -1.824 3
      vertex 66.7955 8.24478 3
      vertex 65.8637 10.9424 3
    endloop
  endfacet
  facet normal 0 0 1
    outer loop
      vertex 67.4638 -5.51466 3
      vertex 37.001 -1.824 3
      vertex 66.7955 -8.24478 3
    endloop
  endfacet
  facet normal 0 0 1
    outer loop
      vertex 37.001 -1.824 3
      vertex 65.8637 10.9424 3
      vertex 64.6718 13.5967 3
    endloop
  endfacet
  facet normal 0 0 1
    outer loop
      vertex 66.7955 -8.24478 3
      vertex 37.001 -1.824 3
      vertex 65.8637 -10.9424 3
    endloop
  endfacet
  facet normal 0 0 1
    outer loop
      vertex 36.833 12.92 3
      vertex 64.6718 13.5967 3
      vertex 63.2248 16.1975 3
    endloop
  endfacet
  facet normal 0 0 1
    outer loop
      vertex 65.8637 -10.9424 3
      vertex 37.001 -1.824 3
      vertex 64.6718 -13.5967 3
    endloop
  endfacet
  facet normal 0 0 1
    outer loop
      vertex 36.833 12.92 3
      vertex 63.2248 16.1975 3
      vertex 61.5282 18.7343 3
    endloop
  endfacet
  facet normal 0 0 1
    outer loop
      vertex 64.6718 -13.5967 3
      vertex 37.001 -1.824 3
      vertex 63.2248 -16.1975 3
    endloop
  endfacet
  facet normal 0 0 1
    outer loop
      vertex 36.833 12.92 3
      vertex 61.5282 18.7343 3
      vertex 59.5889 21.1972 3
    endloop
  endfacet
  facet normal 0 0 1
    outer loop
      vertex 63.2248 -16.1975 3
      vertex 37.001 -1.824 3
      vertex 61.5282 -18.7343 3
    endloop
  endfacet
  facet normal 0 0 1
    outer loop
      vertex 36.833 12.92 3
      vertex 59.5889 21.1972 3
      vertex 57.4143 23.5764 3
    endloop
  endfacet
  facet normal 0 0 1
    outer loop
      vertex 61.5282 -18.7343 3
      vertex 37.001 -1.824 3
      vertex 59.5889 -21.1972 3
    endloop
  endfacet
  facet normal 0 0 1
    outer loop
      vertex 36.833 12.92 3
      vertex 57.4143 23.5764 3
      vertex 55.0132 25.8626 3
    endloop
  endfacet
  facet normal 0 0 1
    outer loop
      vertex 59.5889 -21.1972 3
      vertex 37.001 -1.824 3
      vertex 57.4143 -23.5764 3
    endloop
  endfacet
  facet normal 0 0 1
    outer loop
      vertex 36.833 12.92 3
      vertex 55.0132 25.8626 3
      vertex 52.3949 28.0467 3
    endloop
  endfacet
  facet normal 0 0 1
    outer loop
      vertex 57.4143 -23.5764 3
      vertex 37.001 -1.824 3
      vertex 55.0132 -25.8626 3
    endloop
  endfacet
  facet normal 0 0 1
    outer loop
      vertex 36.833 12.92 3
      vertex 52.3949 28.0467 3
      vertex 49.5699 30.1201 3
    endloop
  endfacet
  facet normal 0 0 1
    outer loop
      vertex 55.0132 -25.8626 3
      vertex 37.001 -1.824 3
      vertex 52.3949 -28.0467 3
    endloop
  endfacet
  facet normal 0 0 1
    outer loop
      vertex 36.833 12.92 3
      vertex 49.5699 30.1201 3
      vertex 46.5492 32.0746 3
    endloop
  endfacet
  facet normal 0 0 1
    outer loop
      vertex 52.3949 -28.0467 3
      vertex 37.001 -1.824 3
      vertex 49.5699 -30.1201 3
    endloop
  endfacet
  facet normal 0 0 1
    outer loop
      vertex 36.833 12.92 3
      vertex 46.5492 32.0746 3
      vertex 43.3448 33.9026 3
    endloop
  endfacet
  facet normal 0 0 1
    outer loop
      vertex 49.5699 -30.1201 3
      vertex 37.001 -1.824 3
      vertex 46.5492 -32.0746 3
    endloop
  endfacet
  facet normal 0 0 1
    outer loop
      vertex 36.833 12.92 3
      vertex 43.3448 33.9026 3
      vertex 39.9694 35.5967 3
    endloop
  endfacet
  facet normal 0 0 1
    outer loop
      vertex 46.5492 -32.0746 3
      vertex 37.001 -1.824 3
      vertex 43.3448 -33.9026 3
    endloop
  endfacet
  facet normal -0 0 1
    outer loop
      vertex 20.197 -25.601 3
      vertex 43.3448 -33.9026 3
      vertex 37.001 -1.824 3
    endloop
  endfacet
  facet normal 0 0 1
    outer loop
      vertex 64.6718 13.5967 3
      vertex 36.833 12.92 3
      vertex 37.001 -1.824 3
    endloop
  endfacet
  facet normal 0 0 1
    outer loop
      vertex 36.4362 37.1504 3
      vertex 36.833 12.92 3
      vertex 39.9694 35.5967 3
    endloop
  endfacet
  facet normal 0 0 1
    outer loop
      vertex 24.479 15.647 3
      vertex 36.4362 37.1504 3
      vertex 32.7593 38.5575 3
    endloop
  endfacet
  facet normal 0 0 1
    outer loop
      vertex 24.479 15.647 3
      vertex 32.7593 38.5575 3
      vertex 28.953 39.8124 3
    endloop
  endfacet
  facet normal 0 0 1
    outer loop
      vertex 36.4362 37.1504 3
      vertex 24.479 15.647 3
      vertex 36.833 12.92 3
    endloop
  endfacet
  facet normal 0 0 1
    outer loop
      vertex 14.463 28.103 3
      vertex 28.953 39.8124 3
      vertex 25.0325 40.9102 3
    endloop
  endfacet
  facet normal 0 0 1
    outer loop
      vertex 36.833 12.92 3
      vertex 24.479 15.647 3
      vertex 25.48 9.61 3
    endloop
  endfacet
  facet normal 0 0 1
    outer loop
      vertex 14.463 28.103 3
      vertex 25.0325 40.9102 3
      vertex 21.0132 41.8465 3
    endloop
  endfacet
  facet normal 0 0 1
    outer loop
      vertex 14.463 28.103 3
      vertex 21.0132 41.8465 3
      vertex 16.9109 42.6177 3
    endloop
  endfacet
  facet normal 0 0 1
    outer loop
      vertex 28.953 39.8124 3
      vertex 14.463 28.103 3
      vertex 24.479 15.647 3
    endloop
  endfacet
  facet normal 0 0 1
    outer loop
      vertex 24.479 15.647 3
      vertex 14.463 28.103 3
      vertex 11.958 3.181 3
    endloop
  endfacet
  facet normal 0 0 1
    outer loop
      vertex 43.3448 -33.9026 3
      vertex 20.197 -25.601 3
      vertex 39.9694 -35.5967 3
    endloop
  endfacet
  facet normal 0 0 1
    outer loop
      vertex 39.9694 -35.5967 3
      vertex 20.197 -25.601 3
      vertex 36.4362 -37.1504 3
    endloop
  endfacet
  facet normal 0 0 1
    outer loop
      vertex 36.4362 -37.1504 3
      vertex 20.197 -25.601 3
      vertex 32.7593 -38.5575 3
    endloop
  endfacet
  facet normal 0 0 1
    outer loop
      vertex 32.7593 -38.5575 3
      vertex 20.197 -25.601 3
      vertex 28.953 -39.8124 3
    endloop
  endfacet
  facet normal 0 0 1
    outer loop
      vertex 28.953 -39.8124 3
      vertex 20.197 -25.601 3
      vertex 25.0325 -40.9102 3
    endloop
  endfacet
  facet normal 0 0 1
    outer loop
      vertex 25.0325 -40.9102 3
      vertex 20.197 -25.601 3
      vertex 21.0132 -41.8465 3
    endloop
  endfacet
  facet normal 0 -0 1
    outer loop
      vertex 20.197 -25.601 3
      vertex 37.001 -1.824 3
      vertex 18.469 -18.733 3
    endloop
  endfacet
  facet normal 0 0 1
    outer loop
      vertex 37.001 -1.824 3
      vertex 36.833 12.92 3
      vertex 32.159 0.969999 3
    endloop
  endfacet
  facet normal 0 0 1
    outer loop
      vertex 20.197 -25.601 3
      vertex 16.9109 -42.6177 3
      vertex 21.0132 -41.8465 3
    endloop
  endfacet
  facet normal 0 0 1
    outer loop
      vertex 20.197 -25.601 3
      vertex 12.7419 -43.2206 3
      vertex 16.9109 -42.6177 3
    endloop
  endfacet
  facet normal -0 0 1
    outer loop
      vertex 1.449 -38.153 3
      vertex 12.7419 -43.2206 3
      vertex 20.197 -25.601 3
    endloop
  endfacet
  facet normal 0 0 1
    outer loop
      vertex 12.7419 -43.2206 3
      vertex 1.449 -38.153 3
      vertex 8.52266 -43.653 3
    endloop
  endfacet
  facet normal 0 0 1
    outer loop
      vertex 8.52266 -43.653 3
      vertex 1.449 -38.153 3
      vertex 4.26975 -43.9132 3
    endloop
  endfacet
  facet normal 0 -0 1
    outer loop
      vertex 1.449 -38.153 3
      vertex 20.197 -25.601 3
      vertex 1.056 -21.595 3
    endloop
  endfacet
  facet normal 0 0 1
    outer loop
      vertex 1.449 -38.153 3
      vertex 0 -44 3
      vertex 4.26975 -43.9132 3
    endloop
  endfacet
  facet normal 0 0 1
    outer loop
      vertex -2.708 -38.148 3
      vertex 0 -44 3
      vertex 1.449 -38.153 3
    endloop
  endfacet
  facet normal 0 0 1
    outer loop
      vertex 0 -44 3
      vertex -2.708 -38.148 3
      vertex -4.26975 -43.9132 3
    endloop
  endfacet
  facet normal -0 0 1
    outer loop
      vertex -21.0132 41.8465 3
      vertex -15.722 28.107 3
      vertex -16.9109 42.6177 3
    endloop
  endfacet
  facet normal -0 0 1
    outer loop
      vertex -25.0325 40.9102 3
      vertex -15.722 28.107 3
      vertex -21.0132 41.8465 3
    endloop
  endfacet
  facet normal -0 0 1
    outer loop
      vertex -28.953 39.8124 3
      vertex -15.722 28.107 3
      vertex -25.0325 40.9102 3
    endloop
  endfacet
  facet normal 0 0 1
    outer loop
      vertex -15.722 28.107 3
      vertex -25.738 15.653 3
      vertex -13.217 3.187 3
    endloop
  endfacet
  facet normal -0 0 1
    outer loop
      vertex -32.7593 38.5575 3
      vertex -15.722 28.107 3
      vertex -28.953 39.8124 3
    endloop
  endfacet
  facet normal 0 0 1
    outer loop
      vertex -15.722 28.107 3
      vertex -32.7593 38.5575 3
      vertex -25.738 15.653 3
    endloop
  endfacet
  facet normal -0 0 1
    outer loop
      vertex -36.4362 37.1504 3
      vertex -25.738 15.653 3
      vertex -32.7593 38.5575 3
    endloop
  endfacet
  facet normal -0 0 1
    outer loop
      vertex -39.9694 35.5967 3
      vertex -25.738 15.653 3
      vertex -36.4362 37.1504 3
    endloop
  endfacet
  facet normal 0 0 1
    outer loop
      vertex -25.738 15.653 3
      vertex -38.092 12.926 3
      vertex -26.739 9.616 3
    endloop
  endfacet
  facet normal -0 0 1
    outer loop
      vertex -43.3448 33.9026 3
      vertex -38.092 12.926 3
      vertex -39.9694 35.5967 3
    endloop
  endfacet
  facet normal 0 0 1
    outer loop
      vertex -25.738 15.653 3
      vertex -39.9694 35.5967 3
      vertex -38.092 12.926 3
    endloop
  endfacet
  facet normal 0 0 1
    outer loop
      vertex -21.456 -25.595 3
      vertex -28.953 -39.8124 3
      vertex -25.0325 -40.9102 3
    endloop
  endfacet
  facet normal 0 0 1
    outer loop
      vertex -38.259 -1.818 3
      vertex -21.456 -25.595 3
      vertex -19.728 -18.728 3
    endloop
  endfacet
  facet normal 0 0 1
    outer loop
      vertex -21.456 -25.595 3
      vertex -32.7593 -38.5575 3
      vertex -28.953 -39.8124 3
    endloop
  endfacet
  facet normal 0 0 1
    outer loop
      vertex -21.456 -25.595 3
      vertex -36.4362 -37.1504 3
      vertex -32.7593 -38.5575 3
    endloop
  endfacet
  facet normal 0 0 1
    outer loop
      vertex -21.456 -25.595 3
      vertex -38.259 -1.818 3
      vertex -43.3448 -33.9026 3
    endloop
  endfacet
  facet normal 0 0 1
    outer loop
      vertex -21.456 -25.595 3
      vertex -39.9694 -35.5967 3
      vertex -36.4362 -37.1504 3
    endloop
  endfacet
  facet normal -0 0 1
    outer loop
      vertex -46.5492 32.0746 3
      vertex -38.092 12.926 3
      vertex -43.3448 33.9026 3
    endloop
  endfacet
  facet normal -0 0 1
    outer loop
      vertex -49.5699 30.1201 3
      vertex -38.092 12.926 3
      vertex -46.5492 32.0746 3
    endloop
  endfacet
  facet normal 0 0 1
    outer loop
      vertex -21.456 -25.595 3
      vertex -43.3448 -33.9026 3
      vertex -39.9694 -35.5967 3
    endloop
  endfacet
  facet normal -0 0 1
    outer loop
      vertex -52.3949 28.0467 3
      vertex -38.092 12.926 3
      vertex -49.5699 30.1201 3
    endloop
  endfacet
  facet normal 0 0 1
    outer loop
      vertex -38.259 -1.818 3
      vertex -46.5492 -32.0746 3
      vertex -43.3448 -33.9026 3
    endloop
  endfacet
  facet normal -0 0 1
    outer loop
      vertex -55.0132 25.8626 3
      vertex -38.092 12.926 3
      vertex -52.3949 28.0467 3
    endloop
  endfacet
  facet normal 0 0 1
    outer loop
      vertex -38.259 -1.818 3
      vertex -49.5699 -30.1201 3
      vertex -46.5492 -32.0746 3
    endloop
  endfacet
  facet normal -0 0 1
    outer loop
      vertex -57.4143 23.5764 3
      vertex -38.092 12.926 3
      vertex -55.0132 25.8626 3
    endloop
  endfacet
  facet normal 0 0 1
    outer loop
      vertex -38.259 -1.818 3
      vertex -52.3949 -28.0467 3
      vertex -49.5699 -30.1201 3
    endloop
  endfacet
  facet normal -0 0 1
    outer loop
      vertex -59.5889 21.1972 3
      vertex -38.092 12.926 3
      vertex -57.4143 23.5764 3
    endloop
  endfacet
  facet normal 0 0 1
    outer loop
      vertex -38.259 -1.818 3
      vertex -55.0132 -25.8626 3
      vertex -52.3949 -28.0467 3
    endloop
  endfacet
  facet normal -0 0 1
    outer loop
      vertex -61.5282 18.7343 3
      vertex -38.092 12.926 3
      vertex -59.5889 21.1972 3
    endloop
  endfacet
  facet normal 0 0 1
    outer loop
      vertex -38.259 -1.818 3
      vertex -57.4143 -23.5764 3
      vertex -55.0132 -25.8626 3
    endloop
  endfacet
  facet normal -0 0 1
    outer loop
      vertex -63.2248 16.1975 3
      vertex -38.092 12.926 3
      vertex -61.5282 18.7343 3
    endloop
  endfacet
  facet normal 0 0 1
    outer loop
      vertex -38.259 -1.818 3
      vertex -59.5889 -21.1972 3
      vertex -57.4143 -23.5764 3
    endloop
  endfacet
  facet normal -0 0 1
    outer loop
      vertex -64.6718 13.5967 3
      vertex -38.092 12.926 3
      vertex -63.2248 16.1975 3
    endloop
  endfacet
  facet normal 0 0 1
    outer loop
      vertex -38.259 -1.818 3
      vertex -61.5282 -18.7343 3
      vertex -59.5889 -21.1972 3
    endloop
  endfacet
  facet normal 0 0 1
    outer loop
      vertex -65.8637 10.9424 3
      vertex -38.092 12.926 3
      vertex -64.6718 13.5967 3
    endloop
  endfacet
  facet normal 0 0 1
    outer loop
      vertex -38.259 -1.818 3
      vertex -63.2248 -16.1975 3
      vertex -61.5282 -18.7343 3
    endloop
  endfacet
  facet normal 0 0 1
    outer loop
      vertex -38.092 12.926 3
      vertex -65.8637 10.9424 3
      vertex -38.259 -1.818 3
    endloop
  endfacet
  facet normal 0 0 1
    outer loop
      vertex -38.259 -1.818 3
      vertex -64.6718 -13.5967 3
      vertex -63.2248 -16.1975 3
    endloop
  endfacet
  facet normal -0 0 1
    outer loop
      vertex -66.7955 8.24478 3
      vertex -38.259 -1.818 3
      vertex -65.8637 10.9424 3
    endloop
  endfacet
  facet normal 0 0 1
    outer loop
      vertex -38.259 -1.818 3
      vertex -65.8637 -10.9424 3
      vertex -64.6718 -13.5967 3
    endloop
  endfacet
  facet normal -0 0 1
    outer loop
      vertex -67.4638 5.51466 3
      vertex -38.259 -1.818 3
      vertex -66.7955 8.24478 3
    endloop
  endfacet
  facet normal 0 0 1
    outer loop
      vertex -38.259 -1.818 3
      vertex -66.7955 -8.24478 3
      vertex -65.8637 -10.9424 3
    endloop
  endfacet
  facet normal -0 0 1
    outer loop
      vertex -67.8658 2.76278 3
      vertex -38.259 -1.818 3
      vertex -67.4638 5.51466 3
    endloop
  endfacet
  facet normal 0 0 1
    outer loop
      vertex -38.259 -1.818 3
      vertex -67.4638 -5.51466 3
      vertex -66.7955 -8.24478 3
    endloop
  endfacet
  facet normal -0 0 1
    outer loop
      vertex -68 0 3
      vertex -38.259 -1.818 3
      vertex -67.8658 2.76278 3
    endloop
  endfacet
  facet normal 0 0 1
    outer loop
      vertex -38.259 -1.818 3
      vertex -67.8658 -2.76278 3
      vertex -67.4638 -5.51466 3
    endloop
  endfacet
  facet normal 0 0 1
    outer loop
      vertex -38.259 -1.818 3
      vertex -68 0 3
      vertex -67.8658 -2.76278 3
    endloop
  endfacet
  facet normal 0 0 1
    outer loop
      vertex -33.418 0.976 3
      vertex -38.092 12.926 3
      vertex -38.259 -1.818 3
    endloop
  endfacet
  facet normal -0.989498 0.144548 0
    outer loop
      vertex -67.8658 2.76278 0
      vertex -67.4638 5.51466 3
      vertex -67.4638 5.51466 0
    endloop
  endfacet
  facet normal -0.989498 0.144548 0
    outer loop
      vertex -67.4638 5.51466 3
      vertex -67.8658 2.76278 0
      vertex -67.8658 2.76278 3
    endloop
  endfacet
  facet normal -0.971322 -0.237768 0
    outer loop
      vertex -66.7955 -8.24478 0
      vertex -67.4638 -5.51466 3
      vertex -67.4638 -5.51466 0
    endloop
  endfacet
  facet normal -0.971322 -0.237768 0
    outer loop
      vertex -67.4638 -5.51466 3
      vertex -66.7955 -8.24478 0
      vertex -66.7955 -8.24478 3
    endloop
  endfacet
  facet normal -0.0203249 -0.999793 0
    outer loop
      vertex -4.26975 -43.9132 0
      vertex 0 -44 3
      vertex -4.26975 -43.9132 3
    endloop
  endfacet
  facet normal -0.0203249 -0.999793 -0
    outer loop
      vertex 0 -44 3
      vertex -4.26975 -43.9132 0
      vertex 0 -44 0
    endloop
  endfacet
  facet normal -0.402542 -0.915402 0
    outer loop
      vertex -39.9694 -35.5967 0
      vertex -36.4362 -37.1504 3
      vertex -39.9694 -35.5967 3
    endloop
  endfacet
  facet normal -0.402542 -0.915402 -0
    outer loop
      vertex -36.4362 -37.1504 3
      vertex -39.9694 -35.5967 0
      vertex -36.4362 -37.1504 0
    endloop
  endfacet
  facet normal 0.101949 0.99479 -0
    outer loop
      vertex 12.7419 43.2206 0
      vertex 8.52266 43.653 3
      vertex 12.7419 43.2206 3
    endloop
  endfacet
  facet normal 0.101949 0.99479 0
    outer loop
      vertex 8.52266 43.653 3
      vertex 12.7419 43.2206 0
      vertex 8.52266 43.653 0
    endloop
  endfacet
  facet normal 0.357409 -0.933948 0
    outer loop
      vertex 32.7593 -38.5575 0
      vertex 36.4362 -37.1504 3
      vertex 32.7593 -38.5575 3
    endloop
  endfacet
  facet normal 0.357409 -0.933948 0
    outer loop
      vertex 36.4362 -37.1504 3
      vertex 32.7593 -38.5575 0
      vertex 36.4362 -37.1504 0
    endloop
  endfacet
  facet normal 0.269644 0.96296 -0
    outer loop
      vertex 28.953 39.8124 0
      vertex 25.0325 40.9102 3
      vertex 28.953 39.8124 3
    endloop
  endfacet
  facet normal 0.269644 0.96296 0
    outer loop
      vertex 25.0325 40.9102 3
      vertex 28.953 39.8124 0
      vertex 25.0325 40.9102 0
    endloop
  endfacet
  facet normal -0.269644 -0.96296 0
    outer loop
      vertex -28.953 -39.8124 0
      vertex -25.0325 -40.9102 3
      vertex -28.953 -39.8124 3
    endloop
  endfacet
  facet normal -0.269644 -0.96296 -0
    outer loop
      vertex -25.0325 -40.9102 3
      vertex -28.953 -39.8124 0
      vertex -25.0325 -40.9102 0
    endloop
  endfacet
  facet normal -0.226876 0.973924 0
    outer loop
      vertex -21.0132 41.8465 0
      vertex -25.0325 40.9102 3
      vertex -21.0132 41.8465 3
    endloop
  endfacet
  facet normal -0.226876 0.973924 0
    outer loop
      vertex -25.0325 40.9102 3
      vertex -21.0132 41.8465 0
      vertex -25.0325 40.9102 0
    endloop
  endfacet
  facet normal 0.0203249 -0.999793 0
    outer loop
      vertex 0 -44 0
      vertex 4.26975 -43.9132 3
      vertex 0 -44 3
    endloop
  endfacet
  facet normal 0.0203249 -0.999793 0
    outer loop
      vertex 4.26975 -43.9132 3
      vertex 0 -44 0
      vertex 4.26975 -43.9132 0
    endloop
  endfacet
  facet normal 0.0203249 0.999793 -0
    outer loop
      vertex 4.26975 43.9132 0
      vertex 0 44 3
      vertex 4.26975 43.9132 3
    endloop
  endfacet
  facet normal 0.0203249 0.999793 0
    outer loop
      vertex 0 44 3
      vertex 4.26975 43.9132 0
      vertex 0 44 0
    endloop
  endfacet
  facet normal 0.448569 0.893748 -0
    outer loop
      vertex 43.3448 33.9026 0
      vertex 39.9694 35.5967 3
      vertex 43.3448 33.9026 3
    endloop
  endfacet
  facet normal 0.448569 0.893748 0
    outer loop
      vertex 39.9694 35.5967 3
      vertex 43.3448 33.9026 0
      vertex 39.9694 35.5967 0
    endloop
  endfacet
  facet normal 0.591685 -0.806169 0
    outer loop
      vertex 49.5699 -30.1201 0
      vertex 52.3949 -28.0467 3
      vertex 49.5699 -30.1201 3
    endloop
  endfacet
  facet normal 0.591685 -0.806169 0
    outer loop
      vertex 52.3949 -28.0467 3
      vertex 49.5699 -30.1201 0
      vertex 52.3949 -28.0467 0
    endloop
  endfacet
  facet normal 0.738132 -0.674656 0
    outer loop
      vertex 57.4143 -23.5764 3
      vertex 59.5889 -21.1972 0
      vertex 59.5889 -21.1972 3
    endloop
  endfacet
  facet normal 0.738132 -0.674656 0
    outer loop
      vertex 59.5889 -21.1972 0
      vertex 57.4143 -23.5764 3
      vertex 57.4143 -23.5764 0
    endloop
  endfacet
  facet normal -0.448569 0.893748 0
    outer loop
      vertex -39.9694 35.5967 0
      vertex -43.3448 33.9026 3
      vertex -39.9694 35.5967 3
    endloop
  endfacet
  facet normal -0.448569 0.893748 0
    outer loop
      vertex -43.3448 33.9026 3
      vertex -39.9694 35.5967 0
      vertex -43.3448 33.9026 0
    endloop
  endfacet
  facet normal -0.0610675 0.998134 0
    outer loop
      vertex -4.26975 43.9132 0
      vertex -8.52266 43.653 3
      vertex -4.26975 43.9132 3
    endloop
  endfacet
  facet normal -0.0610675 0.998134 0
    outer loop
      vertex -8.52266 43.653 3
      vertex -4.26975 43.9132 0
      vertex -8.52266 43.653 0
    endloop
  endfacet
  facet normal -0.269644 0.96296 0
    outer loop
      vertex -25.0325 40.9102 0
      vertex -28.953 39.8124 3
      vertex -25.0325 40.9102 3
    endloop
  endfacet
  facet normal -0.269644 0.96296 0
    outer loop
      vertex -28.953 39.8124 3
      vertex -25.0325 40.9102 0
      vertex -28.953 39.8124 0
    endloop
  endfacet
  facet normal 0.226876 0.973924 -0
    outer loop
      vertex 25.0325 40.9102 0
      vertex 21.0132 41.8465 3
      vertex 25.0325 40.9102 3
    endloop
  endfacet
  facet normal 0.226876 0.973924 0
    outer loop
      vertex 21.0132 41.8465 3
      vertex 25.0325 40.9102 0
      vertex 21.0132 41.8465 0
    endloop
  endfacet
  facet normal 0.738132 0.674656 0
    outer loop
      vertex 59.5889 21.1972 3
      vertex 57.4143 23.5764 0
      vertex 57.4143 23.5764 3
    endloop
  endfacet
  facet normal 0.738132 0.674656 0
    outer loop
      vertex 57.4143 23.5764 0
      vertex 59.5889 21.1972 3
      vertex 59.5889 21.1972 0
    endloop
  endfacet
  facet normal -0.0610675 -0.998134 0
    outer loop
      vertex -8.52266 -43.653 0
      vertex -4.26975 -43.9132 3
      vertex -8.52266 -43.653 3
    endloop
  endfacet
  facet normal -0.0610675 -0.998134 -0
    outer loop
      vertex -4.26975 -43.9132 3
      vertex -8.52266 -43.653 0
      vertex -4.26975 -43.9132 0
    endloop
  endfacet
  facet normal 0.640562 0.767906 -0
    outer loop
      vertex 55.0132 25.8626 0
      vertex 52.3949 28.0467 3
      vertex 55.0132 25.8626 3
    endloop
  endfacet
  facet normal 0.640562 0.767906 0
    outer loop
      vertex 52.3949 28.0467 3
      vertex 55.0132 25.8626 0
      vertex 52.3949 28.0467 0
    endloop
  endfacet
  facet normal -0.591685 -0.806169 0
    outer loop
      vertex -52.3949 -28.0467 0
      vertex -49.5699 -30.1201 3
      vertex -52.3949 -28.0467 3
    endloop
  endfacet
  facet normal -0.591685 -0.806169 -0
    outer loop
      vertex -49.5699 -30.1201 3
      vertex -52.3949 -28.0467 0
      vertex -49.5699 -30.1201 0
    endloop
  endfacet
  facet normal -0.0203249 0.999793 0
    outer loop
      vertex 0 44 0
      vertex -4.26975 43.9132 3
      vertex 0 44 3
    endloop
  endfacet
  facet normal -0.0203249 0.999793 0
    outer loop
      vertex -4.26975 43.9132 3
      vertex 0 44 0
      vertex -4.26975 43.9132 0
    endloop
  endfacet
  facet normal -0.912247 -0.40964 0
    outer loop
      vertex -64.6718 -13.5967 0
      vertex -65.8637 -10.9424 3
      vertex -65.8637 -10.9424 0
    endloop
  endfacet
  facet normal -0.912247 -0.40964 0
    outer loop
      vertex -65.8637 -10.9424 3
      vertex -64.6718 -13.5967 0
      vertex -64.6718 -13.5967 3
    endloop
  endfacet
  facet normal 0.945202 0.326487 0
    outer loop
      vertex 66.7955 8.24478 3
      vertex 65.8637 10.9424 0
      vertex 65.8637 10.9424 3
    endloop
  endfacet
  facet normal 0.945202 0.326487 0
    outer loop
      vertex 65.8637 10.9424 0
      vertex 66.7955 8.24478 3
      vertex 66.7955 8.24478 0
    endloop
  endfacet
  facet normal 0.971322 0.237768 0
    outer loop
      vertex 67.4638 5.51466 3
      vertex 66.7955 8.24478 0
      vertex 66.7955 8.24478 3
    endloop
  endfacet
  facet normal 0.971322 0.237768 0
    outer loop
      vertex 66.7955 8.24478 0
      vertex 67.4638 5.51466 3
      vertex 67.4638 5.51466 0
    endloop
  endfacet
  facet normal 0 0 -1
    outer loop
      vertex 67.8658 -2.76278 0
      vertex 67.8658 2.76278 0
      vertex 68 0 0
    endloop
  endfacet
  facet normal 0 0 -1
    outer loop
      vertex 67.4638 -5.51466 0
      vertex 67.8658 2.76278 0
      vertex 67.8658 -2.76278 0
    endloop
  endfacet
  facet normal 0 0 -1
    outer loop
      vertex 67.4638 -5.51466 0
      vertex 67.4638 5.51466 0
      vertex 67.8658 2.76278 0
    endloop
  endfacet
  facet normal 0 0 -1
    outer loop
      vertex 66.7955 -8.24478 0
      vertex 67.4638 5.51466 0
      vertex 67.4638 -5.51466 0
    endloop
  endfacet
  facet normal 0 0 -1
    outer loop
      vertex 66.7955 -8.24478 0
      vertex 66.7955 8.24478 0
      vertex 67.4638 5.51466 0
    endloop
  endfacet
  facet normal 0 0 -1
    outer loop
      vertex 65.8637 -10.9424 0
      vertex 66.7955 8.24478 0
      vertex 66.7955 -8.24478 0
    endloop
  endfacet
  facet normal 0 0 -1
    outer loop
      vertex 65.8637 -10.9424 0
      vertex 65.8637 10.9424 0
      vertex 66.7955 8.24478 0
    endloop
  endfacet
  facet normal 0 0 -1
    outer loop
      vertex 64.6718 -13.5967 0
      vertex 65.8637 10.9424 0
      vertex 65.8637 -10.9424 0
    endloop
  endfacet
  facet normal 0 0 -1
    outer loop
      vertex 64.6718 -13.5967 0
      vertex 64.6718 13.5967 0
      vertex 65.8637 10.9424 0
    endloop
  endfacet
  facet normal 0 0 -1
    outer loop
      vertex 63.2248 -16.1975 0
      vertex 64.6718 13.5967 0
      vertex 64.6718 -13.5967 0
    endloop
  endfacet
  facet normal 0 0 -1
    outer loop
      vertex 63.2248 -16.1975 0
      vertex 63.2248 16.1975 0
      vertex 64.6718 13.5967 0
    endloop
  endfacet
  facet normal 0 0 -1
    outer loop
      vertex 61.5282 -18.7343 0
      vertex 63.2248 16.1975 0
      vertex 63.2248 -16.1975 0
    endloop
  endfacet
  facet normal 0 0 -1
    outer loop
      vertex 61.5282 -18.7343 0
      vertex 61.5282 18.7343 0
      vertex 63.2248 16.1975 0
    endloop
  endfacet
  facet normal 0 0 -1
    outer loop
      vertex 59.5889 -21.1972 0
      vertex 61.5282 18.7343 0
      vertex 61.5282 -18.7343 0
    endloop
  endfacet
  facet normal 0 0 -1
    outer loop
      vertex 59.5889 -21.1972 0
      vertex 59.5889 21.1972 0
      vertex 61.5282 18.7343 0
    endloop
  endfacet
  facet normal 0 0 -1
    outer loop
      vertex 57.4143 -23.5764 0
      vertex 59.5889 21.1972 0
      vertex 59.5889 -21.1972 0
    endloop
  endfacet
  facet normal 0 0 -1
    outer loop
      vertex 57.4143 -23.5764 0
      vertex 57.4143 23.5764 0
      vertex 59.5889 21.1972 0
    endloop
  endfacet
  facet normal 0 0 -1
    outer loop
      vertex 55.0132 -25.8626 0
      vertex 57.4143 23.5764 0
      vertex 57.4143 -23.5764 0
    endloop
  endfacet
  facet normal 0 0 -1
    outer loop
      vertex 55.0132 -25.8626 0
      vertex 55.0132 25.8626 0
      vertex 57.4143 23.5764 0
    endloop
  endfacet
  facet normal 0 0 -1
    outer loop
      vertex 52.3949 -28.0467 0
      vertex 55.0132 25.8626 0
      vertex 55.0132 -25.8626 0
    endloop
  endfacet
  facet normal 0 0 -1
    outer loop
      vertex 52.3949 -28.0467 0
      vertex 52.3949 28.0467 0
      vertex 55.0132 25.8626 0
    endloop
  endfacet
  facet normal 0 0 -1
    outer loop
      vertex 49.5699 -30.1201 0
      vertex 52.3949 28.0467 0
      vertex 52.3949 -28.0467 0
    endloop
  endfacet
  facet normal 0 0 -1
    outer loop
      vertex 49.5699 -30.1201 0
      vertex 49.5699 30.1201 0
      vertex 52.3949 28.0467 0
    endloop
  endfacet
  facet normal 0 0 -1
    outer loop
      vertex 46.5492 -32.0746 0
      vertex 49.5699 30.1201 0
      vertex 49.5699 -30.1201 0
    endloop
  endfacet
  facet normal 0 0 -1
    outer loop
      vertex 46.5492 -32.0746 0
      vertex 46.5492 32.0746 0
      vertex 49.5699 30.1201 0
    endloop
  endfacet
  facet normal 0 0 -1
    outer loop
      vertex 43.3448 -33.9026 0
      vertex 46.5492 32.0746 0
      vertex 46.5492 -32.0746 0
    endloop
  endfacet
  facet normal 0 0 -1
    outer loop
      vertex 43.3448 -33.9026 0
      vertex 43.3448 33.9026 0
      vertex 46.5492 32.0746 0
    endloop
  endfacet
  facet normal 0 0 -1
    outer loop
      vertex 39.9694 -35.5967 0
      vertex 43.3448 33.9026 0
      vertex 43.3448 -33.9026 0
    endloop
  endfacet
  facet normal 0 0 -1
    outer loop
      vertex 39.9694 -35.5967 0
      vertex 39.9694 35.5967 0
      vertex 43.3448 33.9026 0
    endloop
  endfacet
  facet normal 0 0 -1
    outer loop
      vertex 36.4362 -37.1504 0
      vertex 39.9694 35.5967 0
      vertex 39.9694 -35.5967 0
    endloop
  endfacet
  facet normal 0 0 -1
    outer loop
      vertex 36.4362 -37.1504 0
      vertex 36.4362 37.1504 0
      vertex 39.9694 35.5967 0
    endloop
  endfacet
  facet normal 0 0 -1
    outer loop
      vertex 32.7593 -38.5575 0
      vertex 36.4362 37.1504 0
      vertex 36.4362 -37.1504 0
    endloop
  endfacet
  facet normal 0 0 -1
    outer loop
      vertex 32.7593 -38.5575 0
      vertex 32.7593 38.5575 0
      vertex 36.4362 37.1504 0
    endloop
  endfacet
  facet normal 0 0 -1
    outer loop
      vertex 28.953 -39.8124 0
      vertex 32.7593 38.5575 0
      vertex 32.7593 -38.5575 0
    endloop
  endfacet
  facet normal 0 0 -1
    outer loop
      vertex 28.953 -39.8124 0
      vertex 28.953 39.8124 0
      vertex 32.7593 38.5575 0
    endloop
  endfacet
  facet normal 0 0 -1
    outer loop
      vertex 25.0325 -40.9102 0
      vertex 28.953 39.8124 0
      vertex 28.953 -39.8124 0
    endloop
  endfacet
  facet normal 0 0 -1
    outer loop
      vertex 25.0325 -40.9102 0
      vertex 25.0325 40.9102 0
      vertex 28.953 39.8124 0
    endloop
  endfacet
  facet normal 0 0 -1
    outer loop
      vertex 21.0132 -41.8465 0
      vertex 25.0325 40.9102 0
      vertex 25.0325 -40.9102 0
    endloop
  endfacet
  facet normal 0 0 -1
    outer loop
      vertex 21.0132 -41.8465 0
      vertex 21.0132 41.8465 0
      vertex 25.0325 40.9102 0
    endloop
  endfacet
  facet normal 0 0 -1
    outer loop
      vertex 16.9109 -42.6177 0
      vertex 21.0132 41.8465 0
      vertex 21.0132 -41.8465 0
    endloop
  endfacet
  facet normal 0 0 -1
    outer loop
      vertex 16.9109 -42.6177 0
      vertex 16.9109 42.6177 0
      vertex 21.0132 41.8465 0
    endloop
  endfacet
  facet normal 0 0 -1
    outer loop
      vertex 12.7419 -43.2206 0
      vertex 16.9109 42.6177 0
      vertex 16.9109 -42.6177 0
    endloop
  endfacet
  facet normal 0 0 -1
    outer loop
      vertex 12.7419 -43.2206 0
      vertex 12.7419 43.2206 0
      vertex 16.9109 42.6177 0
    endloop
  endfacet
  facet normal 0 0 -1
    outer loop
      vertex 8.52266 -43.653 0
      vertex 12.7419 43.2206 0
      vertex 12.7419 -43.2206 0
    endloop
  endfacet
  facet normal 0 0 -1
    outer loop
      vertex 8.52266 -43.653 0
      vertex 8.52266 43.653 0
      vertex 12.7419 43.2206 0
    endloop
  endfacet
  facet normal 0 0 -1
    outer loop
      vertex 4.26975 -43.9132 0
      vertex 8.52266 43.653 0
      vertex 8.52266 -43.653 0
    endloop
  endfacet
  facet normal 0 0 -1
    outer loop
      vertex 4.26975 -43.9132 0
      vertex 4.26975 43.9132 0
      vertex 8.52266 43.653 0
    endloop
  endfacet
  facet normal 0 0 -1
    outer loop
      vertex 0 -44 0
      vertex 4.26975 43.9132 0
      vertex 4.26975 -43.9132 0
    endloop
  endfacet
  facet normal 0 0 -1
    outer loop
      vertex 0 -44 0
      vertex 0 44 0
      vertex 4.26975 43.9132 0
    endloop
  endfacet
  facet normal 0 0 -1
    outer loop
      vertex -4.26975 -43.9132 0
      vertex 0 44 0
      vertex 0 -44 0
    endloop
  endfacet
  facet normal 0 0 -1
    outer loop
      vertex -4.26975 -43.9132 0
      vertex -4.26975 43.9132 0
      vertex 0 44 0
    endloop
  endfacet
  facet normal 0 0 -1
    outer loop
      vertex -8.52266 -43.653 0
      vertex -4.26975 43.9132 0
      vertex -4.26975 -43.9132 0
    endloop
  endfacet
  facet normal 0 0 -1
    outer loop
      vertex -8.52266 -43.653 0
      vertex -8.52266 43.653 0
      vertex -4.26975 43.9132 0
    endloop
  endfacet
  facet normal 0 0 -1
    outer loop
      vertex -12.7419 -43.2206 0
      vertex -8.52266 43.653 0
      vertex -8.52266 -43.653 0
    endloop
  endfacet
  facet normal 0 0 -1
    outer loop
      vertex -12.7419 -43.2206 0
      vertex -12.7419 43.2206 0
      vertex -8.52266 43.653 0
    endloop
  endfacet
  facet normal 0 0 -1
    outer loop
      vertex -16.9109 -42.6177 0
      vertex -12.7419 43.2206 0
      vertex -12.7419 -43.2206 0
    endloop
  endfacet
  facet normal 0 0 -1
    outer loop
      vertex -16.9109 -42.6177 0
      vertex -16.9109 42.6177 0
      vertex -12.7419 43.2206 0
    endloop
  endfacet
  facet normal 0 0 -1
    outer loop
      vertex -21.0132 -41.8465 0
      vertex -16.9109 42.6177 0
      vertex -16.9109 -42.6177 0
    endloop
  endfacet
  facet normal 0 0 -1
    outer loop
      vertex -21.0132 -41.8465 0
      vertex -21.0132 41.8465 0
      vertex -16.9109 42.6177 0
    endloop
  endfacet
  facet normal 0 0 -1
    outer loop
      vertex -25.0325 -40.9102 0
      vertex -21.0132 41.8465 0
      vertex -21.0132 -41.8465 0
    endloop
  endfacet
  facet normal 0 0 -1
    outer loop
      vertex -25.0325 -40.9102 0
      vertex -25.0325 40.9102 0
      vertex -21.0132 41.8465 0
    endloop
  endfacet
  facet normal 0 0 -1
    outer loop
      vertex -28.953 -39.8124 0
      vertex -25.0325 40.9102 0
      vertex -25.0325 -40.9102 0
    endloop
  endfacet
  facet normal 0 0 -1
    outer loop
      vertex -28.953 -39.8124 0
      vertex -28.953 39.8124 0
      vertex -25.0325 40.9102 0
    endloop
  endfacet
  facet normal 0 0 -1
    outer loop
      vertex -32.7593 -38.5575 0
      vertex -28.953 39.8124 0
      vertex -28.953 -39.8124 0
    endloop
  endfacet
  facet normal 0 0 -1
    outer loop
      vertex -32.7593 -38.5575 0
      vertex -32.7593 38.5575 0
      vertex -28.953 39.8124 0
    endloop
  endfacet
  facet normal 0 0 -1
    outer loop
      vertex -36.4362 -37.1504 0
      vertex -32.7593 38.5575 0
      vertex -32.7593 -38.5575 0
    endloop
  endfacet
  facet normal 0 0 -1
    outer loop
      vertex -36.4362 -37.1504 0
      vertex -36.4362 37.1504 0
      vertex -32.7593 38.5575 0
    endloop
  endfacet
  facet normal 0 0 -1
    outer loop
      vertex -39.9694 -35.5967 0
      vertex -36.4362 37.1504 0
      vertex -36.4362 -37.1504 0
    endloop
  endfacet
  facet normal 0 0 -1
    outer loop
      vertex -39.9694 -35.5967 0
      vertex -39.9694 35.5967 0
      vertex -36.4362 37.1504 0
    endloop
  endfacet
  facet normal 0 0 -1
    outer loop
      vertex -43.3448 -33.9026 0
      vertex -39.9694 35.5967 0
      vertex -39.9694 -35.5967 0
    endloop
  endfacet
  facet normal 0 0 -1
    outer loop
      vertex -43.3448 -33.9026 0
      vertex -43.3448 33.9026 0
      vertex -39.9694 35.5967 0
    endloop
  endfacet
  facet normal 0 0 -1
    outer loop
      vertex -46.5492 -32.0746 0
      vertex -43.3448 33.9026 0
      vertex -43.3448 -33.9026 0
    endloop
  endfacet
  facet normal 0 0 -1
    outer loop
      vertex -46.5492 -32.0746 0
      vertex -46.5492 32.0746 0
      vertex -43.3448 33.9026 0
    endloop
  endfacet
  facet normal 0 0 -1
    outer loop
      vertex -49.5699 -30.1201 0
      vertex -46.5492 32.0746 0
      vertex -46.5492 -32.0746 0
    endloop
  endfacet
  facet normal 0 0 -1
    outer loop
      vertex -49.5699 -30.1201 0
      vertex -49.5699 30.1201 0
      vertex -46.5492 32.0746 0
    endloop
  endfacet
  facet normal 0 0 -1
    outer loop
      vertex -52.3949 -28.0467 0
      vertex -49.5699 30.1201 0
      vertex -49.5699 -30.1201 0
    endloop
  endfacet
  facet normal 0 0 -1
    outer loop
      vertex -52.3949 -28.0467 0
      vertex -52.3949 28.0467 0
      vertex -49.5699 30.1201 0
    endloop
  endfacet
  facet normal 0 0 -1
    outer loop
      vertex -55.0132 -25.8626 0
      vertex -52.3949 28.0467 0
      vertex -52.3949 -28.0467 0
    endloop
  endfacet
  facet normal 0 0 -1
    outer loop
      vertex -55.0132 -25.8626 0
      vertex -55.0132 25.8626 0
      vertex -52.3949 28.0467 0
    endloop
  endfacet
  facet normal 0 0 -1
    outer loop
      vertex -57.4143 -23.5764 0
      vertex -55.0132 25.8626 0
      vertex -55.0132 -25.8626 0
    endloop
  endfacet
  facet normal 0 0 -1
    outer loop
      vertex -57.4143 -23.5764 0
      vertex -57.4143 23.5764 0
      vertex -55.0132 25.8626 0
    endloop
  endfacet
  facet normal 0 0 -1
    outer loop
      vertex -59.5889 -21.1972 0
      vertex -57.4143 23.5764 0
      vertex -57.4143 -23.5764 0
    endloop
  endfacet
  facet normal 0 0 -1
    outer loop
      vertex -59.5889 -21.1972 0
      vertex -59.5889 21.1972 0
      vertex -57.4143 23.5764 0
    endloop
  endfacet
  facet normal 0 0 -1
    outer loop
      vertex -61.5282 -18.7343 0
      vertex -59.5889 21.1972 0
      vertex -59.5889 -21.1972 0
    endloop
  endfacet
  facet normal 0 0 -1
    outer loop
      vertex -61.5282 -18.7343 0
      vertex -61.5282 18.7343 0
      vertex -59.5889 21.1972 0
    endloop
  endfacet
  facet normal 0 0 -1
    outer loop
      vertex -63.2248 -16.1975 0
      vertex -61.5282 18.7343 0
      vertex -61.5282 -18.7343 0
    endloop
  endfacet
  facet normal 0 0 -1
    outer loop
      vertex -63.2248 -16.1975 0
      vertex -63.2248 16.1975 0
      vertex -61.5282 18.7343 0
    endloop
  endfacet
  facet normal 0 0 -1
    outer loop
      vertex -64.6718 -13.5967 0
      vertex -63.2248 16.1975 0
      vertex -63.2248 -16.1975 0
    endloop
  endfacet
  facet normal 0 0 -1
    outer loop
      vertex -64.6718 -13.5967 0
      vertex -64.6718 13.5967 0
      vertex -63.2248 16.1975 0
    endloop
  endfacet
  facet normal 0 0 -1
    outer loop
      vertex -65.8637 -10.9424 0
      vertex -64.6718 13.5967 0
      vertex -64.6718 -13.5967 0
    endloop
  endfacet
  facet normal 0 0 -1
    outer loop
      vertex -65.8637 -10.9424 0
      vertex -65.8637 10.9424 0
      vertex -64.6718 13.5967 0
    endloop
  endfacet
  facet normal 0 0 -1
    outer loop
      vertex -66.7955 -8.24478 0
      vertex -65.8637 10.9424 0
      vertex -65.8637 -10.9424 0
    endloop
  endfacet
  facet normal 0 0 -1
    outer loop
      vertex -66.7955 -8.24478 0
      vertex -66.7955 8.24478 0
      vertex -65.8637 10.9424 0
    endloop
  endfacet
  facet normal 0 0 -1
    outer loop
      vertex -67.4638 -5.51466 0
      vertex -66.7955 8.24478 0
      vertex -66.7955 -8.24478 0
    endloop
  endfacet
  facet normal 0 0 -1
    outer loop
      vertex -67.4638 -5.51466 0
      vertex -67.4638 5.51466 0
      vertex -66.7955 8.24478 0
    endloop
  endfacet
  facet normal 0 0 -1
    outer loop
      vertex -67.8658 -2.76278 0
      vertex -67.4638 5.51466 0
      vertex -67.4638 -5.51466 0
    endloop
  endfacet
  facet normal 0 0 -1
    outer loop
      vertex -67.8658 -2.76278 0
      vertex -67.8658 2.76278 0
      vertex -67.4638 5.51466 0
    endloop
  endfacet
  facet normal 0 -0 -1
    outer loop
      vertex -67.8658 2.76278 0
      vertex -67.8658 -2.76278 0
      vertex -68 0 0
    endloop
  endfacet
  facet normal -0.640562 -0.767906 0
    outer loop
      vertex -55.0132 -25.8626 0
      vertex -52.3949 -28.0467 3
      vertex -55.0132 -25.8626 3
    endloop
  endfacet
  facet normal -0.640562 -0.767906 -0
    outer loop
      vertex -52.3949 -28.0467 3
      vertex -55.0132 -25.8626 0
      vertex -52.3949 -28.0467 0
    endloop
  endfacet
  facet normal -0.945202 -0.326487 0
    outer loop
      vertex -65.8637 -10.9424 0
      vertex -66.7955 -8.24478 3
      vertex -66.7955 -8.24478 0
    endloop
  endfacet
  facet normal -0.945202 -0.326487 0
    outer loop
      vertex -66.7955 -8.24478 3
      vertex -65.8637 -10.9424 0
      vertex -65.8637 -10.9424 3
    endloop
  endfacet
  facet normal 0.591685 0.806169 -0
    outer loop
      vertex 52.3949 28.0467 0
      vertex 49.5699 30.1201 3
      vertex 52.3949 28.0467 3
    endloop
  endfacet
  facet normal 0.591685 0.806169 0
    outer loop
      vertex 49.5699 30.1201 3
      vertex 52.3949 28.0467 0
      vertex 49.5699 30.1201 0
    endloop
  endfacet
  facet normal 0.143126 0.989704 -0
    outer loop
      vertex 16.9109 42.6177 0
      vertex 12.7419 43.2206 3
      vertex 16.9109 42.6177 3
    endloop
  endfacet
  facet normal 0.143126 0.989704 0
    outer loop
      vertex 12.7419 43.2206 3
      vertex 16.9109 42.6177 0
      vertex 12.7419 43.2206 0
    endloop
  endfacet
  facet normal -0.357409 -0.933948 0
    outer loop
      vertex -36.4362 -37.1504 0
      vertex -32.7593 -38.5575 3
      vertex -36.4362 -37.1504 3
    endloop
  endfacet
  facet normal -0.357409 -0.933948 -0
    outer loop
      vertex -32.7593 -38.5575 3
      vertex -36.4362 -37.1504 0
      vertex -32.7593 -38.5575 0
    endloop
  endfacet
  facet normal -0.640562 0.767906 0
    outer loop
      vertex -52.3949 28.0467 0
      vertex -55.0132 25.8626 3
      vertex -52.3949 28.0467 3
    endloop
  endfacet
  facet normal -0.640562 0.767906 0
    outer loop
      vertex -55.0132 25.8626 3
      vertex -52.3949 28.0467 0
      vertex -55.0132 25.8626 0
    endloop
  endfacet
  facet normal -0.184756 -0.982784 0
    outer loop
      vertex -21.0132 -41.8465 0
      vertex -16.9109 -42.6177 3
      vertex -21.0132 -41.8465 3
    endloop
  endfacet
  facet normal -0.184756 -0.982784 -0
    outer loop
      vertex -16.9109 -42.6177 3
      vertex -21.0132 -41.8465 0
      vertex -16.9109 -42.6177 0
    endloop
  endfacet
  facet normal 0.495508 -0.868603 0
    outer loop
      vertex 43.3448 -33.9026 0
      vertex 46.5492 -32.0746 3
      vertex 43.3448 -33.9026 3
    endloop
  endfacet
  facet normal 0.495508 -0.868603 0
    outer loop
      vertex 46.5492 -32.0746 3
      vertex 43.3448 -33.9026 0
      vertex 46.5492 -32.0746 0
    endloop
  endfacet
  facet normal 0.543237 -0.839579 0
    outer loop
      vertex 46.5492 -32.0746 0
      vertex 49.5699 -30.1201 3
      vertex 46.5492 -32.0746 3
    endloop
  endfacet
  facet normal 0.543237 -0.839579 0
    outer loop
      vertex 49.5699 -30.1201 3
      vertex 46.5492 -32.0746 0
      vertex 49.5699 -30.1201 0
    endloop
  endfacet
  facet normal -0.495508 -0.868603 0
    outer loop
      vertex -46.5492 -32.0746 0
      vertex -43.3448 -33.9026 3
      vertex -46.5492 -32.0746 3
    endloop
  endfacet
  facet normal -0.495508 -0.868603 -0
    outer loop
      vertex -43.3448 -33.9026 3
      vertex -46.5492 -32.0746 0
      vertex -43.3448 -33.9026 0
    endloop
  endfacet
  facet normal -0.101949 -0.99479 0
    outer loop
      vertex -12.7419 -43.2206 0
      vertex -8.52266 -43.653 3
      vertex -12.7419 -43.2206 3
    endloop
  endfacet
  facet normal -0.101949 -0.99479 -0
    outer loop
      vertex -8.52266 -43.653 3
      vertex -12.7419 -43.2206 0
      vertex -8.52266 -43.653 0
    endloop
  endfacet
  facet normal 0.184756 0.982784 -0
    outer loop
      vertex 21.0132 41.8465 0
      vertex 16.9109 42.6177 3
      vertex 21.0132 41.8465 3
    endloop
  endfacet
  facet normal 0.184756 0.982784 0
    outer loop
      vertex 16.9109 42.6177 3
      vertex 21.0132 41.8465 0
      vertex 16.9109 42.6177 0
    endloop
  endfacet
  facet normal 0.184756 -0.982784 0
    outer loop
      vertex 16.9109 -42.6177 0
      vertex 21.0132 -41.8465 3
      vertex 16.9109 -42.6177 3
    endloop
  endfacet
  facet normal 0.184756 -0.982784 0
    outer loop
      vertex 21.0132 -41.8465 3
      vertex 16.9109 -42.6177 0
      vertex 21.0132 -41.8465 0
    endloop
  endfacet
  facet normal 0.226876 -0.973924 0
    outer loop
      vertex 21.0132 -41.8465 0
      vertex 25.0325 -40.9102 3
      vertex 21.0132 -41.8465 3
    endloop
  endfacet
  facet normal 0.226876 -0.973924 0
    outer loop
      vertex 25.0325 -40.9102 3
      vertex 21.0132 -41.8465 0
      vertex 25.0325 -40.9102 0
    endloop
  endfacet
  facet normal -0.785673 -0.618643 0
    outer loop
      vertex -59.5889 -21.1972 0
      vertex -61.5282 -18.7343 3
      vertex -61.5282 -18.7343 0
    endloop
  endfacet
  facet normal -0.785673 -0.618643 0
    outer loop
      vertex -61.5282 -18.7343 3
      vertex -59.5889 -21.1972 0
      vertex -59.5889 -21.1972 3
    endloop
  endfacet
  facet normal 0.448569 -0.893748 0
    outer loop
      vertex 39.9694 -35.5967 0
      vertex 43.3448 -33.9026 3
      vertex 39.9694 -35.5967 3
    endloop
  endfacet
  facet normal 0.448569 -0.893748 0
    outer loop
      vertex 43.3448 -33.9026 3
      vertex 39.9694 -35.5967 0
      vertex 43.3448 -33.9026 0
    endloop
  endfacet
  facet normal -0.591685 0.806169 0
    outer loop
      vertex -49.5699 30.1201 0
      vertex -52.3949 28.0467 3
      vertex -49.5699 30.1201 3
    endloop
  endfacet
  facet normal -0.591685 0.806169 0
    outer loop
      vertex -52.3949 28.0467 3
      vertex -49.5699 30.1201 0
      vertex -52.3949 28.0467 0
    endloop
  endfacet
  facet normal -0.738132 0.674656 0
    outer loop
      vertex -59.5889 21.1972 0
      vertex -57.4143 23.5764 3
      vertex -57.4143 23.5764 0
    endloop
  endfacet
  facet normal -0.738132 0.674656 0
    outer loop
      vertex -57.4143 23.5764 3
      vertex -59.5889 21.1972 0
      vertex -59.5889 21.1972 3
    endloop
  endfacet
  facet normal -0.313112 0.949716 0
    outer loop
      vertex -28.953 39.8124 0
      vertex -32.7593 38.5575 3
      vertex -28.953 39.8124 3
    endloop
  endfacet
  facet normal -0.313112 0.949716 0
    outer loop
      vertex -32.7593 38.5575 3
      vertex -28.953 39.8124 0
      vertex -32.7593 38.5575 0
    endloop
  endfacet
  facet normal -0.448569 -0.893748 0
    outer loop
      vertex -43.3448 -33.9026 0
      vertex -39.9694 -35.5967 3
      vertex -43.3448 -33.9026 3
    endloop
  endfacet
  facet normal -0.448569 -0.893748 -0
    outer loop
      vertex -39.9694 -35.5967 3
      vertex -43.3448 -33.9026 0
      vertex -39.9694 -35.5967 0
    endloop
  endfacet
endsolid OpenSCAD_Model
