solid OpenSCAD_Model
  facet normal -0.467174 -0.884165 0
    outer loop
      vertex -15.722 28.107 2
      vertex -8.375 24.225 3
      vertex -15.722 28.107 3
    endloop
  endfacet
  facet normal -0.467174 -0.884165 -0
    outer loop
      vertex -8.375 24.225 3
      vertex -15.722 28.107 2
      vertex -8.375 24.225 2
    endloop
  endfacet
  facet normal 0.499872 -0.866099 0
    outer loop
      vertex -38.259 -1.818 2
      vertex -33.418 0.976 3
      vertex -38.259 -1.818 3
    endloop
  endfacet
  facet normal 0.499872 -0.866099 0
    outer loop
      vertex -33.418 0.976 3
      vertex -38.259 -1.818 2
      vertex -33.418 0.976 2
    endloop
  endfacet
  facet normal 0.969768 -0.244031 0
    outer loop
      vertex -21.456 -25.595 3
      vertex -19.728 -18.728 2
      vertex -19.728 -18.728 3
    endloop
  endfacet
  facet normal 0.969768 -0.244031 0
    outer loop
      vertex -19.728 -18.728 2
      vertex -21.456 -25.595 3
      vertex -21.456 -25.595 2
    endloop
  endfacet
  facet normal 0.67406 0.738676 -0
    outer loop
      vertex -19.728 -18.728 2
      vertex -38.259 -1.818 3
      vertex -19.728 -18.728 3
    endloop
  endfacet
  facet normal 0.67406 0.738676 0
    outer loop
      vertex -38.259 -1.818 3
      vertex -19.728 -18.728 2
      vertex -38.259 -1.818 2
    endloop
  endfacet
  facet normal -0.705549 -0.708662 0
    outer loop
      vertex -25.738 15.653 2
      vertex -13.217 3.187 3
      vertex -25.738 15.653 3
    endloop
  endfacet
  facet normal -0.705549 -0.708662 -0
    outer loop
      vertex -13.217 3.187 3
      vertex -25.738 15.653 2
      vertex -13.217 3.187 2
    endloop
  endfacet
  facet normal 0.999718 -0.0237266 0
    outer loop
      vertex -2.708 -38.148 3
      vertex -2.315 -21.589 2
      vertex -2.315 -21.589 3
    endloop
  endfacet
  facet normal 0.999718 -0.0237266 0
    outer loop
      vertex -2.315 -21.589 2
      vertex -2.708 -38.148 3
      vertex -2.708 -38.148 2
    endloop
  endfacet
  facet normal 0.00120279 0.999999 -0
    outer loop
      vertex 1.449 -38.153 2
      vertex -2.708 -38.148 3
      vertex 1.449 -38.153 3
    endloop
  endfacet
  facet normal 0.00120279 0.999999 0
    outer loop
      vertex -2.708 -38.148 3
      vertex 1.449 -38.153 2
      vertex -2.708 -38.148 2
    endloop
  endfacet
  facet normal 0.98653 -0.163577 0
    outer loop
      vertex -26.739 9.616 3
      vertex -25.738 15.653 2
      vertex -25.738 15.653 3
    endloop
  endfacet
  facet normal 0.98653 -0.163577 0
    outer loop
      vertex -25.738 15.653 2
      vertex -26.739 9.616 3
      vertex -26.739 9.616 2
    endloop
  endfacet
  facet normal -0.279899 -0.960029 0
    outer loop
      vertex -38.092 12.926 2
      vertex -26.739 9.616 3
      vertex -38.092 12.926 3
    endloop
  endfacet
  facet normal -0.279899 -0.960029 -0
    outer loop
      vertex -26.739 9.616 3
      vertex -38.092 12.926 2
      vertex -26.739 9.616 2
    endloop
  endfacet
  facet normal 0.931298 0.364258 0
    outer loop
      vertex -33.418 0.976 3
      vertex -38.092 12.926 2
      vertex -38.092 12.926 3
    endloop
  endfacet
  facet normal 0.931298 0.364258 0
    outer loop
      vertex -38.092 12.926 2
      vertex -33.418 0.976 3
      vertex -33.418 0.976 2
    endloop
  endfacet
  facet normal 0.994986 0.100018 0
    outer loop
      vertex -13.217 3.187 3
      vertex -15.722 28.107 2
      vertex -15.722 28.107 3
    endloop
  endfacet
  facet normal 0.994986 0.100018 0
    outer loop
      vertex -15.722 28.107 2
      vertex -13.217 3.187 3
      vertex -13.217 3.187 2
    endloop
  endfacet
  facet normal -0.98653 -0.163577 0
    outer loop
      vertex 25.48 9.61 2
      vertex 24.479 15.647 3
      vertex 24.479 15.647 2
    endloop
  endfacet
  facet normal -0.98653 -0.163577 0
    outer loop
      vertex 24.479 15.647 3
      vertex 25.48 9.61 2
      vertex 25.48 9.61 3
    endloop
  endfacet
  facet normal 0.279899 -0.960029 0
    outer loop
      vertex 25.48 9.61 2
      vertex 36.833 12.92 3
      vertex 25.48 9.61 3
    endloop
  endfacet
  facet normal 0.279899 -0.960029 0
    outer loop
      vertex 36.833 12.92 3
      vertex 25.48 9.61 2
      vertex 36.833 12.92 2
    endloop
  endfacet
  facet normal -0.931298 0.364258 0
    outer loop
      vertex 32.159 0.969999 2
      vertex 36.833 12.92 3
      vertex 36.833 12.92 2
    endloop
  endfacet
  facet normal -0.931298 0.364258 0
    outer loop
      vertex 36.833 12.92 3
      vertex 32.159 0.969999 2
      vertex 32.159 0.969999 3
    endloop
  endfacet
  facet normal -0.499795 -0.866144 0
    outer loop
      vertex 32.159 0.969999 2
      vertex 37.001 -1.824 3
      vertex 32.159 0.969999 3
    endloop
  endfacet
  facet normal -0.499795 -0.866144 -0
    outer loop
      vertex 37.001 -1.824 3
      vertex 32.159 0.969999 2
      vertex 37.001 -1.824 2
    endloop
  endfacet
  facet normal -0.674019 0.738714 0
    outer loop
      vertex 37.001 -1.824 2
      vertex 18.469 -18.733 3
      vertex 37.001 -1.824 3
    endloop
  endfacet
  facet normal -0.674019 0.738714 0
    outer loop
      vertex 18.469 -18.733 3
      vertex 37.001 -1.824 2
      vertex 18.469 -18.733 2
    endloop
  endfacet
  facet normal -0.969776 -0.243997 0
    outer loop
      vertex 20.197 -25.601 2
      vertex 18.469 -18.733 3
      vertex 18.469 -18.733 2
    endloop
  endfacet
  facet normal -0.969776 -0.243997 0
    outer loop
      vertex 18.469 -18.733 3
      vertex 20.197 -25.601 2
      vertex 20.197 -25.601 3
    endloop
  endfacet
  facet normal 0.204851 0.978793 -0
    outer loop
      vertex 20.197 -25.601 2
      vertex 1.056 -21.595 3
      vertex 20.197 -25.601 3
    endloop
  endfacet
  facet normal 0.204851 0.978793 0
    outer loop
      vertex 1.056 -21.595 3
      vertex 20.197 -25.601 2
      vertex 1.056 -21.595 2
    endloop
  endfacet
  facet normal -0.999718 -0.0237281 0
    outer loop
      vertex 1.449 -38.153 2
      vertex 1.056 -21.595 3
      vertex 1.056 -21.595 2
    endloop
  endfacet
  facet normal -0.999718 -0.0237281 0
    outer loop
      vertex 1.056 -21.595 3
      vertex 1.449 -38.153 2
      vertex 1.449 -38.153 3
    endloop
  endfacet
  facet normal -0.204851 0.978793 0
    outer loop
      vertex -2.315 -21.589 2
      vertex -21.456 -25.595 3
      vertex -2.315 -21.589 3
    endloop
  endfacet
  facet normal -0.204851 0.978793 0
    outer loop
      vertex -21.456 -25.595 3
      vertex -2.315 -21.589 2
      vertex -21.456 -25.595 2
    endloop
  endfacet
  facet normal 0.854516 -0.519425 0
    outer loop
      vertex -8.375 24.225 3
      vertex -0.609 37.001 2
      vertex -0.609 37.001 3
    endloop
  endfacet
  facet normal 0.854516 -0.519425 0
    outer loop
      vertex -0.609 37.001 2
      vertex -8.375 24.225 3
      vertex -8.375 24.225 2
    endloop
  endfacet
  facet normal -0.855804 -0.5173 0
    outer loop
      vertex 7.116 24.221 2
      vertex -0.609 37.001 3
      vertex -0.609 37.001 2
    endloop
  endfacet
  facet normal -0.855804 -0.5173 0
    outer loop
      vertex -0.609 37.001 3
      vertex 7.116 24.221 2
      vertex 7.116 24.221 3
    endloop
  endfacet
  facet normal 0.467174 -0.884165 0
    outer loop
      vertex 7.116 24.221 2
      vertex 14.463 28.103 3
      vertex 7.116 24.221 3
    endloop
  endfacet
  facet normal 0.467174 -0.884165 0
    outer loop
      vertex 14.463 28.103 3
      vertex 7.116 24.221 2
      vertex 14.463 28.103 2
    endloop
  endfacet
  facet normal -0.994986 0.10001 0
    outer loop
      vertex 11.958 3.181 2
      vertex 14.463 28.103 3
      vertex 14.463 28.103 2
    endloop
  endfacet
  facet normal -0.994986 0.10001 0
    outer loop
      vertex 14.463 28.103 3
      vertex 11.958 3.181 2
      vertex 11.958 3.181 3
    endloop
  endfacet
  facet normal 0.705549 -0.708662 0
    outer loop
      vertex 11.958 3.181 2
      vertex 24.479 15.647 3
      vertex 11.958 3.181 3
    endloop
  endfacet
  facet normal 0.705549 -0.708662 0
    outer loop
      vertex 24.479 15.647 3
      vertex 11.958 3.181 2
      vertex 24.479 15.647 2
    endloop
  endfacet
  facet normal 0 0 1
    outer loop
      vertex 14.463 28.103 2
      vertex 7.116 24.221 2
      vertex 11.958 3.181 2
    endloop
  endfacet
  facet normal 0 0 1
    outer loop
      vertex 36.833 12.92 2
      vertex 25.48 9.61 2
      vertex 32.159 0.969999 2
    endloop
  endfacet
  facet normal 0 0 1
    outer loop
      vertex 32.159 0.969999 2
      vertex 18.469 -18.733 2
      vertex 37.001 -1.824 2
    endloop
  endfacet
  facet normal -0 0 1
    outer loop
      vertex 11.958 3.181 2
      vertex 32.159 0.969999 2
      vertex 25.48 9.61 2
    endloop
  endfacet
  facet normal 0 0 1
    outer loop
      vertex 11.958 3.181 2
      vertex 25.48 9.61 2
      vertex 24.479 15.647 2
    endloop
  endfacet
  facet normal 0 0 1
    outer loop
      vertex 32.159 0.969999 2
      vertex 11.958 3.181 2
      vertex 18.469 -18.733 2
    endloop
  endfacet
  facet normal 0 0 1
    outer loop
      vertex 1.056 -21.595 2
      vertex 18.469 -18.733 2
      vertex 11.958 3.181 2
    endloop
  endfacet
  facet normal 0 0 1
    outer loop
      vertex 18.469 -18.733 2
      vertex 1.056 -21.595 2
      vertex 20.197 -25.601 2
    endloop
  endfacet
  facet normal -0 0 1
    outer loop
      vertex -13.217 3.187 2
      vertex 11.958 3.181 2
      vertex 7.116 24.221 2
    endloop
  endfacet
  facet normal -0 0 1
    outer loop
      vertex -8.375 24.225 2
      vertex 7.116 24.221 2
      vertex -0.609 37.001 2
    endloop
  endfacet
  facet normal 0 0 1
    outer loop
      vertex -13.217 3.187 2
      vertex 7.116 24.221 2
      vertex -8.375 24.225 2
    endloop
  endfacet
  facet normal 0 0 1
    outer loop
      vertex 1.056 -21.595 2
      vertex -2.315 -21.589 2
      vertex 1.449 -38.153 2
    endloop
  endfacet
  facet normal 0 0 1
    outer loop
      vertex 1.449 -38.153 2
      vertex -2.315 -21.589 2
      vertex -2.708 -38.148 2
    endloop
  endfacet
  facet normal 0 0 1
    outer loop
      vertex -26.739 9.616 2
      vertex -38.092 12.926 2
      vertex -33.418 0.976 2
    endloop
  endfacet
  facet normal -0 0 1
    outer loop
      vertex -26.739 9.616 2
      vertex -13.217 3.187 2
      vertex -25.738 15.653 2
    endloop
  endfacet
  facet normal 0 0 1
    outer loop
      vertex -33.418 0.976 2
      vertex -13.217 3.187 2
      vertex -26.739 9.616 2
    endloop
  endfacet
  facet normal 0 0 1
    outer loop
      vertex -13.217 3.187 2
      vertex -33.418 0.976 2
      vertex -19.728 -18.728 2
    endloop
  endfacet
  facet normal 0 0 1
    outer loop
      vertex -19.728 -18.728 2
      vertex -33.418 0.976 2
      vertex -38.259 -1.818 2
    endloop
  endfacet
  facet normal 0 0 1
    outer loop
      vertex -8.375 24.225 2
      vertex -15.722 28.107 2
      vertex -13.217 3.187 2
    endloop
  endfacet
  facet normal 0 0 1
    outer loop
      vertex 11.958 3.181 2
      vertex -13.217 3.187 2
      vertex 1.056 -21.595 2
    endloop
  endfacet
  facet normal 0 0 1
    outer loop
      vertex 1.056 -21.595 2
      vertex -13.217 3.187 2
      vertex -2.315 -21.589 2
    endloop
  endfacet
  facet normal -0 0 1
    outer loop
      vertex -19.728 -18.728 2
      vertex -2.315 -21.589 2
      vertex -13.217 3.187 2
    endloop
  endfacet
  facet normal 0 0 1
    outer loop
      vertex -2.315 -21.589 2
      vertex -19.728 -18.728 2
      vertex -21.456 -25.595 2
    endloop
  endfacet
  facet normal 0.74616 0.665767 0
    outer loop
      vertex 62.1211 17.8964 3
      vertex 55.0132 25.8626 0
      vertex 55.0132 25.8626 3
    endloop
  endfacet
  facet normal 0.74616 0.665767 0
    outer loop
      vertex 55.0132 25.8626 0
      vertex 62.1211 17.8964 3
      vertex 62.1211 17.8964 0
    endloop
  endfacet
  facet normal 0.89366 0.448746 0
    outer loop
      vertex 66.514 9.14811 3
      vertex 62.1211 17.8964 0
      vertex 62.1211 17.8964 3
    endloop
  endfacet
  facet normal 0.89366 0.448746 0
    outer loop
      vertex 62.1211 17.8964 0
      vertex 66.514 9.14811 3
      vertex 66.514 9.14811 0
    endloop
  endfacet
  facet normal 0.987062 0.160336 0
    outer loop
      vertex 68 0 3
      vertex 66.514 9.14811 0
      vertex 66.514 9.14811 3
    endloop
  endfacet
  facet normal 0.987062 0.160336 0
    outer loop
      vertex 66.514 9.14811 0
      vertex 68 0 3
      vertex 68 0 0
    endloop
  endfacet
  facet normal 0.987062 -0.160336 0
    outer loop
      vertex 66.514 -9.14811 3
      vertex 68 0 0
      vertex 68 0 3
    endloop
  endfacet
  facet normal 0.987062 -0.160336 0
    outer loop
      vertex 68 0 0
      vertex 66.514 -9.14811 3
      vertex 66.514 -9.14811 0
    endloop
  endfacet
  facet normal -0.136255 -0.990674 0
    outer loop
      vertex -21.0132 -41.8465 0
      vertex -7.10793 -43.759 3
      vertex -21.0132 -41.8465 3
    endloop
  endfacet
  facet normal -0.136255 -0.990674 -0
    outer loop
      vertex -7.10793 -43.759 3
      vertex -21.0132 -41.8465 0
      vertex -7.10793 -43.759 0
    endloop
  endfacet
  facet normal 0.89366 -0.448746 0
    outer loop
      vertex 62.1211 -17.8964 3
      vertex 66.514 -9.14811 0
      vertex 66.514 -9.14811 3
    endloop
  endfacet
  facet normal 0.89366 -0.448746 0
    outer loop
      vertex 66.514 -9.14811 0
      vertex 62.1211 -17.8964 3
      vertex 62.1211 -17.8964 0
    endloop
  endfacet
  facet normal -0.74616 -0.665767 0
    outer loop
      vertex -55.0132 -25.8626 0
      vertex -62.1211 -17.8964 3
      vertex -62.1211 -17.8964 0
    endloop
  endfacet
  facet normal -0.74616 -0.665767 0
    outer loop
      vertex -62.1211 -17.8964 3
      vertex -55.0132 -25.8626 0
      vertex -55.0132 -25.8626 3
    endloop
  endfacet
  facet normal -0.425443 -0.904985 0
    outer loop
      vertex -45.5009 -32.6984 0
      vertex -34 -38.1051 3
      vertex -45.5009 -32.6984 3
    endloop
  endfacet
  facet normal -0.425443 -0.904985 -0
    outer loop
      vertex -34 -38.1051 3
      vertex -45.5009 -32.6984 0
      vertex -34 -38.1051 0
    endloop
  endfacet
  facet normal 0.276833 0.960918 -0
    outer loop
      vertex 34 38.1051 0
      vertex 21.0132 41.8465 3
      vertex 34 38.1051 3
    endloop
  endfacet
  facet normal 0.276833 0.960918 0
    outer loop
      vertex 21.0132 41.8465 3
      vertex 34 38.1051 0
      vertex 21.0132 41.8465 0
    endloop
  endfacet
  facet normal 0.425443 -0.904985 0
    outer loop
      vertex 34 -38.1051 0
      vertex 45.5009 -32.6984 3
      vertex 34 -38.1051 3
    endloop
  endfacet
  facet normal 0.425443 -0.904985 0
    outer loop
      vertex 45.5009 -32.6984 3
      vertex 34 -38.1051 0
      vertex 45.5009 -32.6984 0
    endloop
  endfacet
  facet normal -0.425443 0.904985 0
    outer loop
      vertex -34 38.1051 0
      vertex -45.5009 32.6984 3
      vertex -34 38.1051 3
    endloop
  endfacet
  facet normal -0.425443 0.904985 0
    outer loop
      vertex -45.5009 32.6984 3
      vertex -34 38.1051 0
      vertex -45.5009 32.6984 0
    endloop
  endfacet
  facet normal -0.89366 -0.448746 0
    outer loop
      vertex -62.1211 -17.8964 0
      vertex -66.514 -9.14811 3
      vertex -66.514 -9.14811 0
    endloop
  endfacet
  facet normal -0.89366 -0.448746 0
    outer loop
      vertex -66.514 -9.14811 3
      vertex -62.1211 -17.8964 0
      vertex -62.1211 -17.8964 3
    endloop
  endfacet
  facet normal 0.74616 -0.665767 0
    outer loop
      vertex 55.0132 -25.8626 3
      vertex 62.1211 -17.8964 0
      vertex 62.1211 -17.8964 3
    endloop
  endfacet
  facet normal 0.74616 -0.665767 0
    outer loop
      vertex 62.1211 -17.8964 0
      vertex 55.0132 -25.8626 3
      vertex 55.0132 -25.8626 0
    endloop
  endfacet
  facet normal 0 1 -0
    outer loop
      vertex 7.10793 43.759 0
      vertex -7.10793 43.759 3
      vertex 7.10793 43.759 3
    endloop
  endfacet
  facet normal 0 1 0
    outer loop
      vertex -7.10793 43.759 3
      vertex 7.10793 43.759 0
      vertex -7.10793 43.759 0
    endloop
  endfacet
  facet normal -0.89366 0.448746 0
    outer loop
      vertex -66.514 9.14811 0
      vertex -62.1211 17.8964 3
      vertex -62.1211 17.8964 0
    endloop
  endfacet
  facet normal -0.89366 0.448746 0
    outer loop
      vertex -62.1211 17.8964 3
      vertex -66.514 9.14811 0
      vertex -66.514 9.14811 3
    endloop
  endfacet
  facet normal -0.74616 0.665767 0
    outer loop
      vertex -62.1211 17.8964 0
      vertex -55.0132 25.8626 3
      vertex -55.0132 25.8626 0
    endloop
  endfacet
  facet normal -0.74616 0.665767 0
    outer loop
      vertex -55.0132 25.8626 3
      vertex -62.1211 17.8964 0
      vertex -62.1211 17.8964 3
    endloop
  endfacet
  facet normal -0.136255 0.990674 0
    outer loop
      vertex -7.10793 43.759 0
      vertex -21.0132 41.8465 3
      vertex -7.10793 43.759 3
    endloop
  endfacet
  facet normal -0.136255 0.990674 0
    outer loop
      vertex -21.0132 41.8465 3
      vertex -7.10793 43.759 0
      vertex -21.0132 41.8465 0
    endloop
  endfacet
  facet normal -0 0 1
    outer loop
      vertex -21.456 -25.595 3
      vertex -2.708 -38.148 3
      vertex -2.315 -21.589 3
    endloop
  endfacet
  facet normal 0 -0 1
    outer loop
      vertex -21.0132 -41.8465 3
      vertex -2.708 -38.148 3
      vertex -21.456 -25.595 3
    endloop
  endfacet
  facet normal 0 0 1
    outer loop
      vertex -2.708 -38.148 3
      vertex -21.0132 -41.8465 3
      vertex -7.10793 -43.759 3
    endloop
  endfacet
  facet normal 0 0 1
    outer loop
      vertex -21.0132 -41.8465 3
      vertex -21.456 -25.595 3
      vertex -34 -38.1051 3
    endloop
  endfacet
  facet normal 0 0 1
    outer loop
      vertex 7.10793 43.759 3
      vertex 14.463 28.103 3
      vertex 21.0132 41.8465 3
    endloop
  endfacet
  facet normal -0 0 1
    outer loop
      vertex -0.609 37.001 3
      vertex 14.463 28.103 3
      vertex 7.10793 43.759 3
    endloop
  endfacet
  facet normal 0 0 1
    outer loop
      vertex 14.463 28.103 3
      vertex -0.609 37.001 3
      vertex 7.116 24.221 3
    endloop
  endfacet
  facet normal -0 0 1
    outer loop
      vertex -7.10793 43.759 3
      vertex -0.609 37.001 3
      vertex 7.10793 43.759 3
    endloop
  endfacet
  facet normal 0 0 1
    outer loop
      vertex -15.722 28.107 3
      vertex -0.609 37.001 3
      vertex -7.10793 43.759 3
    endloop
  endfacet
  facet normal 0 0 1
    outer loop
      vertex -0.609 37.001 3
      vertex -15.722 28.107 3
      vertex -8.375 24.225 3
    endloop
  endfacet
  facet normal 0 -0 1
    outer loop
      vertex -15.722 28.107 3
      vertex -7.10793 43.759 3
      vertex -21.0132 41.8465 3
    endloop
  endfacet
  facet normal 0 0 1
    outer loop
      vertex 37.001 -1.824 3
      vertex 68 0 3
      vertex 66.514 9.14811 3
    endloop
  endfacet
  facet normal -0 0 1
    outer loop
      vertex 36.833 12.92 3
      vertex 66.514 9.14811 3
      vertex 62.1211 17.8964 3
    endloop
  endfacet
  facet normal 0 0 1
    outer loop
      vertex 68 0 3
      vertex 37.001 -1.824 3
      vertex 66.514 -9.14811 3
    endloop
  endfacet
  facet normal 0 0 1
    outer loop
      vertex 36.833 12.92 3
      vertex 62.1211 17.8964 3
      vertex 55.0132 25.8626 3
    endloop
  endfacet
  facet normal 0 0 1
    outer loop
      vertex 66.514 -9.14811 3
      vertex 37.001 -1.824 3
      vertex 62.1211 -17.8964 3
    endloop
  endfacet
  facet normal 0 0 1
    outer loop
      vertex 36.833 12.92 3
      vertex 55.0132 25.8626 3
      vertex 45.5009 32.6984 3
    endloop
  endfacet
  facet normal 0 0 1
    outer loop
      vertex 66.514 9.14811 3
      vertex 36.833 12.92 3
      vertex 37.001 -1.824 3
    endloop
  endfacet
  facet normal 0 0 1
    outer loop
      vertex 55.0132 -25.8626 3
      vertex 37.001 -1.824 3
      vertex 45.5009 -32.6984 3
    endloop
  endfacet
  facet normal 0 0 1
    outer loop
      vertex 62.1211 -17.8964 3
      vertex 37.001 -1.824 3
      vertex 55.0132 -25.8626 3
    endloop
  endfacet
  facet normal 0 0 1
    outer loop
      vertex 34 38.1051 3
      vertex 36.833 12.92 3
      vertex 45.5009 32.6984 3
    endloop
  endfacet
  facet normal -0 0 1
    outer loop
      vertex 24.479 15.647 3
      vertex 36.833 12.92 3
      vertex 34 38.1051 3
    endloop
  endfacet
  facet normal 0 0 1
    outer loop
      vertex 36.833 12.92 3
      vertex 24.479 15.647 3
      vertex 25.48 9.61 3
    endloop
  endfacet
  facet normal 0 0 1
    outer loop
      vertex 14.463 28.103 3
      vertex 34 38.1051 3
      vertex 21.0132 41.8465 3
    endloop
  endfacet
  facet normal 0 0 1
    outer loop
      vertex 34 38.1051 3
      vertex 14.463 28.103 3
      vertex 24.479 15.647 3
    endloop
  endfacet
  facet normal 0 0 1
    outer loop
      vertex 24.479 15.647 3
      vertex 14.463 28.103 3
      vertex 11.958 3.181 3
    endloop
  endfacet
  facet normal -0 0 1
    outer loop
      vertex 20.197 -25.601 3
      vertex 45.5009 -32.6984 3
      vertex 37.001 -1.824 3
    endloop
  endfacet
  facet normal 0 0 1
    outer loop
      vertex 45.5009 -32.6984 3
      vertex 20.197 -25.601 3
      vertex 34 -38.1051 3
    endloop
  endfacet
  facet normal 0 0 1
    outer loop
      vertex 34 -38.1051 3
      vertex 20.197 -25.601 3
      vertex 21.0132 -41.8465 3
    endloop
  endfacet
  facet normal 0 -0 1
    outer loop
      vertex 20.197 -25.601 3
      vertex 37.001 -1.824 3
      vertex 18.469 -18.733 3
    endloop
  endfacet
  facet normal 0 0 1
    outer loop
      vertex 37.001 -1.824 3
      vertex 36.833 12.92 3
      vertex 32.159 0.969999 3
    endloop
  endfacet
  facet normal 0 0 1
    outer loop
      vertex 20.197 -25.601 3
      vertex 7.10793 -43.759 3
      vertex 21.0132 -41.8465 3
    endloop
  endfacet
  facet normal 0 0 1
    outer loop
      vertex 20.197 -25.601 3
      vertex 1.449 -38.153 3
      vertex 7.10793 -43.759 3
    endloop
  endfacet
  facet normal 0 -0 1
    outer loop
      vertex 1.449 -38.153 3
      vertex 20.197 -25.601 3
      vertex 1.056 -21.595 3
    endloop
  endfacet
  facet normal 0 0 1
    outer loop
      vertex -7.10793 -43.759 3
      vertex 1.449 -38.153 3
      vertex -2.708 -38.148 3
    endloop
  endfacet
  facet normal 0 0 1
    outer loop
      vertex 1.449 -38.153 3
      vertex -7.10793 -43.759 3
      vertex 7.10793 -43.759 3
    endloop
  endfacet
  facet normal -0 0 1
    outer loop
      vertex -34 38.1051 3
      vertex -15.722 28.107 3
      vertex -21.0132 41.8465 3
    endloop
  endfacet
  facet normal 0 0 1
    outer loop
      vertex -15.722 28.107 3
      vertex -25.738 15.653 3
      vertex -13.217 3.187 3
    endloop
  endfacet
  facet normal 0 0 1
    outer loop
      vertex -15.722 28.107 3
      vertex -34 38.1051 3
      vertex -25.738 15.653 3
    endloop
  endfacet
  facet normal 0 0 1
    outer loop
      vertex -38.092 12.926 3
      vertex -25.738 15.653 3
      vertex -34 38.1051 3
    endloop
  endfacet
  facet normal 0 0 1
    outer loop
      vertex -25.738 15.653 3
      vertex -38.092 12.926 3
      vertex -26.739 9.616 3
    endloop
  endfacet
  facet normal -0 0 1
    outer loop
      vertex -55.0132 25.8626 3
      vertex -38.092 12.926 3
      vertex -45.5009 32.6984 3
    endloop
  endfacet
  facet normal -0 0 1
    outer loop
      vertex -45.5009 32.6984 3
      vertex -38.092 12.926 3
      vertex -34 38.1051 3
    endloop
  endfacet
  facet normal 0 0 1
    outer loop
      vertex -38.259 -1.818 3
      vertex -21.456 -25.595 3
      vertex -19.728 -18.728 3
    endloop
  endfacet
  facet normal 0 0 1
    outer loop
      vertex -21.456 -25.595 3
      vertex -38.259 -1.818 3
      vertex -45.5009 -32.6984 3
    endloop
  endfacet
  facet normal -0 0 1
    outer loop
      vertex -62.1211 17.8964 3
      vertex -38.092 12.926 3
      vertex -55.0132 25.8626 3
    endloop
  endfacet
  facet normal 0 0 1
    outer loop
      vertex -21.456 -25.595 3
      vertex -45.5009 -32.6984 3
      vertex -34 -38.1051 3
    endloop
  endfacet
  facet normal 0 0 1
    outer loop
      vertex -66.514 9.14811 3
      vertex -38.092 12.926 3
      vertex -62.1211 17.8964 3
    endloop
  endfacet
  facet normal 0 0 1
    outer loop
      vertex -38.259 -1.818 3
      vertex -55.0132 -25.8626 3
      vertex -45.5009 -32.6984 3
    endloop
  endfacet
  facet normal 0 0 1
    outer loop
      vertex -38.092 12.926 3
      vertex -66.514 9.14811 3
      vertex -38.259 -1.818 3
    endloop
  endfacet
  facet normal 0 0 1
    outer loop
      vertex -38.259 -1.818 3
      vertex -62.1211 -17.8964 3
      vertex -55.0132 -25.8626 3
    endloop
  endfacet
  facet normal -0 0 1
    outer loop
      vertex -68 0 3
      vertex -38.259 -1.818 3
      vertex -66.514 9.14811 3
    endloop
  endfacet
  facet normal 0 0 1
    outer loop
      vertex -38.259 -1.818 3
      vertex -66.514 -9.14811 3
      vertex -62.1211 -17.8964 3
    endloop
  endfacet
  facet normal 0 0 1
    outer loop
      vertex -38.259 -1.818 3
      vertex -68 0 3
      vertex -66.514 -9.14811 3
    endloop
  endfacet
  facet normal 0 0 1
    outer loop
      vertex -33.418 0.976 3
      vertex -38.092 12.926 3
      vertex -38.259 -1.818 3
    endloop
  endfacet
  facet normal 0.136255 -0.990674 0
    outer loop
      vertex 7.10793 -43.759 0
      vertex 21.0132 -41.8465 3
      vertex 7.10793 -43.759 3
    endloop
  endfacet
  facet normal 0.136255 -0.990674 0
    outer loop
      vertex 21.0132 -41.8465 3
      vertex 7.10793 -43.759 0
      vertex 21.0132 -41.8465 0
    endloop
  endfacet
  facet normal 0.58357 -0.812063 0
    outer loop
      vertex 45.5009 -32.6984 0
      vertex 55.0132 -25.8626 3
      vertex 45.5009 -32.6984 3
    endloop
  endfacet
  facet normal 0.58357 -0.812063 0
    outer loop
      vertex 55.0132 -25.8626 3
      vertex 45.5009 -32.6984 0
      vertex 55.0132 -25.8626 0
    endloop
  endfacet
  facet normal -0.276833 0.960918 0
    outer loop
      vertex -21.0132 41.8465 0
      vertex -34 38.1051 3
      vertex -21.0132 41.8465 3
    endloop
  endfacet
  facet normal -0.276833 0.960918 0
    outer loop
      vertex -34 38.1051 3
      vertex -21.0132 41.8465 0
      vertex -34 38.1051 0
    endloop
  endfacet
  facet normal 0.276833 -0.960918 0
    outer loop
      vertex 21.0132 -41.8465 0
      vertex 34 -38.1051 3
      vertex 21.0132 -41.8465 3
    endloop
  endfacet
  facet normal 0.276833 -0.960918 0
    outer loop
      vertex 34 -38.1051 3
      vertex 21.0132 -41.8465 0
      vertex 34 -38.1051 0
    endloop
  endfacet
  facet normal -0.276833 -0.960918 0
    outer loop
      vertex -34 -38.1051 0
      vertex -21.0132 -41.8465 3
      vertex -34 -38.1051 3
    endloop
  endfacet
  facet normal -0.276833 -0.960918 -0
    outer loop
      vertex -21.0132 -41.8465 3
      vertex -34 -38.1051 0
      vertex -21.0132 -41.8465 0
    endloop
  endfacet
  facet normal 0.425443 0.904985 -0
    outer loop
      vertex 45.5009 32.6984 0
      vertex 34 38.1051 3
      vertex 45.5009 32.6984 3
    endloop
  endfacet
  facet normal 0.425443 0.904985 0
    outer loop
      vertex 34 38.1051 3
      vertex 45.5009 32.6984 0
      vertex 34 38.1051 0
    endloop
  endfacet
  facet normal 0.58357 0.812063 -0
    outer loop
      vertex 55.0132 25.8626 0
      vertex 45.5009 32.6984 3
      vertex 55.0132 25.8626 3
    endloop
  endfacet
  facet normal 0.58357 0.812063 0
    outer loop
      vertex 45.5009 32.6984 3
      vertex 55.0132 25.8626 0
      vertex 45.5009 32.6984 0
    endloop
  endfacet
  facet normal 0.136255 0.990674 -0
    outer loop
      vertex 21.0132 41.8465 0
      vertex 7.10793 43.759 3
      vertex 21.0132 41.8465 3
    endloop
  endfacet
  facet normal 0.136255 0.990674 0
    outer loop
      vertex 7.10793 43.759 3
      vertex 21.0132 41.8465 0
      vertex 7.10793 43.759 0
    endloop
  endfacet
  facet normal -0.987062 0.160336 0
    outer loop
      vertex -68 0 0
      vertex -66.514 9.14811 3
      vertex -66.514 9.14811 0
    endloop
  endfacet
  facet normal -0.987062 0.160336 0
    outer loop
      vertex -66.514 9.14811 3
      vertex -68 0 0
      vertex -68 0 3
    endloop
  endfacet
  facet normal 0 -1 0
    outer loop
      vertex -7.10793 -43.759 0
      vertex 7.10793 -43.759 3
      vertex -7.10793 -43.759 3
    endloop
  endfacet
  facet normal 0 -1 -0
    outer loop
      vertex 7.10793 -43.759 3
      vertex -7.10793 -43.759 0
      vertex 7.10793 -43.759 0
    endloop
  endfacet
  facet normal -0.987062 -0.160336 0
    outer loop
      vertex -66.514 -9.14811 0
      vertex -68 0 3
      vertex -68 0 0
    endloop
  endfacet
  facet normal -0.987062 -0.160336 0
    outer loop
      vertex -68 0 3
      vertex -66.514 -9.14811 0
      vertex -66.514 -9.14811 3
    endloop
  endfacet
  facet normal -0.58357 -0.812063 0
    outer loop
      vertex -55.0132 -25.8626 0
      vertex -45.5009 -32.6984 3
      vertex -55.0132 -25.8626 3
    endloop
  endfacet
  facet normal -0.58357 -0.812063 -0
    outer loop
      vertex -45.5009 -32.6984 3
      vertex -55.0132 -25.8626 0
      vertex -45.5009 -32.6984 0
    endloop
  endfacet
  facet normal 0 0 -1
    outer loop
      vertex 66.514 -9.14811 0
      vertex 66.514 9.14811 0
      vertex 68 0 0
    endloop
  endfacet
  facet normal 0 0 -1
    outer loop
      vertex 62.1211 -17.8964 0
      vertex 66.514 9.14811 0
      vertex 66.514 -9.14811 0
    endloop
  endfacet
  facet normal 0 0 -1
    outer loop
      vertex 62.1211 -17.8964 0
      vertex 62.1211 17.8964 0
      vertex 66.514 9.14811 0
    endloop
  endfacet
  facet normal 0 0 -1
    outer loop
      vertex 55.0132 -25.8626 0
      vertex 62.1211 17.8964 0
      vertex 62.1211 -17.8964 0
    endloop
  endfacet
  facet normal 0 0 -1
    outer loop
      vertex 55.0132 -25.8626 0
      vertex 55.0132 25.8626 0
      vertex 62.1211 17.8964 0
    endloop
  endfacet
  facet normal 0 0 -1
    outer loop
      vertex 45.5009 -32.6984 0
      vertex 55.0132 25.8626 0
      vertex 55.0132 -25.8626 0
    endloop
  endfacet
  facet normal 0 0 -1
    outer loop
      vertex 45.5009 -32.6984 0
      vertex 45.5009 32.6984 0
      vertex 55.0132 25.8626 0
    endloop
  endfacet
  facet normal 0 0 -1
    outer loop
      vertex 34 -38.1051 0
      vertex 45.5009 32.6984 0
      vertex 45.5009 -32.6984 0
    endloop
  endfacet
  facet normal 0 0 -1
    outer loop
      vertex 34 -38.1051 0
      vertex 34 38.1051 0
      vertex 45.5009 32.6984 0
    endloop
  endfacet
  facet normal 0 0 -1
    outer loop
      vertex 21.0132 -41.8465 0
      vertex 34 38.1051 0
      vertex 34 -38.1051 0
    endloop
  endfacet
  facet normal 0 0 -1
    outer loop
      vertex 21.0132 -41.8465 0
      vertex 21.0132 41.8465 0
      vertex 34 38.1051 0
    endloop
  endfacet
  facet normal 0 0 -1
    outer loop
      vertex 7.10793 -43.759 0
      vertex 21.0132 41.8465 0
      vertex 21.0132 -41.8465 0
    endloop
  endfacet
  facet normal 0 0 -1
    outer loop
      vertex 7.10793 -43.759 0
      vertex 7.10793 43.759 0
      vertex 21.0132 41.8465 0
    endloop
  endfacet
  facet normal 0 0 -1
    outer loop
      vertex -7.10793 -43.759 0
      vertex 7.10793 43.759 0
      vertex 7.10793 -43.759 0
    endloop
  endfacet
  facet normal 0 0 -1
    outer loop
      vertex -7.10793 -43.759 0
      vertex -7.10793 43.759 0
      vertex 7.10793 43.759 0
    endloop
  endfacet
  facet normal 0 0 -1
    outer loop
      vertex -21.0132 -41.8465 0
      vertex -7.10793 43.759 0
      vertex -7.10793 -43.759 0
    endloop
  endfacet
  facet normal 0 0 -1
    outer loop
      vertex -21.0132 -41.8465 0
      vertex -21.0132 41.8465 0
      vertex -7.10793 43.759 0
    endloop
  endfacet
  facet normal 0 0 -1
    outer loop
      vertex -34 -38.1051 0
      vertex -21.0132 41.8465 0
      vertex -21.0132 -41.8465 0
    endloop
  endfacet
  facet normal 0 0 -1
    outer loop
      vertex -34 -38.1051 0
      vertex -34 38.1051 0
      vertex -21.0132 41.8465 0
    endloop
  endfacet
  facet normal 0 0 -1
    outer loop
      vertex -45.5009 -32.6984 0
      vertex -34 38.1051 0
      vertex -34 -38.1051 0
    endloop
  endfacet
  facet normal 0 0 -1
    outer loop
      vertex -45.5009 -32.6984 0
      vertex -45.5009 32.6984 0
      vertex -34 38.1051 0
    endloop
  endfacet
  facet normal 0 0 -1
    outer loop
      vertex -55.0132 -25.8626 0
      vertex -45.5009 32.6984 0
      vertex -45.5009 -32.6984 0
    endloop
  endfacet
  facet normal 0 0 -1
    outer loop
      vertex -55.0132 -25.8626 0
      vertex -55.0132 25.8626 0
      vertex -45.5009 32.6984 0
    endloop
  endfacet
  facet normal 0 0 -1
    outer loop
      vertex -62.1211 -17.8964 0
      vertex -55.0132 25.8626 0
      vertex -55.0132 -25.8626 0
    endloop
  endfacet
  facet normal 0 0 -1
    outer loop
      vertex -62.1211 -17.8964 0
      vertex -62.1211 17.8964 0
      vertex -55.0132 25.8626 0
    endloop
  endfacet
  facet normal 0 0 -1
    outer loop
      vertex -66.514 -9.14811 0
      vertex -62.1211 17.8964 0
      vertex -62.1211 -17.8964 0
    endloop
  endfacet
  facet normal 0 0 -1
    outer loop
      vertex -66.514 -9.14811 0
      vertex -66.514 9.14811 0
      vertex -62.1211 17.8964 0
    endloop
  endfacet
  facet normal 0 -0 -1
    outer loop
      vertex -66.514 9.14811 0
      vertex -66.514 -9.14811 0
      vertex -68 0 0
    endloop
  endfacet
  facet normal -0.58357 0.812063 0
    outer loop
      vertex -45.5009 32.6984 0
      vertex -55.0132 25.8626 3
      vertex -45.5009 32.6984 3
    endloop
  endfacet
  facet normal -0.58357 0.812063 0
    outer loop
      vertex -55.0132 25.8626 3
      vertex -45.5009 32.6984 0
      vertex -55.0132 25.8626 0
    endloop
  endfacet
endsolid OpenSCAD_Model
