solid OpenSCAD_Model
  facet normal 1 -0 0
    outer loop
      vertex 26.25 -6 3
      vertex 26.25 6 -3
      vertex 26.25 6 3
    endloop
  endfacet
  facet normal 1 0 0
    outer loop
      vertex 26.25 6 -3
      vertex 26.25 -6 3
      vertex 26.25 -6 -3
    endloop
  endfacet
  facet normal 0 0 1
    outer loop
      vertex 26.25 6 3
      vertex 24.25 0.83 3
      vertex 26.25 -6 3
    endloop
  endfacet
  facet normal 0 0 1
    outer loop
      vertex 26.25 6 3
      vertex -12.25 2.5 3
      vertex 24.25 0.83 3
    endloop
  endfacet
  facet normal -0 0 1
    outer loop
      vertex -26.25 6 3
      vertex -12.25 2.5 3
      vertex 26.25 6 3
    endloop
  endfacet
  facet normal 0 0 1
    outer loop
      vertex -22.25 2.5 3
      vertex -24.25 0.83 3
      vertex -22.25 0.83 3
    endloop
  endfacet
  facet normal 0 0 1
    outer loop
      vertex -24.25 0.83 3
      vertex -26.25 6 3
      vertex -24.25 -0.83 3
    endloop
  endfacet
  facet normal 0 0 1
    outer loop
      vertex -22.25 2.5 3
      vertex -26.25 6 3
      vertex -24.25 0.83 3
    endloop
  endfacet
  facet normal 0 0 1
    outer loop
      vertex -12.25 2.5 3
      vertex -26.25 6 3
      vertex -22.25 2.5 3
    endloop
  endfacet
  facet normal -0 0 1
    outer loop
      vertex 24.25 -0.83 3
      vertex 26.25 -6 3
      vertex 24.25 0.83 3
    endloop
  endfacet
  facet normal -0 0 1
    outer loop
      vertex -24.25 -0.83 3
      vertex 26.25 -6 3
      vertex 24.25 -0.83 3
    endloop
  endfacet
  facet normal 0 0 1
    outer loop
      vertex -24.25 -0.83 3
      vertex -26.25 -6 3
      vertex 26.25 -6 3
    endloop
  endfacet
  facet normal 0 0 1
    outer loop
      vertex -26.25 -6 3
      vertex -24.25 -0.83 3
      vertex -26.25 6 3
    endloop
  endfacet
  facet normal 0 0 1
    outer loop
      vertex 24.25 0.83 3
      vertex -12.25 2.5 3
      vertex -12.25 0.83 3
    endloop
  endfacet
  facet normal 0 0 -1
    outer loop
      vertex -26.25 -6 -3
      vertex 26.25 6 -3
      vertex 26.25 -6 -3
    endloop
  endfacet
  facet normal -0 0 -1
    outer loop
      vertex 26.25 6 -3
      vertex -26.25 -6 -3
      vertex -26.25 6 -3
    endloop
  endfacet
  facet normal -1 0 0
    outer loop
      vertex -26.25 -6 -3
      vertex -26.25 6 3
      vertex -26.25 6 -3
    endloop
  endfacet
  facet normal -1 -0 0
    outer loop
      vertex -26.25 6 3
      vertex -26.25 -6 -3
      vertex -26.25 -6 3
    endloop
  endfacet
  facet normal 0 1 -0
    outer loop
      vertex 26.25 6 -3
      vertex -26.25 6 3
      vertex 26.25 6 3
    endloop
  endfacet
  facet normal 0 1 0
    outer loop
      vertex -26.25 6 3
      vertex 26.25 6 -3
      vertex -26.25 6 -3
    endloop
  endfacet
  facet normal 0 -1 0
    outer loop
      vertex -26.25 -6 -3
      vertex 26.25 -6 3
      vertex -26.25 -6 3
    endloop
  endfacet
  facet normal 0 -1 -0
    outer loop
      vertex 26.25 -6 3
      vertex -26.25 -6 -3
      vertex 26.25 -6 -3
    endloop
  endfacet
  facet normal -1 0 0
    outer loop
      vertex 24.25 -0.83 0
      vertex 24.25 0.83 3
      vertex 24.25 0.83 0
    endloop
  endfacet
  facet normal -1 -0 0
    outer loop
      vertex 24.25 0.83 3
      vertex 24.25 -0.83 0
      vertex 24.25 -0.83 3
    endloop
  endfacet
  facet normal 0 0 1
    outer loop
      vertex -12.25 2.5 0
      vertex -22.25 2.5 0
      vertex -12.25 0.83 0
    endloop
  endfacet
  facet normal -0 0 1
    outer loop
      vertex -12.25 0.83 0
      vertex 24.25 -0.83 0
      vertex 24.25 0.83 0
    endloop
  endfacet
  facet normal 0 0 1
    outer loop
      vertex -22.25 0.83 0
      vertex -12.25 0.83 0
      vertex -22.25 2.5 0
    endloop
  endfacet
  facet normal 0 0 1
    outer loop
      vertex -24.25 -0.83 0
      vertex -12.25 0.83 0
      vertex -22.25 0.83 0
    endloop
  endfacet
  facet normal 0 0 1
    outer loop
      vertex -24.25 -0.83 0
      vertex -22.25 0.83 0
      vertex -24.25 0.83 0
    endloop
  endfacet
  facet normal 0 0 1
    outer loop
      vertex -12.25 0.83 0
      vertex -24.25 -0.83 0
      vertex 24.25 -0.83 0
    endloop
  endfacet
  facet normal 1 -0 0
    outer loop
      vertex -24.25 -0.83 3
      vertex -24.25 0.83 0
      vertex -24.25 0.83 3
    endloop
  endfacet
  facet normal 1 0 0
    outer loop
      vertex -24.25 0.83 0
      vertex -24.25 -0.83 3
      vertex -24.25 -0.83 0
    endloop
  endfacet
  facet normal 0 -1 0
    outer loop
      vertex -24.25 0.83 0
      vertex -22.25 0.83 3
      vertex -24.25 0.83 3
    endloop
  endfacet
  facet normal 0 -1 -0
    outer loop
      vertex -22.25 0.83 3
      vertex -24.25 0.83 0
      vertex -22.25 0.83 0
    endloop
  endfacet
  facet normal 0 -1 0
    outer loop
      vertex -12.25 0.83 0
      vertex 24.25 0.83 3
      vertex -12.25 0.83 3
    endloop
  endfacet
  facet normal 0 -1 -0
    outer loop
      vertex 24.25 0.83 3
      vertex -12.25 0.83 0
      vertex 24.25 0.83 0
    endloop
  endfacet
  facet normal 0 1 -0
    outer loop
      vertex 24.25 -0.83 0
      vertex -24.25 -0.83 3
      vertex 24.25 -0.83 3
    endloop
  endfacet
  facet normal 0 1 0
    outer loop
      vertex -24.25 -0.83 3
      vertex 24.25 -0.83 0
      vertex -24.25 -0.83 0
    endloop
  endfacet
  facet normal -1 0 0
    outer loop
      vertex -12.25 0.83 0
      vertex -12.25 2.5 3
      vertex -12.25 2.5 0
    endloop
  endfacet
  facet normal -1 -0 0
    outer loop
      vertex -12.25 2.5 3
      vertex -12.25 0.83 0
      vertex -12.25 0.83 3
    endloop
  endfacet
  facet normal 1 -0 0
    outer loop
      vertex -22.25 0.83 3
      vertex -22.25 2.5 0
      vertex -22.25 2.5 3
    endloop
  endfacet
  facet normal 1 0 0
    outer loop
      vertex -22.25 2.5 0
      vertex -22.25 0.83 3
      vertex -22.25 0.83 0
    endloop
  endfacet
  facet normal 0 -1 0
    outer loop
      vertex -22.25 2.5 0
      vertex -12.25 2.5 3
      vertex -22.25 2.5 3
    endloop
  endfacet
  facet normal 0 -1 -0
    outer loop
      vertex -12.25 2.5 3
      vertex -22.25 2.5 0
      vertex -12.25 2.5 0
    endloop
  endfacet
endsolid OpenSCAD_Model
