solid OpenSCAD_Model
  facet normal 0.500027 -0.86601 0
    outer loop
      vertex 65.3143 0 -25.4
      vertex 65.8219 0.293084 25.4
      vertex 65.3143 0 25.4
    endloop
  endfacet
  facet normal 0.500027 -0.86601 0
    outer loop
      vertex 65.8219 0.293084 25.4
      vertex 65.3143 0 -25.4
      vertex 65.8219 0.293084 -25.4
    endloop
  endfacet
  facet normal 0.499973 -0.866041 0
    outer loop
      vertex -33.1648 -56.8569 -25.4
      vertex -32.6571 -56.5638 25.4
      vertex -33.1648 -56.8569 25.4
    endloop
  endfacet
  facet normal 0.499973 -0.866041 0
    outer loop
      vertex -32.6571 -56.5638 25.4
      vertex -33.1648 -56.8569 -25.4
      vertex -32.6571 -56.5638 -25.4
    endloop
  endfacet
  facet normal 0 0 1
    outer loop
      vertex -31.3223 -53.6982 25.4
      vertex -33.1648 -56.8569 25.4
      vertex -32.6571 -56.5638 25.4
    endloop
  endfacet
  facet normal 0 0 1
    outer loop
      vertex -62.1651 -0.276802 25.4
      vertex -33.1648 -56.8569 25.4
      vertex -31.3223 -53.6982 25.4
    endloop
  endfacet
  facet normal 0 0 1
    outer loop
      vertex -65.8219 -0.293084 25.4
      vertex -62.1651 -0.276802 25.4
      vertex -65.3143 0 25.4
    endloop
  endfacet
  facet normal 0 0 1
    outer loop
      vertex -62.1651 -0.276802 25.4
      vertex -65.8219 -0.293084 25.4
      vertex -33.1648 -56.8569 25.4
    endloop
  endfacet
  facet normal 0 0 1
    outer loop
      vertex -61.6857 0 25.4
      vertex -62.1651 0.276802 25.4
      vertex -62.1651 -0.276802 25.4
    endloop
  endfacet
  facet normal 0 0 1
    outer loop
      vertex -30.8429 -53.4214 25.4
      vertex -31.3223 -53.6982 25.4
      vertex -30.8429 -53.975 25.4
    endloop
  endfacet
  facet normal 0 0 1
    outer loop
      vertex 30.8429 53.975 25.4
      vertex 32.6571 56.5638 25.4
      vertex 32.6571 57.15 25.4
    endloop
  endfacet
  facet normal 0 0 1
    outer loop
      vertex 32.6571 56.5638 25.4
      vertex 30.8429 53.975 25.4
      vertex 31.3223 53.6982 25.4
    endloop
  endfacet
  facet normal 0 0 1
    outer loop
      vertex 32.6571 57.15 25.4
      vertex -30.8429 53.975 25.4
      vertex 30.8429 53.975 25.4
    endloop
  endfacet
  facet normal 0 0 1
    outer loop
      vertex -30.8429 53.975 25.4
      vertex -31.3223 53.6982 25.4
      vertex -30.8429 53.4214 25.4
    endloop
  endfacet
  facet normal -0 0 1
    outer loop
      vertex -32.6571 57.15 25.4
      vertex -30.8429 53.975 25.4
      vertex 32.6571 57.15 25.4
    endloop
  endfacet
  facet normal -0 0 1
    outer loop
      vertex -32.6571 56.5638 25.4
      vertex -30.8429 53.975 25.4
      vertex -32.6571 57.15 25.4
    endloop
  endfacet
  facet normal 0 0 1
    outer loop
      vertex -30.8429 53.975 25.4
      vertex -32.6571 56.5638 25.4
      vertex -31.3223 53.6982 25.4
    endloop
  endfacet
  facet normal 0 0 1
    outer loop
      vertex -33.1648 56.8569 25.4
      vertex -31.3223 53.6982 25.4
      vertex -32.6571 56.5638 25.4
    endloop
  endfacet
  facet normal 0 0 1
    outer loop
      vertex -33.1648 56.8569 25.4
      vertex -62.1651 0.276802 25.4
      vertex -31.3223 53.6982 25.4
    endloop
  endfacet
  facet normal 0 0 1
    outer loop
      vertex -62.1651 0.276802 25.4
      vertex -65.3143 0 25.4
      vertex -62.1651 -0.276802 25.4
    endloop
  endfacet
  facet normal -0 0 1
    outer loop
      vertex -65.8219 0.293084 25.4
      vertex -62.1651 0.276802 25.4
      vertex -33.1648 56.8569 25.4
    endloop
  endfacet
  facet normal 0 0 1
    outer loop
      vertex -62.1651 0.276802 25.4
      vertex -65.8219 0.293084 25.4
      vertex -65.3143 0 25.4
    endloop
  endfacet
  facet normal 0 0 1
    outer loop
      vertex 62.1651 0.276802 25.4
      vertex 61.6857 0 25.4
      vertex 62.1651 -0.276802 25.4
    endloop
  endfacet
  facet normal 0 0 1
    outer loop
      vertex 65.8219 0.293084 25.4
      vertex 62.1651 0.276802 25.4
      vertex 65.3143 0 25.4
    endloop
  endfacet
  facet normal 0 0 1
    outer loop
      vertex 33.1648 56.8569 25.4
      vertex 62.1651 0.276802 25.4
      vertex 65.8219 0.293084 25.4
    endloop
  endfacet
  facet normal 0 0 1
    outer loop
      vertex 31.3223 53.6982 25.4
      vertex 33.1648 56.8569 25.4
      vertex 32.6571 56.5638 25.4
    endloop
  endfacet
  facet normal 0 0 1
    outer loop
      vertex 33.1648 56.8569 25.4
      vertex 31.3223 53.6982 25.4
      vertex 62.1651 0.276802 25.4
    endloop
  endfacet
  facet normal 0 0 1
    outer loop
      vertex 62.1651 -0.276802 25.4
      vertex 65.3143 0 25.4
      vertex 62.1651 0.276802 25.4
    endloop
  endfacet
  facet normal 0 0 1
    outer loop
      vertex 65.3143 0 25.4
      vertex 62.1651 -0.276802 25.4
      vertex 65.8219 -0.293084 25.4
    endloop
  endfacet
  facet normal 0 0 1
    outer loop
      vertex 62.1651 -0.276802 25.4
      vertex 33.1648 -56.8569 25.4
      vertex 65.8219 -0.293084 25.4
    endloop
  endfacet
  facet normal -0 0 1
    outer loop
      vertex 31.3223 -53.6982 25.4
      vertex 33.1648 -56.8569 25.4
      vertex 62.1651 -0.276802 25.4
    endloop
  endfacet
  facet normal 0 0 1
    outer loop
      vertex 33.1648 -56.8569 25.4
      vertex 31.3223 -53.6982 25.4
      vertex 32.6571 -56.5638 25.4
    endloop
  endfacet
  facet normal -0 0 1
    outer loop
      vertex 30.8429 -53.975 25.4
      vertex 32.6571 -56.5638 25.4
      vertex 31.3223 -53.6982 25.4
    endloop
  endfacet
  facet normal 0 0 1
    outer loop
      vertex 30.8429 -53.975 25.4
      vertex 31.3223 -53.6982 25.4
      vertex 30.8429 -53.4214 25.4
    endloop
  endfacet
  facet normal 0 0 1
    outer loop
      vertex 32.6571 -56.5638 25.4
      vertex 30.8429 -53.975 25.4
      vertex 32.6571 -57.15 25.4
    endloop
  endfacet
  facet normal -0 0 1
    outer loop
      vertex -30.8429 -53.975 25.4
      vertex 32.6571 -57.15 25.4
      vertex 30.8429 -53.975 25.4
    endloop
  endfacet
  facet normal 0 0 1
    outer loop
      vertex -32.6571 -56.5638 25.4
      vertex -30.8429 -53.975 25.4
      vertex -31.3223 -53.6982 25.4
    endloop
  endfacet
  facet normal 0 0 1
    outer loop
      vertex -32.6571 -57.15 25.4
      vertex -30.8429 -53.975 25.4
      vertex -32.6571 -56.5638 25.4
    endloop
  endfacet
  facet normal 0 0 1
    outer loop
      vertex -30.8429 -53.975 25.4
      vertex -32.6571 -57.15 25.4
      vertex 32.6571 -57.15 25.4
    endloop
  endfacet
  facet normal 0 0 1
    outer loop
      vertex 31.3223 53.6982 25.4
      vertex 30.8429 53.975 25.4
      vertex 30.8429 53.4214 25.4
    endloop
  endfacet
  facet normal -0 0 -1
    outer loop
      vertex 65.8219 -0.293084 -25.4
      vertex 33.1648 -56.8569 -25.4
      vertex 65.3143 0 -25.4
    endloop
  endfacet
  facet normal 0 0 -1
    outer loop
      vertex 65.3143 0 -25.4
      vertex 33.1648 56.8569 -25.4
      vertex 65.8219 0.293084 -25.4
    endloop
  endfacet
  facet normal 0 0 -1
    outer loop
      vertex 32.6571 -56.5638 -25.4
      vertex 65.3143 0 -25.4
      vertex 33.1648 -56.8569 -25.4
    endloop
  endfacet
  facet normal 0 0 -1
    outer loop
      vertex 32.6571 56.5638 -25.4
      vertex 65.3143 0 -25.4
      vertex 32.6571 -56.5638 -25.4
    endloop
  endfacet
  facet normal 0 0 -1
    outer loop
      vertex 65.3143 0 -25.4
      vertex 32.6571 56.5638 -25.4
      vertex 33.1648 56.8569 -25.4
    endloop
  endfacet
  facet normal 0 0 -1
    outer loop
      vertex -65.3143 0 -25.4
      vertex -32.6571 -56.5638 -25.4
      vertex -33.1648 -56.8569 -25.4
    endloop
  endfacet
  facet normal 0 0 -1
    outer loop
      vertex -32.6571 -56.5638 -25.4
      vertex -65.3143 0 -25.4
      vertex -32.6571 56.5638 -25.4
    endloop
  endfacet
  facet normal -0 0 -1
    outer loop
      vertex -32.6571 56.5638 -25.4
      vertex -65.3143 0 -25.4
      vertex -33.1648 56.8569 -25.4
    endloop
  endfacet
  facet normal 0 -0 -1
    outer loop
      vertex -65.3143 0 -25.4
      vertex -33.1648 -56.8569 -25.4
      vertex -65.8219 -0.293084 -25.4
    endloop
  endfacet
  facet normal 0 0 -1
    outer loop
      vertex -32.6571 -56.5638 -25.4
      vertex 32.6571 -56.5638 -25.4
      vertex 32.6571 -57.15 -25.4
    endloop
  endfacet
  facet normal 0 0 -1
    outer loop
      vertex 32.6571 -56.5638 -25.4
      vertex -32.6571 -56.5638 -25.4
      vertex 32.6571 56.5638 -25.4
    endloop
  endfacet
  facet normal 0 0 -1
    outer loop
      vertex -32.6571 -56.5638 -25.4
      vertex 32.6571 -57.15 -25.4
      vertex -32.6571 -57.15 -25.4
    endloop
  endfacet
  facet normal 0 0 -1
    outer loop
      vertex -32.6571 56.5638 -25.4
      vertex 32.6571 56.5638 -25.4
      vertex -32.6571 -56.5638 -25.4
    endloop
  endfacet
  facet normal 0 0 -1
    outer loop
      vertex 32.6571 56.5638 -25.4
      vertex -32.6571 56.5638 -25.4
      vertex 32.6571 57.15 -25.4
    endloop
  endfacet
  facet normal -0 0 -1
    outer loop
      vertex 32.6571 57.15 -25.4
      vertex -32.6571 56.5638 -25.4
      vertex -32.6571 57.15 -25.4
    endloop
  endfacet
  facet normal 0 0 -1
    outer loop
      vertex -33.1648 56.8569 -25.4
      vertex -65.3143 0 -25.4
      vertex -65.8219 0.293084 -25.4
    endloop
  endfacet
  facet normal -0.499973 0.866041 0
    outer loop
      vertex 33.1648 56.8569 -25.4
      vertex 32.6571 56.5638 25.4
      vertex 33.1648 56.8569 25.4
    endloop
  endfacet
  facet normal -0.499973 0.866041 0
    outer loop
      vertex 32.6571 56.5638 25.4
      vertex 33.1648 56.8569 -25.4
      vertex 32.6571 56.5638 -25.4
    endloop
  endfacet
  facet normal -0.500027 0.86601 0
    outer loop
      vertex -65.3143 0 -25.4
      vertex -65.8219 -0.293084 25.4
      vertex -65.3143 0 25.4
    endloop
  endfacet
  facet normal -0.500027 0.86601 0
    outer loop
      vertex -65.8219 -0.293084 25.4
      vertex -65.3143 0 -25.4
      vertex -65.8219 -0.293084 -25.4
    endloop
  endfacet
  facet normal 0.866026 0.5 0
    outer loop
      vertex 65.8219 0.293084 25.4
      vertex 33.1648 56.8569 -25.4
      vertex 33.1648 56.8569 25.4
    endloop
  endfacet
  facet normal 0.866026 0.5 0
    outer loop
      vertex 33.1648 56.8569 -25.4
      vertex 65.8219 0.293084 25.4
      vertex 65.8219 0.293084 -25.4
    endloop
  endfacet
  facet normal -0.866026 -0.5 0
    outer loop
      vertex -33.1648 -56.8569 -25.4
      vertex -65.8219 -0.293084 25.4
      vertex -65.8219 -0.293084 -25.4
    endloop
  endfacet
  facet normal -0.866026 -0.5 0
    outer loop
      vertex -65.8219 -0.293084 25.4
      vertex -33.1648 -56.8569 -25.4
      vertex -33.1648 -56.8569 25.4
    endloop
  endfacet
  facet normal 1 -0 0
    outer loop
      vertex 32.6571 56.5638 25.4
      vertex 32.6571 57.15 -25.4
      vertex 32.6571 57.15 25.4
    endloop
  endfacet
  facet normal 1 0 0
    outer loop
      vertex 32.6571 57.15 -25.4
      vertex 32.6571 56.5638 25.4
      vertex 32.6571 56.5638 -25.4
    endloop
  endfacet
  facet normal 1 -0 0
    outer loop
      vertex 32.6571 -57.15 25.4
      vertex 32.6571 -56.5638 -25.4
      vertex 32.6571 -56.5638 25.4
    endloop
  endfacet
  facet normal 1 0 0
    outer loop
      vertex 32.6571 -56.5638 -25.4
      vertex 32.6571 -57.15 25.4
      vertex 32.6571 -57.15 -25.4
    endloop
  endfacet
  facet normal -1 0 0
    outer loop
      vertex -32.6571 56.5638 -25.4
      vertex -32.6571 57.15 25.4
      vertex -32.6571 57.15 -25.4
    endloop
  endfacet
  facet normal -1 -0 0
    outer loop
      vertex -32.6571 57.15 25.4
      vertex -32.6571 56.5638 -25.4
      vertex -32.6571 56.5638 25.4
    endloop
  endfacet
  facet normal -1 0 0
    outer loop
      vertex -32.6571 -57.15 -25.4
      vertex -32.6571 -56.5638 25.4
      vertex -32.6571 -56.5638 -25.4
    endloop
  endfacet
  facet normal -1 -0 0
    outer loop
      vertex -32.6571 -56.5638 25.4
      vertex -32.6571 -57.15 -25.4
      vertex -32.6571 -57.15 25.4
    endloop
  endfacet
  facet normal 0 1 -0
    outer loop
      vertex 32.6571 57.15 -25.4
      vertex -32.6571 57.15 25.4
      vertex 32.6571 57.15 25.4
    endloop
  endfacet
  facet normal 0 1 0
    outer loop
      vertex -32.6571 57.15 25.4
      vertex 32.6571 57.15 -25.4
      vertex -32.6571 57.15 -25.4
    endloop
  endfacet
  facet normal 0 -1 0
    outer loop
      vertex -32.6571 -57.15 -25.4
      vertex 32.6571 -57.15 25.4
      vertex -32.6571 -57.15 25.4
    endloop
  endfacet
  facet normal 0 -1 -0
    outer loop
      vertex 32.6571 -57.15 25.4
      vertex -32.6571 -57.15 -25.4
      vertex 32.6571 -57.15 -25.4
    endloop
  endfacet
  facet normal 0.499973 0.866041 -0
    outer loop
      vertex -32.6571 56.5638 -25.4
      vertex -33.1648 56.8569 25.4
      vertex -32.6571 56.5638 25.4
    endloop
  endfacet
  facet normal 0.499973 0.866041 0
    outer loop
      vertex -33.1648 56.8569 25.4
      vertex -32.6571 56.5638 -25.4
      vertex -33.1648 56.8569 -25.4
    endloop
  endfacet
  facet normal 0.500027 0.86601 -0
    outer loop
      vertex 65.8219 -0.293084 -25.4
      vertex 65.3143 0 25.4
      vertex 65.8219 -0.293084 25.4
    endloop
  endfacet
  facet normal 0.500027 0.86601 0
    outer loop
      vertex 65.3143 0 25.4
      vertex 65.8219 -0.293084 -25.4
      vertex 65.3143 0 -25.4
    endloop
  endfacet
  facet normal -0.500027 -0.86601 0
    outer loop
      vertex -65.8219 0.293084 -25.4
      vertex -65.3143 0 25.4
      vertex -65.8219 0.293084 25.4
    endloop
  endfacet
  facet normal -0.500027 -0.86601 -0
    outer loop
      vertex -65.3143 0 25.4
      vertex -65.8219 0.293084 -25.4
      vertex -65.3143 0 -25.4
    endloop
  endfacet
  facet normal -0.499973 -0.866041 0
    outer loop
      vertex 32.6571 -56.5638 -25.4
      vertex 33.1648 -56.8569 25.4
      vertex 32.6571 -56.5638 25.4
    endloop
  endfacet
  facet normal -0.499973 -0.866041 -0
    outer loop
      vertex 33.1648 -56.8569 25.4
      vertex 32.6571 -56.5638 -25.4
      vertex 33.1648 -56.8569 -25.4
    endloop
  endfacet
  facet normal -0.866026 0.5 0
    outer loop
      vertex -65.8219 0.293084 -25.4
      vertex -33.1648 56.8569 25.4
      vertex -33.1648 56.8569 -25.4
    endloop
  endfacet
  facet normal -0.866026 0.5 0
    outer loop
      vertex -33.1648 56.8569 25.4
      vertex -65.8219 0.293084 -25.4
      vertex -65.8219 0.293084 25.4
    endloop
  endfacet
  facet normal 0.866026 -0.5 0
    outer loop
      vertex 33.1648 -56.8569 25.4
      vertex 65.8219 -0.293084 -25.4
      vertex 65.8219 -0.293084 25.4
    endloop
  endfacet
  facet normal 0.866026 -0.5 0
    outer loop
      vertex 65.8219 -0.293084 -25.4
      vertex 33.1648 -56.8569 25.4
      vertex 33.1648 -56.8569 -25.4
    endloop
  endfacet
  facet normal -0.500027 0.86601 0
    outer loop
      vertex 62.1651 0.276802 -22.225
      vertex 61.6857 0 25.4
      vertex 62.1651 0.276802 25.4
    endloop
  endfacet
  facet normal -0.500027 0.86601 0
    outer loop
      vertex 61.6857 0 25.4
      vertex 62.1651 0.276802 -22.225
      vertex 61.6857 0 -22.225
    endloop
  endfacet
  facet normal -0.500025 0.866011 0
    outer loop
      vertex -30.8429 -53.4214 -22.225
      vertex -31.3223 -53.6982 25.4
      vertex -30.8429 -53.4214 25.4
    endloop
  endfacet
  facet normal -0.500025 0.866011 0
    outer loop
      vertex -31.3223 -53.6982 25.4
      vertex -30.8429 -53.4214 -22.225
      vertex -31.3223 -53.6982 -22.225
    endloop
  endfacet
  facet normal 0 0 1
    outer loop
      vertex 62.1651 0.276802 -22.225
      vertex 31.3223 53.6982 -22.225
      vertex 61.6857 0 -22.225
    endloop
  endfacet
  facet normal 0 0 1
    outer loop
      vertex 61.6857 0 -22.225
      vertex 31.3223 -53.6982 -22.225
      vertex 62.1651 -0.276802 -22.225
    endloop
  endfacet
  facet normal -0 0 1
    outer loop
      vertex 30.8429 53.4214 -22.225
      vertex 61.6857 0 -22.225
      vertex 31.3223 53.6982 -22.225
    endloop
  endfacet
  facet normal 0 0 1
    outer loop
      vertex 30.8429 -53.4214 -22.225
      vertex 61.6857 0 -22.225
      vertex 30.8429 53.4214 -22.225
    endloop
  endfacet
  facet normal 0 0 1
    outer loop
      vertex 61.6857 0 -22.225
      vertex 30.8429 -53.4214 -22.225
      vertex 31.3223 -53.6982 -22.225
    endloop
  endfacet
  facet normal 0 0 1
    outer loop
      vertex -61.6857 0 -22.225
      vertex -30.8429 53.4214 -22.225
      vertex -31.3223 53.6982 -22.225
    endloop
  endfacet
  facet normal 0 0 1
    outer loop
      vertex -30.8429 53.4214 -22.225
      vertex -61.6857 0 -22.225
      vertex -30.8429 -53.4214 -22.225
    endloop
  endfacet
  facet normal 0 0 1
    outer loop
      vertex -30.8429 -53.4214 -22.225
      vertex -61.6857 0 -22.225
      vertex -31.3223 -53.6982 -22.225
    endloop
  endfacet
  facet normal 0 -0 1
    outer loop
      vertex -61.6857 0 -22.225
      vertex -31.3223 53.6982 -22.225
      vertex -62.1651 0.276802 -22.225
    endloop
  endfacet
  facet normal 0 0 1
    outer loop
      vertex -30.8429 53.4214 -22.225
      vertex 30.8429 53.4214 -22.225
      vertex 30.8429 53.975 -22.225
    endloop
  endfacet
  facet normal 0 0 1
    outer loop
      vertex 30.8429 53.4214 -22.225
      vertex -30.8429 53.4214 -22.225
      vertex 30.8429 -53.4214 -22.225
    endloop
  endfacet
  facet normal 0 0 1
    outer loop
      vertex -30.8429 53.4214 -22.225
      vertex 30.8429 53.975 -22.225
      vertex -30.8429 53.975 -22.225
    endloop
  endfacet
  facet normal 0 0 1
    outer loop
      vertex -30.8429 -53.4214 -22.225
      vertex 30.8429 -53.4214 -22.225
      vertex -30.8429 53.4214 -22.225
    endloop
  endfacet
  facet normal 0 0 1
    outer loop
      vertex 30.8429 -53.4214 -22.225
      vertex -30.8429 -53.4214 -22.225
      vertex 30.8429 -53.975 -22.225
    endloop
  endfacet
  facet normal 0 0 1
    outer loop
      vertex 30.8429 -53.975 -22.225
      vertex -30.8429 -53.4214 -22.225
      vertex -30.8429 -53.975 -22.225
    endloop
  endfacet
  facet normal 0 0 1
    outer loop
      vertex -31.3223 -53.6982 -22.225
      vertex -61.6857 0 -22.225
      vertex -62.1651 -0.276802 -22.225
    endloop
  endfacet
  facet normal 0.500025 -0.866011 0
    outer loop
      vertex 30.8429 53.4214 -22.225
      vertex 31.3223 53.6982 25.4
      vertex 30.8429 53.4214 25.4
    endloop
  endfacet
  facet normal 0.500025 -0.866011 0
    outer loop
      vertex 31.3223 53.6982 25.4
      vertex 30.8429 53.4214 -22.225
      vertex 31.3223 53.6982 -22.225
    endloop
  endfacet
  facet normal 0.500027 -0.86601 0
    outer loop
      vertex -62.1651 -0.276802 -22.225
      vertex -61.6857 0 25.4
      vertex -62.1651 -0.276802 25.4
    endloop
  endfacet
  facet normal 0.500027 -0.86601 0
    outer loop
      vertex -61.6857 0 25.4
      vertex -62.1651 -0.276802 -22.225
      vertex -61.6857 0 -22.225
    endloop
  endfacet
  facet normal -0.866026 -0.499999 0
    outer loop
      vertex 62.1651 0.276802 -22.225
      vertex 31.3223 53.6982 25.4
      vertex 31.3223 53.6982 -22.225
    endloop
  endfacet
  facet normal -0.866026 -0.499999 0
    outer loop
      vertex 31.3223 53.6982 25.4
      vertex 62.1651 0.276802 -22.225
      vertex 62.1651 0.276802 25.4
    endloop
  endfacet
  facet normal 0.866026 0.499999 0
    outer loop
      vertex -31.3223 -53.6982 25.4
      vertex -62.1651 -0.276802 -22.225
      vertex -62.1651 -0.276802 25.4
    endloop
  endfacet
  facet normal 0.866026 0.499999 0
    outer loop
      vertex -62.1651 -0.276802 -22.225
      vertex -31.3223 -53.6982 25.4
      vertex -31.3223 -53.6982 -22.225
    endloop
  endfacet
  facet normal -1 0 0
    outer loop
      vertex 30.8429 53.4214 -22.225
      vertex 30.8429 53.975 25.4
      vertex 30.8429 53.975 -22.225
    endloop
  endfacet
  facet normal -1 -0 0
    outer loop
      vertex 30.8429 53.975 25.4
      vertex 30.8429 53.4214 -22.225
      vertex 30.8429 53.4214 25.4
    endloop
  endfacet
  facet normal -1 0 0
    outer loop
      vertex 30.8429 -53.975 -22.225
      vertex 30.8429 -53.4214 25.4
      vertex 30.8429 -53.4214 -22.225
    endloop
  endfacet
  facet normal -1 -0 0
    outer loop
      vertex 30.8429 -53.4214 25.4
      vertex 30.8429 -53.975 -22.225
      vertex 30.8429 -53.975 25.4
    endloop
  endfacet
  facet normal 1 -0 0
    outer loop
      vertex -30.8429 53.4214 25.4
      vertex -30.8429 53.975 -22.225
      vertex -30.8429 53.975 25.4
    endloop
  endfacet
  facet normal 1 0 0
    outer loop
      vertex -30.8429 53.975 -22.225
      vertex -30.8429 53.4214 25.4
      vertex -30.8429 53.4214 -22.225
    endloop
  endfacet
  facet normal 1 -0 0
    outer loop
      vertex -30.8429 -53.975 25.4
      vertex -30.8429 -53.4214 -22.225
      vertex -30.8429 -53.4214 25.4
    endloop
  endfacet
  facet normal 1 0 0
    outer loop
      vertex -30.8429 -53.4214 -22.225
      vertex -30.8429 -53.975 25.4
      vertex -30.8429 -53.975 -22.225
    endloop
  endfacet
  facet normal 0 -1 0
    outer loop
      vertex -30.8429 53.975 -22.225
      vertex 30.8429 53.975 25.4
      vertex -30.8429 53.975 25.4
    endloop
  endfacet
  facet normal 0 -1 -0
    outer loop
      vertex 30.8429 53.975 25.4
      vertex -30.8429 53.975 -22.225
      vertex 30.8429 53.975 -22.225
    endloop
  endfacet
  facet normal 0 1 -0
    outer loop
      vertex 30.8429 -53.975 -22.225
      vertex -30.8429 -53.975 25.4
      vertex 30.8429 -53.975 25.4
    endloop
  endfacet
  facet normal 0 1 0
    outer loop
      vertex -30.8429 -53.975 25.4
      vertex 30.8429 -53.975 -22.225
      vertex -30.8429 -53.975 -22.225
    endloop
  endfacet
  facet normal -0.500025 -0.866011 0
    outer loop
      vertex -31.3223 53.6982 -22.225
      vertex -30.8429 53.4214 25.4
      vertex -31.3223 53.6982 25.4
    endloop
  endfacet
  facet normal -0.500025 -0.866011 -0
    outer loop
      vertex -30.8429 53.4214 25.4
      vertex -31.3223 53.6982 -22.225
      vertex -30.8429 53.4214 -22.225
    endloop
  endfacet
  facet normal -0.500027 -0.86601 0
    outer loop
      vertex 61.6857 0 -22.225
      vertex 62.1651 -0.276802 25.4
      vertex 61.6857 0 25.4
    endloop
  endfacet
  facet normal -0.500027 -0.86601 -0
    outer loop
      vertex 62.1651 -0.276802 25.4
      vertex 61.6857 0 -22.225
      vertex 62.1651 -0.276802 -22.225
    endloop
  endfacet
  facet normal 0.500027 0.86601 -0
    outer loop
      vertex -61.6857 0 -22.225
      vertex -62.1651 0.276802 25.4
      vertex -61.6857 0 25.4
    endloop
  endfacet
  facet normal 0.500027 0.86601 0
    outer loop
      vertex -62.1651 0.276802 25.4
      vertex -61.6857 0 -22.225
      vertex -62.1651 0.276802 -22.225
    endloop
  endfacet
  facet normal 0.500025 0.866011 -0
    outer loop
      vertex 31.3223 -53.6982 -22.225
      vertex 30.8429 -53.4214 25.4
      vertex 31.3223 -53.6982 25.4
    endloop
  endfacet
  facet normal 0.500025 0.866011 0
    outer loop
      vertex 30.8429 -53.4214 25.4
      vertex 31.3223 -53.6982 -22.225
      vertex 30.8429 -53.4214 -22.225
    endloop
  endfacet
  facet normal 0.866026 -0.499999 0
    outer loop
      vertex -62.1651 0.276802 25.4
      vertex -31.3223 53.6982 -22.225
      vertex -31.3223 53.6982 25.4
    endloop
  endfacet
  facet normal 0.866026 -0.499999 0
    outer loop
      vertex -31.3223 53.6982 -22.225
      vertex -62.1651 0.276802 25.4
      vertex -62.1651 0.276802 -22.225
    endloop
  endfacet
  facet normal -0.866026 0.499999 0
    outer loop
      vertex 31.3223 -53.6982 -22.225
      vertex 62.1651 -0.276802 25.4
      vertex 62.1651 -0.276802 -22.225
    endloop
  endfacet
  facet normal -0.866026 0.499999 0
    outer loop
      vertex 62.1651 -0.276802 25.4
      vertex 31.3223 -53.6982 -22.225
      vertex 31.3223 -53.6982 25.4
    endloop
  endfacet
endsolid OpenSCAD_Model
