solid OpenSCAD_Model
  facet normal 1 -0 0
    outer loop
      vertex 33.12 -13.72 5
      vertex 33.12 13.72 1
      vertex 33.12 13.72 5
    endloop
  endfacet
  facet normal 1 0 0
    outer loop
      vertex 33.12 13.72 1
      vertex 33.12 -13.72 5
      vertex 33.12 -13.72 1
    endloop
  endfacet
  facet normal 0 0 1
    outer loop
      vertex 33.12 13.72 5
      vertex 31.12 11.72 5
      vertex 33.12 -13.72 5
    endloop
  endfacet
  facet normal 0 0 1
    outer loop
      vertex 33.12 13.72 5
      vertex -31.12 11.72 5
      vertex 31.12 11.72 5
    endloop
  endfacet
  facet normal 0 0 1
    outer loop
      vertex -31.12 11.72 5
      vertex -33.12 13.72 5
      vertex -31.12 -11.72 5
    endloop
  endfacet
  facet normal -0 0 1
    outer loop
      vertex -33.12 13.72 5
      vertex -31.12 11.72 5
      vertex 33.12 13.72 5
    endloop
  endfacet
  facet normal -0 0 1
    outer loop
      vertex 31.12 -11.72 5
      vertex 33.12 -13.72 5
      vertex 31.12 11.72 5
    endloop
  endfacet
  facet normal -0 0 1
    outer loop
      vertex -31.12 -11.72 5
      vertex 33.12 -13.72 5
      vertex 31.12 -11.72 5
    endloop
  endfacet
  facet normal 0 0 1
    outer loop
      vertex -31.12 -11.72 5
      vertex -33.12 -13.72 5
      vertex 33.12 -13.72 5
    endloop
  endfacet
  facet normal 0 0 1
    outer loop
      vertex -33.12 -13.72 5
      vertex -31.12 -11.72 5
      vertex -33.12 13.72 5
    endloop
  endfacet
  facet normal 0 0 -1
    outer loop
      vertex -35.12 -15.72 -1
      vertex 35.12 15.72 -1
      vertex 35.12 -15.72 -1
    endloop
  endfacet
  facet normal -0 0 -1
    outer loop
      vertex 35.12 15.72 -1
      vertex -35.12 -15.72 -1
      vertex -35.12 15.72 -1
    endloop
  endfacet
  facet normal -1 0 0
    outer loop
      vertex -33.12 -13.72 1
      vertex -33.12 13.72 5
      vertex -33.12 13.72 1
    endloop
  endfacet
  facet normal -1 -0 0
    outer loop
      vertex -33.12 13.72 5
      vertex -33.12 -13.72 1
      vertex -33.12 -13.72 5
    endloop
  endfacet
  facet normal 0 1 -0
    outer loop
      vertex 33.12 13.72 1
      vertex -33.12 13.72 5
      vertex 33.12 13.72 5
    endloop
  endfacet
  facet normal 0 1 0
    outer loop
      vertex -33.12 13.72 5
      vertex 33.12 13.72 1
      vertex -33.12 13.72 1
    endloop
  endfacet
  facet normal 0 -1 0
    outer loop
      vertex -33.12 -13.72 1
      vertex 33.12 -13.72 5
      vertex -33.12 -13.72 5
    endloop
  endfacet
  facet normal 0 -1 -0
    outer loop
      vertex 33.12 -13.72 5
      vertex -33.12 -13.72 1
      vertex 33.12 -13.72 1
    endloop
  endfacet
  facet normal -1 0 0
    outer loop
      vertex 31.12 -11.72 1
      vertex 31.12 11.72 5
      vertex 31.12 11.72 1
    endloop
  endfacet
  facet normal -1 -0 0
    outer loop
      vertex 31.12 11.72 5
      vertex 31.12 -11.72 1
      vertex 31.12 -11.72 5
    endloop
  endfacet
  facet normal -0 0 1
    outer loop
      vertex -31.12 11.72 1
      vertex 31.12 -11.72 1
      vertex 31.12 11.72 1
    endloop
  endfacet
  facet normal 0 0 1
    outer loop
      vertex 31.12 -11.72 1
      vertex -31.12 11.72 1
      vertex -31.12 -11.72 1
    endloop
  endfacet
  facet normal 0 0 1
    outer loop
      vertex 35.12 15.72 1
      vertex 33.12 13.72 1
      vertex 35.12 -15.72 1
    endloop
  endfacet
  facet normal 0 0 1
    outer loop
      vertex 35.12 15.72 1
      vertex -33.12 13.72 1
      vertex 33.12 13.72 1
    endloop
  endfacet
  facet normal 0 0 1
    outer loop
      vertex -33.12 13.72 1
      vertex -35.12 15.72 1
      vertex -33.12 -13.72 1
    endloop
  endfacet
  facet normal -0 0 1
    outer loop
      vertex -35.12 15.72 1
      vertex -33.12 13.72 1
      vertex 35.12 15.72 1
    endloop
  endfacet
  facet normal -0 0 1
    outer loop
      vertex 33.12 -13.72 1
      vertex 35.12 -15.72 1
      vertex 33.12 13.72 1
    endloop
  endfacet
  facet normal -0 0 1
    outer loop
      vertex -33.12 -13.72 1
      vertex 35.12 -15.72 1
      vertex 33.12 -13.72 1
    endloop
  endfacet
  facet normal 0 0 1
    outer loop
      vertex -33.12 -13.72 1
      vertex -35.12 -15.72 1
      vertex 35.12 -15.72 1
    endloop
  endfacet
  facet normal 0 0 1
    outer loop
      vertex -35.12 -15.72 1
      vertex -33.12 -13.72 1
      vertex -35.12 15.72 1
    endloop
  endfacet
  facet normal 1 -0 0
    outer loop
      vertex -31.12 -11.72 5
      vertex -31.12 11.72 1
      vertex -31.12 11.72 5
    endloop
  endfacet
  facet normal 1 0 0
    outer loop
      vertex -31.12 11.72 1
      vertex -31.12 -11.72 5
      vertex -31.12 -11.72 1
    endloop
  endfacet
  facet normal 0 -1 0
    outer loop
      vertex -31.12 11.72 1
      vertex 31.12 11.72 5
      vertex -31.12 11.72 5
    endloop
  endfacet
  facet normal 0 -1 -0
    outer loop
      vertex 31.12 11.72 5
      vertex -31.12 11.72 1
      vertex 31.12 11.72 1
    endloop
  endfacet
  facet normal 0 1 -0
    outer loop
      vertex 31.12 -11.72 1
      vertex -31.12 -11.72 5
      vertex 31.12 -11.72 5
    endloop
  endfacet
  facet normal 0 1 0
    outer loop
      vertex -31.12 -11.72 5
      vertex 31.12 -11.72 1
      vertex -31.12 -11.72 1
    endloop
  endfacet
  facet normal 1 -0 0
    outer loop
      vertex 35.12 -15.72 1
      vertex 35.12 15.72 -1
      vertex 35.12 15.72 1
    endloop
  endfacet
  facet normal 1 0 0
    outer loop
      vertex 35.12 15.72 -1
      vertex 35.12 -15.72 1
      vertex 35.12 -15.72 -1
    endloop
  endfacet
  facet normal -1 0 0
    outer loop
      vertex -35.12 -15.72 -1
      vertex -35.12 15.72 1
      vertex -35.12 15.72 -1
    endloop
  endfacet
  facet normal -1 -0 0
    outer loop
      vertex -35.12 15.72 1
      vertex -35.12 -15.72 -1
      vertex -35.12 -15.72 1
    endloop
  endfacet
  facet normal 0 1 -0
    outer loop
      vertex 35.12 15.72 -1
      vertex -35.12 15.72 1
      vertex 35.12 15.72 1
    endloop
  endfacet
  facet normal 0 1 0
    outer loop
      vertex -35.12 15.72 1
      vertex 35.12 15.72 -1
      vertex -35.12 15.72 -1
    endloop
  endfacet
  facet normal 0 -1 0
    outer loop
      vertex -35.12 -15.72 -1
      vertex 35.12 -15.72 1
      vertex -35.12 -15.72 1
    endloop
  endfacet
  facet normal 0 -1 -0
    outer loop
      vertex 35.12 -15.72 1
      vertex -35.12 -15.72 -1
      vertex 35.12 -15.72 -1
    endloop
  endfacet
endsolid OpenSCAD_Model
