solid OpenSCAD_Model
  facet normal 0.467174 0.884165 -0
    outer loop
      vertex -8.375 24.225 0
      vertex -15.722 28.107 2.001
      vertex -8.375 24.225 2.001
    endloop
  endfacet
  facet normal 0.467174 0.884165 0
    outer loop
      vertex -15.722 28.107 2.001
      vertex -8.375 24.225 0
      vertex -15.722 28.107 0
    endloop
  endfacet
  facet normal -0.499872 0.866099 0
    outer loop
      vertex -33.418 0.976 0
      vertex -38.259 -1.818 2.001
      vertex -33.418 0.976 2.001
    endloop
  endfacet
  facet normal -0.499872 0.866099 0
    outer loop
      vertex -38.259 -1.818 2.001
      vertex -33.418 0.976 0
      vertex -38.259 -1.818 0
    endloop
  endfacet
  facet normal -0.969768 0.244031 0
    outer loop
      vertex -21.456 -25.595 0
      vertex -19.728 -18.728 2.001
      vertex -19.728 -18.728 0
    endloop
  endfacet
  facet normal -0.969768 0.244031 0
    outer loop
      vertex -19.728 -18.728 2.001
      vertex -21.456 -25.595 0
      vertex -21.456 -25.595 2.001
    endloop
  endfacet
  facet normal -0.67406 -0.738676 0
    outer loop
      vertex -38.259 -1.818 0
      vertex -19.728 -18.728 2.001
      vertex -38.259 -1.818 2.001
    endloop
  endfacet
  facet normal -0.67406 -0.738676 -0
    outer loop
      vertex -19.728 -18.728 2.001
      vertex -38.259 -1.818 0
      vertex -19.728 -18.728 0
    endloop
  endfacet
  facet normal 0.705549 0.708662 -0
    outer loop
      vertex -13.217 3.187 0
      vertex -25.738 15.653 2.001
      vertex -13.217 3.187 2.001
    endloop
  endfacet
  facet normal 0.705549 0.708662 0
    outer loop
      vertex -25.738 15.653 2.001
      vertex -13.217 3.187 0
      vertex -25.738 15.653 0
    endloop
  endfacet
  facet normal 0.965965 0.258672 0
    outer loop
      vertex -2.668 27.249 2.001
      vertex -3.003 28.5 2
      vertex -3.003 28.5 2.001
    endloop
  endfacet
  facet normal 0.965965 0.258672 0
    outer loop
      vertex -3.003 28.5 2
      vertex -2.668 27.249 2.001
      vertex -2.668 27.249 2
    endloop
  endfacet
  facet normal 0.707107 0.707107 0
    outer loop
      vertex -1.751 26.332 2.001
      vertex -2.668 27.249 2
      vertex -2.668 27.249 2.001
    endloop
  endfacet
  facet normal 0.707107 0.707107 0
    outer loop
      vertex -2.668 27.249 2
      vertex -1.751 26.332 2.001
      vertex -1.751 26.332 2
    endloop
  endfacet
  facet normal -0.999718 0.0237266 0
    outer loop
      vertex -2.708 -38.148 0
      vertex -2.315 -21.589 2.001
      vertex -2.315 -21.589 0
    endloop
  endfacet
  facet normal -0.999718 0.0237266 0
    outer loop
      vertex -2.315 -21.589 2.001
      vertex -2.708 -38.148 0
      vertex -2.708 -38.148 2.001
    endloop
  endfacet
  facet normal -0.00120279 -0.999999 0
    outer loop
      vertex -2.708 -38.148 0
      vertex 1.449 -38.153 2.001
      vertex -2.708 -38.148 2.001
    endloop
  endfacet
  facet normal -0.00120279 -0.999999 -0
    outer loop
      vertex 1.449 -38.153 2.001
      vertex -2.708 -38.148 0
      vertex 1.449 -38.153 0
    endloop
  endfacet
  facet normal 0.258672 0.965965 -0
    outer loop
      vertex -0.5 25.997 2
      vertex -1.751 26.332 2.001
      vertex -0.5 25.997 2.001
    endloop
  endfacet
  facet normal 0.258672 0.965965 0
    outer loop
      vertex -1.751 26.332 2.001
      vertex -0.5 25.997 2
      vertex -1.751 26.332 2
    endloop
  endfacet
  facet normal -0.98653 0.163577 0
    outer loop
      vertex -26.739 9.616 0
      vertex -25.738 15.653 2.001
      vertex -25.738 15.653 0
    endloop
  endfacet
  facet normal -0.98653 0.163577 0
    outer loop
      vertex -25.738 15.653 2.001
      vertex -26.739 9.616 0
      vertex -26.739 9.616 2.001
    endloop
  endfacet
  facet normal 0.279899 0.960029 -0
    outer loop
      vertex -26.739 9.616 0
      vertex -38.092 12.926 2.001
      vertex -26.739 9.616 2.001
    endloop
  endfacet
  facet normal 0.279899 0.960029 0
    outer loop
      vertex -38.092 12.926 2.001
      vertex -26.739 9.616 0
      vertex -38.092 12.926 0
    endloop
  endfacet
  facet normal -0.931298 -0.364258 0
    outer loop
      vertex -33.418 0.976 0
      vertex -38.092 12.926 2.001
      vertex -38.092 12.926 0
    endloop
  endfacet
  facet normal -0.931298 -0.364258 0
    outer loop
      vertex -38.092 12.926 2.001
      vertex -33.418 0.976 0
      vertex -33.418 0.976 2.001
    endloop
  endfacet
  facet normal -0.994986 -0.100018 0
    outer loop
      vertex -13.217 3.187 0
      vertex -15.722 28.107 2.001
      vertex -15.722 28.107 0
    endloop
  endfacet
  facet normal -0.994986 -0.100018 0
    outer loop
      vertex -15.722 28.107 2.001
      vertex -13.217 3.187 0
      vertex -13.217 3.187 2.001
    endloop
  endfacet
  facet normal 0.98653 0.163577 0
    outer loop
      vertex 25.48 9.61 2.001
      vertex 24.479 15.647 0
      vertex 24.479 15.647 2.001
    endloop
  endfacet
  facet normal 0.98653 0.163577 0
    outer loop
      vertex 24.479 15.647 0
      vertex 25.48 9.61 2.001
      vertex 25.48 9.61 0
    endloop
  endfacet
  facet normal -0.279899 0.960029 0
    outer loop
      vertex 36.833 12.92 0
      vertex 25.48 9.61 2.001
      vertex 36.833 12.92 2.001
    endloop
  endfacet
  facet normal -0.279899 0.960029 0
    outer loop
      vertex 25.48 9.61 2.001
      vertex 36.833 12.92 0
      vertex 25.48 9.61 0
    endloop
  endfacet
  facet normal 0.931298 -0.364258 0
    outer loop
      vertex 32.159 0.969999 2.001
      vertex 36.833 12.92 0
      vertex 36.833 12.92 2.001
    endloop
  endfacet
  facet normal 0.931298 -0.364258 0
    outer loop
      vertex 36.833 12.92 0
      vertex 32.159 0.969999 2.001
      vertex 32.159 0.969999 0
    endloop
  endfacet
  facet normal 0.499795 0.866144 -0
    outer loop
      vertex 37.001 -1.824 0
      vertex 32.159 0.969999 2.001
      vertex 37.001 -1.824 2.001
    endloop
  endfacet
  facet normal 0.499795 0.866144 0
    outer loop
      vertex 32.159 0.969999 2.001
      vertex 37.001 -1.824 0
      vertex 32.159 0.969999 0
    endloop
  endfacet
  facet normal 0.674019 -0.738714 0
    outer loop
      vertex 18.469 -18.733 0
      vertex 37.001 -1.824 2.001
      vertex 18.469 -18.733 2.001
    endloop
  endfacet
  facet normal 0.674019 -0.738714 0
    outer loop
      vertex 37.001 -1.824 2.001
      vertex 18.469 -18.733 0
      vertex 37.001 -1.824 0
    endloop
  endfacet
  facet normal 0.969776 0.243997 0
    outer loop
      vertex 20.197 -25.601 2.001
      vertex 18.469 -18.733 0
      vertex 18.469 -18.733 2.001
    endloop
  endfacet
  facet normal 0.969776 0.243997 0
    outer loop
      vertex 18.469 -18.733 0
      vertex 20.197 -25.601 2.001
      vertex 20.197 -25.601 0
    endloop
  endfacet
  facet normal -0.204851 -0.978793 0
    outer loop
      vertex 1.056 -21.595 0
      vertex 20.197 -25.601 2.001
      vertex 1.056 -21.595 2.001
    endloop
  endfacet
  facet normal -0.204851 -0.978793 -0
    outer loop
      vertex 20.197 -25.601 2.001
      vertex 1.056 -21.595 0
      vertex 20.197 -25.601 0
    endloop
  endfacet
  facet normal 0.999718 0.0237281 0
    outer loop
      vertex 1.449 -38.153 2.001
      vertex 1.056 -21.595 0
      vertex 1.056 -21.595 2.001
    endloop
  endfacet
  facet normal 0.999718 0.0237281 0
    outer loop
      vertex 1.056 -21.595 0
      vertex 1.449 -38.153 2.001
      vertex 1.449 -38.153 0
    endloop
  endfacet
  facet normal 0.204851 -0.978793 0
    outer loop
      vertex -21.456 -25.595 0
      vertex -2.315 -21.589 2.001
      vertex -21.456 -25.595 2.001
    endloop
  endfacet
  facet normal 0.204851 -0.978793 0
    outer loop
      vertex -2.315 -21.589 2.001
      vertex -21.456 -25.595 0
      vertex -2.315 -21.589 0
    endloop
  endfacet
  facet normal -0.854516 0.519425 0
    outer loop
      vertex -8.375 24.225 0
      vertex -0.609 37.001 2.001
      vertex -0.609 37.001 0
    endloop
  endfacet
  facet normal -0.854516 0.519425 0
    outer loop
      vertex -0.609 37.001 2.001
      vertex -8.375 24.225 0
      vertex -8.375 24.225 2.001
    endloop
  endfacet
  facet normal 0.258672 -0.965965 0
    outer loop
      vertex -1.751 30.668 2
      vertex -0.5 31.003 2.001
      vertex -1.751 30.668 2.001
    endloop
  endfacet
  facet normal 0.258672 -0.965965 0
    outer loop
      vertex -0.5 31.003 2.001
      vertex -1.751 30.668 2
      vertex -0.5 31.003 2
    endloop
  endfacet
  facet normal 0.706721 -0.707492 0
    outer loop
      vertex -2.668 29.752 2
      vertex -1.751 30.668 2.001
      vertex -2.668 29.752 2.001
    endloop
  endfacet
  facet normal 0.706721 -0.707492 0
    outer loop
      vertex -1.751 30.668 2.001
      vertex -2.668 29.752 2
      vertex -1.751 30.668 2
    endloop
  endfacet
  facet normal 0.966017 -0.258479 0
    outer loop
      vertex -3.003 28.5 2.001
      vertex -2.668 29.752 2
      vertex -2.668 29.752 2.001
    endloop
  endfacet
  facet normal 0.966017 -0.258479 0
    outer loop
      vertex -2.668 29.752 2
      vertex -3.003 28.5 2.001
      vertex -3.003 28.5 2
    endloop
  endfacet
  facet normal 0 0 1
    outer loop
      vertex 7.116 24.221 2.001
      vertex 1.668 29.752 2.001
      vertex 2.003 28.5 2.001
    endloop
  endfacet
  facet normal 0 0 1
    outer loop
      vertex -0.609 37.001 2.001
      vertex 1.668 29.752 2.001
      vertex 7.116 24.221 2.001
    endloop
  endfacet
  facet normal 0 0 1
    outer loop
      vertex -0.609 37.001 2.001
      vertex 0.752 30.668 2.001
      vertex 1.668 29.752 2.001
    endloop
  endfacet
  facet normal 0 0 1
    outer loop
      vertex -0.609 37.001 2.001
      vertex -0.5 31.003 2.001
      vertex 0.752 30.668 2.001
    endloop
  endfacet
  facet normal 0 0 1
    outer loop
      vertex -0.609 37.001 2.001
      vertex -1.751 30.668 2.001
      vertex -0.5 31.003 2.001
    endloop
  endfacet
  facet normal 0 0 1
    outer loop
      vertex -0.609 37.001 2.001
      vertex -2.668 29.752 2.001
      vertex -1.751 30.668 2.001
    endloop
  endfacet
  facet normal 0 0 1
    outer loop
      vertex -2.668 29.752 2.001
      vertex -8.375 24.225 2.001
      vertex -3.003 28.5 2.001
    endloop
  endfacet
  facet normal 0 0 1
    outer loop
      vertex -8.375 24.225 2.001
      vertex -2.668 29.752 2.001
      vertex -0.609 37.001 2.001
    endloop
  endfacet
  facet normal 0 0 1
    outer loop
      vertex 14.463 28.103 2.001
      vertex 7.116 24.221 2.001
      vertex 11.958 3.181 2.001
    endloop
  endfacet
  facet normal 0 0 1
    outer loop
      vertex 36.833 12.92 2.001
      vertex 25.48 9.61 2.001
      vertex 32.159 0.969999 2.001
    endloop
  endfacet
  facet normal 0 0 1
    outer loop
      vertex 32.159 0.969999 2.001
      vertex 18.469 -18.733 2.001
      vertex 37.001 -1.824 2.001
    endloop
  endfacet
  facet normal -0 0 1
    outer loop
      vertex 11.958 3.181 2.001
      vertex 32.159 0.969999 2.001
      vertex 25.48 9.61 2.001
    endloop
  endfacet
  facet normal 0 0 1
    outer loop
      vertex 11.958 3.181 2.001
      vertex 25.48 9.61 2.001
      vertex 24.479 15.647 2.001
    endloop
  endfacet
  facet normal 0 0 1
    outer loop
      vertex 32.159 0.969999 2.001
      vertex 11.958 3.181 2.001
      vertex 18.469 -18.733 2.001
    endloop
  endfacet
  facet normal 0 0 1
    outer loop
      vertex 1.056 -21.595 2.001
      vertex 18.469 -18.733 2.001
      vertex 11.958 3.181 2.001
    endloop
  endfacet
  facet normal -0 0 1
    outer loop
      vertex 1.668 27.249 2.001
      vertex 7.116 24.221 2.001
      vertex 2.003 28.5 2.001
    endloop
  endfacet
  facet normal -0 0 1
    outer loop
      vertex 0.752 26.332 2.001
      vertex 7.116 24.221 2.001
      vertex 1.668 27.249 2.001
    endloop
  endfacet
  facet normal -0 0 1
    outer loop
      vertex -0.5 25.997 2.001
      vertex 7.116 24.221 2.001
      vertex 0.752 26.332 2.001
    endloop
  endfacet
  facet normal 0 0 1
    outer loop
      vertex 7.116 24.221 2.001
      vertex -0.5 25.997 2.001
      vertex 11.958 3.181 2.001
    endloop
  endfacet
  facet normal 0 0 1
    outer loop
      vertex 18.469 -18.733 2.001
      vertex 1.056 -21.595 2.001
      vertex 20.197 -25.601 2.001
    endloop
  endfacet
  facet normal 0 0 1
    outer loop
      vertex 11.958 3.181 2.001
      vertex -0.5 25.997 2.001
      vertex -13.217 3.187 2.001
    endloop
  endfacet
  facet normal 0 0 1
    outer loop
      vertex 11.958 3.181 2.001
      vertex -13.217 3.187 2.001
      vertex 1.056 -21.595 2.001
    endloop
  endfacet
  facet normal 0 0 1
    outer loop
      vertex -8.375 24.225 2.001
      vertex -0.5 25.997 2.001
      vertex -1.751 26.332 2.001
    endloop
  endfacet
  facet normal 0 0 1
    outer loop
      vertex 1.056 -21.595 2.001
      vertex -2.315 -21.589 2.001
      vertex 1.449 -38.153 2.001
    endloop
  endfacet
  facet normal 0 0 1
    outer loop
      vertex 1.449 -38.153 2.001
      vertex -2.315 -21.589 2.001
      vertex -2.708 -38.148 2.001
    endloop
  endfacet
  facet normal 0 0 1
    outer loop
      vertex -26.739 9.616 2.001
      vertex -38.092 12.926 2.001
      vertex -33.418 0.976 2.001
    endloop
  endfacet
  facet normal -0 0 1
    outer loop
      vertex -26.739 9.616 2.001
      vertex -13.217 3.187 2.001
      vertex -25.738 15.653 2.001
    endloop
  endfacet
  facet normal 0 0 1
    outer loop
      vertex -33.418 0.976 2.001
      vertex -13.217 3.187 2.001
      vertex -26.739 9.616 2.001
    endloop
  endfacet
  facet normal 0 0 1
    outer loop
      vertex -13.217 3.187 2.001
      vertex -33.418 0.976 2.001
      vertex -19.728 -18.728 2.001
    endloop
  endfacet
  facet normal 0 0 1
    outer loop
      vertex -19.728 -18.728 2.001
      vertex -33.418 0.976 2.001
      vertex -38.259 -1.818 2.001
    endloop
  endfacet
  facet normal 0 0 1
    outer loop
      vertex -8.375 24.225 2.001
      vertex -15.722 28.107 2.001
      vertex -13.217 3.187 2.001
    endloop
  endfacet
  facet normal 0 0 1
    outer loop
      vertex -8.375 24.225 2.001
      vertex -1.751 26.332 2.001
      vertex -2.668 27.249 2.001
    endloop
  endfacet
  facet normal 0 0 1
    outer loop
      vertex -8.375 24.225 2.001
      vertex -2.668 27.249 2.001
      vertex -3.003 28.5 2.001
    endloop
  endfacet
  facet normal 0 0 1
    outer loop
      vertex -0.5 25.997 2.001
      vertex -8.375 24.225 2.001
      vertex -13.217 3.187 2.001
    endloop
  endfacet
  facet normal 0 0 1
    outer loop
      vertex 1.056 -21.595 2.001
      vertex -13.217 3.187 2.001
      vertex -2.315 -21.589 2.001
    endloop
  endfacet
  facet normal -0 0 1
    outer loop
      vertex -19.728 -18.728 2.001
      vertex -2.315 -21.589 2.001
      vertex -13.217 3.187 2.001
    endloop
  endfacet
  facet normal 0 0 1
    outer loop
      vertex -2.315 -21.589 2.001
      vertex -19.728 -18.728 2.001
      vertex -21.456 -25.595 2.001
    endloop
  endfacet
  facet normal 0.855804 0.5173 0
    outer loop
      vertex 7.116 24.221 2.001
      vertex -0.609 37.001 0
      vertex -0.609 37.001 2.001
    endloop
  endfacet
  facet normal 0.855804 0.5173 0
    outer loop
      vertex -0.609 37.001 0
      vertex 7.116 24.221 2.001
      vertex 7.116 24.221 0
    endloop
  endfacet
  facet normal -0.966017 -0.258479 0
    outer loop
      vertex 2.003 28.5 2
      vertex 1.668 29.752 2.001
      vertex 1.668 29.752 2
    endloop
  endfacet
  facet normal -0.966017 -0.258479 0
    outer loop
      vertex 1.668 29.752 2.001
      vertex 2.003 28.5 2
      vertex 2.003 28.5 2.001
    endloop
  endfacet
  facet normal -0.707107 -0.707107 0
    outer loop
      vertex 1.668 29.752 2
      vertex 0.752 30.668 2.001
      vertex 0.752 30.668 2
    endloop
  endfacet
  facet normal -0.707107 -0.707107 0
    outer loop
      vertex 0.752 30.668 2.001
      vertex 1.668 29.752 2
      vertex 1.668 29.752 2.001
    endloop
  endfacet
  facet normal -0.258479 -0.966017 0
    outer loop
      vertex -0.5 31.003 2
      vertex 0.752 30.668 2.001
      vertex -0.5 31.003 2.001
    endloop
  endfacet
  facet normal -0.258479 -0.966017 -0
    outer loop
      vertex 0.752 30.668 2.001
      vertex -0.5 31.003 2
      vertex 0.752 30.668 2
    endloop
  endfacet
  facet normal -0.258479 0.966017 0
    outer loop
      vertex 0.752 26.332 2
      vertex -0.5 25.997 2.001
      vertex 0.752 26.332 2.001
    endloop
  endfacet
  facet normal -0.258479 0.966017 0
    outer loop
      vertex -0.5 25.997 2.001
      vertex 0.752 26.332 2
      vertex -0.5 25.997 2
    endloop
  endfacet
  facet normal -0.707492 0.706721 0
    outer loop
      vertex 0.752 26.332 2
      vertex 1.668 27.249 2.001
      vertex 1.668 27.249 2
    endloop
  endfacet
  facet normal -0.707492 0.706721 0
    outer loop
      vertex 1.668 27.249 2.001
      vertex 0.752 26.332 2
      vertex 0.752 26.332 2.001
    endloop
  endfacet
  facet normal -0.965965 0.258672 0
    outer loop
      vertex 1.668 27.249 2
      vertex 2.003 28.5 2.001
      vertex 2.003 28.5 2
    endloop
  endfacet
  facet normal -0.965965 0.258672 0
    outer loop
      vertex 2.003 28.5 2.001
      vertex 1.668 27.249 2
      vertex 1.668 27.249 2.001
    endloop
  endfacet
  facet normal -0.467174 0.884165 0
    outer loop
      vertex 14.463 28.103 0
      vertex 7.116 24.221 2.001
      vertex 14.463 28.103 2.001
    endloop
  endfacet
  facet normal -0.467174 0.884165 0
    outer loop
      vertex 7.116 24.221 2.001
      vertex 14.463 28.103 0
      vertex 7.116 24.221 0
    endloop
  endfacet
  facet normal 0.994986 -0.10001 0
    outer loop
      vertex 11.958 3.181 2.001
      vertex 14.463 28.103 0
      vertex 14.463 28.103 2.001
    endloop
  endfacet
  facet normal 0.994986 -0.10001 0
    outer loop
      vertex 14.463 28.103 0
      vertex 11.958 3.181 2.001
      vertex 11.958 3.181 0
    endloop
  endfacet
  facet normal -0.705549 0.708662 0
    outer loop
      vertex 24.479 15.647 0
      vertex 11.958 3.181 2.001
      vertex 24.479 15.647 2.001
    endloop
  endfacet
  facet normal -0.705549 0.708662 0
    outer loop
      vertex 11.958 3.181 2.001
      vertex 24.479 15.647 0
      vertex 11.958 3.181 0
    endloop
  endfacet
  facet normal 0 0 -1
    outer loop
      vertex -2.315 -21.589 0
      vertex 1.056 -21.595 0
      vertex 1.449 -38.153 0
    endloop
  endfacet
  facet normal 0 0 -1
    outer loop
      vertex -13.217 3.187 0
      vertex 1.056 -21.595 0
      vertex -2.315 -21.589 0
    endloop
  endfacet
  facet normal 0 -0 -1
    outer loop
      vertex -2.315 -21.589 0
      vertex 1.449 -38.153 0
      vertex -2.708 -38.148 0
    endloop
  endfacet
  facet normal 0 0 -1
    outer loop
      vertex 1.056 -21.595 0
      vertex 18.469 -18.733 0
      vertex 20.197 -25.601 0
    endloop
  endfacet
  facet normal -0 0 -1
    outer loop
      vertex 18.469 -18.733 0
      vertex 1.056 -21.595 0
      vertex 11.958 3.181 0
    endloop
  endfacet
  facet normal 0 0 -1
    outer loop
      vertex 1.056 -21.595 0
      vertex 7.116 24.221 0
      vertex 11.958 3.181 0
    endloop
  endfacet
  facet normal -0 0 -1
    outer loop
      vertex 7.116 24.221 0
      vertex 1.056 -21.595 0
      vertex -0.609 37.001 0
    endloop
  endfacet
  facet normal 0 0 -1
    outer loop
      vertex 18.469 -18.733 0
      vertex 32.159 0.969999 0
      vertex 37.001 -1.824 0
    endloop
  endfacet
  facet normal 0 0 -1
    outer loop
      vertex 11.958 3.181 0
      vertex 32.159 0.969999 0
      vertex 18.469 -18.733 0
    endloop
  endfacet
  facet normal 0 0 -1
    outer loop
      vertex 32.159 0.969999 0
      vertex 11.958 3.181 0
      vertex 25.48 9.61 0
    endloop
  endfacet
  facet normal -0 0 -1
    outer loop
      vertex 25.48 9.61 0
      vertex 11.958 3.181 0
      vertex 24.479 15.647 0
    endloop
  endfacet
  facet normal 0 0 -1
    outer loop
      vertex 36.833 12.92 0
      vertex 32.159 0.969999 0
      vertex 25.48 9.61 0
    endloop
  endfacet
  facet normal 0 0 -1
    outer loop
      vertex 14.463 28.103 0
      vertex 11.958 3.181 0
      vertex 7.116 24.221 0
    endloop
  endfacet
  facet normal 0 0 -1
    outer loop
      vertex 1.056 -21.595 0
      vertex -8.375 24.225 0
      vertex -0.609 37.001 0
    endloop
  endfacet
  facet normal 0 0 -1
    outer loop
      vertex 1.056 -21.595 0
      vertex -13.217 3.187 0
      vertex -8.375 24.225 0
    endloop
  endfacet
  facet normal 0 0 -1
    outer loop
      vertex -2.315 -21.589 0
      vertex -19.728 -18.728 0
      vertex -13.217 3.187 0
    endloop
  endfacet
  facet normal 0 -0 -1
    outer loop
      vertex -19.728 -18.728 0
      vertex -2.315 -21.589 0
      vertex -21.456 -25.595 0
    endloop
  endfacet
  facet normal -0 0 -1
    outer loop
      vertex -8.375 24.225 0
      vertex -13.217 3.187 0
      vertex -15.722 28.107 0
    endloop
  endfacet
  facet normal 0 0 -1
    outer loop
      vertex -33.418 0.976 0
      vertex -13.217 3.187 0
      vertex -19.728 -18.728 0
    endloop
  endfacet
  facet normal 0 0 -1
    outer loop
      vertex -13.217 3.187 0
      vertex -26.739 9.616 0
      vertex -25.738 15.653 0
    endloop
  endfacet
  facet normal -0 0 -1
    outer loop
      vertex -13.217 3.187 0
      vertex -33.418 0.976 0
      vertex -26.739 9.616 0
    endloop
  endfacet
  facet normal 0 -0 -1
    outer loop
      vertex -33.418 0.976 0
      vertex -19.728 -18.728 0
      vertex -38.259 -1.818 0
    endloop
  endfacet
  facet normal -0 0 -1
    outer loop
      vertex -26.739 9.616 0
      vertex -33.418 0.976 0
      vertex -38.092 12.926 0
    endloop
  endfacet
  facet normal 0 0 1
    outer loop
      vertex 1.668 29.752 2
      vertex 1.668 27.249 2
      vertex 2.003 28.5 2
    endloop
  endfacet
  facet normal 0 0 1
    outer loop
      vertex 0.752 30.668 2
      vertex 1.668 27.249 2
      vertex 1.668 29.752 2
    endloop
  endfacet
  facet normal 0 0 1
    outer loop
      vertex 0.752 30.668 2
      vertex 0.752 26.332 2
      vertex 1.668 27.249 2
    endloop
  endfacet
  facet normal 0 0 1
    outer loop
      vertex -0.5 31.003 2
      vertex 0.752 26.332 2
      vertex 0.752 30.668 2
    endloop
  endfacet
  facet normal 0 0 1
    outer loop
      vertex -0.5 31.003 2
      vertex -0.5 25.997 2
      vertex 0.752 26.332 2
    endloop
  endfacet
  facet normal -0 0 1
    outer loop
      vertex -1.751 30.668 2
      vertex -0.5 25.997 2
      vertex -0.5 31.003 2
    endloop
  endfacet
  facet normal 0 0 1
    outer loop
      vertex -1.751 30.668 2
      vertex -1.751 26.332 2
      vertex -0.5 25.997 2
    endloop
  endfacet
  facet normal -0 0 1
    outer loop
      vertex -2.668 29.752 2
      vertex -1.751 26.332 2
      vertex -1.751 30.668 2
    endloop
  endfacet
  facet normal 0 0 1
    outer loop
      vertex -2.668 29.752 2
      vertex -2.668 27.249 2
      vertex -1.751 26.332 2
    endloop
  endfacet
  facet normal 0 -0 1
    outer loop
      vertex -2.668 27.249 2
      vertex -2.668 29.752 2
      vertex -3.003 28.5 2
    endloop
  endfacet
endsolid OpenSCAD_Model
