solid OpenSCAD_Model
  facet normal -0.661317 0.750106 0
    outer loop
      vertex -31.8712 38.5257 0
      vertex -34.2274 36.4484 3
      vertex -31.8712 38.5257 3
    endloop
  endfacet
  facet normal -0.661317 0.750106 0
    outer loop
      vertex -34.2274 36.4484 3
      vertex -31.8712 38.5257 0
      vertex -34.2274 36.4484 0
    endloop
  endfacet
  facet normal 0.940882 -0.338735 0
    outer loop
      vertex 46.4888 -18.4062 3
      vertex 47.5528 -15.4508 0
      vertex 47.5528 -15.4508 3
    endloop
  endfacet
  facet normal 0.940882 -0.338735 0
    outer loop
      vertex 47.5528 -15.4508 0
      vertex 46.4888 -18.4062 3
      vertex 46.4888 -18.4062 0
    endloop
  endfacet
  facet normal 0.338735 -0.940882 0
    outer loop
      vertex 15.4508 -47.5528 0
      vertex 18.4062 -46.4888 3
      vertex 15.4508 -47.5528 3
    endloop
  endfacet
  facet normal 0.338735 -0.940882 0
    outer loop
      vertex 18.4062 -46.4888 3
      vertex 15.4508 -47.5528 0
      vertex 18.4062 -46.4888 0
    endloop
  endfacet
  facet normal 0.562062 -0.827095 0
    outer loop
      vertex 26.7913 -42.2164 0
      vertex 29.3893 -40.4509 3
      vertex 26.7913 -42.2164 3
    endloop
  endfacet
  facet normal 0.562062 -0.827095 0
    outer loop
      vertex 29.3893 -40.4509 3
      vertex 26.7913 -42.2164 0
      vertex 29.3893 -40.4509 0
    endloop
  endfacet
  facet normal 0.218142 -0.975917 0
    outer loop
      vertex 9.36907 -49.1144 0
      vertex 12.4345 -48.4292 3
      vertex 9.36907 -49.1144 3
    endloop
  endfacet
  facet normal 0.218142 -0.975917 0
    outer loop
      vertex 12.4345 -48.4292 3
      vertex 9.36907 -49.1144 0
      vertex 12.4345 -48.4292 0
    endloop
  endfacet
  facet normal -0.0314223 -0.999506 0
    outer loop
      vertex -3.13953 -49.9013 0
      vertex 0 -50 3
      vertex -3.13953 -49.9013 3
    endloop
  endfacet
  facet normal -0.0314223 -0.999506 -0
    outer loop
      vertex 0 -50 3
      vertex -3.13953 -49.9013 0
      vertex 0 -50 0
    endloop
  endfacet
  facet normal 0.0314223 -0.999506 0
    outer loop
      vertex 0 -50 0
      vertex 3.13953 -49.9013 3
      vertex 0 -50 3
    endloop
  endfacet
  facet normal 0.0314223 -0.999506 0
    outer loop
      vertex 3.13953 -49.9013 3
      vertex 0 -50 0
      vertex 3.13953 -49.9013 0
    endloop
  endfacet
  facet normal -0.790149 -0.612915 0
    outer loop
      vertex -38.5257 -31.8712 0
      vertex -40.4509 -29.3893 3
      vertex -40.4509 -29.3893 0
    endloop
  endfacet
  facet normal -0.790149 -0.612915 0
    outer loop
      vertex -40.4509 -29.3893 3
      vertex -38.5257 -31.8712 0
      vertex -38.5257 -31.8712 3
    endloop
  endfacet
  facet normal 0.156412 -0.987692 0
    outer loop
      vertex 6.26666 -49.6057 0
      vertex 9.36907 -49.1144 3
      vertex 6.26666 -49.6057 3
    endloop
  endfacet
  facet normal 0.156412 -0.987692 0
    outer loop
      vertex 9.36907 -49.1144 3
      vertex 6.26666 -49.6057 0
      vertex 9.36907 -49.1144 0
    endloop
  endfacet
  facet normal 0.790149 -0.612915 0
    outer loop
      vertex 38.5257 -31.8712 3
      vertex 40.4509 -29.3893 0
      vertex 40.4509 -29.3893 3
    endloop
  endfacet
  facet normal 0.790149 -0.612915 0
    outer loop
      vertex 40.4509 -29.3893 0
      vertex 38.5257 -31.8712 3
      vertex 38.5257 -31.8712 0
    endloop
  endfacet
  facet normal -0.940882 0.338735 0
    outer loop
      vertex -47.5528 15.4508 0
      vertex -46.4888 18.4062 3
      vertex -46.4888 18.4062 0
    endloop
  endfacet
  facet normal -0.940882 0.338735 0
    outer loop
      vertex -46.4888 18.4062 3
      vertex -47.5528 15.4508 0
      vertex -47.5528 15.4508 3
    endloop
  endfacet
  facet normal 0.960287 -0.279016 0
    outer loop
      vertex 47.5528 -15.4508 3
      vertex 48.4292 -12.4345 0
      vertex 48.4292 -12.4345 3
    endloop
  endfacet
  facet normal 0.960287 -0.279016 0
    outer loop
      vertex 48.4292 -12.4345 0
      vertex 47.5528 -15.4508 3
      vertex 47.5528 -15.4508 0
    endloop
  endfacet
  facet normal 0.860743 -0.50904 0
    outer loop
      vertex 42.2164 -26.7913 3
      vertex 43.8153 -24.0877 0
      vertex 43.8153 -24.0877 3
    endloop
  endfacet
  facet normal 0.860743 -0.50904 0
    outer loop
      vertex 43.8153 -24.0877 0
      vertex 42.2164 -26.7913 3
      vertex 42.2164 -26.7913 0
    endloop
  endfacet
  facet normal 0.890995 -0.454014 0
    outer loop
      vertex 43.8153 -24.0877 3
      vertex 45.2414 -21.289 0
      vertex 45.2414 -21.289 3
    endloop
  endfacet
  facet normal 0.890995 -0.454014 0
    outer loop
      vertex 45.2414 -21.289 0
      vertex 43.8153 -24.0877 3
      vertex 43.8153 -24.0877 0
    endloop
  endfacet
  facet normal 0.612915 -0.790149 0
    outer loop
      vertex 29.3893 -40.4509 0
      vertex 31.8712 -38.5257 3
      vertex 29.3893 -40.4509 3
    endloop
  endfacet
  facet normal 0.612915 -0.790149 0
    outer loop
      vertex 31.8712 -38.5257 3
      vertex 29.3893 -40.4509 0
      vertex 31.8712 -38.5257 0
    endloop
  endfacet
  facet normal -0.156412 -0.987692 0
    outer loop
      vertex -9.36907 -49.1144 0
      vertex -6.26666 -49.6057 3
      vertex -9.36907 -49.1144 3
    endloop
  endfacet
  facet normal -0.156412 -0.987692 -0
    outer loop
      vertex -6.26666 -49.6057 3
      vertex -9.36907 -49.1144 0
      vertex -6.26666 -49.6057 0
    endloop
  endfacet
  facet normal -0.860743 -0.50904 0
    outer loop
      vertex -42.2164 -26.7913 0
      vertex -43.8153 -24.0877 3
      vertex -43.8153 -24.0877 0
    endloop
  endfacet
  facet normal -0.860743 -0.50904 0
    outer loop
      vertex -43.8153 -24.0877 3
      vertex -42.2164 -26.7913 0
      vertex -42.2164 -26.7913 3
    endloop
  endfacet
  facet normal -0.940882 -0.338735 0
    outer loop
      vertex -46.4888 -18.4062 0
      vertex -47.5528 -15.4508 3
      vertex -47.5528 -15.4508 0
    endloop
  endfacet
  facet normal -0.940882 -0.338735 0
    outer loop
      vertex -47.5528 -15.4508 3
      vertex -46.4888 -18.4062 0
      vertex -46.4888 -18.4062 3
    endloop
  endfacet
  facet normal -0.661317 -0.750106 0
    outer loop
      vertex -34.2274 -36.4484 0
      vertex -31.8712 -38.5257 3
      vertex -34.2274 -36.4484 3
    endloop
  endfacet
  facet normal -0.661317 -0.750106 -0
    outer loop
      vertex -31.8712 -38.5257 3
      vertex -34.2274 -36.4484 0
      vertex -31.8712 -38.5257 0
    endloop
  endfacet
  facet normal -0.999506 -0.0314223 0
    outer loop
      vertex -49.9013 -3.13953 0
      vertex -50 0 3
      vertex -50 0 0
    endloop
  endfacet
  facet normal -0.999506 -0.0314223 0
    outer loop
      vertex -50 0 3
      vertex -49.9013 -3.13953 0
      vertex -49.9013 -3.13953 3
    endloop
  endfacet
  facet normal 0 0 1
    outer loop
      vertex 49.1763 -7.64614 3
      vertex 49.1144 -9.36907 3
      vertex 49.3759 -7.718 3
    endloop
  endfacet
  facet normal 0 0 1
    outer loop
      vertex 45.6017 -6.09928 3
      vertex 49.1144 -9.36907 3
      vertex 49.1763 -7.64614 3
    endloop
  endfacet
  facet normal 0 0 1
    outer loop
      vertex 49.1144 -9.36907 3
      vertex 45.6017 -6.09928 3
      vertex 48.4292 -12.4345 3
    endloop
  endfacet
  facet normal 0 0 1
    outer loop
      vertex 48.4292 -12.4345 3
      vertex 45.6017 -6.09928 3
      vertex 47.5528 -15.4508 3
    endloop
  endfacet
  facet normal 0 0 1
    outer loop
      vertex 42.1313 -4.33101 3
      vertex 47.5528 -15.4508 3
      vertex 45.6017 -6.09928 3
    endloop
  endfacet
  facet normal 0 0 1
    outer loop
      vertex 47.5528 -15.4508 3
      vertex 42.1313 -4.33101 3
      vertex 46.4888 -18.4062 3
    endloop
  endfacet
  facet normal 0 0 1
    outer loop
      vertex 46.4888 -18.4062 3
      vertex 42.1313 -4.33101 3
      vertex 45.2414 -21.289 3
    endloop
  endfacet
  facet normal 0 0 1
    outer loop
      vertex 38.7787 -2.34833 3
      vertex 45.2414 -21.289 3
      vertex 42.1313 -4.33101 3
    endloop
  endfacet
  facet normal 0 0 1
    outer loop
      vertex 45.2414 -21.289 3
      vertex 38.7787 -2.34833 3
      vertex 43.8153 -24.0877 3
    endloop
  endfacet
  facet normal 0 0 1
    outer loop
      vertex 43.8153 -24.0877 3
      vertex 38.7787 -2.34833 3
      vertex 42.2164 -26.7913 3
    endloop
  endfacet
  facet normal 0 0 1
    outer loop
      vertex 35.5573 -0.159053 3
      vertex 42.2164 -26.7913 3
      vertex 38.7787 -2.34833 3
    endloop
  endfacet
  facet normal 0 0 1
    outer loop
      vertex 42.2164 -26.7913 3
      vertex 35.5573 -0.159053 3
      vertex 40.4509 -29.3893 3
    endloop
  endfacet
  facet normal 0 0 1
    outer loop
      vertex 40.4509 -29.3893 3
      vertex 35.5573 -0.159053 3
      vertex 38.5257 -31.8712 3
    endloop
  endfacet
  facet normal 0 0 1
    outer loop
      vertex 38.5257 -31.8712 3
      vertex 35.5573 -0.159053 3
      vertex 36.4484 -34.2274 3
    endloop
  endfacet
  facet normal 0 0 1
    outer loop
      vertex 32.4797 2.22818 3
      vertex 36.4484 -34.2274 3
      vertex 35.5573 -0.159053 3
    endloop
  endfacet
  facet normal 0 0 1
    outer loop
      vertex 36.4484 -34.2274 3
      vertex 32.4797 2.22818 3
      vertex 34.2274 -36.4484 3
    endloop
  endfacet
  facet normal 0 0 1
    outer loop
      vertex 32.4797 2.22818 3
      vertex 31.8712 -38.5257 3
      vertex 34.2274 -36.4484 3
    endloop
  endfacet
  facet normal 0 0 1
    outer loop
      vertex 29.3893 -40.4509 3
      vertex 32.4797 2.22818 3
      vertex 29.5581 4.80394 3
    endloop
  endfacet
  facet normal 0 0 1
    outer loop
      vertex 32.4797 2.22818 3
      vertex 29.3893 -40.4509 3
      vertex 31.8712 -38.5257 3
    endloop
  endfacet
  facet normal 0 0 1
    outer loop
      vertex 15.4508 -47.5528 3
      vertex 29.5581 4.80394 3
      vertex 26.8039 7.55808 3
    endloop
  endfacet
  facet normal 0 0 1
    outer loop
      vertex 29.5581 4.80394 3
      vertex 26.7913 -42.2164 3
      vertex 29.3893 -40.4509 3
    endloop
  endfacet
  facet normal 0 0 1
    outer loop
      vertex -3.13953 -49.9013 3
      vertex 26.8039 7.55808 3
      vertex 24.2282 10.4797 3
    endloop
  endfacet
  facet normal 0 0 1
    outer loop
      vertex 29.5581 4.80394 3
      vertex 24.0877 -43.8153 3
      vertex 26.7913 -42.2164 3
    endloop
  endfacet
  facet normal 0 0 1
    outer loop
      vertex -24.0877 -43.8153 3
      vertex 24.2282 10.4797 3
      vertex 21.8409 13.5573 3
    endloop
  endfacet
  facet normal 0 0 1
    outer loop
      vertex 29.5581 4.80394 3
      vertex 21.289 -45.2414 3
      vertex 24.0877 -43.8153 3
    endloop
  endfacet
  facet normal 0 0 1
    outer loop
      vertex -42.2164 -26.7913 3
      vertex 21.8409 13.5573 3
      vertex 19.6517 16.7787 3
    endloop
  endfacet
  facet normal 0 0 1
    outer loop
      vertex 29.5581 4.80394 3
      vertex 18.4062 -46.4888 3
      vertex 21.289 -45.2414 3
    endloop
  endfacet
  facet normal 0 0 1
    outer loop
      vertex -49.9013 -3.13953 3
      vertex 19.6517 16.7787 3
      vertex 17.669 20.1313 3
    endloop
  endfacet
  facet normal 0 0 1
    outer loop
      vertex -46.4888 18.4062 3
      vertex 17.669 20.1313 3
      vertex 15.9007 23.6017 3
    endloop
  endfacet
  facet normal 0 0 1
    outer loop
      vertex 29.5581 4.80394 3
      vertex 15.4508 -47.5528 3
      vertex 18.4062 -46.4888 3
    endloop
  endfacet
  facet normal 0 0 1
    outer loop
      vertex -36.4484 34.2274 3
      vertex 15.9007 23.6017 3
      vertex 14.3539 27.1763 3
    endloop
  endfacet
  facet normal 0 0 1
    outer loop
      vertex -26.7913 42.2164 3
      vertex 14.3539 27.1763 3
      vertex 13.0345 30.8409 3
    endloop
  endfacet
  facet normal 0 0 1
    outer loop
      vertex 26.8039 7.55808 3
      vertex 12.4345 -48.4292 3
      vertex 15.4508 -47.5528 3
    endloop
  endfacet
  facet normal 0 0 1
    outer loop
      vertex -15.4508 47.5528 3
      vertex 13.0345 30.8409 3
      vertex 11.9478 34.5812 3
    endloop
  endfacet
  facet normal 0 0 1
    outer loop
      vertex -6.26666 49.6057 3
      vertex 11.9478 34.5812 3
      vertex 11.0982 38.3824 3
    endloop
  endfacet
  facet normal 0 0 1
    outer loop
      vertex 0 50 3
      vertex 11.0982 38.3824 3
      vertex 10.4889 42.2293 3
    endloop
  endfacet
  facet normal 0 0 1
    outer loop
      vertex 6.26666 49.6057 3
      vertex 10.4889 42.2293 3
      vertex 10.1223 46.107 3
    endloop
  endfacet
  facet normal 0 0 1
    outer loop
      vertex 9.36907 49.1144 3
      vertex 10.1223 46.107 3
      vertex 10.0325 48.9661 3
    endloop
  endfacet
  facet normal 0 0 1
    outer loop
      vertex 10.1223 46.107 3
      vertex 9.36907 49.1144 3
      vertex 6.26666 49.6057 3
    endloop
  endfacet
  facet normal 0 0 1
    outer loop
      vertex 26.8039 7.55808 3
      vertex 9.36907 -49.1144 3
      vertex 12.4345 -48.4292 3
    endloop
  endfacet
  facet normal 0 0 1
    outer loop
      vertex 10.4889 42.2293 3
      vertex 6.26666 49.6057 3
      vertex 3.13953 49.9013 3
    endloop
  endfacet
  facet normal 0 0 1
    outer loop
      vertex 26.8039 7.55808 3
      vertex 6.26666 -49.6057 3
      vertex 9.36907 -49.1144 3
    endloop
  endfacet
  facet normal 0 0 1
    outer loop
      vertex 10.4889 42.2293 3
      vertex 3.13953 49.9013 3
      vertex 0 50 3
    endloop
  endfacet
  facet normal 0 0 1
    outer loop
      vertex 26.8039 7.55808 3
      vertex 3.13953 -49.9013 3
      vertex 6.26666 -49.6057 3
    endloop
  endfacet
  facet normal 0 0 1
    outer loop
      vertex 11.0982 38.3824 3
      vertex 0 50 3
      vertex -3.13953 49.9013 3
    endloop
  endfacet
  facet normal 0 0 1
    outer loop
      vertex 26.8039 7.55808 3
      vertex 0 -50 3
      vertex 3.13953 -49.9013 3
    endloop
  endfacet
  facet normal 0 0 1
    outer loop
      vertex 11.0982 38.3824 3
      vertex -3.13953 49.9013 3
      vertex -6.26666 49.6057 3
    endloop
  endfacet
  facet normal 0 0 1
    outer loop
      vertex 26.8039 7.55808 3
      vertex -3.13953 -49.9013 3
      vertex 0 -50 3
    endloop
  endfacet
  facet normal 0 0 1
    outer loop
      vertex 11.9478 34.5812 3
      vertex -6.26666 49.6057 3
      vertex -9.36907 49.1144 3
    endloop
  endfacet
  facet normal 0 0 1
    outer loop
      vertex 24.2282 10.4797 3
      vertex -6.26666 -49.6057 3
      vertex -3.13953 -49.9013 3
    endloop
  endfacet
  facet normal 0 0 1
    outer loop
      vertex 11.9478 34.5812 3
      vertex -9.36907 49.1144 3
      vertex -12.4345 48.4292 3
    endloop
  endfacet
  facet normal 0 0 1
    outer loop
      vertex 24.2282 10.4797 3
      vertex -9.36907 -49.1144 3
      vertex -6.26666 -49.6057 3
    endloop
  endfacet
  facet normal 0 0 1
    outer loop
      vertex 11.9478 34.5812 3
      vertex -12.4345 48.4292 3
      vertex -15.4508 47.5528 3
    endloop
  endfacet
  facet normal 0 0 1
    outer loop
      vertex 24.2282 10.4797 3
      vertex -12.4345 -48.4292 3
      vertex -9.36907 -49.1144 3
    endloop
  endfacet
  facet normal 0 0 1
    outer loop
      vertex 13.0345 30.8409 3
      vertex -15.4508 47.5528 3
      vertex -18.4062 46.4888 3
    endloop
  endfacet
  facet normal 0 0 1
    outer loop
      vertex 24.2282 10.4797 3
      vertex -15.4508 -47.5528 3
      vertex -12.4345 -48.4292 3
    endloop
  endfacet
  facet normal 0 0 1
    outer loop
      vertex 13.0345 30.8409 3
      vertex -18.4062 46.4888 3
      vertex -21.289 45.2414 3
    endloop
  endfacet
  facet normal 0 0 1
    outer loop
      vertex 24.2282 10.4797 3
      vertex -18.4062 -46.4888 3
      vertex -15.4508 -47.5528 3
    endloop
  endfacet
  facet normal 0 0 1
    outer loop
      vertex 13.0345 30.8409 3
      vertex -21.289 45.2414 3
      vertex -24.0877 43.8153 3
    endloop
  endfacet
  facet normal 0 0 1
    outer loop
      vertex 24.2282 10.4797 3
      vertex -21.289 -45.2414 3
      vertex -18.4062 -46.4888 3
    endloop
  endfacet
  facet normal 0 0 1
    outer loop
      vertex 13.0345 30.8409 3
      vertex -24.0877 43.8153 3
      vertex -26.7913 42.2164 3
    endloop
  endfacet
  facet normal 0 0 1
    outer loop
      vertex 24.2282 10.4797 3
      vertex -24.0877 -43.8153 3
      vertex -21.289 -45.2414 3
    endloop
  endfacet
  facet normal 0 0 1
    outer loop
      vertex 14.3539 27.1763 3
      vertex -26.7913 42.2164 3
      vertex -29.3893 40.4509 3
    endloop
  endfacet
  facet normal 0 0 1
    outer loop
      vertex 21.8409 13.5573 3
      vertex -26.7913 -42.2164 3
      vertex -24.0877 -43.8153 3
    endloop
  endfacet
  facet normal 0 0 1
    outer loop
      vertex 14.3539 27.1763 3
      vertex -29.3893 40.4509 3
      vertex -31.8712 38.5257 3
    endloop
  endfacet
  facet normal 0 0 1
    outer loop
      vertex 21.8409 13.5573 3
      vertex -29.3893 -40.4509 3
      vertex -26.7913 -42.2164 3
    endloop
  endfacet
  facet normal 0 0 1
    outer loop
      vertex 14.3539 27.1763 3
      vertex -31.8712 38.5257 3
      vertex -34.2274 36.4484 3
    endloop
  endfacet
  facet normal 0 0 1
    outer loop
      vertex 21.8409 13.5573 3
      vertex -31.8712 -38.5257 3
      vertex -29.3893 -40.4509 3
    endloop
  endfacet
  facet normal 0 0 1
    outer loop
      vertex 14.3539 27.1763 3
      vertex -34.2274 36.4484 3
      vertex -36.4484 34.2274 3
    endloop
  endfacet
  facet normal 0 0 1
    outer loop
      vertex 21.8409 13.5573 3
      vertex -34.2274 -36.4484 3
      vertex -31.8712 -38.5257 3
    endloop
  endfacet
  facet normal 0 0 1
    outer loop
      vertex 15.9007 23.6017 3
      vertex -36.4484 34.2274 3
      vertex -38.5257 31.8712 3
    endloop
  endfacet
  facet normal 0 0 1
    outer loop
      vertex 21.8409 13.5573 3
      vertex -36.4484 -34.2274 3
      vertex -34.2274 -36.4484 3
    endloop
  endfacet
  facet normal 0 0 1
    outer loop
      vertex 15.9007 23.6017 3
      vertex -38.5257 31.8712 3
      vertex -40.4509 29.3893 3
    endloop
  endfacet
  facet normal 0 0 1
    outer loop
      vertex 21.8409 13.5573 3
      vertex -38.5257 -31.8712 3
      vertex -36.4484 -34.2274 3
    endloop
  endfacet
  facet normal 0 0 1
    outer loop
      vertex 15.9007 23.6017 3
      vertex -40.4509 29.3893 3
      vertex -42.2164 26.7913 3
    endloop
  endfacet
  facet normal 0 0 1
    outer loop
      vertex 21.8409 13.5573 3
      vertex -40.4509 -29.3893 3
      vertex -38.5257 -31.8712 3
    endloop
  endfacet
  facet normal 0 0 1
    outer loop
      vertex 15.9007 23.6017 3
      vertex -42.2164 26.7913 3
      vertex -43.8153 24.0877 3
    endloop
  endfacet
  facet normal 0 0 1
    outer loop
      vertex 21.8409 13.5573 3
      vertex -42.2164 -26.7913 3
      vertex -40.4509 -29.3893 3
    endloop
  endfacet
  facet normal 0 0 1
    outer loop
      vertex 15.9007 23.6017 3
      vertex -43.8153 24.0877 3
      vertex -45.2414 21.289 3
    endloop
  endfacet
  facet normal 0 0 1
    outer loop
      vertex 19.6517 16.7787 3
      vertex -43.8153 -24.0877 3
      vertex -42.2164 -26.7913 3
    endloop
  endfacet
  facet normal 0 0 1
    outer loop
      vertex 15.9007 23.6017 3
      vertex -45.2414 21.289 3
      vertex -46.4888 18.4062 3
    endloop
  endfacet
  facet normal 0 0 1
    outer loop
      vertex 19.6517 16.7787 3
      vertex -45.2414 -21.289 3
      vertex -43.8153 -24.0877 3
    endloop
  endfacet
  facet normal 0 0 1
    outer loop
      vertex 17.669 20.1313 3
      vertex -46.4888 18.4062 3
      vertex -47.5528 15.4508 3
    endloop
  endfacet
  facet normal 0 0 1
    outer loop
      vertex 19.6517 16.7787 3
      vertex -46.4888 -18.4062 3
      vertex -45.2414 -21.289 3
    endloop
  endfacet
  facet normal 0 0 1
    outer loop
      vertex 17.669 20.1313 3
      vertex -47.5528 15.4508 3
      vertex -48.4292 12.4345 3
    endloop
  endfacet
  facet normal 0 0 1
    outer loop
      vertex 19.6517 16.7787 3
      vertex -47.5528 -15.4508 3
      vertex -46.4888 -18.4062 3
    endloop
  endfacet
  facet normal 0 0 1
    outer loop
      vertex 17.669 20.1313 3
      vertex -48.4292 12.4345 3
      vertex -49.1144 9.36907 3
    endloop
  endfacet
  facet normal 0 0 1
    outer loop
      vertex 19.6517 16.7787 3
      vertex -48.4292 -12.4345 3
      vertex -47.5528 -15.4508 3
    endloop
  endfacet
  facet normal 0 0 1
    outer loop
      vertex 17.669 20.1313 3
      vertex -49.1144 9.36907 3
      vertex -49.6057 6.26666 3
    endloop
  endfacet
  facet normal 0 0 1
    outer loop
      vertex 19.6517 16.7787 3
      vertex -49.1144 -9.36907 3
      vertex -48.4292 -12.4345 3
    endloop
  endfacet
  facet normal 0 0 1
    outer loop
      vertex 17.669 20.1313 3
      vertex -49.6057 6.26666 3
      vertex -49.9013 3.13953 3
    endloop
  endfacet
  facet normal 0 0 1
    outer loop
      vertex 19.6517 16.7787 3
      vertex -49.6057 -6.26666 3
      vertex -49.1144 -9.36907 3
    endloop
  endfacet
  facet normal 0 0 1
    outer loop
      vertex 17.669 20.1313 3
      vertex -49.9013 3.13953 3
      vertex -50 0 3
    endloop
  endfacet
  facet normal 0 0 1
    outer loop
      vertex 19.6517 16.7787 3
      vertex -49.9013 -3.13953 3
      vertex -49.6057 -6.26666 3
    endloop
  endfacet
  facet normal 0 0 1
    outer loop
      vertex 17.669 20.1313 3
      vertex -50 0 3
      vertex -49.9013 -3.13953 3
    endloop
  endfacet
  facet normal -0.397121 0.917766 0
    outer loop
      vertex -18.4062 46.4888 0
      vertex -21.289 45.2414 3
      vertex -18.4062 46.4888 3
    endloop
  endfacet
  facet normal -0.397121 0.917766 0
    outer loop
      vertex -21.289 45.2414 3
      vertex -18.4062 46.4888 0
      vertex -21.289 45.2414 0
    endloop
  endfacet
  facet normal 0.707107 -0.707107 0
    outer loop
      vertex 34.2274 -36.4484 3
      vertex 36.4484 -34.2274 0
      vertex 36.4484 -34.2274 3
    endloop
  endfacet
  facet normal 0.707107 -0.707107 0
    outer loop
      vertex 36.4484 -34.2274 0
      vertex 34.2274 -36.4484 3
      vertex 34.2274 -36.4484 0
    endloop
  endfacet
  facet normal -0.279016 0.960287 0
    outer loop
      vertex -12.4345 48.4292 0
      vertex -15.4508 47.5528 3
      vertex -12.4345 48.4292 3
    endloop
  endfacet
  facet normal -0.279016 0.960287 0
    outer loop
      vertex -15.4508 47.5528 3
      vertex -12.4345 48.4292 0
      vertex -15.4508 47.5528 0
    endloop
  endfacet
  facet normal -0.156412 0.987692 0
    outer loop
      vertex -6.26666 49.6057 0
      vertex -9.36907 49.1144 3
      vertex -6.26666 49.6057 3
    endloop
  endfacet
  facet normal -0.156412 0.987692 0
    outer loop
      vertex -9.36907 49.1144 3
      vertex -6.26666 49.6057 0
      vertex -9.36907 49.1144 0
    endloop
  endfacet
  facet normal -0.279016 -0.960287 0
    outer loop
      vertex -15.4508 -47.5528 0
      vertex -12.4345 -48.4292 3
      vertex -15.4508 -47.5528 3
    endloop
  endfacet
  facet normal -0.279016 -0.960287 -0
    outer loop
      vertex -12.4345 -48.4292 3
      vertex -15.4508 -47.5528 0
      vertex -12.4345 -48.4292 0
    endloop
  endfacet
  facet normal -0.827095 0.562062 0
    outer loop
      vertex -42.2164 26.7913 0
      vertex -40.4509 29.3893 3
      vertex -40.4509 29.3893 0
    endloop
  endfacet
  facet normal -0.827095 0.562062 0
    outer loop
      vertex -40.4509 29.3893 3
      vertex -42.2164 26.7913 0
      vertex -42.2164 26.7913 3
    endloop
  endfacet
  facet normal 0.0314223 0.999506 -0
    outer loop
      vertex 3.13953 49.9013 0
      vertex 0 50 3
      vertex 3.13953 49.9013 3
    endloop
  endfacet
  facet normal 0.0314223 0.999506 0
    outer loop
      vertex 0 50 3
      vertex 3.13953 49.9013 0
      vertex 0 50 0
    endloop
  endfacet
  facet normal 0.827095 -0.562062 0
    outer loop
      vertex 40.4509 -29.3893 3
      vertex 42.2164 -26.7913 0
      vertex 42.2164 -26.7913 3
    endloop
  endfacet
  facet normal 0.827095 -0.562062 0
    outer loop
      vertex 42.2164 -26.7913 0
      vertex 40.4509 -29.3893 3
      vertex 40.4509 -29.3893 0
    endloop
  endfacet
  facet normal -0.612915 0.790149 0
    outer loop
      vertex -29.3893 40.4509 0
      vertex -31.8712 38.5257 3
      vertex -29.3893 40.4509 3
    endloop
  endfacet
  facet normal -0.612915 0.790149 0
    outer loop
      vertex -31.8712 38.5257 3
      vertex -29.3893 40.4509 0
      vertex -31.8712 38.5257 0
    endloop
  endfacet
  facet normal 0.156412 0.987692 -0
    outer loop
      vertex 9.36907 49.1144 0
      vertex 6.26666 49.6057 3
      vertex 9.36907 49.1144 3
    endloop
  endfacet
  facet normal 0.156412 0.987692 0
    outer loop
      vertex 6.26666 49.6057 3
      vertex 9.36907 49.1144 0
      vertex 6.26666 49.6057 0
    endloop
  endfacet
  facet normal 0.661317 -0.750106 0
    outer loop
      vertex 31.8712 -38.5257 0
      vertex 34.2274 -36.4484 3
      vertex 31.8712 -38.5257 3
    endloop
  endfacet
  facet normal 0.661317 -0.750106 0
    outer loop
      vertex 34.2274 -36.4484 3
      vertex 31.8712 -38.5257 0
      vertex 34.2274 -36.4484 0
    endloop
  endfacet
  facet normal -0.562062 0.827095 0
    outer loop
      vertex -26.7913 42.2164 0
      vertex -29.3893 40.4509 3
      vertex -26.7913 42.2164 3
    endloop
  endfacet
  facet normal -0.562062 0.827095 0
    outer loop
      vertex -29.3893 40.4509 3
      vertex -26.7913 42.2164 0
      vertex -29.3893 40.4509 0
    endloop
  endfacet
  facet normal 0.279016 -0.960287 0
    outer loop
      vertex 12.4345 -48.4292 0
      vertex 15.4508 -47.5528 3
      vertex 12.4345 -48.4292 3
    endloop
  endfacet
  facet normal 0.279016 -0.960287 0
    outer loop
      vertex 15.4508 -47.5528 3
      vertex 12.4345 -48.4292 0
      vertex 15.4508 -47.5528 0
    endloop
  endfacet
  facet normal 0.975917 -0.218142 0
    outer loop
      vertex 48.4292 -12.4345 3
      vertex 49.1144 -9.36907 0
      vertex 49.1144 -9.36907 3
    endloop
  endfacet
  facet normal 0.975917 -0.218142 0
    outer loop
      vertex 49.1144 -9.36907 0
      vertex 48.4292 -12.4345 3
      vertex 48.4292 -12.4345 0
    endloop
  endfacet
  facet normal 0.454014 -0.890995 0
    outer loop
      vertex 21.289 -45.2414 0
      vertex 24.0877 -43.8153 3
      vertex 21.289 -45.2414 3
    endloop
  endfacet
  facet normal 0.454014 -0.890995 0
    outer loop
      vertex 24.0877 -43.8153 3
      vertex 21.289 -45.2414 0
      vertex 24.0877 -43.8153 0
    endloop
  endfacet
  facet normal -0.987692 -0.156412 0
    outer loop
      vertex -49.1144 -9.36907 0
      vertex -49.6057 -6.26666 3
      vertex -49.6057 -6.26666 0
    endloop
  endfacet
  facet normal -0.987692 -0.156412 0
    outer loop
      vertex -49.6057 -6.26666 3
      vertex -49.1144 -9.36907 0
      vertex -49.1144 -9.36907 3
    endloop
  endfacet
  facet normal -0.707107 0.707107 0
    outer loop
      vertex -36.4484 34.2274 0
      vertex -34.2274 36.4484 3
      vertex -34.2274 36.4484 0
    endloop
  endfacet
  facet normal -0.707107 0.707107 0
    outer loop
      vertex -34.2274 36.4484 3
      vertex -36.4484 34.2274 0
      vertex -36.4484 34.2274 3
    endloop
  endfacet
  facet normal -0.707107 -0.707107 0
    outer loop
      vertex -34.2274 -36.4484 0
      vertex -36.4484 -34.2274 3
      vertex -36.4484 -34.2274 0
    endloop
  endfacet
  facet normal -0.707107 -0.707107 0
    outer loop
      vertex -36.4484 -34.2274 3
      vertex -34.2274 -36.4484 0
      vertex -34.2274 -36.4484 3
    endloop
  endfacet
  facet normal -0.50904 -0.860743 0
    outer loop
      vertex -26.7913 -42.2164 0
      vertex -24.0877 -43.8153 3
      vertex -26.7913 -42.2164 3
    endloop
  endfacet
  facet normal -0.50904 -0.860743 -0
    outer loop
      vertex -24.0877 -43.8153 3
      vertex -26.7913 -42.2164 0
      vertex -24.0877 -43.8153 0
    endloop
  endfacet
  facet normal 0.50904 -0.860743 0
    outer loop
      vertex 24.0877 -43.8153 0
      vertex 26.7913 -42.2164 3
      vertex 24.0877 -43.8153 3
    endloop
  endfacet
  facet normal 0.50904 -0.860743 0
    outer loop
      vertex 26.7913 -42.2164 3
      vertex 24.0877 -43.8153 0
      vertex 26.7913 -42.2164 0
    endloop
  endfacet
  facet normal -0.338735 0.940882 0
    outer loop
      vertex -15.4508 47.5528 0
      vertex -18.4062 46.4888 3
      vertex -15.4508 47.5528 3
    endloop
  endfacet
  facet normal -0.338735 0.940882 0
    outer loop
      vertex -18.4062 46.4888 3
      vertex -15.4508 47.5528 0
      vertex -18.4062 46.4888 0
    endloop
  endfacet
  facet normal 0.0941081 -0.995562 0
    outer loop
      vertex 3.13953 -49.9013 0
      vertex 6.26666 -49.6057 3
      vertex 3.13953 -49.9013 3
    endloop
  endfacet
  facet normal 0.0941081 -0.995562 0
    outer loop
      vertex 6.26666 -49.6057 3
      vertex 3.13953 -49.9013 0
      vertex 6.26666 -49.6057 0
    endloop
  endfacet
  facet normal -0.218142 0.975917 0
    outer loop
      vertex -9.36907 49.1144 0
      vertex -12.4345 48.4292 3
      vertex -9.36907 49.1144 3
    endloop
  endfacet
  facet normal -0.218142 0.975917 0
    outer loop
      vertex -12.4345 48.4292 3
      vertex -9.36907 49.1144 0
      vertex -12.4345 48.4292 0
    endloop
  endfacet
  facet normal -0.975917 -0.218142 0
    outer loop
      vertex -48.4292 -12.4345 0
      vertex -49.1144 -9.36907 3
      vertex -49.1144 -9.36907 0
    endloop
  endfacet
  facet normal -0.975917 -0.218142 0
    outer loop
      vertex -49.1144 -9.36907 3
      vertex -48.4292 -12.4345 0
      vertex -48.4292 -12.4345 3
    endloop
  endfacet
  facet normal -0.860743 0.50904 0
    outer loop
      vertex -43.8153 24.0877 0
      vertex -42.2164 26.7913 3
      vertex -42.2164 26.7913 0
    endloop
  endfacet
  facet normal -0.860743 0.50904 0
    outer loop
      vertex -42.2164 26.7913 3
      vertex -43.8153 24.0877 0
      vertex -43.8153 24.0877 3
    endloop
  endfacet
  facet normal -0.827095 -0.562062 0
    outer loop
      vertex -40.4509 -29.3893 0
      vertex -42.2164 -26.7913 3
      vertex -42.2164 -26.7913 0
    endloop
  endfacet
  facet normal -0.827095 -0.562062 0
    outer loop
      vertex -42.2164 -26.7913 3
      vertex -40.4509 -29.3893 0
      vertex -40.4509 -29.3893 3
    endloop
  endfacet
  facet normal -0.397121 -0.917766 0
    outer loop
      vertex -21.289 -45.2414 0
      vertex -18.4062 -46.4888 3
      vertex -21.289 -45.2414 3
    endloop
  endfacet
  facet normal -0.397121 -0.917766 -0
    outer loop
      vertex -18.4062 -46.4888 3
      vertex -21.289 -45.2414 0
      vertex -18.4062 -46.4888 0
    endloop
  endfacet
  facet normal -0.890995 0.454014 0
    outer loop
      vertex -45.2414 21.289 0
      vertex -43.8153 24.0877 3
      vertex -43.8153 24.0877 0
    endloop
  endfacet
  facet normal -0.890995 0.454014 0
    outer loop
      vertex -43.8153 24.0877 3
      vertex -45.2414 21.289 0
      vertex -45.2414 21.289 3
    endloop
  endfacet
  facet normal -0.975917 0.218142 0
    outer loop
      vertex -49.1144 9.36907 0
      vertex -48.4292 12.4345 3
      vertex -48.4292 12.4345 0
    endloop
  endfacet
  facet normal -0.975917 0.218142 0
    outer loop
      vertex -48.4292 12.4345 3
      vertex -49.1144 9.36907 0
      vertex -49.1144 9.36907 3
    endloop
  endfacet
  facet normal -0.960287 -0.279016 0
    outer loop
      vertex -47.5528 -15.4508 0
      vertex -48.4292 -12.4345 3
      vertex -48.4292 -12.4345 0
    endloop
  endfacet
  facet normal -0.960287 -0.279016 0
    outer loop
      vertex -48.4292 -12.4345 3
      vertex -47.5528 -15.4508 0
      vertex -47.5528 -15.4508 3
    endloop
  endfacet
  facet normal 0.0941081 0.995562 -0
    outer loop
      vertex 6.26666 49.6057 0
      vertex 3.13953 49.9013 3
      vertex 6.26666 49.6057 3
    endloop
  endfacet
  facet normal 0.0941081 0.995562 0
    outer loop
      vertex 3.13953 49.9013 3
      vertex 6.26666 49.6057 0
      vertex 3.13953 49.9013 0
    endloop
  endfacet
  facet normal 0.750106 -0.661317 0
    outer loop
      vertex 36.4484 -34.2274 3
      vertex 38.5257 -31.8712 0
      vertex 38.5257 -31.8712 3
    endloop
  endfacet
  facet normal 0.750106 -0.661317 0
    outer loop
      vertex 38.5257 -31.8712 0
      vertex 36.4484 -34.2274 3
      vertex 36.4484 -34.2274 0
    endloop
  endfacet
  facet normal -0.0941081 0.995562 0
    outer loop
      vertex -3.13953 49.9013 0
      vertex -6.26666 49.6057 3
      vertex -3.13953 49.9013 3
    endloop
  endfacet
  facet normal -0.0941081 0.995562 0
    outer loop
      vertex -6.26666 49.6057 3
      vertex -3.13953 49.9013 0
      vertex -6.26666 49.6057 0
    endloop
  endfacet
  facet normal 0.397121 -0.917766 0
    outer loop
      vertex 18.4062 -46.4888 0
      vertex 21.289 -45.2414 3
      vertex 18.4062 -46.4888 3
    endloop
  endfacet
  facet normal 0.397121 -0.917766 0
    outer loop
      vertex 21.289 -45.2414 3
      vertex 18.4062 -46.4888 0
      vertex 21.289 -45.2414 0
    endloop
  endfacet
  facet normal -0.612915 -0.790149 0
    outer loop
      vertex -31.8712 -38.5257 0
      vertex -29.3893 -40.4509 3
      vertex -31.8712 -38.5257 3
    endloop
  endfacet
  facet normal -0.612915 -0.790149 -0
    outer loop
      vertex -29.3893 -40.4509 3
      vertex -31.8712 -38.5257 0
      vertex -29.3893 -40.4509 0
    endloop
  endfacet
  facet normal -0.50904 0.860743 0
    outer loop
      vertex -24.0877 43.8153 0
      vertex -26.7913 42.2164 3
      vertex -24.0877 43.8153 3
    endloop
  endfacet
  facet normal -0.50904 0.860743 0
    outer loop
      vertex -26.7913 42.2164 3
      vertex -24.0877 43.8153 0
      vertex -26.7913 42.2164 0
    endloop
  endfacet
  facet normal -0.0314223 0.999506 0
    outer loop
      vertex 0 50 0
      vertex -3.13953 49.9013 3
      vertex 0 50 3
    endloop
  endfacet
  facet normal -0.0314223 0.999506 0
    outer loop
      vertex -3.13953 49.9013 3
      vertex 0 50 0
      vertex -3.13953 49.9013 0
    endloop
  endfacet
  facet normal -0.218142 -0.975917 0
    outer loop
      vertex -12.4345 -48.4292 0
      vertex -9.36907 -49.1144 3
      vertex -12.4345 -48.4292 3
    endloop
  endfacet
  facet normal -0.218142 -0.975917 -0
    outer loop
      vertex -9.36907 -49.1144 3
      vertex -12.4345 -48.4292 0
      vertex -9.36907 -49.1144 0
    endloop
  endfacet
  facet normal -0.995562 0.0941081 0
    outer loop
      vertex -49.9013 3.13953 0
      vertex -49.6057 6.26666 3
      vertex -49.6057 6.26666 0
    endloop
  endfacet
  facet normal -0.995562 0.0941081 0
    outer loop
      vertex -49.6057 6.26666 3
      vertex -49.9013 3.13953 0
      vertex -49.9013 3.13953 3
    endloop
  endfacet
  facet normal -0.790149 0.612915 0
    outer loop
      vertex -40.4509 29.3893 0
      vertex -38.5257 31.8712 3
      vertex -38.5257 31.8712 0
    endloop
  endfacet
  facet normal -0.790149 0.612915 0
    outer loop
      vertex -38.5257 31.8712 3
      vertex -40.4509 29.3893 0
      vertex -40.4509 29.3893 3
    endloop
  endfacet
  facet normal 0.917766 -0.397121 0
    outer loop
      vertex 45.2414 -21.289 3
      vertex 46.4888 -18.4062 0
      vertex 46.4888 -18.4062 3
    endloop
  endfacet
  facet normal 0.917766 -0.397121 0
    outer loop
      vertex 46.4888 -18.4062 0
      vertex 45.2414 -21.289 3
      vertex 45.2414 -21.289 0
    endloop
  endfacet
  facet normal -0.917766 0.397121 0
    outer loop
      vertex -46.4888 18.4062 0
      vertex -45.2414 21.289 3
      vertex -45.2414 21.289 0
    endloop
  endfacet
  facet normal -0.917766 0.397121 0
    outer loop
      vertex -45.2414 21.289 3
      vertex -46.4888 18.4062 0
      vertex -46.4888 18.4062 3
    endloop
  endfacet
  facet normal -0.987692 0.156412 0
    outer loop
      vertex -49.6057 6.26666 0
      vertex -49.1144 9.36907 3
      vertex -49.1144 9.36907 0
    endloop
  endfacet
  facet normal -0.987692 0.156412 0
    outer loop
      vertex -49.1144 9.36907 3
      vertex -49.6057 6.26666 0
      vertex -49.6057 6.26666 3
    endloop
  endfacet
  facet normal -0.750106 0.661317 0
    outer loop
      vertex -38.5257 31.8712 0
      vertex -36.4484 34.2274 3
      vertex -36.4484 34.2274 0
    endloop
  endfacet
  facet normal -0.750106 0.661317 0
    outer loop
      vertex -36.4484 34.2274 3
      vertex -38.5257 31.8712 0
      vertex -38.5257 31.8712 3
    endloop
  endfacet
  facet normal -0.995562 -0.0941081 0
    outer loop
      vertex -49.6057 -6.26666 0
      vertex -49.9013 -3.13953 3
      vertex -49.9013 -3.13953 0
    endloop
  endfacet
  facet normal -0.995562 -0.0941081 0
    outer loop
      vertex -49.9013 -3.13953 3
      vertex -49.6057 -6.26666 0
      vertex -49.6057 -6.26666 3
    endloop
  endfacet
  facet normal -0.562062 -0.827095 0
    outer loop
      vertex -29.3893 -40.4509 0
      vertex -26.7913 -42.2164 3
      vertex -29.3893 -40.4509 3
    endloop
  endfacet
  facet normal -0.562062 -0.827095 -0
    outer loop
      vertex -26.7913 -42.2164 3
      vertex -29.3893 -40.4509 0
      vertex -26.7913 -42.2164 0
    endloop
  endfacet
  facet normal -0.338735 -0.940882 0
    outer loop
      vertex -18.4062 -46.4888 0
      vertex -15.4508 -47.5528 3
      vertex -18.4062 -46.4888 3
    endloop
  endfacet
  facet normal -0.338735 -0.940882 -0
    outer loop
      vertex -15.4508 -47.5528 3
      vertex -18.4062 -46.4888 0
      vertex -15.4508 -47.5528 0
    endloop
  endfacet
  facet normal -0.750106 -0.661317 0
    outer loop
      vertex -36.4484 -34.2274 0
      vertex -38.5257 -31.8712 3
      vertex -38.5257 -31.8712 0
    endloop
  endfacet
  facet normal -0.750106 -0.661317 0
    outer loop
      vertex -38.5257 -31.8712 3
      vertex -36.4484 -34.2274 0
      vertex -36.4484 -34.2274 3
    endloop
  endfacet
  facet normal -0.960287 0.279016 0
    outer loop
      vertex -48.4292 12.4345 0
      vertex -47.5528 15.4508 3
      vertex -47.5528 15.4508 0
    endloop
  endfacet
  facet normal -0.960287 0.279016 0
    outer loop
      vertex -47.5528 15.4508 3
      vertex -48.4292 12.4345 0
      vertex -48.4292 12.4345 3
    endloop
  endfacet
  facet normal 0.218151 0.975915 -0
    outer loop
      vertex 10.0325 48.9661 0
      vertex 9.36907 49.1144 3
      vertex 10.0325 48.9661 3
    endloop
  endfacet
  facet normal 0.218151 0.975915 0
    outer loop
      vertex 9.36907 49.1144 3
      vertex 10.0325 48.9661 0
      vertex 9.36907 49.1144 0
    endloop
  endfacet
  facet normal 0.987689 -0.156432 0
    outer loop
      vertex 49.1144 -9.36907 3
      vertex 49.3759 -7.718 0
      vertex 49.3759 -7.718 3
    endloop
  endfacet
  facet normal 0.987689 -0.156432 0
    outer loop
      vertex 49.3759 -7.718 0
      vertex 49.1144 -9.36907 3
      vertex 49.1144 -9.36907 0
    endloop
  endfacet
  facet normal -0.454014 0.890995 0
    outer loop
      vertex -21.289 45.2414 0
      vertex -24.0877 43.8153 3
      vertex -21.289 45.2414 3
    endloop
  endfacet
  facet normal -0.454014 0.890995 0
    outer loop
      vertex -24.0877 43.8153 3
      vertex -21.289 45.2414 0
      vertex -24.0877 43.8153 0
    endloop
  endfacet
  facet normal -0.0941081 -0.995562 0
    outer loop
      vertex -6.26666 -49.6057 0
      vertex -3.13953 -49.9013 3
      vertex -6.26666 -49.6057 3
    endloop
  endfacet
  facet normal -0.0941081 -0.995562 -0
    outer loop
      vertex -3.13953 -49.9013 3
      vertex -6.26666 -49.6057 0
      vertex -3.13953 -49.9013 0
    endloop
  endfacet
  facet normal 0 0 -1
    outer loop
      vertex 49.1144 -9.36907 0
      vertex 49.1763 -7.64614 0
      vertex 49.3759 -7.718 0
    endloop
  endfacet
  facet normal 0 0 -1
    outer loop
      vertex 45.6017 -6.09928 0
      vertex 49.1144 -9.36907 0
      vertex 48.4292 -12.4345 0
    endloop
  endfacet
  facet normal 0 0 -1
    outer loop
      vertex 45.6017 -6.09928 0
      vertex 48.4292 -12.4345 0
      vertex 47.5528 -15.4508 0
    endloop
  endfacet
  facet normal 0 0 -1
    outer loop
      vertex 42.1313 -4.33101 0
      vertex 47.5528 -15.4508 0
      vertex 46.4888 -18.4062 0
    endloop
  endfacet
  facet normal 0 0 -1
    outer loop
      vertex 49.1144 -9.36907 0
      vertex 45.6017 -6.09928 0
      vertex 49.1763 -7.64614 0
    endloop
  endfacet
  facet normal 0 0 -1
    outer loop
      vertex 42.1313 -4.33101 0
      vertex 46.4888 -18.4062 0
      vertex 45.2414 -21.289 0
    endloop
  endfacet
  facet normal 0 0 -1
    outer loop
      vertex 38.7787 -2.34833 0
      vertex 45.2414 -21.289 0
      vertex 43.8153 -24.0877 0
    endloop
  endfacet
  facet normal 0 0 -1
    outer loop
      vertex 38.7787 -2.34833 0
      vertex 43.8153 -24.0877 0
      vertex 42.2164 -26.7913 0
    endloop
  endfacet
  facet normal 0 0 -1
    outer loop
      vertex 47.5528 -15.4508 0
      vertex 42.1313 -4.33101 0
      vertex 45.6017 -6.09928 0
    endloop
  endfacet
  facet normal 0 0 -1
    outer loop
      vertex 35.5573 -0.159053 0
      vertex 42.2164 -26.7913 0
      vertex 40.4509 -29.3893 0
    endloop
  endfacet
  facet normal 0 0 -1
    outer loop
      vertex 45.2414 -21.289 0
      vertex 38.7787 -2.34833 0
      vertex 42.1313 -4.33101 0
    endloop
  endfacet
  facet normal 0 0 -1
    outer loop
      vertex 35.5573 -0.159053 0
      vertex 40.4509 -29.3893 0
      vertex 38.5257 -31.8712 0
    endloop
  endfacet
  facet normal 0 0 -1
    outer loop
      vertex 35.5573 -0.159053 0
      vertex 38.5257 -31.8712 0
      vertex 36.4484 -34.2274 0
    endloop
  endfacet
  facet normal 0 0 -1
    outer loop
      vertex 42.2164 -26.7913 0
      vertex 35.5573 -0.159053 0
      vertex 38.7787 -2.34833 0
    endloop
  endfacet
  facet normal 0 0 -1
    outer loop
      vertex 32.4797 2.22818 0
      vertex 36.4484 -34.2274 0
      vertex 34.2274 -36.4484 0
    endloop
  endfacet
  facet normal 0 0 -1
    outer loop
      vertex 36.4484 -34.2274 0
      vertex 32.4797 2.22818 0
      vertex 35.5573 -0.159053 0
    endloop
  endfacet
  facet normal 0 0 -1
    outer loop
      vertex 31.8712 -38.5257 0
      vertex 32.4797 2.22818 0
      vertex 34.2274 -36.4484 0
    endloop
  endfacet
  facet normal 0 0 -1
    outer loop
      vertex 29.3893 -40.4509 0
      vertex 32.4797 2.22818 0
      vertex 31.8712 -38.5257 0
    endloop
  endfacet
  facet normal -0 0 -1
    outer loop
      vertex 32.4797 2.22818 0
      vertex 29.3893 -40.4509 0
      vertex 29.5581 4.80394 0
    endloop
  endfacet
  facet normal 0 0 -1
    outer loop
      vertex 26.7913 -42.2164 0
      vertex 29.5581 4.80394 0
      vertex 29.3893 -40.4509 0
    endloop
  endfacet
  facet normal 0 0 -1
    outer loop
      vertex 24.0877 -43.8153 0
      vertex 29.5581 4.80394 0
      vertex 26.7913 -42.2164 0
    endloop
  endfacet
  facet normal 0 0 -1
    outer loop
      vertex 21.289 -45.2414 0
      vertex 29.5581 4.80394 0
      vertex 24.0877 -43.8153 0
    endloop
  endfacet
  facet normal 0 0 -1
    outer loop
      vertex 18.4062 -46.4888 0
      vertex 29.5581 4.80394 0
      vertex 21.289 -45.2414 0
    endloop
  endfacet
  facet normal 0 0 -1
    outer loop
      vertex 15.4508 -47.5528 0
      vertex 29.5581 4.80394 0
      vertex 18.4062 -46.4888 0
    endloop
  endfacet
  facet normal -0 0 -1
    outer loop
      vertex 29.5581 4.80394 0
      vertex 15.4508 -47.5528 0
      vertex 26.8039 7.55808 0
    endloop
  endfacet
  facet normal 0 0 -1
    outer loop
      vertex 12.4345 -48.4292 0
      vertex 26.8039 7.55808 0
      vertex 15.4508 -47.5528 0
    endloop
  endfacet
  facet normal 0 0 -1
    outer loop
      vertex 9.36907 -49.1144 0
      vertex 26.8039 7.55808 0
      vertex 12.4345 -48.4292 0
    endloop
  endfacet
  facet normal 0 0 -1
    outer loop
      vertex 6.26666 -49.6057 0
      vertex 26.8039 7.55808 0
      vertex 9.36907 -49.1144 0
    endloop
  endfacet
  facet normal 0 0 -1
    outer loop
      vertex 3.13953 -49.9013 0
      vertex 26.8039 7.55808 0
      vertex 6.26666 -49.6057 0
    endloop
  endfacet
  facet normal 0 0 -1
    outer loop
      vertex 0 -50 0
      vertex 26.8039 7.55808 0
      vertex 3.13953 -49.9013 0
    endloop
  endfacet
  facet normal 0 0 -1
    outer loop
      vertex -3.13953 -49.9013 0
      vertex 26.8039 7.55808 0
      vertex 0 -50 0
    endloop
  endfacet
  facet normal -0 0 -1
    outer loop
      vertex 26.8039 7.55808 0
      vertex -3.13953 -49.9013 0
      vertex 24.2282 10.4797 0
    endloop
  endfacet
  facet normal 0 0 -1
    outer loop
      vertex -6.26666 -49.6057 0
      vertex 24.2282 10.4797 0
      vertex -3.13953 -49.9013 0
    endloop
  endfacet
  facet normal 0 0 -1
    outer loop
      vertex -9.36907 -49.1144 0
      vertex 24.2282 10.4797 0
      vertex -6.26666 -49.6057 0
    endloop
  endfacet
  facet normal 0 0 -1
    outer loop
      vertex -12.4345 -48.4292 0
      vertex 24.2282 10.4797 0
      vertex -9.36907 -49.1144 0
    endloop
  endfacet
  facet normal 0 0 -1
    outer loop
      vertex -15.4508 -47.5528 0
      vertex 24.2282 10.4797 0
      vertex -12.4345 -48.4292 0
    endloop
  endfacet
  facet normal 0 0 -1
    outer loop
      vertex -18.4062 -46.4888 0
      vertex 24.2282 10.4797 0
      vertex -15.4508 -47.5528 0
    endloop
  endfacet
  facet normal 0 0 -1
    outer loop
      vertex -21.289 -45.2414 0
      vertex 24.2282 10.4797 0
      vertex -18.4062 -46.4888 0
    endloop
  endfacet
  facet normal 0 0 -1
    outer loop
      vertex -24.0877 -43.8153 0
      vertex 24.2282 10.4797 0
      vertex -21.289 -45.2414 0
    endloop
  endfacet
  facet normal -0 0 -1
    outer loop
      vertex 24.2282 10.4797 0
      vertex -24.0877 -43.8153 0
      vertex 21.8409 13.5573 0
    endloop
  endfacet
  facet normal -0 -0 -1
    outer loop
      vertex 9.36907 49.1144 0
      vertex 10.1223 46.107 0
      vertex 6.26666 49.6057 0
    endloop
  endfacet
  facet normal 0 0 -1
    outer loop
      vertex 10.1223 46.107 0
      vertex 9.36907 49.1144 0
      vertex 10.0325 48.9661 0
    endloop
  endfacet
  facet normal 0 0 -1
    outer loop
      vertex -26.7913 -42.2164 0
      vertex 21.8409 13.5573 0
      vertex -24.0877 -43.8153 0
    endloop
  endfacet
  facet normal 0 0 -1
    outer loop
      vertex 10.4889 42.2293 0
      vertex 6.26666 49.6057 0
      vertex 10.1223 46.107 0
    endloop
  endfacet
  facet normal 0 0 -1
    outer loop
      vertex -29.3893 -40.4509 0
      vertex 21.8409 13.5573 0
      vertex -26.7913 -42.2164 0
    endloop
  endfacet
  facet normal -0 -0 -1
    outer loop
      vertex 6.26666 49.6057 0
      vertex 10.4889 42.2293 0
      vertex 3.13953 49.9013 0
    endloop
  endfacet
  facet normal 0 0 -1
    outer loop
      vertex -31.8712 -38.5257 0
      vertex 21.8409 13.5573 0
      vertex -29.3893 -40.4509 0
    endloop
  endfacet
  facet normal -0 -0 -1
    outer loop
      vertex 3.13953 49.9013 0
      vertex 10.4889 42.2293 0
      vertex 0 50 0
    endloop
  endfacet
  facet normal 0 0 -1
    outer loop
      vertex -34.2274 -36.4484 0
      vertex 21.8409 13.5573 0
      vertex -31.8712 -38.5257 0
    endloop
  endfacet
  facet normal 0 0 -1
    outer loop
      vertex 11.0982 38.3824 0
      vertex 0 50 0
      vertex 10.4889 42.2293 0
    endloop
  endfacet
  facet normal 0 0 -1
    outer loop
      vertex -36.4484 -34.2274 0
      vertex 21.8409 13.5573 0
      vertex -34.2274 -36.4484 0
    endloop
  endfacet
  facet normal 0 -0 -1
    outer loop
      vertex 0 50 0
      vertex 11.0982 38.3824 0
      vertex -3.13953 49.9013 0
    endloop
  endfacet
  facet normal 0 0 -1
    outer loop
      vertex -38.5257 -31.8712 0
      vertex 21.8409 13.5573 0
      vertex -36.4484 -34.2274 0
    endloop
  endfacet
  facet normal 0 -0 -1
    outer loop
      vertex -3.13953 49.9013 0
      vertex 11.0982 38.3824 0
      vertex -6.26666 49.6057 0
    endloop
  endfacet
  facet normal 0 0 -1
    outer loop
      vertex -40.4509 -29.3893 0
      vertex 21.8409 13.5573 0
      vertex -38.5257 -31.8712 0
    endloop
  endfacet
  facet normal 0 0 -1
    outer loop
      vertex 11.9478 34.5812 0
      vertex -6.26666 49.6057 0
      vertex 11.0982 38.3824 0
    endloop
  endfacet
  facet normal 0 0 -1
    outer loop
      vertex -42.2164 -26.7913 0
      vertex 21.8409 13.5573 0
      vertex -40.4509 -29.3893 0
    endloop
  endfacet
  facet normal 0 -0 -1
    outer loop
      vertex -6.26666 49.6057 0
      vertex 11.9478 34.5812 0
      vertex -9.36907 49.1144 0
    endloop
  endfacet
  facet normal -0 0 -1
    outer loop
      vertex 21.8409 13.5573 0
      vertex -42.2164 -26.7913 0
      vertex 19.6517 16.7787 0
    endloop
  endfacet
  facet normal 0 -0 -1
    outer loop
      vertex -9.36907 49.1144 0
      vertex 11.9478 34.5812 0
      vertex -12.4345 48.4292 0
    endloop
  endfacet
  facet normal 0 0 -1
    outer loop
      vertex -43.8153 -24.0877 0
      vertex 19.6517 16.7787 0
      vertex -42.2164 -26.7913 0
    endloop
  endfacet
  facet normal 0 -0 -1
    outer loop
      vertex -12.4345 48.4292 0
      vertex 11.9478 34.5812 0
      vertex -15.4508 47.5528 0
    endloop
  endfacet
  facet normal 0 0 -1
    outer loop
      vertex -45.2414 -21.289 0
      vertex 19.6517 16.7787 0
      vertex -43.8153 -24.0877 0
    endloop
  endfacet
  facet normal 0 0 -1
    outer loop
      vertex 13.0345 30.8409 0
      vertex -15.4508 47.5528 0
      vertex 11.9478 34.5812 0
    endloop
  endfacet
  facet normal 0 0 -1
    outer loop
      vertex -46.4888 -18.4062 0
      vertex 19.6517 16.7787 0
      vertex -45.2414 -21.289 0
    endloop
  endfacet
  facet normal 0 -0 -1
    outer loop
      vertex -15.4508 47.5528 0
      vertex 13.0345 30.8409 0
      vertex -18.4062 46.4888 0
    endloop
  endfacet
  facet normal 0 0 -1
    outer loop
      vertex -47.5528 -15.4508 0
      vertex 19.6517 16.7787 0
      vertex -46.4888 -18.4062 0
    endloop
  endfacet
  facet normal 0 -0 -1
    outer loop
      vertex -18.4062 46.4888 0
      vertex 13.0345 30.8409 0
      vertex -21.289 45.2414 0
    endloop
  endfacet
  facet normal 0 0 -1
    outer loop
      vertex -48.4292 -12.4345 0
      vertex 19.6517 16.7787 0
      vertex -47.5528 -15.4508 0
    endloop
  endfacet
  facet normal 0 -0 -1
    outer loop
      vertex -21.289 45.2414 0
      vertex 13.0345 30.8409 0
      vertex -24.0877 43.8153 0
    endloop
  endfacet
  facet normal 0 0 -1
    outer loop
      vertex -49.1144 -9.36907 0
      vertex 19.6517 16.7787 0
      vertex -48.4292 -12.4345 0
    endloop
  endfacet
  facet normal 0 -0 -1
    outer loop
      vertex -24.0877 43.8153 0
      vertex 13.0345 30.8409 0
      vertex -26.7913 42.2164 0
    endloop
  endfacet
  facet normal 0 0 -1
    outer loop
      vertex -49.6057 -6.26666 0
      vertex 19.6517 16.7787 0
      vertex -49.1144 -9.36907 0
    endloop
  endfacet
  facet normal 0 0 -1
    outer loop
      vertex 14.3539 27.1763 0
      vertex -26.7913 42.2164 0
      vertex 13.0345 30.8409 0
    endloop
  endfacet
  facet normal 0 0 -1
    outer loop
      vertex -49.9013 -3.13953 0
      vertex 19.6517 16.7787 0
      vertex -49.6057 -6.26666 0
    endloop
  endfacet
  facet normal 0 -0 -1
    outer loop
      vertex -26.7913 42.2164 0
      vertex 14.3539 27.1763 0
      vertex -29.3893 40.4509 0
    endloop
  endfacet
  facet normal -0 0 -1
    outer loop
      vertex 19.6517 16.7787 0
      vertex -49.9013 -3.13953 0
      vertex 17.669 20.1313 0
    endloop
  endfacet
  facet normal 0 -0 -1
    outer loop
      vertex -29.3893 40.4509 0
      vertex 14.3539 27.1763 0
      vertex -31.8712 38.5257 0
    endloop
  endfacet
  facet normal 0 0 -1
    outer loop
      vertex -50 0 0
      vertex 17.669 20.1313 0
      vertex -49.9013 -3.13953 0
    endloop
  endfacet
  facet normal 0 -0 -1
    outer loop
      vertex -31.8712 38.5257 0
      vertex 14.3539 27.1763 0
      vertex -34.2274 36.4484 0
    endloop
  endfacet
  facet normal 0 -0 -1
    outer loop
      vertex -49.9013 3.13953 0
      vertex 17.669 20.1313 0
      vertex -50 0 0
    endloop
  endfacet
  facet normal 0 -0 -1
    outer loop
      vertex -34.2274 36.4484 0
      vertex 14.3539 27.1763 0
      vertex -36.4484 34.2274 0
    endloop
  endfacet
  facet normal 0 -0 -1
    outer loop
      vertex -49.6057 6.26666 0
      vertex 17.669 20.1313 0
      vertex -49.9013 3.13953 0
    endloop
  endfacet
  facet normal 0 0 -1
    outer loop
      vertex 15.9007 23.6017 0
      vertex -36.4484 34.2274 0
      vertex 14.3539 27.1763 0
    endloop
  endfacet
  facet normal 0 -0 -1
    outer loop
      vertex -49.1144 9.36907 0
      vertex 17.669 20.1313 0
      vertex -49.6057 6.26666 0
    endloop
  endfacet
  facet normal 0 -0 -1
    outer loop
      vertex -36.4484 34.2274 0
      vertex 15.9007 23.6017 0
      vertex -38.5257 31.8712 0
    endloop
  endfacet
  facet normal 0 -0 -1
    outer loop
      vertex -48.4292 12.4345 0
      vertex 17.669 20.1313 0
      vertex -49.1144 9.36907 0
    endloop
  endfacet
  facet normal 0 -0 -1
    outer loop
      vertex -38.5257 31.8712 0
      vertex 15.9007 23.6017 0
      vertex -40.4509 29.3893 0
    endloop
  endfacet
  facet normal 0 -0 -1
    outer loop
      vertex -42.2164 26.7913 0
      vertex 15.9007 23.6017 0
      vertex -43.8153 24.0877 0
    endloop
  endfacet
  facet normal 0 -0 -1
    outer loop
      vertex -40.4509 29.3893 0
      vertex 15.9007 23.6017 0
      vertex -42.2164 26.7913 0
    endloop
  endfacet
  facet normal 0 -0 -1
    outer loop
      vertex -47.5528 15.4508 0
      vertex 17.669 20.1313 0
      vertex -48.4292 12.4345 0
    endloop
  endfacet
  facet normal 0 -0 -1
    outer loop
      vertex -43.8153 24.0877 0
      vertex 15.9007 23.6017 0
      vertex -45.2414 21.289 0
    endloop
  endfacet
  facet normal -0 0 -1
    outer loop
      vertex 17.669 20.1313 0
      vertex -46.4888 18.4062 0
      vertex 15.9007 23.6017 0
    endloop
  endfacet
  facet normal 0 -0 -1
    outer loop
      vertex -45.2414 21.289 0
      vertex 15.9007 23.6017 0
      vertex -46.4888 18.4062 0
    endloop
  endfacet
  facet normal 0 -0 -1
    outer loop
      vertex -46.4888 18.4062 0
      vertex 17.669 20.1313 0
      vertex -47.5528 15.4508 0
    endloop
  endfacet
  facet normal -0.999506 0.0314223 0
    outer loop
      vertex -50 0 0
      vertex -49.9013 3.13953 3
      vertex -49.9013 3.13953 0
    endloop
  endfacet
  facet normal -0.999506 0.0314223 0
    outer loop
      vertex -49.9013 3.13953 3
      vertex -50 0 0
      vertex -50 0 3
    endloop
  endfacet
  facet normal -0.454014 -0.890995 0
    outer loop
      vertex -24.0877 -43.8153 0
      vertex -21.289 -45.2414 3
      vertex -24.0877 -43.8153 3
    endloop
  endfacet
  facet normal -0.454014 -0.890995 -0
    outer loop
      vertex -21.289 -45.2414 3
      vertex -24.0877 -43.8153 0
      vertex -21.289 -45.2414 0
    endloop
  endfacet
  facet normal -0.890995 -0.454014 0
    outer loop
      vertex -43.8153 -24.0877 0
      vertex -45.2414 -21.289 3
      vertex -45.2414 -21.289 0
    endloop
  endfacet
  facet normal -0.890995 -0.454014 0
    outer loop
      vertex -45.2414 -21.289 3
      vertex -43.8153 -24.0877 0
      vertex -43.8153 -24.0877 3
    endloop
  endfacet
  facet normal -0.917766 -0.397121 0
    outer loop
      vertex -45.2414 -21.289 0
      vertex -46.4888 -18.4062 3
      vertex -46.4888 -18.4062 0
    endloop
  endfacet
  facet normal -0.917766 -0.397121 0
    outer loop
      vertex -46.4888 -18.4062 3
      vertex -45.2414 -21.289 0
      vertex -45.2414 -21.289 3
    endloop
  endfacet
  facet normal 0.661315 0.750108 -0
    outer loop
      vertex 32.4797 2.22818 0
      vertex 29.5581 4.80394 3
      vertex 32.4797 2.22818 3
    endloop
  endfacet
  facet normal 0.661315 0.750108 0
    outer loop
      vertex 29.5581 4.80394 3
      vertex 32.4797 2.22818 0
      vertex 29.5581 4.80394 0
    endloop
  endfacet
  facet normal 0.453993 0.891005 -0
    outer loop
      vertex 45.6017 -6.09928 0
      vertex 42.1313 -4.33101 3
      vertex 45.6017 -6.09928 3
    endloop
  endfacet
  facet normal 0.453993 0.891005 0
    outer loop
      vertex 42.1313 -4.33101 3
      vertex 45.6017 -6.09928 0
      vertex 42.1313 -4.33101 0
    endloop
  endfacet
  facet normal 0.827088 0.562073 0
    outer loop
      vertex 21.8409 13.5573 3
      vertex 19.6517 16.7787 0
      vertex 19.6517 16.7787 3
    endloop
  endfacet
  facet normal 0.827088 0.562073 0
    outer loop
      vertex 19.6517 16.7787 0
      vertex 21.8409 13.5573 3
      vertex 21.8409 13.5573 0
    endloop
  endfacet
  facet normal 0.940876 0.338752 0
    outer loop
      vertex 14.3539 27.1763 3
      vertex 13.0345 30.8409 0
      vertex 13.0345 30.8409 3
    endloop
  endfacet
  facet normal 0.940876 0.338752 0
    outer loop
      vertex 13.0345 30.8409 0
      vertex 14.3539 27.1763 3
      vertex 14.3539 27.1763 0
    endloop
  endfacet
  facet normal 0.562086 0.827079 -0
    outer loop
      vertex 38.7787 -2.34833 0
      vertex 35.5573 -0.159053 3
      vertex 38.7787 -2.34833 3
    endloop
  endfacet
  facet normal 0.562086 0.827079 0
    outer loop
      vertex 35.5573 -0.159053 3
      vertex 38.7787 -2.34833 0
      vertex 35.5573 -0.159053 0
    endloop
  endfacet
  facet normal 0.995561 0.0941209 0
    outer loop
      vertex 10.4889 42.2293 3
      vertex 10.1223 46.107 0
      vertex 10.1223 46.107 3
    endloop
  endfacet
  facet normal 0.995561 0.0941209 0
    outer loop
      vertex 10.1223 46.107 0
      vertex 10.4889 42.2293 3
      vertex 10.4889 42.2293 0
    endloop
  endfacet
  facet normal 0.707099 0.707114 -0
    outer loop
      vertex 29.5581 4.80394 0
      vertex 26.8039 7.55808 3
      vertex 29.5581 4.80394 3
    endloop
  endfacet
  facet normal 0.707099 0.707114 0
    outer loop
      vertex 26.8039 7.55808 3
      vertex 29.5581 4.80394 0
      vertex 26.8039 7.55808 0
    endloop
  endfacet
  facet normal 0.860745 0.509037 0
    outer loop
      vertex 19.6517 16.7787 3
      vertex 17.669 20.1313 0
      vertex 17.669 20.1313 3
    endloop
  endfacet
  facet normal 0.860745 0.509037 0
    outer loop
      vertex 17.669 20.1313 0
      vertex 19.6517 16.7787 3
      vertex 19.6517 16.7787 0
    endloop
  endfacet
  facet normal 0.975921 0.218126 0
    outer loop
      vertex 11.9478 34.5812 3
      vertex 11.0982 38.3824 0
      vertex 11.0982 38.3824 3
    endloop
  endfacet
  facet normal 0.975921 0.218126 0
    outer loop
      vertex 11.0982 38.3824 0
      vertex 11.9478 34.5812 3
      vertex 11.9478 34.5812 0
    endloop
  endfacet
  facet normal 0.509033 0.860747 -0
    outer loop
      vertex 42.1313 -4.33101 0
      vertex 38.7787 -2.34833 3
      vertex 42.1313 -4.33101 3
    endloop
  endfacet
  facet normal 0.509033 0.860747 0
    outer loop
      vertex 38.7787 -2.34833 3
      vertex 42.1313 -4.33101 0
      vertex 38.7787 -2.34833 0
    endloop
  endfacet
  facet normal 0.790146 0.612918 0
    outer loop
      vertex 24.2282 10.4797 3
      vertex 21.8409 13.5573 0
      vertex 21.8409 13.5573 3
    endloop
  endfacet
  facet normal 0.790146 0.612918 0
    outer loop
      vertex 21.8409 13.5573 0
      vertex 24.2282 10.4797 3
      vertex 24.2282 10.4797 0
    endloop
  endfacet
  facet normal 0.750118 0.661304 0
    outer loop
      vertex 26.8039 7.55808 3
      vertex 24.2282 10.4797 0
      vertex 24.2282 10.4797 3
    endloop
  endfacet
  facet normal 0.750118 0.661304 0
    outer loop
      vertex 24.2282 10.4797 0
      vertex 26.8039 7.55808 3
      vertex 26.8039 7.55808 0
    endloop
  endfacet
  facet normal 0.338736 0.940881 -0
    outer loop
      vertex 49.3759 -7.718 0
      vertex 49.1763 -7.64614 3
      vertex 49.3759 -7.718 3
    endloop
  endfacet
  facet normal 0.338736 0.940881 0
    outer loop
      vertex 49.1763 -7.64614 3
      vertex 49.3759 -7.718 0
      vertex 49.1763 -7.64614 0
    endloop
  endfacet
  facet normal 0.917761 0.397133 0
    outer loop
      vertex 15.9007 23.6017 3
      vertex 14.3539 27.1763 0
      vertex 14.3539 27.1763 3
    endloop
  endfacet
  facet normal 0.917761 0.397133 0
    outer loop
      vertex 14.3539 27.1763 0
      vertex 15.9007 23.6017 3
      vertex 15.9007 23.6017 0
    endloop
  endfacet
  facet normal 0.999507 0.031393 0
    outer loop
      vertex 10.1223 46.107 3
      vertex 10.0325 48.9661 0
      vertex 10.0325 48.9661 3
    endloop
  endfacet
  facet normal 0.999507 0.031393 0
    outer loop
      vertex 10.0325 48.9661 0
      vertex 10.1223 46.107 3
      vertex 10.1223 46.107 0
    endloop
  endfacet
  facet normal 0.891002 0.453999 0
    outer loop
      vertex 17.669 20.1313 3
      vertex 15.9007 23.6017 0
      vertex 15.9007 23.6017 3
    endloop
  endfacet
  facet normal 0.891002 0.453999 0
    outer loop
      vertex 15.9007 23.6017 0
      vertex 17.669 20.1313 3
      vertex 17.669 20.1313 0
    endloop
  endfacet
  facet normal 0.960291 0.279001 0
    outer loop
      vertex 13.0345 30.8409 3
      vertex 11.9478 34.5812 0
      vertex 11.9478 34.5812 3
    endloop
  endfacet
  facet normal 0.960291 0.279001 0
    outer loop
      vertex 11.9478 34.5812 0
      vertex 13.0345 30.8409 3
      vertex 13.0345 30.8409 0
    endloop
  endfacet
  facet normal 0.987688 0.156437 0
    outer loop
      vertex 11.0982 38.3824 3
      vertex 10.4889 42.2293 0
      vertex 10.4889 42.2293 3
    endloop
  endfacet
  facet normal 0.987688 0.156437 0
    outer loop
      vertex 10.4889 42.2293 0
      vertex 11.0982 38.3824 3
      vertex 11.0982 38.3824 0
    endloop
  endfacet
  facet normal 0.397146 0.917755 -0
    outer loop
      vertex 49.1763 -7.64614 0
      vertex 45.6017 -6.09928 3
      vertex 49.1763 -7.64614 3
    endloop
  endfacet
  facet normal 0.397146 0.917755 0
    outer loop
      vertex 45.6017 -6.09928 3
      vertex 49.1763 -7.64614 0
      vertex 45.6017 -6.09928 0
    endloop
  endfacet
  facet normal 0.612907 0.790155 -0
    outer loop
      vertex 35.5573 -0.159053 0
      vertex 32.4797 2.22818 3
      vertex 35.5573 -0.159053 3
    endloop
  endfacet
  facet normal 0.612907 0.790155 0
    outer loop
      vertex 32.4797 2.22818 3
      vertex 35.5573 -0.159053 0
      vertex 32.4797 2.22818 0
    endloop
  endfacet
endsolid OpenSCAD_Model
