solid OpenSCAD_Model
  facet normal 1 0 0
    outer loop
      vertex 16.2 42.625 11.5
      vertex 16.2 16.6 0.0701297
      vertex 16.2 42.625 -11.5
    endloop
  endfacet
  facet normal 1 0 0
    outer loop
      vertex 16.2 42.625 11.5
      vertex 16.2 -16.6 0.0701297
      vertex 16.2 16.6 0.0701297
    endloop
  endfacet
  facet normal 1 0 0
    outer loop
      vertex 16.2 -42.625 -11.5
      vertex 16.2 -16.6 0.0701289
      vertex 16.2 -16.6 0.0701297
    endloop
  endfacet
  facet normal 1 0 0
    outer loop
      vertex 16.2 -16.6 0.0701289
      vertex 16.2 -42.625 -11.5
      vertex 16.2 -16.6 -9.94148
    endloop
  endfacet
  facet normal 1 0 0
    outer loop
      vertex 16.2 -42.625 -11.5
      vertex 16.2 -16.6 0.0701297
      vertex 16.2 -42.625 11.5
    endloop
  endfacet
  facet normal 1 -0 0
    outer loop
      vertex 16.2 -42.625 11.5
      vertex 16.2 -16.6 0.0701297
      vertex 16.2 42.625 11.5
    endloop
  endfacet
  facet normal 1 -0 0
    outer loop
      vertex 16.2 16.6 0.0701289
      vertex 16.2 42.625 -11.5
      vertex 16.2 16.6 0.0701297
    endloop
  endfacet
  facet normal 1 -0 0
    outer loop
      vertex 16.2 16.6 -9.94148
      vertex 16.2 42.625 -11.5
      vertex 16.2 16.6 0.0701289
    endloop
  endfacet
  facet normal 1 -0 0
    outer loop
      vertex 16.2 -16.6 -9.94148
      vertex 16.2 42.625 -11.5
      vertex 16.2 16.6 -9.94148
    endloop
  endfacet
  facet normal 1 0 0
    outer loop
      vertex 16.2 -16.6 -9.94148
      vertex 16.2 -42.625 -11.5
      vertex 16.2 42.625 -11.5
    endloop
  endfacet
  facet normal 0 0 1
    outer loop
      vertex -3.96858 42.625 11.5
      vertex -14.25 40.675 11.5
      vertex -3.96858 40.675 11.5
    endloop
  endfacet
  facet normal 0 0 1
    outer loop
      vertex -14.25 40.675 11.5
      vertex -16.2 42.625 11.5
      vertex -14.25 -40.675 11.5
    endloop
  endfacet
  facet normal -0 0 1
    outer loop
      vertex -16.2 42.625 11.5
      vertex -14.25 40.675 11.5
      vertex -3.96858 42.625 11.5
    endloop
  endfacet
  facet normal 0 0 1
    outer loop
      vertex 16.2 42.625 11.5
      vertex 14.25 40.675 11.5
      vertex 16.2 -42.625 11.5
    endloop
  endfacet
  facet normal -0 0 1
    outer loop
      vertex 3.96858 42.625 11.5
      vertex 14.25 40.675 11.5
      vertex 16.2 42.625 11.5
    endloop
  endfacet
  facet normal 0 0 1
    outer loop
      vertex 14.25 40.675 11.5
      vertex 3.96858 42.625 11.5
      vertex 3.96858 40.675 11.5
    endloop
  endfacet
  facet normal -0 0 1
    outer loop
      vertex 14.25 -40.675 11.5
      vertex 16.2 -42.625 11.5
      vertex 14.25 40.675 11.5
    endloop
  endfacet
  facet normal -0 0 1
    outer loop
      vertex -14.25 -40.675 11.5
      vertex 16.2 -42.625 11.5
      vertex 14.25 -40.675 11.5
    endloop
  endfacet
  facet normal 0 0 1
    outer loop
      vertex -14.25 -40.675 11.5
      vertex -16.2 -42.625 11.5
      vertex 16.2 -42.625 11.5
    endloop
  endfacet
  facet normal 0 0 1
    outer loop
      vertex -16.2 -42.625 11.5
      vertex -14.25 -40.675 11.5
      vertex -16.2 42.625 11.5
    endloop
  endfacet
  facet normal 0 0 -1
    outer loop
      vertex 16.2 -42.625 -11.5
      vertex -4.625 -35.3 -11.5
      vertex 16.2 42.625 -11.5
    endloop
  endfacet
  facet normal 0 0 -1
    outer loop
      vertex -16.2 -42.625 -11.5
      vertex -4.625 -35.3 -11.5
      vertex 16.2 -42.625 -11.5
    endloop
  endfacet
  facet normal -0 0 -1
    outer loop
      vertex -11.375 -35.3 -11.5
      vertex -16.2 -42.625 -11.5
      vertex -11.375 35.3 -11.5
    endloop
  endfacet
  facet normal -0 0 -1
    outer loop
      vertex -4.625 -35.3 -11.5
      vertex -16.2 -42.625 -11.5
      vertex -11.375 -35.3 -11.5
    endloop
  endfacet
  facet normal 0 0 -1
    outer loop
      vertex -4.625 35.3 -11.5
      vertex 16.2 42.625 -11.5
      vertex -4.625 -35.3 -11.5
    endloop
  endfacet
  facet normal 0 0 -1
    outer loop
      vertex -16.2 42.625 -11.5
      vertex -4.625 35.3 -11.5
      vertex -11.375 35.3 -11.5
    endloop
  endfacet
  facet normal 0 0 -1
    outer loop
      vertex -4.625 35.3 -11.5
      vertex -16.2 42.625 -11.5
      vertex 16.2 42.625 -11.5
    endloop
  endfacet
  facet normal 0 0 -1
    outer loop
      vertex -16.2 42.625 -11.5
      vertex -11.375 35.3 -11.5
      vertex -16.2 -42.625 -11.5
    endloop
  endfacet
  facet normal -1 0 0
    outer loop
      vertex -16.2 -42.625 -11.5
      vertex -16.2 42.625 11.5
      vertex -16.2 42.625 -11.5
    endloop
  endfacet
  facet normal -1 -0 0
    outer loop
      vertex -16.2 42.625 11.5
      vertex -16.2 -42.625 -11.5
      vertex -16.2 -42.625 11.5
    endloop
  endfacet
  facet normal 0 1 0
    outer loop
      vertex 16.2 42.625 11.5
      vertex 3.99211 42.625 11.2512
      vertex 3.96858 42.625 11.5
    endloop
  endfacet
  facet normal 0 1 0
    outer loop
      vertex 16.2 42.625 11.5
      vertex 4 42.625 11
      vertex 3.99211 42.625 11.2512
    endloop
  endfacet
  facet normal 0 1 0
    outer loop
      vertex 16.2 42.625 11.5
      vertex 3.99211 42.625 10.7488
      vertex 4 42.625 11
    endloop
  endfacet
  facet normal 0 1 0
    outer loop
      vertex 16.2 42.625 11.5
      vertex 3.96846 42.625 10.4987
      vertex 3.99211 42.625 10.7488
    endloop
  endfacet
  facet normal 0 1 0
    outer loop
      vertex 16.2 42.625 11.5
      vertex 3.92915 42.625 10.2505
      vertex 3.96846 42.625 10.4987
    endloop
  endfacet
  facet normal 0 1 0
    outer loop
      vertex 16.2 42.625 11.5
      vertex 3.87433 42.625 10.0052
      vertex 3.92915 42.625 10.2505
    endloop
  endfacet
  facet normal 0 1 0
    outer loop
      vertex 16.2 42.625 11.5
      vertex 3.80423 42.625 9.76393
      vertex 3.87433 42.625 10.0052
    endloop
  endfacet
  facet normal 0 1 0
    outer loop
      vertex 16.2 42.625 11.5
      vertex 3.71911 42.625 9.5275
      vertex 3.80423 42.625 9.76393
    endloop
  endfacet
  facet normal 0 1 0
    outer loop
      vertex 16.2 42.625 11.5
      vertex 3.61931 42.625 9.29688
      vertex 3.71911 42.625 9.5275
    endloop
  endfacet
  facet normal 0 1 0
    outer loop
      vertex 16.2 42.625 11.5
      vertex 3.50523 42.625 9.07298
      vertex 3.61931 42.625 9.29688
    endloop
  endfacet
  facet normal 0 1 0
    outer loop
      vertex 16.2 42.625 11.5
      vertex 3.37731 42.625 8.85669
      vertex 3.50523 42.625 9.07298
    endloop
  endfacet
  facet normal 0 1 0
    outer loop
      vertex 16.2 42.625 11.5
      vertex 3.23607 42.625 8.64886
      vertex 3.37731 42.625 8.85669
    endloop
  endfacet
  facet normal 0 1 0
    outer loop
      vertex 16.2 42.625 11.5
      vertex 3.08205 42.625 8.4503
      vertex 3.23607 42.625 8.64886
    endloop
  endfacet
  facet normal 0 1 0
    outer loop
      vertex 16.2 42.625 11.5
      vertex 2.91587 42.625 8.26181
      vertex 3.08205 42.625 8.4503
    endloop
  endfacet
  facet normal 0 1 -0
    outer loop
      vertex 16.2 42.625 -11.5
      vertex 2.91587 42.625 8.26181
      vertex 16.2 42.625 11.5
    endloop
  endfacet
  facet normal 0 1 0
    outer loop
      vertex 2.91587 42.625 8.26181
      vertex 16.2 42.625 -11.5
      vertex 2.73819 42.625 8.08412
    endloop
  endfacet
  facet normal 0 1 0
    outer loop
      vertex 2.73819 42.625 8.08412
      vertex 16.2 42.625 -11.5
      vertex 2.5497 42.625 7.91795
    endloop
  endfacet
  facet normal 0 1 0
    outer loop
      vertex 2.5497 42.625 7.91795
      vertex 16.2 42.625 -11.5
      vertex 2.35114 42.625 7.76393
    endloop
  endfacet
  facet normal 0 1 0
    outer loop
      vertex 2.35114 42.625 7.76393
      vertex 16.2 42.625 -11.5
      vertex 2.14331 42.625 7.62269
    endloop
  endfacet
  facet normal 0 1 0
    outer loop
      vertex 2.14331 42.625 7.62269
      vertex 16.2 42.625 -11.5
      vertex 1.92701 42.625 7.49477
    endloop
  endfacet
  facet normal 0 1 0
    outer loop
      vertex 1.92701 42.625 7.49477
      vertex 16.2 42.625 -11.5
      vertex 1.70312 42.625 7.38069
    endloop
  endfacet
  facet normal 0 1 0
    outer loop
      vertex 1.70312 42.625 7.38069
      vertex 16.2 42.625 -11.5
      vertex 1.4725 42.625 7.28089
    endloop
  endfacet
  facet normal 0 1 0
    outer loop
      vertex 1.4725 42.625 7.28089
      vertex 16.2 42.625 -11.5
      vertex 1.23607 42.625 7.19577
    endloop
  endfacet
  facet normal 0 1 0
    outer loop
      vertex 0.251162 42.625 7.00789
      vertex 16.2 42.625 -11.5
      vertex 0 42.625 7
    endloop
  endfacet
  facet normal 0 1 0
    outer loop
      vertex 0.501332 42.625 7.03154
      vertex 16.2 42.625 -11.5
      vertex 0.251162 42.625 7.00789
    endloop
  endfacet
  facet normal 0 1 0
    outer loop
      vertex 0.749525 42.625 7.07085
      vertex 16.2 42.625 -11.5
      vertex 0.501332 42.625 7.03154
    endloop
  endfacet
  facet normal 0 1 0
    outer loop
      vertex 0.994759 42.625 7.12567
      vertex 16.2 42.625 -11.5
      vertex 0.749525 42.625 7.07085
    endloop
  endfacet
  facet normal 0 1 0
    outer loop
      vertex 1.23607 42.625 7.19577
      vertex 16.2 42.625 -11.5
      vertex 0.994759 42.625 7.12567
    endloop
  endfacet
  facet normal 0 1 -0
    outer loop
      vertex -3.99211 42.625 11.2512
      vertex -16.2 42.625 11.5
      vertex -3.96858 42.625 11.5
    endloop
  endfacet
  facet normal 0 1 -0
    outer loop
      vertex -4 42.625 11
      vertex -16.2 42.625 11.5
      vertex -3.99211 42.625 11.2512
    endloop
  endfacet
  facet normal 0 1 0
    outer loop
      vertex -3.99211 42.625 10.7488
      vertex -16.2 42.625 11.5
      vertex -4 42.625 11
    endloop
  endfacet
  facet normal 0 1 0
    outer loop
      vertex -3.96846 42.625 10.4987
      vertex -16.2 42.625 11.5
      vertex -3.99211 42.625 10.7488
    endloop
  endfacet
  facet normal 0 1 0
    outer loop
      vertex -3.92915 42.625 10.2505
      vertex -16.2 42.625 11.5
      vertex -3.96846 42.625 10.4987
    endloop
  endfacet
  facet normal 0 1 0
    outer loop
      vertex -3.87433 42.625 10.0052
      vertex -16.2 42.625 11.5
      vertex -3.92915 42.625 10.2505
    endloop
  endfacet
  facet normal 0 1 0
    outer loop
      vertex -3.80423 42.625 9.76393
      vertex -16.2 42.625 11.5
      vertex -3.87433 42.625 10.0052
    endloop
  endfacet
  facet normal 0 1 0
    outer loop
      vertex -3.71911 42.625 9.5275
      vertex -16.2 42.625 11.5
      vertex -3.80423 42.625 9.76393
    endloop
  endfacet
  facet normal 0 1 0
    outer loop
      vertex -3.61931 42.625 9.29688
      vertex -16.2 42.625 11.5
      vertex -3.71911 42.625 9.5275
    endloop
  endfacet
  facet normal 0 1 0
    outer loop
      vertex -3.50523 42.625 9.07298
      vertex -16.2 42.625 11.5
      vertex -3.61931 42.625 9.29688
    endloop
  endfacet
  facet normal 0 1 0
    outer loop
      vertex -3.37731 42.625 8.85669
      vertex -16.2 42.625 11.5
      vertex -3.50523 42.625 9.07298
    endloop
  endfacet
  facet normal 0 1 0
    outer loop
      vertex -3.23607 42.625 8.64886
      vertex -16.2 42.625 11.5
      vertex -3.37731 42.625 8.85669
    endloop
  endfacet
  facet normal 0 1 0
    outer loop
      vertex -3.08205 42.625 8.4503
      vertex -16.2 42.625 11.5
      vertex -3.23607 42.625 8.64886
    endloop
  endfacet
  facet normal 0 1 0
    outer loop
      vertex -2.91587 42.625 8.26181
      vertex -16.2 42.625 11.5
      vertex -3.08205 42.625 8.4503
    endloop
  endfacet
  facet normal 0 1 0
    outer loop
      vertex -16.2 42.625 -11.5
      vertex -2.91587 42.625 8.26181
      vertex -2.73819 42.625 8.08412
    endloop
  endfacet
  facet normal 0 1 0
    outer loop
      vertex -16.2 42.625 -11.5
      vertex -2.73819 42.625 8.08412
      vertex -2.5497 42.625 7.91795
    endloop
  endfacet
  facet normal 0 1 0
    outer loop
      vertex -16.2 42.625 -11.5
      vertex -2.5497 42.625 7.91795
      vertex -2.35114 42.625 7.76393
    endloop
  endfacet
  facet normal 0 1 0
    outer loop
      vertex -16.2 42.625 -11.5
      vertex -2.35114 42.625 7.76393
      vertex -2.14331 42.625 7.62269
    endloop
  endfacet
  facet normal 0 1 0
    outer loop
      vertex -16.2 42.625 -11.5
      vertex -2.14331 42.625 7.62269
      vertex -1.92701 42.625 7.49477
    endloop
  endfacet
  facet normal 0 1 0
    outer loop
      vertex -16.2 42.625 -11.5
      vertex -1.92701 42.625 7.49477
      vertex -1.70312 42.625 7.38069
    endloop
  endfacet
  facet normal 0 1 0
    outer loop
      vertex -16.2 42.625 -11.5
      vertex -1.70312 42.625 7.38069
      vertex -1.4725 42.625 7.28089
    endloop
  endfacet
  facet normal 0 1 0
    outer loop
      vertex -16.2 42.625 -11.5
      vertex -1.4725 42.625 7.28089
      vertex -1.23607 42.625 7.19577
    endloop
  endfacet
  facet normal 0 1 0
    outer loop
      vertex -16.2 42.625 -11.5
      vertex -1.23607 42.625 7.19577
      vertex -0.994759 42.625 7.12567
    endloop
  endfacet
  facet normal 0 1 0
    outer loop
      vertex -16.2 42.625 -11.5
      vertex 0 42.625 7
      vertex 16.2 42.625 -11.5
    endloop
  endfacet
  facet normal 0 1 0
    outer loop
      vertex 0 42.625 7
      vertex -16.2 42.625 -11.5
      vertex -0.251162 42.625 7.00789
    endloop
  endfacet
  facet normal 0 1 0
    outer loop
      vertex -0.251162 42.625 7.00789
      vertex -16.2 42.625 -11.5
      vertex -0.501332 42.625 7.03154
    endloop
  endfacet
  facet normal 0 1 0
    outer loop
      vertex -0.501332 42.625 7.03154
      vertex -16.2 42.625 -11.5
      vertex -0.749525 42.625 7.07085
    endloop
  endfacet
  facet normal 0 1 0
    outer loop
      vertex -0.749525 42.625 7.07085
      vertex -16.2 42.625 -11.5
      vertex -0.994759 42.625 7.12567
    endloop
  endfacet
  facet normal 0 1 0
    outer loop
      vertex -2.91587 42.625 8.26181
      vertex -16.2 42.625 -11.5
      vertex -16.2 42.625 11.5
    endloop
  endfacet
  facet normal 0 -1 0
    outer loop
      vertex -16.2 -42.625 -11.5
      vertex 16.2 -42.625 11.5
      vertex -16.2 -42.625 11.5
    endloop
  endfacet
  facet normal 0 -1 -0
    outer loop
      vertex 16.2 -42.625 11.5
      vertex -16.2 -42.625 -11.5
      vertex 16.2 -42.625 -11.5
    endloop
  endfacet
  facet normal -1 0 0
    outer loop
      vertex 14.25 -40.675 -9.5
      vertex 14.25 -16.6 -1.24516
      vertex 14.25 -16.6 -9.5
    endloop
  endfacet
  facet normal -1 0 0
    outer loop
      vertex 14.25 16.6 -1.24516
      vertex 14.25 40.675 -9.5
      vertex 14.25 16.6 -9.5
    endloop
  endfacet
  facet normal -1 0 0
    outer loop
      vertex 14.25 40.675 -9.5
      vertex 14.25 16.6 -1.24516
      vertex 14.25 40.675 11.5
    endloop
  endfacet
  facet normal -1 0 0
    outer loop
      vertex 14.25 -16.6 -1.24516
      vertex 14.25 40.675 11.5
      vertex 14.25 16.6 -1.24516
    endloop
  endfacet
  facet normal -1 0 0
    outer loop
      vertex 14.25 -16.6 -1.24516
      vertex 14.25 -40.675 11.5
      vertex 14.25 40.675 11.5
    endloop
  endfacet
  facet normal -1 0 0
    outer loop
      vertex 14.25 -40.675 11.5
      vertex 14.25 -16.6 -1.24516
      vertex 14.25 -40.675 -9.5
    endloop
  endfacet
  facet normal 0 0 1
    outer loop
      vertex 14.25 40.675 -9.5
      vertex 12.7829 16.6 -9.5
      vertex 14.25 16.6 -9.5
    endloop
  endfacet
  facet normal 0 0 1
    outer loop
      vertex -4.625 35.3 -9.5
      vertex 12.7829 7 -9.5
      vertex 12.7829 16.6 -9.5
    endloop
  endfacet
  facet normal 0 0 1
    outer loop
      vertex 12.7829 7 -9.5
      vertex -4.625 35.3 -9.5
      vertex 12.7829 -7 -9.5
    endloop
  endfacet
  facet normal 0 0 1
    outer loop
      vertex -4.625 -35.3 -9.5
      vertex 12.7829 -7 -9.5
      vertex -4.625 35.3 -9.5
    endloop
  endfacet
  facet normal 0 0 1
    outer loop
      vertex 14.25 40.675 -9.5
      vertex -4.625 35.3 -9.5
      vertex 12.7829 16.6 -9.5
    endloop
  endfacet
  facet normal -0 0 1
    outer loop
      vertex -14.25 40.675 -9.5
      vertex -4.625 35.3 -9.5
      vertex 14.25 40.675 -9.5
    endloop
  endfacet
  facet normal 0 0 1
    outer loop
      vertex -11.375 35.3 -9.5
      vertex -14.25 40.675 -9.5
      vertex -11.375 -35.3 -9.5
    endloop
  endfacet
  facet normal 0 0 1
    outer loop
      vertex -4.625 35.3 -9.5
      vertex -14.25 40.675 -9.5
      vertex -11.375 35.3 -9.5
    endloop
  endfacet
  facet normal -0 0 1
    outer loop
      vertex 12.7829 -16.6 -9.5
      vertex 14.25 -40.675 -9.5
      vertex 14.25 -16.6 -9.5
    endloop
  endfacet
  facet normal 0 0 1
    outer loop
      vertex 12.7829 -7 -9.5
      vertex -4.625 -35.3 -9.5
      vertex 12.7829 -16.6 -9.5
    endloop
  endfacet
  facet normal 0 0 1
    outer loop
      vertex 12.7829 -16.6 -9.5
      vertex -4.625 -35.3 -9.5
      vertex 14.25 -40.675 -9.5
    endloop
  endfacet
  facet normal 0 0 1
    outer loop
      vertex -14.25 -40.675 -9.5
      vertex -4.625 -35.3 -9.5
      vertex -11.375 -35.3 -9.5
    endloop
  endfacet
  facet normal 0 0 1
    outer loop
      vertex -4.625 -35.3 -9.5
      vertex -14.25 -40.675 -9.5
      vertex 14.25 -40.675 -9.5
    endloop
  endfacet
  facet normal 0 0 1
    outer loop
      vertex -14.25 -40.675 -9.5
      vertex -11.375 -35.3 -9.5
      vertex -14.25 40.675 -9.5
    endloop
  endfacet
  facet normal 1 -0 0
    outer loop
      vertex -14.25 -40.675 11.5
      vertex -14.25 40.675 -9.5
      vertex -14.25 40.675 11.5
    endloop
  endfacet
  facet normal 1 0 0
    outer loop
      vertex -14.25 40.675 -9.5
      vertex -14.25 -40.675 11.5
      vertex -14.25 -40.675 -9.5
    endloop
  endfacet
  facet normal 0 -1 0
    outer loop
      vertex -14.25 40.675 11.5
      vertex -3.99211 40.675 11.2512
      vertex -3.96858 40.675 11.5
    endloop
  endfacet
  facet normal 0 -1 0
    outer loop
      vertex -14.25 40.675 11.5
      vertex -4 40.675 11
      vertex -3.99211 40.675 11.2512
    endloop
  endfacet
  facet normal 0 -1 0
    outer loop
      vertex -14.25 40.675 11.5
      vertex -3.99211 40.675 10.7488
      vertex -4 40.675 11
    endloop
  endfacet
  facet normal 0 -1 0
    outer loop
      vertex -14.25 40.675 11.5
      vertex -3.96846 40.675 10.4987
      vertex -3.99211 40.675 10.7488
    endloop
  endfacet
  facet normal 0 -1 0
    outer loop
      vertex -14.25 40.675 11.5
      vertex -3.92915 40.675 10.2505
      vertex -3.96846 40.675 10.4987
    endloop
  endfacet
  facet normal 0 -1 0
    outer loop
      vertex -14.25 40.675 11.5
      vertex -3.87433 40.675 10.0052
      vertex -3.92915 40.675 10.2505
    endloop
  endfacet
  facet normal 0 -1 0
    outer loop
      vertex -14.25 40.675 11.5
      vertex -3.80423 40.675 9.76393
      vertex -3.87433 40.675 10.0052
    endloop
  endfacet
  facet normal 0 -1 0
    outer loop
      vertex -14.25 40.675 11.5
      vertex -3.71911 40.675 9.5275
      vertex -3.80423 40.675 9.76393
    endloop
  endfacet
  facet normal 0 -1 0
    outer loop
      vertex -14.25 40.675 11.5
      vertex -3.61931 40.675 9.29688
      vertex -3.71911 40.675 9.5275
    endloop
  endfacet
  facet normal 0 -1 0
    outer loop
      vertex -14.25 40.675 11.5
      vertex -3.50523 40.675 9.07298
      vertex -3.61931 40.675 9.29688
    endloop
  endfacet
  facet normal 0 -1 0
    outer loop
      vertex -14.25 40.675 11.5
      vertex -3.37731 40.675 8.85669
      vertex -3.50523 40.675 9.07298
    endloop
  endfacet
  facet normal 0 -1 0
    outer loop
      vertex -14.25 40.675 11.5
      vertex -3.23607 40.675 8.64886
      vertex -3.37731 40.675 8.85669
    endloop
  endfacet
  facet normal 0 -1 0
    outer loop
      vertex -14.25 40.675 11.5
      vertex -3.08205 40.675 8.4503
      vertex -3.23607 40.675 8.64886
    endloop
  endfacet
  facet normal 0 -1 0
    outer loop
      vertex -14.25 40.675 11.5
      vertex -2.91587 40.675 8.26181
      vertex -3.08205 40.675 8.4503
    endloop
  endfacet
  facet normal 0 -1 0
    outer loop
      vertex -14.25 40.675 -9.5
      vertex -2.91587 40.675 8.26181
      vertex -14.25 40.675 11.5
    endloop
  endfacet
  facet normal 0 -1 -0
    outer loop
      vertex -2.91587 40.675 8.26181
      vertex -14.25 40.675 -9.5
      vertex -2.73819 40.675 8.08412
    endloop
  endfacet
  facet normal 0 -1 -0
    outer loop
      vertex -2.73819 40.675 8.08412
      vertex -14.25 40.675 -9.5
      vertex -2.5497 40.675 7.91795
    endloop
  endfacet
  facet normal 0 -1 -0
    outer loop
      vertex -2.5497 40.675 7.91795
      vertex -14.25 40.675 -9.5
      vertex -2.35114 40.675 7.76393
    endloop
  endfacet
  facet normal 0 -1 -0
    outer loop
      vertex -2.35114 40.675 7.76393
      vertex -14.25 40.675 -9.5
      vertex -2.14331 40.675 7.62269
    endloop
  endfacet
  facet normal 0 -1 -0
    outer loop
      vertex -2.14331 40.675 7.62269
      vertex -14.25 40.675 -9.5
      vertex -1.92701 40.675 7.49477
    endloop
  endfacet
  facet normal 0 -1 -0
    outer loop
      vertex -1.92701 40.675 7.49477
      vertex -14.25 40.675 -9.5
      vertex -1.70312 40.675 7.38069
    endloop
  endfacet
  facet normal 0 -1 -0
    outer loop
      vertex -1.70312 40.675 7.38069
      vertex -14.25 40.675 -9.5
      vertex -1.4725 40.675 7.28089
    endloop
  endfacet
  facet normal 0 -1 -0
    outer loop
      vertex -0.251162 40.675 7.00789
      vertex -14.25 40.675 -9.5
      vertex 0 40.675 7
    endloop
  endfacet
  facet normal 0 -1 -0
    outer loop
      vertex -0.501332 40.675 7.03154
      vertex -14.25 40.675 -9.5
      vertex -0.251162 40.675 7.00789
    endloop
  endfacet
  facet normal 0 -1 -0
    outer loop
      vertex -0.749525 40.675 7.07085
      vertex -14.25 40.675 -9.5
      vertex -0.501332 40.675 7.03154
    endloop
  endfacet
  facet normal 0 -1 -0
    outer loop
      vertex -0.994759 40.675 7.12567
      vertex -14.25 40.675 -9.5
      vertex -0.749525 40.675 7.07085
    endloop
  endfacet
  facet normal 0 -1 -0
    outer loop
      vertex -1.23607 40.675 7.19577
      vertex -14.25 40.675 -9.5
      vertex -0.994759 40.675 7.12567
    endloop
  endfacet
  facet normal 0 -1 -0
    outer loop
      vertex -1.4725 40.675 7.28089
      vertex -14.25 40.675 -9.5
      vertex -1.23607 40.675 7.19577
    endloop
  endfacet
  facet normal 0 -1 0
    outer loop
      vertex 3.99211 40.675 11.2512
      vertex 14.25 40.675 11.5
      vertex 3.96858 40.675 11.5
    endloop
  endfacet
  facet normal 0 -1 0
    outer loop
      vertex 4 40.675 11
      vertex 14.25 40.675 11.5
      vertex 3.99211 40.675 11.2512
    endloop
  endfacet
  facet normal 0 -1 0
    outer loop
      vertex 3.99211 40.675 10.7488
      vertex 14.25 40.675 11.5
      vertex 4 40.675 11
    endloop
  endfacet
  facet normal 0 -1 0
    outer loop
      vertex 3.96846 40.675 10.4987
      vertex 14.25 40.675 11.5
      vertex 3.99211 40.675 10.7488
    endloop
  endfacet
  facet normal 0 -1 0
    outer loop
      vertex 3.92915 40.675 10.2505
      vertex 14.25 40.675 11.5
      vertex 3.96846 40.675 10.4987
    endloop
  endfacet
  facet normal 0 -1 0
    outer loop
      vertex 3.87433 40.675 10.0052
      vertex 14.25 40.675 11.5
      vertex 3.92915 40.675 10.2505
    endloop
  endfacet
  facet normal 0 -1 0
    outer loop
      vertex 3.80423 40.675 9.76393
      vertex 14.25 40.675 11.5
      vertex 3.87433 40.675 10.0052
    endloop
  endfacet
  facet normal 0 -1 0
    outer loop
      vertex 3.71911 40.675 9.5275
      vertex 14.25 40.675 11.5
      vertex 3.80423 40.675 9.76393
    endloop
  endfacet
  facet normal 0 -1 0
    outer loop
      vertex 3.61931 40.675 9.29688
      vertex 14.25 40.675 11.5
      vertex 3.71911 40.675 9.5275
    endloop
  endfacet
  facet normal 0 -1 0
    outer loop
      vertex 3.50523 40.675 9.07298
      vertex 14.25 40.675 11.5
      vertex 3.61931 40.675 9.29688
    endloop
  endfacet
  facet normal 0 -1 0
    outer loop
      vertex 3.37731 40.675 8.85669
      vertex 14.25 40.675 11.5
      vertex 3.50523 40.675 9.07298
    endloop
  endfacet
  facet normal 0 -1 0
    outer loop
      vertex 3.23607 40.675 8.64886
      vertex 14.25 40.675 11.5
      vertex 3.37731 40.675 8.85669
    endloop
  endfacet
  facet normal 0 -1 0
    outer loop
      vertex 3.08205 40.675 8.4503
      vertex 14.25 40.675 11.5
      vertex 3.23607 40.675 8.64886
    endloop
  endfacet
  facet normal 0 -1 0
    outer loop
      vertex 2.91587 40.675 8.26181
      vertex 14.25 40.675 11.5
      vertex 3.08205 40.675 8.4503
    endloop
  endfacet
  facet normal 0 -1 0
    outer loop
      vertex 14.25 40.675 -9.5
      vertex 2.91587 40.675 8.26181
      vertex 2.73819 40.675 8.08412
    endloop
  endfacet
  facet normal 0 -1 0
    outer loop
      vertex 14.25 40.675 -9.5
      vertex 2.73819 40.675 8.08412
      vertex 2.5497 40.675 7.91795
    endloop
  endfacet
  facet normal 0 -1 0
    outer loop
      vertex 14.25 40.675 -9.5
      vertex 2.5497 40.675 7.91795
      vertex 2.35114 40.675 7.76393
    endloop
  endfacet
  facet normal 0 -1 0
    outer loop
      vertex 14.25 40.675 -9.5
      vertex 2.35114 40.675 7.76393
      vertex 2.14331 40.675 7.62269
    endloop
  endfacet
  facet normal 0 -1 0
    outer loop
      vertex 14.25 40.675 -9.5
      vertex 2.14331 40.675 7.62269
      vertex 1.92701 40.675 7.49477
    endloop
  endfacet
  facet normal 0 -1 0
    outer loop
      vertex 14.25 40.675 -9.5
      vertex 1.92701 40.675 7.49477
      vertex 1.70312 40.675 7.38069
    endloop
  endfacet
  facet normal 0 -1 0
    outer loop
      vertex 14.25 40.675 -9.5
      vertex 1.70312 40.675 7.38069
      vertex 1.4725 40.675 7.28089
    endloop
  endfacet
  facet normal 0 -1 0
    outer loop
      vertex 14.25 40.675 -9.5
      vertex 1.4725 40.675 7.28089
      vertex 1.23607 40.675 7.19577
    endloop
  endfacet
  facet normal 0 -1 0
    outer loop
      vertex 14.25 40.675 -9.5
      vertex 0 40.675 7
      vertex -14.25 40.675 -9.5
    endloop
  endfacet
  facet normal 0 -1 0
    outer loop
      vertex 0 40.675 7
      vertex 14.25 40.675 -9.5
      vertex 0.251162 40.675 7.00789
    endloop
  endfacet
  facet normal 0 -1 0
    outer loop
      vertex 0.251162 40.675 7.00789
      vertex 14.25 40.675 -9.5
      vertex 0.501332 40.675 7.03154
    endloop
  endfacet
  facet normal 0 -1 0
    outer loop
      vertex 0.501332 40.675 7.03154
      vertex 14.25 40.675 -9.5
      vertex 0.749525 40.675 7.07085
    endloop
  endfacet
  facet normal 0 -1 0
    outer loop
      vertex 0.749525 40.675 7.07085
      vertex 14.25 40.675 -9.5
      vertex 0.994759 40.675 7.12567
    endloop
  endfacet
  facet normal 0 -1 0
    outer loop
      vertex 0.994759 40.675 7.12567
      vertex 14.25 40.675 -9.5
      vertex 1.23607 40.675 7.19577
    endloop
  endfacet
  facet normal 0 -1 0
    outer loop
      vertex 2.91587 40.675 8.26181
      vertex 14.25 40.675 -9.5
      vertex 14.25 40.675 11.5
    endloop
  endfacet
  facet normal 0 1 -0
    outer loop
      vertex 14.25 -40.675 -9.5
      vertex -14.25 -40.675 11.5
      vertex 14.25 -40.675 11.5
    endloop
  endfacet
  facet normal 0 1 0
    outer loop
      vertex -14.25 -40.675 11.5
      vertex 14.25 -40.675 -9.5
      vertex -14.25 -40.675 -9.5
    endloop
  endfacet
  facet normal -1 0 0
    outer loop
      vertex -4.625 -35.3 -11.5
      vertex -4.625 35.3 -9.5
      vertex -4.625 35.3 -11.5
    endloop
  endfacet
  facet normal -1 -0 0
    outer loop
      vertex -4.625 35.3 -9.5
      vertex -4.625 -35.3 -11.5
      vertex -4.625 -35.3 -9.5
    endloop
  endfacet
  facet normal 1 -0 0
    outer loop
      vertex -11.375 -35.3 -9.5
      vertex -11.375 35.3 -11.5
      vertex -11.375 35.3 -9.5
    endloop
  endfacet
  facet normal 1 0 0
    outer loop
      vertex -11.375 35.3 -11.5
      vertex -11.375 -35.3 -9.5
      vertex -11.375 -35.3 -11.5
    endloop
  endfacet
  facet normal 0 -1 0
    outer loop
      vertex -11.375 35.3 -11.5
      vertex -4.625 35.3 -9.5
      vertex -11.375 35.3 -9.5
    endloop
  endfacet
  facet normal 0 -1 -0
    outer loop
      vertex -4.625 35.3 -9.5
      vertex -11.375 35.3 -11.5
      vertex -4.625 35.3 -11.5
    endloop
  endfacet
  facet normal 0 1 -0
    outer loop
      vertex -4.625 -35.3 -11.5
      vertex -11.375 -35.3 -9.5
      vertex -4.625 -35.3 -9.5
    endloop
  endfacet
  facet normal 0 1 0
    outer loop
      vertex -11.375 -35.3 -9.5
      vertex -4.625 -35.3 -11.5
      vertex -11.375 -35.3 -11.5
    endloop
  endfacet
  facet normal -0.509043 0 0.860741
    outer loop
      vertex 1.92701 42.625 7.49477
      vertex 2.14331 40.675 7.62269
      vertex 2.14331 42.625 7.62269
    endloop
  endfacet
  facet normal -0.509043 0 0.860741
    outer loop
      vertex 2.14331 40.675 7.62269
      vertex 1.92701 42.625 7.49477
      vertex 1.92701 40.675 7.49477
    endloop
  endfacet
  facet normal -0.940881 0 0.338738
    outer loop
      vertex 3.71911 40.675 9.5275
      vertex 3.80423 42.625 9.76393
      vertex 3.71911 42.625 9.5275
    endloop
  endfacet
  facet normal -0.940881 0 0.338738
    outer loop
      vertex 3.80423 42.625 9.76393
      vertex 3.71911 40.675 9.5275
      vertex 3.80423 40.675 9.76393
    endloop
  endfacet
  facet normal 0.975926 -0 0.218101
    outer loop
      vertex -3.92915 40.675 10.2505
      vertex -3.87433 42.625 10.0052
      vertex -3.92915 42.625 10.2505
    endloop
  endfacet
  facet normal 0.975926 0 0.218101
    outer loop
      vertex -3.87433 42.625 10.0052
      vertex -3.92915 40.675 10.2505
      vertex -3.87433 40.675 10.0052
    endloop
  endfacet
  facet normal -0.218157 0 0.975914
    outer loop
      vertex 0.749525 42.625 7.07085
      vertex 0.994759 40.675 7.12567
      vertex 0.994759 42.625 7.12567
    endloop
  endfacet
  facet normal -0.218157 0 0.975914
    outer loop
      vertex 0.994759 40.675 7.12567
      vertex 0.749525 42.625 7.07085
      vertex 0.749525 40.675 7.07085
    endloop
  endfacet
  facet normal -0.156435 0 0.987688
    outer loop
      vertex 0.501332 42.625 7.03154
      vertex 0.749525 40.675 7.07085
      vertex 0.749525 42.625 7.07085
    endloop
  endfacet
  facet normal -0.156435 0 0.987688
    outer loop
      vertex 0.749525 40.675 7.07085
      vertex 0.501332 42.625 7.03154
      vertex 0.501332 40.675 7.03154
    endloop
  endfacet
  facet normal -0.995559 0 0.0941422
    outer loop
      vertex 3.96846 40.675 10.4987
      vertex 3.99211 42.625 10.7488
      vertex 3.96846 42.625 10.4987
    endloop
  endfacet
  facet normal -0.995559 0 0.0941422
    outer loop
      vertex 3.99211 42.625 10.7488
      vertex 3.96846 40.675 10.4987
      vertex 3.99211 40.675 10.7488
    endloop
  endfacet
  facet normal -0.661298 0 0.750123
    outer loop
      vertex 2.5497 42.625 7.91795
      vertex 2.73819 40.675 8.08412
      vertex 2.73819 42.625 8.08412
    endloop
  endfacet
  facet normal -0.661298 0 0.750123
    outer loop
      vertex 2.73819 40.675 8.08412
      vertex 2.5497 42.625 7.91795
      vertex 2.5497 40.675 7.91795
    endloop
  endfacet
  facet normal -0.397154 0 0.917752
    outer loop
      vertex 1.4725 42.625 7.28089
      vertex 1.70312 40.675 7.38069
      vertex 1.70312 42.625 7.38069
    endloop
  endfacet
  facet normal -0.397154 0 0.917752
    outer loop
      vertex 1.70312 40.675 7.38069
      vertex 1.4725 42.625 7.28089
      vertex 1.4725 40.675 7.28089
    endloop
  endfacet
  facet normal -0.995558 0 -0.0941538
    outer loop
      vertex 3.99211 40.675 11.2512
      vertex 3.96858 42.625 11.5
      vertex 3.99211 42.625 11.2512
    endloop
  endfacet
  facet normal -0.995558 -0 -0.0941538
    outer loop
      vertex 3.96858 42.625 11.5
      vertex 3.99211 40.675 11.2512
      vertex 3.96858 40.675 11.5
    endloop
  endfacet
  facet normal 0.0941161 0 0.995561
    outer loop
      vertex -0.501332 42.625 7.03154
      vertex -0.251162 40.675 7.00789
      vertex -0.251162 42.625 7.00789
    endloop
  endfacet
  facet normal 0.0941161 0 0.995561
    outer loop
      vertex -0.251162 40.675 7.00789
      vertex -0.501332 42.625 7.03154
      vertex -0.501332 40.675 7.03154
    endloop
  endfacet
  facet normal 0.750104 -0 0.66132
    outer loop
      vertex -3.08205 40.675 8.4503
      vertex -2.91587 42.625 8.26181
      vertex -3.08205 42.625 8.4503
    endloop
  endfacet
  facet normal 0.750104 0 0.66132
    outer loop
      vertex -2.91587 42.625 8.26181
      vertex -3.08205 40.675 8.4503
      vertex -2.91587 40.675 8.26181
    endloop
  endfacet
  facet normal 0.707127 -0 0.707087
    outer loop
      vertex -2.91587 40.675 8.26181
      vertex -2.73819 42.625 8.08412
      vertex -2.91587 42.625 8.26181
    endloop
  endfacet
  facet normal 0.707127 0 0.707087
    outer loop
      vertex -2.73819 42.625 8.08412
      vertex -2.91587 40.675 8.26181
      vertex -2.73819 40.675 8.08412
    endloop
  endfacet
  facet normal 0.453998 0 0.891003
    outer loop
      vertex -1.92701 42.625 7.49477
      vertex -1.70312 40.675 7.38069
      vertex -1.70312 42.625 7.38069
    endloop
  endfacet
  facet normal 0.453998 0 0.891003
    outer loop
      vertex -1.70312 40.675 7.38069
      vertex -1.92701 42.625 7.49477
      vertex -1.92701 40.675 7.49477
    endloop
  endfacet
  facet normal -0.999507 0 -0.0313938
    outer loop
      vertex 4 40.675 11
      vertex 3.99211 42.625 11.2512
      vertex 4 42.625 11
    endloop
  endfacet
  facet normal -0.999507 -0 -0.0313938
    outer loop
      vertex 3.99211 42.625 11.2512
      vertex 4 40.675 11
      vertex 3.99211 40.675 11.2512
    endloop
  endfacet
  facet normal 0.661298 0 0.750123
    outer loop
      vertex -2.73819 42.625 8.08412
      vertex -2.5497 40.675 7.91795
      vertex -2.5497 42.625 7.91795
    endloop
  endfacet
  facet normal 0.661298 0 0.750123
    outer loop
      vertex -2.5497 40.675 7.91795
      vertex -2.73819 42.625 8.08412
      vertex -2.73819 40.675 8.08412
    endloop
  endfacet
  facet normal 0.338738 0 0.940881
    outer loop
      vertex -1.4725 42.625 7.28089
      vertex -1.23607 40.675 7.19577
      vertex -1.23607 42.625 7.19577
    endloop
  endfacet
  facet normal 0.338738 0 0.940881
    outer loop
      vertex -1.23607 40.675 7.19577
      vertex -1.4725 42.625 7.28089
      vertex -1.4725 40.675 7.28089
    endloop
  endfacet
  facet normal -0.987689 0 0.156431
    outer loop
      vertex 3.92915 40.675 10.2505
      vertex 3.96846 42.625 10.4987
      vertex 3.92915 42.625 10.2505
    endloop
  endfacet
  facet normal -0.987689 0 0.156431
    outer loop
      vertex 3.96846 42.625 10.4987
      vertex 3.92915 40.675 10.2505
      vertex 3.96846 40.675 10.4987
    endloop
  endfacet
  facet normal -0.56208 0 0.827083
    outer loop
      vertex 2.14331 42.625 7.62269
      vertex 2.35114 40.675 7.76393
      vertex 2.35114 42.625 7.76393
    endloop
  endfacet
  facet normal -0.56208 0 0.827083
    outer loop
      vertex 2.35114 40.675 7.76393
      vertex 2.14331 42.625 7.62269
      vertex 2.14331 40.675 7.62269
    endloop
  endfacet
  facet normal 0.999507 0 -0.0313938
    outer loop
      vertex -3.99211 40.675 11.2512
      vertex -4 42.625 11
      vertex -3.99211 42.625 11.2512
    endloop
  endfacet
  facet normal 0.999507 0 -0.0313938
    outer loop
      vertex -4 42.625 11
      vertex -3.99211 40.675 11.2512
      vertex -4 40.675 11
    endloop
  endfacet
  facet normal -0.0941161 0 0.995561
    outer loop
      vertex 0.251162 42.625 7.00789
      vertex 0.501332 40.675 7.03154
      vertex 0.501332 42.625 7.03154
    endloop
  endfacet
  facet normal -0.0941161 0 0.995561
    outer loop
      vertex 0.501332 40.675 7.03154
      vertex 0.251162 42.625 7.00789
      vertex 0.251162 40.675 7.00789
    endloop
  endfacet
  facet normal -0.790153 0 0.61291
    outer loop
      vertex 3.08205 40.675 8.4503
      vertex 3.23607 42.625 8.64886
      vertex 3.08205 42.625 8.4503
    endloop
  endfacet
  facet normal -0.790153 0 0.61291
    outer loop
      vertex 3.23607 42.625 8.64886
      vertex 3.08205 40.675 8.4503
      vertex 3.23607 40.675 8.64886
    endloop
  endfacet
  facet normal -0.917752 0 0.397154
    outer loop
      vertex 3.61931 40.675 9.29688
      vertex 3.71911 42.625 9.5275
      vertex 3.61931 42.625 9.29688
    endloop
  endfacet
  facet normal -0.917752 0 0.397154
    outer loop
      vertex 3.71911 42.625 9.5275
      vertex 3.61931 40.675 9.29688
      vertex 3.71911 40.675 9.5275
    endloop
  endfacet
  facet normal 0.940881 -0 0.338738
    outer loop
      vertex -3.80423 40.675 9.76393
      vertex -3.71911 42.625 9.5275
      vertex -3.80423 42.625 9.76393
    endloop
  endfacet
  facet normal 0.940881 0 0.338738
    outer loop
      vertex -3.71911 42.625 9.5275
      vertex -3.80423 40.675 9.76393
      vertex -3.71911 40.675 9.5275
    endloop
  endfacet
  facet normal 0.917752 -0 0.397154
    outer loop
      vertex -3.71911 40.675 9.5275
      vertex -3.61931 42.625 9.29688
      vertex -3.71911 42.625 9.5275
    endloop
  endfacet
  facet normal 0.917752 0 0.397154
    outer loop
      vertex -3.61931 42.625 9.29688
      vertex -3.71911 40.675 9.5275
      vertex -3.61931 40.675 9.29688
    endloop
  endfacet
  facet normal -0.453998 0 0.891003
    outer loop
      vertex 1.70312 42.625 7.38069
      vertex 1.92701 40.675 7.49477
      vertex 1.92701 42.625 7.49477
    endloop
  endfacet
  facet normal -0.453998 0 0.891003
    outer loop
      vertex 1.92701 40.675 7.49477
      vertex 1.70312 42.625 7.38069
      vertex 1.70312 40.675 7.38069
    endloop
  endfacet
  facet normal 0.0313985 0 0.999507
    outer loop
      vertex -0.251162 42.625 7.00789
      vertex 0 40.675 7
      vertex 0 42.625 7
    endloop
  endfacet
  facet normal 0.0313985 0 0.999507
    outer loop
      vertex 0 40.675 7
      vertex -0.251162 42.625 7.00789
      vertex -0.251162 40.675 7.00789
    endloop
  endfacet
  facet normal 0.891011 -0 0.453982
    outer loop
      vertex -3.61931 40.675 9.29688
      vertex -3.50523 42.625 9.07298
      vertex -3.61931 42.625 9.29688
    endloop
  endfacet
  facet normal 0.891011 0 0.453982
    outer loop
      vertex -3.50523 42.625 9.07298
      vertex -3.61931 40.675 9.29688
      vertex -3.50523 40.675 9.07298
    endloop
  endfacet
  facet normal -0.707127 0 0.707087
    outer loop
      vertex 2.73819 40.675 8.08412
      vertex 2.91587 42.625 8.26181
      vertex 2.73819 42.625 8.08412
    endloop
  endfacet
  facet normal -0.707127 0 0.707087
    outer loop
      vertex 2.91587 42.625 8.26181
      vertex 2.73819 40.675 8.08412
      vertex 2.91587 40.675 8.26181
    endloop
  endfacet
  facet normal 0.156435 0 0.987688
    outer loop
      vertex -0.749525 42.625 7.07085
      vertex -0.501332 40.675 7.03154
      vertex -0.501332 42.625 7.03154
    endloop
  endfacet
  facet normal 0.156435 0 0.987688
    outer loop
      vertex -0.501332 40.675 7.03154
      vertex -0.749525 42.625 7.07085
      vertex -0.749525 40.675 7.07085
    endloop
  endfacet
  facet normal -0.827083 0 0.56208
    outer loop
      vertex 3.23607 40.675 8.64886
      vertex 3.37731 42.625 8.85669
      vertex 3.23607 42.625 8.64886
    endloop
  endfacet
  facet normal -0.827083 0 0.56208
    outer loop
      vertex 3.37731 42.625 8.85669
      vertex 3.23607 40.675 8.64886
      vertex 3.37731 40.675 8.85669
    endloop
  endfacet
  facet normal -0.0313985 0 0.999507
    outer loop
      vertex 0 42.625 7
      vertex 0.251162 40.675 7.00789
      vertex 0.251162 42.625 7.00789
    endloop
  endfacet
  facet normal -0.0313985 0 0.999507
    outer loop
      vertex 0.251162 40.675 7.00789
      vertex 0 42.625 7
      vertex 0 40.675 7
    endloop
  endfacet
  facet normal 0.56208 0 0.827083
    outer loop
      vertex -2.35114 42.625 7.76393
      vertex -2.14331 40.675 7.62269
      vertex -2.14331 42.625 7.62269
    endloop
  endfacet
  facet normal 0.56208 0 0.827083
    outer loop
      vertex -2.14331 40.675 7.62269
      vertex -2.35114 42.625 7.76393
      vertex -2.35114 40.675 7.76393
    endloop
  endfacet
  facet normal -0.860731 0 0.50906
    outer loop
      vertex 3.37731 40.675 8.85669
      vertex 3.50523 42.625 9.07298
      vertex 3.37731 42.625 8.85669
    endloop
  endfacet
  facet normal -0.860731 0 0.50906
    outer loop
      vertex 3.50523 42.625 9.07298
      vertex 3.37731 40.675 8.85669
      vertex 3.50523 40.675 9.07298
    endloop
  endfacet
  facet normal 0.278964 0 0.960301
    outer loop
      vertex -1.23607 42.625 7.19577
      vertex -0.994759 40.675 7.12567
      vertex -0.994759 42.625 7.12567
    endloop
  endfacet
  facet normal 0.278964 0 0.960301
    outer loop
      vertex -0.994759 40.675 7.12567
      vertex -1.23607 42.625 7.19577
      vertex -1.23607 40.675 7.19577
    endloop
  endfacet
  facet normal -0.750104 0 0.66132
    outer loop
      vertex 2.91587 40.675 8.26181
      vertex 3.08205 42.625 8.4503
      vertex 2.91587 42.625 8.26181
    endloop
  endfacet
  facet normal -0.750104 0 0.66132
    outer loop
      vertex 3.08205 42.625 8.4503
      vertex 2.91587 40.675 8.26181
      vertex 3.08205 40.675 8.4503
    endloop
  endfacet
  facet normal 0.995559 -0 0.0941422
    outer loop
      vertex -3.99211 40.675 10.7488
      vertex -3.96846 42.625 10.4987
      vertex -3.99211 42.625 10.7488
    endloop
  endfacet
  facet normal 0.995559 0 0.0941422
    outer loop
      vertex -3.96846 42.625 10.4987
      vertex -3.99211 40.675 10.7488
      vertex -3.96846 40.675 10.4987
    endloop
  endfacet
  facet normal -0.999507 0 0.0313938
    outer loop
      vertex 3.99211 40.675 10.7488
      vertex 4 42.625 11
      vertex 3.99211 42.625 10.7488
    endloop
  endfacet
  facet normal -0.999507 0 0.0313938
    outer loop
      vertex 4 42.625 11
      vertex 3.99211 40.675 10.7488
      vertex 4 40.675 11
    endloop
  endfacet
  facet normal -0.975926 0 0.218101
    outer loop
      vertex 3.87433 40.675 10.0052
      vertex 3.92915 42.625 10.2505
      vertex 3.87433 42.625 10.0052
    endloop
  endfacet
  facet normal -0.975926 0 0.218101
    outer loop
      vertex 3.92915 42.625 10.2505
      vertex 3.87433 40.675 10.0052
      vertex 3.92915 40.675 10.2505
    endloop
  endfacet
  facet normal -0.960289 0 0.279008
    outer loop
      vertex 3.80423 40.675 9.76393
      vertex 3.87433 42.625 10.0052
      vertex 3.80423 42.625 9.76393
    endloop
  endfacet
  facet normal -0.960289 0 0.279008
    outer loop
      vertex 3.87433 42.625 10.0052
      vertex 3.80423 40.675 9.76393
      vertex 3.87433 40.675 10.0052
    endloop
  endfacet
  facet normal 0.999507 -0 0.0313938
    outer loop
      vertex -4 40.675 11
      vertex -3.99211 42.625 10.7488
      vertex -4 42.625 11
    endloop
  endfacet
  facet normal 0.999507 0 0.0313938
    outer loop
      vertex -3.99211 42.625 10.7488
      vertex -4 40.675 11
      vertex -3.99211 40.675 10.7488
    endloop
  endfacet
  facet normal 0.960289 -0 0.279008
    outer loop
      vertex -3.87433 40.675 10.0052
      vertex -3.80423 42.625 9.76393
      vertex -3.87433 42.625 10.0052
    endloop
  endfacet
  facet normal 0.960289 0 0.279008
    outer loop
      vertex -3.80423 42.625 9.76393
      vertex -3.87433 40.675 10.0052
      vertex -3.80423 40.675 9.76393
    endloop
  endfacet
  facet normal 0.827083 -0 0.56208
    outer loop
      vertex -3.37731 40.675 8.85669
      vertex -3.23607 42.625 8.64886
      vertex -3.37731 42.625 8.85669
    endloop
  endfacet
  facet normal 0.827083 0 0.56208
    outer loop
      vertex -3.23607 42.625 8.64886
      vertex -3.37731 40.675 8.85669
      vertex -3.23607 40.675 8.64886
    endloop
  endfacet
  facet normal -0.891011 0 0.453982
    outer loop
      vertex 3.50523 40.675 9.07298
      vertex 3.61931 42.625 9.29688
      vertex 3.50523 42.625 9.07298
    endloop
  endfacet
  facet normal -0.891011 0 0.453982
    outer loop
      vertex 3.61931 42.625 9.29688
      vertex 3.50523 40.675 9.07298
      vertex 3.61931 40.675 9.29688
    endloop
  endfacet
  facet normal 0.860731 -0 0.50906
    outer loop
      vertex -3.50523 40.675 9.07298
      vertex -3.37731 42.625 8.85669
      vertex -3.50523 42.625 9.07298
    endloop
  endfacet
  facet normal 0.860731 0 0.50906
    outer loop
      vertex -3.37731 42.625 8.85669
      vertex -3.50523 40.675 9.07298
      vertex -3.37731 40.675 8.85669
    endloop
  endfacet
  facet normal 0.218157 0 0.975914
    outer loop
      vertex -0.994759 42.625 7.12567
      vertex -0.749525 40.675 7.07085
      vertex -0.749525 42.625 7.07085
    endloop
  endfacet
  facet normal 0.218157 0 0.975914
    outer loop
      vertex -0.749525 40.675 7.07085
      vertex -0.994759 42.625 7.12567
      vertex -0.994759 40.675 7.12567
    endloop
  endfacet
  facet normal 0.987689 -0 0.156431
    outer loop
      vertex -3.96846 40.675 10.4987
      vertex -3.92915 42.625 10.2505
      vertex -3.96846 42.625 10.4987
    endloop
  endfacet
  facet normal 0.987689 0 0.156431
    outer loop
      vertex -3.92915 42.625 10.2505
      vertex -3.96846 40.675 10.4987
      vertex -3.92915 40.675 10.2505
    endloop
  endfacet
  facet normal 0.61291 0 0.790153
    outer loop
      vertex -2.5497 42.625 7.91795
      vertex -2.35114 40.675 7.76393
      vertex -2.35114 42.625 7.76393
    endloop
  endfacet
  facet normal 0.61291 0 0.790153
    outer loop
      vertex -2.35114 40.675 7.76393
      vertex -2.5497 42.625 7.91795
      vertex -2.5497 40.675 7.91795
    endloop
  endfacet
  facet normal 0.509043 0 0.860741
    outer loop
      vertex -2.14331 42.625 7.62269
      vertex -1.92701 40.675 7.49477
      vertex -1.92701 42.625 7.49477
    endloop
  endfacet
  facet normal 0.509043 0 0.860741
    outer loop
      vertex -1.92701 40.675 7.49477
      vertex -2.14331 42.625 7.62269
      vertex -2.14331 40.675 7.62269
    endloop
  endfacet
  facet normal -0.338738 0 0.940881
    outer loop
      vertex 1.23607 42.625 7.19577
      vertex 1.4725 40.675 7.28089
      vertex 1.4725 42.625 7.28089
    endloop
  endfacet
  facet normal -0.338738 0 0.940881
    outer loop
      vertex 1.4725 40.675 7.28089
      vertex 1.23607 42.625 7.19577
      vertex 1.23607 40.675 7.19577
    endloop
  endfacet
  facet normal -0.278964 0 0.960301
    outer loop
      vertex 0.994759 42.625 7.12567
      vertex 1.23607 40.675 7.19577
      vertex 1.23607 42.625 7.19577
    endloop
  endfacet
  facet normal -0.278964 0 0.960301
    outer loop
      vertex 1.23607 40.675 7.19577
      vertex 0.994759 42.625 7.12567
      vertex 0.994759 40.675 7.12567
    endloop
  endfacet
  facet normal -0.61291 0 0.790153
    outer loop
      vertex 2.35114 42.625 7.76393
      vertex 2.5497 40.675 7.91795
      vertex 2.5497 42.625 7.91795
    endloop
  endfacet
  facet normal -0.61291 0 0.790153
    outer loop
      vertex 2.5497 40.675 7.91795
      vertex 2.35114 42.625 7.76393
      vertex 2.35114 40.675 7.76393
    endloop
  endfacet
  facet normal 0.995558 0 -0.0941538
    outer loop
      vertex -3.96858 40.675 11.5
      vertex -3.99211 42.625 11.2512
      vertex -3.96858 42.625 11.5
    endloop
  endfacet
  facet normal 0.995558 0 -0.0941538
    outer loop
      vertex -3.99211 42.625 11.2512
      vertex -3.96858 40.675 11.5
      vertex -3.99211 40.675 11.2512
    endloop
  endfacet
  facet normal 0.790153 -0 0.61291
    outer loop
      vertex -3.23607 40.675 8.64886
      vertex -3.08205 42.625 8.4503
      vertex -3.23607 42.625 8.64886
    endloop
  endfacet
  facet normal 0.790153 0 0.61291
    outer loop
      vertex -3.08205 42.625 8.4503
      vertex -3.23607 40.675 8.64886
      vertex -3.08205 40.675 8.4503
    endloop
  endfacet
  facet normal 0.397154 0 0.917752
    outer loop
      vertex -1.70312 42.625 7.38069
      vertex -1.4725 40.675 7.28089
      vertex -1.4725 42.625 7.28089
    endloop
  endfacet
  facet normal 0.397154 0 0.917752
    outer loop
      vertex -1.4725 40.675 7.28089
      vertex -1.70312 42.625 7.38069
      vertex -1.70312 40.675 7.38069
    endloop
  endfacet
  facet normal -0.559186 0 0.829042
    outer loop
      vertex 14.056 16.6 -11.3876
      vertex 16.2 -16.6 -9.94148
      vertex 16.2 16.6 -9.94148
    endloop
  endfacet
  facet normal -0.559186 0 0.829042
    outer loop
      vertex 16.2 -16.6 -9.94148
      vertex 14.056 16.6 -11.3876
      vertex 14.056 -16.6 -11.3876
    endloop
  endfacet
  facet normal 0 -1 0
    outer loop
      vertex 12.7829 -16.6 -9.5
      vertex 14.25 -16.6 -1.24516
      vertex 9.41475 -16.6 -4.50658
    endloop
  endfacet
  facet normal 0 -1 -0
    outer loop
      vertex 14.25 -16.6 -1.24516
      vertex 12.7829 -16.6 -9.5
      vertex 14.25 -16.6 -9.5
    endloop
  endfacet
  facet normal 0 -1 0
    outer loop
      vertex 16.2 -16.6 0.0701289
      vertex 40.5853 -16.6 6.50658
      vertex 35.944 -16.6 13.3876
    endloop
  endfacet
  facet normal 0 -1 0
    outer loop
      vertex 40.5853 -16.6 6.50658
      vertex 16.2 -16.6 0.0701289
      vertex 16.2 -16.6 -9.94148
    endloop
  endfacet
  facet normal 0 1 -0
    outer loop
      vertex 16.2 -16.6 0.0701289
      vertex 14.25 -16.6 -1.24516
      vertex 16.2 -16.6 0.0701297
    endloop
  endfacet
  facet normal 0 1 0
    outer loop
      vertex 40.5853 16.6 6.50658
      vertex 16.2 16.6 0.0701289
      vertex 35.944 16.6 13.3876
    endloop
  endfacet
  facet normal -0 1 0
    outer loop
      vertex 16.2 16.6 0.0701289
      vertex 40.5853 16.6 6.50658
      vertex 16.2 16.6 -9.94148
    endloop
  endfacet
  facet normal 0 1 -0
    outer loop
      vertex 14.25 16.6 -9.5
      vertex 9.41475 16.6 -4.50658
      vertex 14.25 16.6 -1.24516
    endloop
  endfacet
  facet normal 0 1 0
    outer loop
      vertex 9.41475 16.6 -4.50658
      vertex 14.25 16.6 -9.5
      vertex 12.7829 16.6 -9.5
    endloop
  endfacet
  facet normal 0 -1 0
    outer loop
      vertex 14.25 16.6 -1.24516
      vertex 16.2 16.6 0.0701289
      vertex 16.2 16.6 0.0701297
    endloop
  endfacet
  facet normal 0.559192 0 -0.829038
    outer loop
      vertex 14.25 -16.6 -1.24516
      vertex 16.2 16.6 0.0701297
      vertex 16.2 -16.6 0.0701297
    endloop
  endfacet
  facet normal 0.559192 0 -0.829038
    outer loop
      vertex 16.2 16.6 0.0701297
      vertex 14.25 -16.6 -1.24516
      vertex 14.25 16.6 -1.24516
    endloop
  endfacet
  facet normal 0.829058 -0 0.559162
    outer loop
      vertex 12.7829 -7 -9.5
      vertex 14.056 7 -11.3876
      vertex 12.7829 7 -9.5
    endloop
  endfacet
  facet normal 0.829058 0 0.559162
    outer loop
      vertex 14.056 7 -11.3876
      vertex 12.7829 -7 -9.5
      vertex 14.056 -7 -11.3876
    endloop
  endfacet
  facet normal 0 0 0
    outer loop
      vertex 14.056 7 -11.3876
      vertex 14.056 -7 -11.3876
      vertex 14.056 -16.6 -11.3876
    endloop
  endfacet
  facet normal -0 0 0
    outer loop
      vertex 14.056 7 -11.3876
      vertex 14.056 -16.6 -11.3876
      vertex 14.056 16.6 -11.3876
    endloop
  endfacet
  facet normal 0.559192 0 -0.829038
    outer loop
      vertex 15.7141 7 -10.2692
      vertex 14.056 7 -11.3876
      vertex 15.7141 14.6 -10.2692
    endloop
  endfacet
  facet normal 0.559185 0 -0.829043
    outer loop
      vertex 40.5853 -16.6 6.50658
      vertex 38.9272 -14.6 5.3882
      vertex 40.5853 16.6 6.50658
    endloop
  endfacet
  facet normal 0.559192 8.43939e-06 -0.829038
    outer loop
      vertex 16.2 -16.6 -9.94148
      vertex 38.9272 -14.6 5.3882
      vertex 40.5853 -16.6 6.50658
    endloop
  endfacet
  facet normal 0.559192 9.52727e-06 -0.829038
    outer loop
      vertex 16.2 -16.6 -9.94148
      vertex 15.7141 -14.6 -10.2692
      vertex 38.9272 -14.6 5.3882
    endloop
  endfacet
  facet normal 0.559186 7.35234e-06 -0.829042
    outer loop
      vertex 14.056 -16.6 -11.3876
      vertex 15.7141 -14.6 -10.2692
      vertex 16.2 -16.6 -9.94148
    endloop
  endfacet
  facet normal 0.559192 0 -0.829038
    outer loop
      vertex 14.056 -7 -11.3876
      vertex 15.7141 -14.6 -10.2692
      vertex 14.056 -16.6 -11.3876
    endloop
  endfacet
  facet normal 0.559192 0 -0.829038
    outer loop
      vertex 15.7141 -14.6 -10.2692
      vertex 14.056 -7 -11.3876
      vertex 15.7141 -7 -10.2692
    endloop
  endfacet
  facet normal 0.559185 0 -0.829043
    outer loop
      vertex 38.9272 14.6 5.3882
      vertex 40.5853 16.6 6.50658
      vertex 38.9272 -14.6 5.3882
    endloop
  endfacet
  facet normal 0.559192 -8.43939e-06 -0.829038
    outer loop
      vertex 38.9272 14.6 5.3882
      vertex 16.2 16.6 -9.94148
      vertex 40.5853 16.6 6.50658
    endloop
  endfacet
  facet normal 0.559192 -9.52727e-06 -0.829038
    outer loop
      vertex 15.7141 14.6 -10.2692
      vertex 16.2 16.6 -9.94148
      vertex 38.9272 14.6 5.3882
    endloop
  endfacet
  facet normal 0.559186 -7.35234e-06 -0.829042
    outer loop
      vertex 15.7141 14.6 -10.2692
      vertex 14.056 16.6 -11.3876
      vertex 16.2 16.6 -9.94148
    endloop
  endfacet
  facet normal 0.559192 0 -0.829038
    outer loop
      vertex 14.056 16.6 -11.3876
      vertex 15.7141 14.6 -10.2692
      vertex 14.056 7 -11.3876
    endloop
  endfacet
  facet normal -0.559192 -1.37324e-06 0.829038
    outer loop
      vertex 12.2335 7 -2.60532
      vertex 35.944 16.6 13.3876
      vertex 16.2 16.6 0.0701289
    endloop
  endfacet
  facet normal -0.559193 0 0.829038
    outer loop
      vertex 35.944 16.6 13.3876
      vertex 12.2335 7 -2.60532
      vertex 35.944 -16.6 13.3876
    endloop
  endfacet
  facet normal -0.559192 -1.4142e-06 0.829038
    outer loop
      vertex 12.2335 7 -2.60532
      vertex 16.2 16.6 0.0701289
      vertex 14.25 16.6 -1.24516
    endloop
  endfacet
  facet normal -0.559193 0 0.829038
    outer loop
      vertex 12.2335 -7 -2.60532
      vertex 35.944 -16.6 13.3876
      vertex 12.2335 7 -2.60532
    endloop
  endfacet
  facet normal -0.559192 1.37324e-06 0.829038
    outer loop
      vertex 35.944 -16.6 13.3876
      vertex 12.2335 -7 -2.60532
      vertex 16.2 -16.6 0.0701289
    endloop
  endfacet
  facet normal -0.559193 -1.07536e-06 0.829037
    outer loop
      vertex 9.41475 16.6 -4.50658
      vertex 12.2335 7 -2.60532
      vertex 14.25 16.6 -1.24516
    endloop
  endfacet
  facet normal -0.559191 0 0.829039
    outer loop
      vertex 12.2335 7 -2.60532
      vertex 9.41475 16.6 -4.50658
      vertex 9.41475 7 -4.50658
    endloop
  endfacet
  facet normal -0.559192 1.4142e-06 0.829038
    outer loop
      vertex 16.2 -16.6 0.0701289
      vertex 12.2335 -7 -2.60532
      vertex 14.25 -16.6 -1.24516
    endloop
  endfacet
  facet normal -0.559191 0 0.829039
    outer loop
      vertex 9.41475 -16.6 -4.50658
      vertex 12.2335 -7 -2.60532
      vertex 9.41475 -7 -4.50658
    endloop
  endfacet
  facet normal -0.559193 1.07536e-06 0.829037
    outer loop
      vertex 12.2335 -7 -2.60532
      vertex 9.41475 -16.6 -4.50658
      vertex 14.25 -16.6 -1.24516
    endloop
  endfacet
  facet normal -0.829034 0 -0.559198
    outer loop
      vertex 12.7829 7 -9.5
      vertex 9.41475 16.6 -4.50658
      vertex 12.7829 16.6 -9.5
    endloop
  endfacet
  facet normal -0.829034 -0 -0.559198
    outer loop
      vertex 9.41475 16.6 -4.50658
      vertex 12.7829 7 -9.5
      vertex 9.41475 7 -4.50658
    endloop
  endfacet
  facet normal -0.829034 0 -0.559198
    outer loop
      vertex 12.7829 -16.6 -9.5
      vertex 9.41475 -7 -4.50658
      vertex 12.7829 -7 -9.5
    endloop
  endfacet
  facet normal -0.829034 -0 -0.559198
    outer loop
      vertex 9.41475 -7 -4.50658
      vertex 12.7829 -16.6 -9.5
      vertex 9.41475 -16.6 -4.50658
    endloop
  endfacet
  facet normal 0.829038 -0 0.559192
    outer loop
      vertex 35.944 -16.6 13.3876
      vertex 40.5853 16.6 6.50658
      vertex 35.944 16.6 13.3876
    endloop
  endfacet
  facet normal 0.829038 0 0.559192
    outer loop
      vertex 40.5853 16.6 6.50658
      vertex 35.944 -16.6 13.3876
      vertex 40.5853 -16.6 6.50658
    endloop
  endfacet
  facet normal 0 1 0
    outer loop
      vertex 38.9272 -14.6 5.3882
      vertex 12.1912 -14.6 -5.04627
      vertex 35.4043 -14.6 10.6111
    endloop
  endfacet
  facet normal -0 1 0
    outer loop
      vertex 12.1912 -14.6 -5.04627
      vertex 38.9272 -14.6 5.3882
      vertex 15.7141 -14.6 -10.2692
    endloop
  endfacet
  facet normal 0.559192 0 -0.829038
    outer loop
      vertex 35.4043 -14.6 10.6111
      vertex 13.3519 -7 -4.2634
      vertex 35.4043 14.6 10.6111
    endloop
  endfacet
  facet normal 0.559191 -3.14738e-06 -0.829039
    outer loop
      vertex 12.1912 -14.6 -5.04627
      vertex 13.3519 -7 -4.2634
      vertex 35.4043 -14.6 10.6111
    endloop
  endfacet
  facet normal 0.559177 0 -0.829048
    outer loop
      vertex 13.3519 -7 -4.2634
      vertex 12.1912 -14.6 -5.04627
      vertex 12.1912 -7 -5.04627
    endloop
  endfacet
  facet normal 0.559192 0 -0.829038
    outer loop
      vertex 13.3519 7 -4.2634
      vertex 35.4043 14.6 10.6111
      vertex 13.3519 -7 -4.2634
    endloop
  endfacet
  facet normal 0.559177 0 -0.829048
    outer loop
      vertex 12.1912 14.6 -5.04627
      vertex 13.3519 7 -4.2634
      vertex 12.1912 7 -5.04627
    endloop
  endfacet
  facet normal 0.559191 3.14738e-06 -0.829039
    outer loop
      vertex 13.3519 7 -4.2634
      vertex 12.1912 14.6 -5.04627
      vertex 35.4043 14.6 10.6111
    endloop
  endfacet
  facet normal 0 -1 0
    outer loop
      vertex 12.1912 14.6 -5.04627
      vertex 38.9272 14.6 5.3882
      vertex 35.4043 14.6 10.6111
    endloop
  endfacet
  facet normal 0 -1 0
    outer loop
      vertex 38.9272 14.6 5.3882
      vertex 12.1912 14.6 -5.04627
      vertex 15.7141 14.6 -10.2692
    endloop
  endfacet
  facet normal 0.829038 -0 0.559192
    outer loop
      vertex 12.1912 -14.6 -5.04627
      vertex 15.7141 -7 -10.2692
      vertex 12.1912 -7 -5.04627
    endloop
  endfacet
  facet normal 0.829038 0 0.559192
    outer loop
      vertex 15.7141 -7 -10.2692
      vertex 12.1912 -14.6 -5.04627
      vertex 15.7141 -14.6 -10.2692
    endloop
  endfacet
  facet normal 0.829038 -0 0.559192
    outer loop
      vertex 12.1912 7 -5.04627
      vertex 15.7141 14.6 -10.2692
      vertex 12.1912 14.6 -5.04627
    endloop
  endfacet
  facet normal 0.829038 0 0.559192
    outer loop
      vertex 15.7141 14.6 -10.2692
      vertex 12.1912 7 -5.04627
      vertex 15.7141 7 -10.2692
    endloop
  endfacet
  facet normal -0.829037 0 -0.559194
    outer loop
      vertex 38.9272 -14.6 5.3882
      vertex 35.4043 14.6 10.6111
      vertex 38.9272 14.6 5.3882
    endloop
  endfacet
  facet normal -0.829037 -0 -0.559194
    outer loop
      vertex 35.4043 14.6 10.6111
      vertex 38.9272 -14.6 5.3882
      vertex 35.4043 -14.6 10.6111
    endloop
  endfacet
  facet normal 0 1 0
    outer loop
      vertex 12.1912 -7 -5.04627
      vertex 12.2335 -7 -2.60532
      vertex 13.3519 -7 -4.2634
    endloop
  endfacet
  facet normal 0 1 0
    outer loop
      vertex 12.2335 -7 -2.60532
      vertex 12.1912 -7 -5.04627
      vertex 9.41475 -7 -4.50658
    endloop
  endfacet
  facet normal 0 1 0
    outer loop
      vertex 12.1912 -7 -5.04627
      vertex 12.7829 -7 -9.5
      vertex 9.41475 -7 -4.50658
    endloop
  endfacet
  facet normal 0 1 0
    outer loop
      vertex 15.7141 -7 -10.2692
      vertex 12.7829 -7 -9.5
      vertex 12.1912 -7 -5.04627
    endloop
  endfacet
  facet normal 0 1 0
    outer loop
      vertex 12.7829 -7 -9.5
      vertex 15.7141 -7 -10.2692
      vertex 14.056 -7 -11.3876
    endloop
  endfacet
  facet normal 0 -1 0
    outer loop
      vertex 12.1912 7 -5.04627
      vertex 12.2335 7 -2.60532
      vertex 9.41475 7 -4.50658
    endloop
  endfacet
  facet normal 0 -1 -0
    outer loop
      vertex 12.2335 7 -2.60532
      vertex 12.1912 7 -5.04627
      vertex 13.3519 7 -4.2634
    endloop
  endfacet
  facet normal 0 -1 0
    outer loop
      vertex 12.7829 7 -9.5
      vertex 12.1912 7 -5.04627
      vertex 9.41475 7 -4.50658
    endloop
  endfacet
  facet normal 0 -1 0
    outer loop
      vertex 12.7829 7 -9.5
      vertex 15.7141 7 -10.2692
      vertex 12.1912 7 -5.04627
    endloop
  endfacet
  facet normal -0 -1 0
    outer loop
      vertex 15.7141 7 -10.2692
      vertex 12.7829 7 -9.5
      vertex 14.056 7 -11.3876
    endloop
  endfacet
  facet normal -0.829035 0 -0.559197
    outer loop
      vertex 13.3519 -7 -4.2634
      vertex 12.2335 7 -2.60532
      vertex 13.3519 7 -4.2634
    endloop
  endfacet
  facet normal -0.829035 -0 -0.559197
    outer loop
      vertex 12.2335 7 -2.60532
      vertex 13.3519 -7 -4.2634
      vertex 12.2335 -7 -2.60532
    endloop
  endfacet
endsolid OpenSCAD_Model
