solid OpenSCAD_Model
  facet normal 0 0 -1
    outer loop
      vertex -50.8907 32.5582 -5
      vertex 50.308 33.2888 -5
      vertex -50.8907 -32.5582 -5
    endloop
  endfacet
  facet normal -0 0 -1
    outer loop
      vertex 50.308 33.2888 -5
      vertex -50.8907 32.5582 -5
      vertex -50.1 34.2 -5
    endloop
  endfacet
  facet normal 0 0 -1
    outer loop
      vertex -52.6673 -32.1526 -5
      vertex -50.8907 32.5582 -5
      vertex -50.8907 -32.5582 -5
    endloop
  endfacet
  facet normal 0 0 -1
    outer loop
      vertex -52.6673 -32.1526 -5
      vertex -52.6673 32.1526 -5
      vertex -50.8907 32.5582 -5
    endloop
  endfacet
  facet normal 0 0 -1
    outer loop
      vertex -54.092 -33.2888 -5
      vertex -52.6673 32.1526 -5
      vertex -52.6673 -32.1526 -5
    endloop
  endfacet
  facet normal -0 0 -1
    outer loop
      vertex -52.6673 32.1526 -5
      vertex -54.092 -33.2888 -5
      vertex -54.092 33.2888 -5
    endloop
  endfacet
  facet normal 0 0 -1
    outer loop
      vertex 53.5093 32.5582 -5
      vertex 62.5 43 -5
      vertex 53.5093 -32.5582 -5
    endloop
  endfacet
  facet normal 0 0 -1
    outer loop
      vertex 62.5 43 -5
      vertex 53.5093 32.5582 -5
      vertex 54.3 34.2 -5
    endloop
  endfacet
  facet normal 0 0 -1
    outer loop
      vertex 51.7327 -32.1526 -5
      vertex 53.5093 32.5582 -5
      vertex 53.5093 -32.5582 -5
    endloop
  endfacet
  facet normal 0 0 -1
    outer loop
      vertex 51.7327 -32.1526 -5
      vertex 51.7327 32.1526 -5
      vertex 53.5093 32.5582 -5
    endloop
  endfacet
  facet normal 0 0 -1
    outer loop
      vertex 50.308 -33.2888 -5
      vertex 51.7327 32.1526 -5
      vertex 51.7327 -32.1526 -5
    endloop
  endfacet
  facet normal -0 0 -1
    outer loop
      vertex 51.7327 32.1526 -5
      vertex 50.308 -33.2888 -5
      vertex 50.308 33.2888 -5
    endloop
  endfacet
  facet normal 0 0 -1
    outer loop
      vertex 53.5093 -32.5582 -5
      vertex 62.5 -43 -5
      vertex 54.3 -34.2 -5
    endloop
  endfacet
  facet normal 0 0 -1
    outer loop
      vertex 62.5 -43 -5
      vertex 53.5093 -35.8418 -5
      vertex 54.3 -34.2 -5
    endloop
  endfacet
  facet normal 0 0 -1
    outer loop
      vertex 62.5 -43 -5
      vertex 51.7327 -36.2473 -5
      vertex 53.5093 -35.8418 -5
    endloop
  endfacet
  facet normal 0 0 -1
    outer loop
      vertex -50.1 -34.2 -5
      vertex 50.308 -33.2888 -5
      vertex 50.308 -35.1112 -5
    endloop
  endfacet
  facet normal 0 0 -1
    outer loop
      vertex -50.8907 -32.5582 -5
      vertex 50.308 -33.2888 -5
      vertex -50.1 -34.2 -5
    endloop
  endfacet
  facet normal 0 0 -1
    outer loop
      vertex 50.308 -33.2888 -5
      vertex -50.8907 -32.5582 -5
      vertex 50.308 33.2888 -5
    endloop
  endfacet
  facet normal 0 0 -1
    outer loop
      vertex -50.8907 -35.8418 -5
      vertex 50.308 -35.1112 -5
      vertex 51.7327 -36.2473 -5
    endloop
  endfacet
  facet normal 0 0 -1
    outer loop
      vertex -50.8907 -35.8418 -5
      vertex 51.7327 -36.2473 -5
      vertex 62.5 -43 -5
    endloop
  endfacet
  facet normal -0 0 -1
    outer loop
      vertex 50.308 -35.1112 -5
      vertex -50.8907 -35.8418 -5
      vertex -50.1 -34.2 -5
    endloop
  endfacet
  facet normal 0 0 -1
    outer loop
      vertex -62.5 -43 -5
      vertex -50.8907 -35.8418 -5
      vertex 62.5 -43 -5
    endloop
  endfacet
  facet normal 0 0 -1
    outer loop
      vertex -62.5 -43 -5
      vertex -54.092 -33.2888 -5
      vertex -54.092 -35.1112 -5
    endloop
  endfacet
  facet normal -0 0 -1
    outer loop
      vertex -54.092 -33.2888 -5
      vertex -62.5 -43 -5
      vertex -54.092 33.2888 -5
    endloop
  endfacet
  facet normal 0 0 -1
    outer loop
      vertex -62.5 43 -5
      vertex -54.092 33.2888 -5
      vertex -62.5 -43 -5
    endloop
  endfacet
  facet normal -0 0 -1
    outer loop
      vertex -52.6673 -36.2473 -5
      vertex -62.5 -43 -5
      vertex -54.092 -35.1112 -5
    endloop
  endfacet
  facet normal 0 0 -1
    outer loop
      vertex -50.8907 -35.8418 -5
      vertex -62.5 -43 -5
      vertex -52.6673 -36.2473 -5
    endloop
  endfacet
  facet normal 0 0 -1
    outer loop
      vertex 62.5 -43 -5
      vertex 53.5093 -32.5582 -5
      vertex 62.5 43 -5
    endloop
  endfacet
  facet normal 0 0 -1
    outer loop
      vertex 53.5093 35.8418 -5
      vertex 62.5 43 -5
      vertex 54.3 34.2 -5
    endloop
  endfacet
  facet normal 0 0 -1
    outer loop
      vertex 51.7327 36.2473 -5
      vertex 62.5 43 -5
      vertex 53.5093 35.8418 -5
    endloop
  endfacet
  facet normal 0 0 -1
    outer loop
      vertex 50.308 33.2888 -5
      vertex -50.1 34.2 -5
      vertex 50.308 35.1112 -5
    endloop
  endfacet
  facet normal 0 0 -1
    outer loop
      vertex -50.8907 35.8418 -5
      vertex 50.308 35.1112 -5
      vertex -50.1 34.2 -5
    endloop
  endfacet
  facet normal 0 0 -1
    outer loop
      vertex 50.308 35.1112 -5
      vertex -50.8907 35.8418 -5
      vertex 51.7327 36.2473 -5
    endloop
  endfacet
  facet normal -0 0 -1
    outer loop
      vertex 51.7327 36.2473 -5
      vertex -50.8907 35.8418 -5
      vertex 62.5 43 -5
    endloop
  endfacet
  facet normal 0 0 -1
    outer loop
      vertex -62.5 43 -5
      vertex -50.8907 35.8418 -5
      vertex -52.6673 36.2473 -5
    endloop
  endfacet
  facet normal 0 0 -1
    outer loop
      vertex -50.8907 35.8418 -5
      vertex -62.5 43 -5
      vertex 62.5 43 -5
    endloop
  endfacet
  facet normal 0 0 -1
    outer loop
      vertex -54.092 35.1112 -5
      vertex -62.5 43 -5
      vertex -52.6673 36.2473 -5
    endloop
  endfacet
  facet normal 0 0 -1
    outer loop
      vertex -54.092 33.2888 -5
      vertex -62.5 43 -5
      vertex -54.092 35.1112 -5
    endloop
  endfacet
  facet normal -0 0 1
    outer loop
      vertex -62.5 43 5
      vertex -59.5 40 5
      vertex -59.5 43 5
    endloop
  endfacet
  facet normal 0 0 1
    outer loop
      vertex -59.5 40 5
      vertex -62.5 43 5
      vertex -59.5 -40 5
    endloop
  endfacet
  facet normal 0 0 1
    outer loop
      vertex 59.5 40 5
      vertex 62.5 43 5
      vertex 59.5 43 5
    endloop
  endfacet
  facet normal 0 0 1
    outer loop
      vertex 62.5 43 5
      vertex 59.5 40 5
      vertex 62.5 -43 5
    endloop
  endfacet
  facet normal -0 0 1
    outer loop
      vertex 59.5 -40 5
      vertex 62.5 -43 5
      vertex 59.5 40 5
    endloop
  endfacet
  facet normal -0 0 1
    outer loop
      vertex -59.5 -40 5
      vertex 62.5 -43 5
      vertex 59.5 -40 5
    endloop
  endfacet
  facet normal 0 0 1
    outer loop
      vertex -59.5 -40 5
      vertex -62.5 -43 5
      vertex 62.5 -43 5
    endloop
  endfacet
  facet normal 0 0 1
    outer loop
      vertex -62.5 -43 5
      vertex -59.5 -40 5
      vertex -62.5 43 5
    endloop
  endfacet
  facet normal 0 1 0
    outer loop
      vertex 62.5 43 5
      vertex 59.5 43 -0.5
      vertex 59.5 43 5
    endloop
  endfacet
  facet normal 0 1 0
    outer loop
      vertex 59.5 43 -0.5
      vertex 62.5 43 -5
      vertex -59.5 43 -0.5
    endloop
  endfacet
  facet normal 0 1 -0
    outer loop
      vertex 62.5 43 -5
      vertex 59.5 43 -0.5
      vertex 62.5 43 5
    endloop
  endfacet
  facet normal 0 1 -0
    outer loop
      vertex -59.5 43 -0.5
      vertex -62.5 43 5
      vertex -59.5 43 5
    endloop
  endfacet
  facet normal 0 1 0
    outer loop
      vertex -59.5 43 -0.5
      vertex -62.5 43 -5
      vertex -62.5 43 5
    endloop
  endfacet
  facet normal 0 1 0
    outer loop
      vertex -62.5 43 -5
      vertex -59.5 43 -0.5
      vertex 62.5 43 -5
    endloop
  endfacet
  facet normal -1 0 0
    outer loop
      vertex -62.5 -43 -5
      vertex -62.5 43 5
      vertex -62.5 43 -5
    endloop
  endfacet
  facet normal -1 -0 0
    outer loop
      vertex -62.5 43 5
      vertex -62.5 -43 -5
      vertex -62.5 -43 5
    endloop
  endfacet
  facet normal 0 -1 0
    outer loop
      vertex -62.5 -43 -5
      vertex 62.5 -43 5
      vertex -62.5 -43 5
    endloop
  endfacet
  facet normal 0 -1 -0
    outer loop
      vertex 62.5 -43 5
      vertex -62.5 -43 -5
      vertex 62.5 -43 -5
    endloop
  endfacet
  facet normal 1 -0 0
    outer loop
      vertex 62.5 -43 5
      vertex 62.5 43 -5
      vertex 62.5 43 5
    endloop
  endfacet
  facet normal 1 0 0
    outer loop
      vertex 62.5 43 -5
      vertex 62.5 -43 5
      vertex 62.5 -43 -5
    endloop
  endfacet
  facet normal 1 -0 0
    outer loop
      vertex -59.5 -40 5
      vertex -59.5 40 -0.5
      vertex -59.5 40 5
    endloop
  endfacet
  facet normal 1 0 0
    outer loop
      vertex -59.5 -40 -3.25
      vertex -59.5 40 -0.5
      vertex -59.5 -40 5
    endloop
  endfacet
  facet normal 1 0 0
    outer loop
      vertex -59.5 40 -0.5
      vertex -59.5 -40 -3.25
      vertex -59.5 40 -3.25
    endloop
  endfacet
  facet normal 0 -1 0
    outer loop
      vertex -59.5 40 -3.25
      vertex 59.5 40 -0.5
      vertex -59.5 40 -0.5
    endloop
  endfacet
  facet normal 0 -1 -0
    outer loop
      vertex 59.5 40 -0.5
      vertex -59.5 40 -3.25
      vertex 59.5 40 -3.25
    endloop
  endfacet
  facet normal -1 0 0
    outer loop
      vertex 59.5 -40 -3.25
      vertex 59.5 40 -0.5
      vertex 59.5 40 -3.25
    endloop
  endfacet
  facet normal -1 0 0
    outer loop
      vertex 59.5 -40 5
      vertex 59.5 40 -0.5
      vertex 59.5 -40 -3.25
    endloop
  endfacet
  facet normal -1 0 0
    outer loop
      vertex 59.5 40 -0.5
      vertex 59.5 -40 5
      vertex 59.5 40 5
    endloop
  endfacet
  facet normal 0 1 -0
    outer loop
      vertex 59.5 -40 -3.25
      vertex -59.5 -40 5
      vertex 59.5 -40 5
    endloop
  endfacet
  facet normal 0 1 0
    outer loop
      vertex -59.5 -40 5
      vertex 59.5 -40 -3.25
      vertex -59.5 -40 -3.25
    endloop
  endfacet
  facet normal -0 0 1
    outer loop
      vertex -59.5 43 -0.5
      vertex 59.5 40 -0.5
      vertex 59.5 43 -0.5
    endloop
  endfacet
  facet normal 0 0 1
    outer loop
      vertex 59.5 40 -0.5
      vertex -59.5 43 -0.5
      vertex -59.5 40 -0.5
    endloop
  endfacet
  facet normal 1 -0 0
    outer loop
      vertex -59.5 40 5
      vertex -59.5 43 -0.5
      vertex -59.5 43 5
    endloop
  endfacet
  facet normal 1 0 0
    outer loop
      vertex -59.5 43 -0.5
      vertex -59.5 40 5
      vertex -59.5 40 -0.5
    endloop
  endfacet
  facet normal -1 0 0
    outer loop
      vertex 59.5 40 -0.5
      vertex 59.5 43 5
      vertex 59.5 43 -0.5
    endloop
  endfacet
  facet normal -1 -0 0
    outer loop
      vertex 59.5 43 5
      vertex 59.5 40 -0.5
      vertex 59.5 40 5
    endloop
  endfacet
  facet normal -0 0 1
    outer loop
      vertex -50.8907 -32.5582 -3.25
      vertex 50.308 -33.2888 -3.25
      vertex -50.8907 32.5582 -3.25
    endloop
  endfacet
  facet normal 0 0 1
    outer loop
      vertex 50.308 -33.2888 -3.25
      vertex -50.8907 -32.5582 -3.25
      vertex -50.1 -34.2 -3.25
    endloop
  endfacet
  facet normal -0 0 1
    outer loop
      vertex -52.6673 32.1526 -3.25
      vertex -50.8907 -32.5582 -3.25
      vertex -50.8907 32.5582 -3.25
    endloop
  endfacet
  facet normal 0 0 1
    outer loop
      vertex -52.6673 32.1526 -3.25
      vertex -52.6673 -32.1526 -3.25
      vertex -50.8907 -32.5582 -3.25
    endloop
  endfacet
  facet normal 0 0 1
    outer loop
      vertex -54.092 33.2888 -3.25
      vertex -52.6673 -32.1526 -3.25
      vertex -52.6673 32.1526 -3.25
    endloop
  endfacet
  facet normal 0 0 1
    outer loop
      vertex -52.6673 -32.1526 -3.25
      vertex -54.092 33.2888 -3.25
      vertex -54.092 -33.2888 -3.25
    endloop
  endfacet
  facet normal -0 0 1
    outer loop
      vertex 53.5093 -32.5582 -3.25
      vertex 59.5 -40 -3.25
      vertex 53.5093 32.5582 -3.25
    endloop
  endfacet
  facet normal 0 0 1
    outer loop
      vertex 59.5 -40 -3.25
      vertex 53.5093 -32.5582 -3.25
      vertex 54.3 -34.2 -3.25
    endloop
  endfacet
  facet normal -0 0 1
    outer loop
      vertex 51.7327 32.1526 -3.25
      vertex 53.5093 -32.5582 -3.25
      vertex 53.5093 32.5582 -3.25
    endloop
  endfacet
  facet normal 0 0 1
    outer loop
      vertex 51.7327 32.1526 -3.25
      vertex 51.7327 -32.1526 -3.25
      vertex 53.5093 -32.5582 -3.25
    endloop
  endfacet
  facet normal 0 0 1
    outer loop
      vertex 50.308 33.2888 -3.25
      vertex 51.7327 -32.1526 -3.25
      vertex 51.7327 32.1526 -3.25
    endloop
  endfacet
  facet normal 0 0 1
    outer loop
      vertex 51.7327 -32.1526 -3.25
      vertex 50.308 33.2888 -3.25
      vertex 50.308 -33.2888 -3.25
    endloop
  endfacet
  facet normal 0 0 1
    outer loop
      vertex 53.5093 32.5582 -3.25
      vertex 59.5 40 -3.25
      vertex 54.3 34.2 -3.25
    endloop
  endfacet
  facet normal 0 0 1
    outer loop
      vertex 59.5 40 -3.25
      vertex 53.5093 35.8418 -3.25
      vertex 54.3 34.2 -3.25
    endloop
  endfacet
  facet normal 0 0 1
    outer loop
      vertex 59.5 40 -3.25
      vertex 51.7327 36.2473 -3.25
      vertex 53.5093 35.8418 -3.25
    endloop
  endfacet
  facet normal -0 0 1
    outer loop
      vertex -50.1 34.2 -3.25
      vertex 50.308 33.2888 -3.25
      vertex 50.308 35.1112 -3.25
    endloop
  endfacet
  facet normal 0 0 1
    outer loop
      vertex -50.8907 32.5582 -3.25
      vertex 50.308 33.2888 -3.25
      vertex -50.1 34.2 -3.25
    endloop
  endfacet
  facet normal 0 0 1
    outer loop
      vertex 50.308 33.2888 -3.25
      vertex -50.8907 32.5582 -3.25
      vertex 50.308 -33.2888 -3.25
    endloop
  endfacet
  facet normal -0 0 1
    outer loop
      vertex -50.8907 35.8418 -3.25
      vertex 50.308 35.1112 -3.25
      vertex 51.7327 36.2473 -3.25
    endloop
  endfacet
  facet normal 0 0 1
    outer loop
      vertex -50.8907 35.8418 -3.25
      vertex 51.7327 36.2473 -3.25
      vertex 59.5 40 -3.25
    endloop
  endfacet
  facet normal 0 0 1
    outer loop
      vertex 50.308 35.1112 -3.25
      vertex -50.8907 35.8418 -3.25
      vertex -50.1 34.2 -3.25
    endloop
  endfacet
  facet normal -0 0 1
    outer loop
      vertex -59.5 40 -3.25
      vertex -50.8907 35.8418 -3.25
      vertex 59.5 40 -3.25
    endloop
  endfacet
  facet normal 0 0 1
    outer loop
      vertex -59.5 40 -3.25
      vertex -54.092 33.2888 -3.25
      vertex -54.092 35.1112 -3.25
    endloop
  endfacet
  facet normal 0 0 1
    outer loop
      vertex -54.092 33.2888 -3.25
      vertex -59.5 40 -3.25
      vertex -54.092 -33.2888 -3.25
    endloop
  endfacet
  facet normal 0 0 1
    outer loop
      vertex -59.5 -40 -3.25
      vertex -54.092 -33.2888 -3.25
      vertex -59.5 40 -3.25
    endloop
  endfacet
  facet normal 0 0 1
    outer loop
      vertex -52.6673 36.2473 -3.25
      vertex -59.5 40 -3.25
      vertex -54.092 35.1112 -3.25
    endloop
  endfacet
  facet normal 0 0 1
    outer loop
      vertex -50.8907 35.8418 -3.25
      vertex -59.5 40 -3.25
      vertex -52.6673 36.2473 -3.25
    endloop
  endfacet
  facet normal 0 0 1
    outer loop
      vertex 59.5 40 -3.25
      vertex 53.5093 32.5582 -3.25
      vertex 59.5 -40 -3.25
    endloop
  endfacet
  facet normal -0 0 1
    outer loop
      vertex 53.5093 -35.8418 -3.25
      vertex 59.5 -40 -3.25
      vertex 54.3 -34.2 -3.25
    endloop
  endfacet
  facet normal -0 0 1
    outer loop
      vertex 51.7327 -36.2473 -3.25
      vertex 59.5 -40 -3.25
      vertex 53.5093 -35.8418 -3.25
    endloop
  endfacet
  facet normal 0 0 1
    outer loop
      vertex 50.308 -33.2888 -3.25
      vertex -50.1 -34.2 -3.25
      vertex 50.308 -35.1112 -3.25
    endloop
  endfacet
  facet normal 0 0 1
    outer loop
      vertex -50.8907 -35.8418 -3.25
      vertex 50.308 -35.1112 -3.25
      vertex -50.1 -34.2 -3.25
    endloop
  endfacet
  facet normal 0 0 1
    outer loop
      vertex 50.308 -35.1112 -3.25
      vertex -50.8907 -35.8418 -3.25
      vertex 51.7327 -36.2473 -3.25
    endloop
  endfacet
  facet normal 0 0 1
    outer loop
      vertex 51.7327 -36.2473 -3.25
      vertex -50.8907 -35.8418 -3.25
      vertex 59.5 -40 -3.25
    endloop
  endfacet
  facet normal 0 0 1
    outer loop
      vertex -59.5 -40 -3.25
      vertex -50.8907 -35.8418 -3.25
      vertex -52.6673 -36.2473 -3.25
    endloop
  endfacet
  facet normal 0 0 1
    outer loop
      vertex -50.8907 -35.8418 -3.25
      vertex -59.5 -40 -3.25
      vertex 59.5 -40 -3.25
    endloop
  endfacet
  facet normal 0 0 1
    outer loop
      vertex -54.092 -35.1112 -3.25
      vertex -59.5 -40 -3.25
      vertex -52.6673 -36.2473 -3.25
    endloop
  endfacet
  facet normal 0 0 1
    outer loop
      vertex -54.092 -33.2888 -3.25
      vertex -59.5 -40 -3.25
      vertex -54.092 -35.1112 -3.25
    endloop
  endfacet
  facet normal -0.623503 -0.781821 0
    outer loop
      vertex 50.308 33.2888 -3.25
      vertex 51.7327 32.1526 2
      vertex 50.308 33.2888 2
    endloop
  endfacet
  facet normal -0.623503 -0.781821 -0
    outer loop
      vertex 51.7327 32.1526 2
      vertex 50.308 33.2888 -3.25
      vertex 51.7327 32.1526 -3.25
    endloop
  endfacet
  facet normal -0.623503 -0.781821 0
    outer loop
      vertex 50.308 33.2888 -6
      vertex 51.7327 32.1526 -5
      vertex 50.308 33.2888 -5
    endloop
  endfacet
  facet normal -0.623503 -0.781821 -0
    outer loop
      vertex 51.7327 32.1526 -5
      vertex 50.308 33.2888 -6
      vertex 51.7327 32.1526 -6
    endloop
  endfacet
  facet normal 0.222522 0.974928 -0
    outer loop
      vertex 53.5093 35.8418 -3.25
      vertex 51.7327 36.2473 2
      vertex 53.5093 35.8418 2
    endloop
  endfacet
  facet normal 0.222522 0.974928 0
    outer loop
      vertex 51.7327 36.2473 2
      vertex 53.5093 35.8418 -3.25
      vertex 51.7327 36.2473 -3.25
    endloop
  endfacet
  facet normal 0.222522 0.974928 -0
    outer loop
      vertex 53.5093 35.8418 -6
      vertex 51.7327 36.2473 -5
      vertex 53.5093 35.8418 -5
    endloop
  endfacet
  facet normal 0.222522 0.974928 0
    outer loop
      vertex 51.7327 36.2473 -5
      vertex 53.5093 35.8418 -6
      vertex 51.7327 36.2473 -6
    endloop
  endfacet
  facet normal 0.900958 0.433906 0
    outer loop
      vertex 54.3 34.2 2
      vertex 53.5093 35.8418 -3.25
      vertex 53.5093 35.8418 2
    endloop
  endfacet
  facet normal 0.900958 0.433906 0
    outer loop
      vertex 53.5093 35.8418 -3.25
      vertex 54.3 34.2 2
      vertex 54.3 34.2 -3.25
    endloop
  endfacet
  facet normal 0.900958 0.433906 0
    outer loop
      vertex 54.3 34.2 -5
      vertex 53.5093 35.8418 -6
      vertex 53.5093 35.8418 -5
    endloop
  endfacet
  facet normal 0.900958 0.433906 0
    outer loop
      vertex 53.5093 35.8418 -6
      vertex 54.3 34.2 -5
      vertex 54.3 34.2 -6
    endloop
  endfacet
  facet normal 0.222574 -0.974916 0
    outer loop
      vertex 51.7327 32.1526 -3.25
      vertex 53.5093 32.5582 2
      vertex 51.7327 32.1526 2
    endloop
  endfacet
  facet normal 0.222574 -0.974916 0
    outer loop
      vertex 53.5093 32.5582 2
      vertex 51.7327 32.1526 -3.25
      vertex 53.5093 32.5582 -3.25
    endloop
  endfacet
  facet normal 0.222574 -0.974916 0
    outer loop
      vertex 51.7327 32.1526 -6
      vertex 53.5093 32.5582 -5
      vertex 51.7327 32.1526 -5
    endloop
  endfacet
  facet normal 0.222574 -0.974916 0
    outer loop
      vertex 53.5093 32.5582 -5
      vertex 51.7327 32.1526 -6
      vertex 53.5093 32.5582 -6
    endloop
  endfacet
  facet normal 0.900958 -0.433906 0
    outer loop
      vertex 53.5093 32.5582 -5
      vertex 54.3 34.2 -6
      vertex 54.3 34.2 -5
    endloop
  endfacet
  facet normal 0.900958 -0.433906 0
    outer loop
      vertex 54.3 34.2 -6
      vertex 53.5093 32.5582 -5
      vertex 53.5093 32.5582 -6
    endloop
  endfacet
  facet normal 0.900958 -0.433906 0
    outer loop
      vertex 53.5093 32.5582 2
      vertex 54.3 34.2 -3.25
      vertex 54.3 34.2 2
    endloop
  endfacet
  facet normal 0.900958 -0.433906 0
    outer loop
      vertex 54.3 34.2 -3.25
      vertex 53.5093 32.5582 2
      vertex 53.5093 32.5582 -3.25
    endloop
  endfacet
  facet normal -1 0 0
    outer loop
      vertex 50.308 33.2888 -3.25
      vertex 50.308 35.1112 2
      vertex 50.308 35.1112 -3.25
    endloop
  endfacet
  facet normal -1 -0 0
    outer loop
      vertex 50.308 35.1112 2
      vertex 50.308 33.2888 -3.25
      vertex 50.308 33.2888 2
    endloop
  endfacet
  facet normal -1 0 0
    outer loop
      vertex 50.308 33.2888 -6
      vertex 50.308 35.1112 -5
      vertex 50.308 35.1112 -6
    endloop
  endfacet
  facet normal -1 -0 0
    outer loop
      vertex 50.308 35.1112 -5
      vertex 50.308 33.2888 -6
      vertex 50.308 33.2888 -5
    endloop
  endfacet
  facet normal 0 0 1
    outer loop
      vertex 53.5093 35.8418 2
      vertex 53.5093 32.5582 2
      vertex 54.3 34.2 2
    endloop
  endfacet
  facet normal 0 0 1
    outer loop
      vertex 51.7327 36.2473 2
      vertex 53.5093 32.5582 2
      vertex 53.5093 35.8418 2
    endloop
  endfacet
  facet normal 0 0 1
    outer loop
      vertex 51.7327 36.2473 2
      vertex 51.7327 32.1526 2
      vertex 53.5093 32.5582 2
    endloop
  endfacet
  facet normal -0 0 1
    outer loop
      vertex 50.308 35.1112 2
      vertex 51.7327 32.1526 2
      vertex 51.7327 36.2473 2
    endloop
  endfacet
  facet normal 0 0 1
    outer loop
      vertex 51.7327 32.1526 2
      vertex 50.308 35.1112 2
      vertex 50.308 33.2888 2
    endloop
  endfacet
  facet normal -0.62347 0.781848 0
    outer loop
      vertex 51.7327 36.2473 -3.25
      vertex 50.308 35.1112 2
      vertex 51.7327 36.2473 2
    endloop
  endfacet
  facet normal -0.62347 0.781848 0
    outer loop
      vertex 50.308 35.1112 2
      vertex 51.7327 36.2473 -3.25
      vertex 50.308 35.1112 -3.25
    endloop
  endfacet
  facet normal -0.62347 0.781848 0
    outer loop
      vertex 51.7327 36.2473 -6
      vertex 50.308 35.1112 -5
      vertex 51.7327 36.2473 -5
    endloop
  endfacet
  facet normal -0.62347 0.781848 0
    outer loop
      vertex 50.308 35.1112 -5
      vertex 51.7327 36.2473 -6
      vertex 50.308 35.1112 -6
    endloop
  endfacet
  facet normal 0 0 -1
    outer loop
      vertex 53.5093 32.5582 -6
      vertex 53.5093 35.8418 -6
      vertex 54.3 34.2 -6
    endloop
  endfacet
  facet normal 0 0 -1
    outer loop
      vertex 51.7327 32.1526 -6
      vertex 53.5093 35.8418 -6
      vertex 53.5093 32.5582 -6
    endloop
  endfacet
  facet normal 0 0 -1
    outer loop
      vertex 51.7327 32.1526 -6
      vertex 51.7327 36.2473 -6
      vertex 53.5093 35.8418 -6
    endloop
  endfacet
  facet normal 0 0 -1
    outer loop
      vertex 50.308 33.2888 -6
      vertex 51.7327 36.2473 -6
      vertex 51.7327 32.1526 -6
    endloop
  endfacet
  facet normal 0 0 -1
    outer loop
      vertex 51.7327 36.2473 -6
      vertex 50.308 33.2888 -6
      vertex 50.308 35.1112 -6
    endloop
  endfacet
  facet normal 0 0 1
    outer loop
      vertex -50.8907 35.8418 2
      vertex -50.8907 32.5582 2
      vertex -50.1 34.2 2
    endloop
  endfacet
  facet normal 0 0 1
    outer loop
      vertex -52.6673 36.2473 2
      vertex -50.8907 32.5582 2
      vertex -50.8907 35.8418 2
    endloop
  endfacet
  facet normal 0 0 1
    outer loop
      vertex -52.6673 36.2473 2
      vertex -52.6673 32.1526 2
      vertex -50.8907 32.5582 2
    endloop
  endfacet
  facet normal -0 0 1
    outer loop
      vertex -54.092 35.1112 2
      vertex -52.6673 32.1526 2
      vertex -52.6673 36.2473 2
    endloop
  endfacet
  facet normal 0 0 1
    outer loop
      vertex -52.6673 32.1526 2
      vertex -54.092 35.1112 2
      vertex -54.092 33.2888 2
    endloop
  endfacet
  facet normal 0.222522 0.974928 -0
    outer loop
      vertex -50.8907 35.8418 -6
      vertex -52.6673 36.2473 -5
      vertex -50.8907 35.8418 -5
    endloop
  endfacet
  facet normal 0.222522 0.974928 0
    outer loop
      vertex -52.6673 36.2473 -5
      vertex -50.8907 35.8418 -6
      vertex -52.6673 36.2473 -6
    endloop
  endfacet
  facet normal 0.222522 0.974928 -0
    outer loop
      vertex -50.8907 35.8418 -3.25
      vertex -52.6673 36.2473 2
      vertex -50.8907 35.8418 2
    endloop
  endfacet
  facet normal 0.222522 0.974928 0
    outer loop
      vertex -52.6673 36.2473 2
      vertex -50.8907 35.8418 -3.25
      vertex -52.6673 36.2473 -3.25
    endloop
  endfacet
  facet normal 0.900958 0.433906 0
    outer loop
      vertex -50.1 34.2 -5
      vertex -50.8907 35.8418 -6
      vertex -50.8907 35.8418 -5
    endloop
  endfacet
  facet normal 0.900958 0.433906 0
    outer loop
      vertex -50.8907 35.8418 -6
      vertex -50.1 34.2 -5
      vertex -50.1 34.2 -6
    endloop
  endfacet
  facet normal 0.900958 0.433906 0
    outer loop
      vertex -50.1 34.2 2
      vertex -50.8907 35.8418 -3.25
      vertex -50.8907 35.8418 2
    endloop
  endfacet
  facet normal 0.900958 0.433906 0
    outer loop
      vertex -50.8907 35.8418 -3.25
      vertex -50.1 34.2 2
      vertex -50.1 34.2 -3.25
    endloop
  endfacet
  facet normal -0.62347 0.781848 0
    outer loop
      vertex -52.6673 36.2473 -3.25
      vertex -54.092 35.1112 2
      vertex -52.6673 36.2473 2
    endloop
  endfacet
  facet normal -0.62347 0.781848 0
    outer loop
      vertex -54.092 35.1112 2
      vertex -52.6673 36.2473 -3.25
      vertex -54.092 35.1112 -3.25
    endloop
  endfacet
  facet normal -0.62347 0.781848 0
    outer loop
      vertex -52.6673 36.2473 -6
      vertex -54.092 35.1112 -5
      vertex -52.6673 36.2473 -5
    endloop
  endfacet
  facet normal -0.62347 0.781848 0
    outer loop
      vertex -54.092 35.1112 -5
      vertex -52.6673 36.2473 -6
      vertex -54.092 35.1112 -6
    endloop
  endfacet
  facet normal -1 0 0
    outer loop
      vertex -54.092 33.2888 -3.25
      vertex -54.092 35.1112 2
      vertex -54.092 35.1112 -3.25
    endloop
  endfacet
  facet normal -1 -0 0
    outer loop
      vertex -54.092 35.1112 2
      vertex -54.092 33.2888 -3.25
      vertex -54.092 33.2888 2
    endloop
  endfacet
  facet normal -1 0 0
    outer loop
      vertex -54.092 33.2888 -6
      vertex -54.092 35.1112 -5
      vertex -54.092 35.1112 -6
    endloop
  endfacet
  facet normal -1 -0 0
    outer loop
      vertex -54.092 35.1112 -5
      vertex -54.092 33.2888 -6
      vertex -54.092 33.2888 -5
    endloop
  endfacet
  facet normal 0.222574 -0.974916 0
    outer loop
      vertex -52.6673 32.1526 -3.25
      vertex -50.8907 32.5582 2
      vertex -52.6673 32.1526 2
    endloop
  endfacet
  facet normal 0.222574 -0.974916 0
    outer loop
      vertex -50.8907 32.5582 2
      vertex -52.6673 32.1526 -3.25
      vertex -50.8907 32.5582 -3.25
    endloop
  endfacet
  facet normal 0.222574 -0.974916 0
    outer loop
      vertex -52.6673 32.1526 -6
      vertex -50.8907 32.5582 -5
      vertex -52.6673 32.1526 -5
    endloop
  endfacet
  facet normal 0.222574 -0.974916 0
    outer loop
      vertex -50.8907 32.5582 -5
      vertex -52.6673 32.1526 -6
      vertex -50.8907 32.5582 -6
    endloop
  endfacet
  facet normal 0.900958 -0.433906 0
    outer loop
      vertex -50.8907 32.5582 -5
      vertex -50.1 34.2 -6
      vertex -50.1 34.2 -5
    endloop
  endfacet
  facet normal 0.900958 -0.433906 0
    outer loop
      vertex -50.1 34.2 -6
      vertex -50.8907 32.5582 -5
      vertex -50.8907 32.5582 -6
    endloop
  endfacet
  facet normal 0.900958 -0.433906 0
    outer loop
      vertex -50.8907 32.5582 2
      vertex -50.1 34.2 -3.25
      vertex -50.1 34.2 2
    endloop
  endfacet
  facet normal 0.900958 -0.433906 0
    outer loop
      vertex -50.1 34.2 -3.25
      vertex -50.8907 32.5582 2
      vertex -50.8907 32.5582 -3.25
    endloop
  endfacet
  facet normal -0.623503 -0.781821 0
    outer loop
      vertex -54.092 33.2888 -3.25
      vertex -52.6673 32.1526 2
      vertex -54.092 33.2888 2
    endloop
  endfacet
  facet normal -0.623503 -0.781821 -0
    outer loop
      vertex -52.6673 32.1526 2
      vertex -54.092 33.2888 -3.25
      vertex -52.6673 32.1526 -3.25
    endloop
  endfacet
  facet normal -0.623503 -0.781821 0
    outer loop
      vertex -54.092 33.2888 -6
      vertex -52.6673 32.1526 -5
      vertex -54.092 33.2888 -5
    endloop
  endfacet
  facet normal -0.623503 -0.781821 -0
    outer loop
      vertex -52.6673 32.1526 -5
      vertex -54.092 33.2888 -6
      vertex -52.6673 32.1526 -6
    endloop
  endfacet
  facet normal 0 0 -1
    outer loop
      vertex -50.8907 32.5582 -6
      vertex -50.8907 35.8418 -6
      vertex -50.1 34.2 -6
    endloop
  endfacet
  facet normal 0 0 -1
    outer loop
      vertex -52.6673 32.1526 -6
      vertex -50.8907 35.8418 -6
      vertex -50.8907 32.5582 -6
    endloop
  endfacet
  facet normal 0 0 -1
    outer loop
      vertex -52.6673 32.1526 -6
      vertex -52.6673 36.2473 -6
      vertex -50.8907 35.8418 -6
    endloop
  endfacet
  facet normal 0 0 -1
    outer loop
      vertex -54.092 33.2888 -6
      vertex -52.6673 36.2473 -6
      vertex -52.6673 32.1526 -6
    endloop
  endfacet
  facet normal 0 0 -1
    outer loop
      vertex -52.6673 36.2473 -6
      vertex -54.092 33.2888 -6
      vertex -54.092 35.1112 -6
    endloop
  endfacet
  facet normal -0.62347 -0.781848 0
    outer loop
      vertex 50.308 -35.1112 -3.25
      vertex 51.7327 -36.2473 2
      vertex 50.308 -35.1112 2
    endloop
  endfacet
  facet normal -0.62347 -0.781848 -0
    outer loop
      vertex 51.7327 -36.2473 2
      vertex 50.308 -35.1112 -3.25
      vertex 51.7327 -36.2473 -3.25
    endloop
  endfacet
  facet normal -0.62347 -0.781848 0
    outer loop
      vertex 50.308 -35.1112 -6
      vertex 51.7327 -36.2473 -5
      vertex 50.308 -35.1112 -5
    endloop
  endfacet
  facet normal -0.62347 -0.781848 -0
    outer loop
      vertex 51.7327 -36.2473 -5
      vertex 50.308 -35.1112 -6
      vertex 51.7327 -36.2473 -6
    endloop
  endfacet
  facet normal 0.222574 0.974916 -0
    outer loop
      vertex 53.5093 -32.5582 -3.25
      vertex 51.7327 -32.1526 2
      vertex 53.5093 -32.5582 2
    endloop
  endfacet
  facet normal 0.222574 0.974916 0
    outer loop
      vertex 51.7327 -32.1526 2
      vertex 53.5093 -32.5582 -3.25
      vertex 51.7327 -32.1526 -3.25
    endloop
  endfacet
  facet normal 0.222574 0.974916 -0
    outer loop
      vertex 53.5093 -32.5582 -6
      vertex 51.7327 -32.1526 -5
      vertex 53.5093 -32.5582 -5
    endloop
  endfacet
  facet normal 0.222574 0.974916 0
    outer loop
      vertex 51.7327 -32.1526 -5
      vertex 53.5093 -32.5582 -6
      vertex 51.7327 -32.1526 -6
    endloop
  endfacet
  facet normal 0.900958 0.433906 0
    outer loop
      vertex 54.3 -34.2 2
      vertex 53.5093 -32.5582 -3.25
      vertex 53.5093 -32.5582 2
    endloop
  endfacet
  facet normal 0.900958 0.433906 0
    outer loop
      vertex 53.5093 -32.5582 -3.25
      vertex 54.3 -34.2 2
      vertex 54.3 -34.2 -3.25
    endloop
  endfacet
  facet normal 0.900958 0.433906 0
    outer loop
      vertex 54.3 -34.2 -5
      vertex 53.5093 -32.5582 -6
      vertex 53.5093 -32.5582 -5
    endloop
  endfacet
  facet normal 0.900958 0.433906 0
    outer loop
      vertex 53.5093 -32.5582 -6
      vertex 54.3 -34.2 -5
      vertex 54.3 -34.2 -6
    endloop
  endfacet
  facet normal 0.222522 -0.974928 0
    outer loop
      vertex 51.7327 -36.2473 -6
      vertex 53.5093 -35.8418 -5
      vertex 51.7327 -36.2473 -5
    endloop
  endfacet
  facet normal 0.222522 -0.974928 0
    outer loop
      vertex 53.5093 -35.8418 -5
      vertex 51.7327 -36.2473 -6
      vertex 53.5093 -35.8418 -6
    endloop
  endfacet
  facet normal 0.222522 -0.974928 0
    outer loop
      vertex 51.7327 -36.2473 -3.25
      vertex 53.5093 -35.8418 2
      vertex 51.7327 -36.2473 2
    endloop
  endfacet
  facet normal 0.222522 -0.974928 0
    outer loop
      vertex 53.5093 -35.8418 2
      vertex 51.7327 -36.2473 -3.25
      vertex 53.5093 -35.8418 -3.25
    endloop
  endfacet
  facet normal -0.623503 0.781821 0
    outer loop
      vertex 51.7327 -32.1526 -3.25
      vertex 50.308 -33.2888 2
      vertex 51.7327 -32.1526 2
    endloop
  endfacet
  facet normal -0.623503 0.781821 0
    outer loop
      vertex 50.308 -33.2888 2
      vertex 51.7327 -32.1526 -3.25
      vertex 50.308 -33.2888 -3.25
    endloop
  endfacet
  facet normal -0.623503 0.781821 0
    outer loop
      vertex 51.7327 -32.1526 -6
      vertex 50.308 -33.2888 -5
      vertex 51.7327 -32.1526 -5
    endloop
  endfacet
  facet normal -0.623503 0.781821 0
    outer loop
      vertex 50.308 -33.2888 -5
      vertex 51.7327 -32.1526 -6
      vertex 50.308 -33.2888 -6
    endloop
  endfacet
  facet normal 0.900958 -0.433906 0
    outer loop
      vertex 53.5093 -35.8418 -5
      vertex 54.3 -34.2 -6
      vertex 54.3 -34.2 -5
    endloop
  endfacet
  facet normal 0.900958 -0.433906 0
    outer loop
      vertex 54.3 -34.2 -6
      vertex 53.5093 -35.8418 -5
      vertex 53.5093 -35.8418 -6
    endloop
  endfacet
  facet normal 0.900958 -0.433906 0
    outer loop
      vertex 53.5093 -35.8418 2
      vertex 54.3 -34.2 -3.25
      vertex 54.3 -34.2 2
    endloop
  endfacet
  facet normal 0.900958 -0.433906 0
    outer loop
      vertex 54.3 -34.2 -3.25
      vertex 53.5093 -35.8418 2
      vertex 53.5093 -35.8418 -3.25
    endloop
  endfacet
  facet normal -1 0 0
    outer loop
      vertex 50.308 -35.1112 -3.25
      vertex 50.308 -33.2888 2
      vertex 50.308 -33.2888 -3.25
    endloop
  endfacet
  facet normal -1 -0 0
    outer loop
      vertex 50.308 -33.2888 2
      vertex 50.308 -35.1112 -3.25
      vertex 50.308 -35.1112 2
    endloop
  endfacet
  facet normal -1 0 0
    outer loop
      vertex 50.308 -35.1112 -6
      vertex 50.308 -33.2888 -5
      vertex 50.308 -33.2888 -6
    endloop
  endfacet
  facet normal -1 -0 0
    outer loop
      vertex 50.308 -33.2888 -5
      vertex 50.308 -35.1112 -6
      vertex 50.308 -35.1112 -5
    endloop
  endfacet
  facet normal 0 0 1
    outer loop
      vertex 53.5093 -32.5582 2
      vertex 53.5093 -35.8418 2
      vertex 54.3 -34.2 2
    endloop
  endfacet
  facet normal 0 0 1
    outer loop
      vertex 51.7327 -32.1526 2
      vertex 53.5093 -35.8418 2
      vertex 53.5093 -32.5582 2
    endloop
  endfacet
  facet normal 0 0 1
    outer loop
      vertex 51.7327 -32.1526 2
      vertex 51.7327 -36.2473 2
      vertex 53.5093 -35.8418 2
    endloop
  endfacet
  facet normal -0 0 1
    outer loop
      vertex 50.308 -33.2888 2
      vertex 51.7327 -36.2473 2
      vertex 51.7327 -32.1526 2
    endloop
  endfacet
  facet normal 0 0 1
    outer loop
      vertex 51.7327 -36.2473 2
      vertex 50.308 -33.2888 2
      vertex 50.308 -35.1112 2
    endloop
  endfacet
  facet normal 0 0 -1
    outer loop
      vertex 53.5093 -35.8418 -6
      vertex 53.5093 -32.5582 -6
      vertex 54.3 -34.2 -6
    endloop
  endfacet
  facet normal 0 0 -1
    outer loop
      vertex 51.7327 -36.2473 -6
      vertex 53.5093 -32.5582 -6
      vertex 53.5093 -35.8418 -6
    endloop
  endfacet
  facet normal 0 0 -1
    outer loop
      vertex 51.7327 -36.2473 -6
      vertex 51.7327 -32.1526 -6
      vertex 53.5093 -32.5582 -6
    endloop
  endfacet
  facet normal 0 0 -1
    outer loop
      vertex 50.308 -35.1112 -6
      vertex 51.7327 -32.1526 -6
      vertex 51.7327 -36.2473 -6
    endloop
  endfacet
  facet normal 0 0 -1
    outer loop
      vertex 51.7327 -32.1526 -6
      vertex 50.308 -35.1112 -6
      vertex 50.308 -33.2888 -6
    endloop
  endfacet
  facet normal -0.62347 -0.781848 0
    outer loop
      vertex -54.092 -35.1112 -3.25
      vertex -52.6673 -36.2473 2
      vertex -54.092 -35.1112 2
    endloop
  endfacet
  facet normal -0.62347 -0.781848 -0
    outer loop
      vertex -52.6673 -36.2473 2
      vertex -54.092 -35.1112 -3.25
      vertex -52.6673 -36.2473 -3.25
    endloop
  endfacet
  facet normal -0.62347 -0.781848 0
    outer loop
      vertex -54.092 -35.1112 -6
      vertex -52.6673 -36.2473 -5
      vertex -54.092 -35.1112 -5
    endloop
  endfacet
  facet normal -0.62347 -0.781848 -0
    outer loop
      vertex -52.6673 -36.2473 -5
      vertex -54.092 -35.1112 -6
      vertex -52.6673 -36.2473 -6
    endloop
  endfacet
  facet normal 0.222574 0.974916 -0
    outer loop
      vertex -50.8907 -32.5582 -3.25
      vertex -52.6673 -32.1526 2
      vertex -50.8907 -32.5582 2
    endloop
  endfacet
  facet normal 0.222574 0.974916 0
    outer loop
      vertex -52.6673 -32.1526 2
      vertex -50.8907 -32.5582 -3.25
      vertex -52.6673 -32.1526 -3.25
    endloop
  endfacet
  facet normal 0.222574 0.974916 -0
    outer loop
      vertex -50.8907 -32.5582 -6
      vertex -52.6673 -32.1526 -5
      vertex -50.8907 -32.5582 -5
    endloop
  endfacet
  facet normal 0.222574 0.974916 0
    outer loop
      vertex -52.6673 -32.1526 -5
      vertex -50.8907 -32.5582 -6
      vertex -52.6673 -32.1526 -6
    endloop
  endfacet
  facet normal 0.900958 0.433906 0
    outer loop
      vertex -50.1 -34.2 2
      vertex -50.8907 -32.5582 -3.25
      vertex -50.8907 -32.5582 2
    endloop
  endfacet
  facet normal 0.900958 0.433906 0
    outer loop
      vertex -50.8907 -32.5582 -3.25
      vertex -50.1 -34.2 2
      vertex -50.1 -34.2 -3.25
    endloop
  endfacet
  facet normal 0.900958 0.433906 0
    outer loop
      vertex -50.1 -34.2 -5
      vertex -50.8907 -32.5582 -6
      vertex -50.8907 -32.5582 -5
    endloop
  endfacet
  facet normal 0.900958 0.433906 0
    outer loop
      vertex -50.8907 -32.5582 -6
      vertex -50.1 -34.2 -5
      vertex -50.1 -34.2 -6
    endloop
  endfacet
  facet normal 0.222522 -0.974928 0
    outer loop
      vertex -52.6673 -36.2473 -6
      vertex -50.8907 -35.8418 -5
      vertex -52.6673 -36.2473 -5
    endloop
  endfacet
  facet normal 0.222522 -0.974928 0
    outer loop
      vertex -50.8907 -35.8418 -5
      vertex -52.6673 -36.2473 -6
      vertex -50.8907 -35.8418 -6
    endloop
  endfacet
  facet normal 0.222522 -0.974928 0
    outer loop
      vertex -52.6673 -36.2473 -3.25
      vertex -50.8907 -35.8418 2
      vertex -52.6673 -36.2473 2
    endloop
  endfacet
  facet normal 0.222522 -0.974928 0
    outer loop
      vertex -50.8907 -35.8418 2
      vertex -52.6673 -36.2473 -3.25
      vertex -50.8907 -35.8418 -3.25
    endloop
  endfacet
  facet normal 0.900958 -0.433906 0
    outer loop
      vertex -50.8907 -35.8418 -5
      vertex -50.1 -34.2 -6
      vertex -50.1 -34.2 -5
    endloop
  endfacet
  facet normal 0.900958 -0.433906 0
    outer loop
      vertex -50.1 -34.2 -6
      vertex -50.8907 -35.8418 -5
      vertex -50.8907 -35.8418 -6
    endloop
  endfacet
  facet normal 0.900958 -0.433906 0
    outer loop
      vertex -50.8907 -35.8418 2
      vertex -50.1 -34.2 -3.25
      vertex -50.1 -34.2 2
    endloop
  endfacet
  facet normal 0.900958 -0.433906 0
    outer loop
      vertex -50.1 -34.2 -3.25
      vertex -50.8907 -35.8418 2
      vertex -50.8907 -35.8418 -3.25
    endloop
  endfacet
  facet normal -1 0 0
    outer loop
      vertex -54.092 -35.1112 -3.25
      vertex -54.092 -33.2888 2
      vertex -54.092 -33.2888 -3.25
    endloop
  endfacet
  facet normal -1 -0 0
    outer loop
      vertex -54.092 -33.2888 2
      vertex -54.092 -35.1112 -3.25
      vertex -54.092 -35.1112 2
    endloop
  endfacet
  facet normal -1 0 0
    outer loop
      vertex -54.092 -35.1112 -6
      vertex -54.092 -33.2888 -5
      vertex -54.092 -33.2888 -6
    endloop
  endfacet
  facet normal -1 -0 0
    outer loop
      vertex -54.092 -33.2888 -5
      vertex -54.092 -35.1112 -6
      vertex -54.092 -35.1112 -5
    endloop
  endfacet
  facet normal 0 0 1
    outer loop
      vertex -50.8907 -32.5582 2
      vertex -50.8907 -35.8418 2
      vertex -50.1 -34.2 2
    endloop
  endfacet
  facet normal 0 0 1
    outer loop
      vertex -52.6673 -32.1526 2
      vertex -50.8907 -35.8418 2
      vertex -50.8907 -32.5582 2
    endloop
  endfacet
  facet normal 0 0 1
    outer loop
      vertex -52.6673 -32.1526 2
      vertex -52.6673 -36.2473 2
      vertex -50.8907 -35.8418 2
    endloop
  endfacet
  facet normal -0 0 1
    outer loop
      vertex -54.092 -33.2888 2
      vertex -52.6673 -36.2473 2
      vertex -52.6673 -32.1526 2
    endloop
  endfacet
  facet normal 0 0 1
    outer loop
      vertex -52.6673 -36.2473 2
      vertex -54.092 -33.2888 2
      vertex -54.092 -35.1112 2
    endloop
  endfacet
  facet normal -0.623503 0.781821 0
    outer loop
      vertex -52.6673 -32.1526 -3.25
      vertex -54.092 -33.2888 2
      vertex -52.6673 -32.1526 2
    endloop
  endfacet
  facet normal -0.623503 0.781821 0
    outer loop
      vertex -54.092 -33.2888 2
      vertex -52.6673 -32.1526 -3.25
      vertex -54.092 -33.2888 -3.25
    endloop
  endfacet
  facet normal -0.623503 0.781821 0
    outer loop
      vertex -52.6673 -32.1526 -6
      vertex -54.092 -33.2888 -5
      vertex -52.6673 -32.1526 -5
    endloop
  endfacet
  facet normal -0.623503 0.781821 0
    outer loop
      vertex -54.092 -33.2888 -5
      vertex -52.6673 -32.1526 -6
      vertex -54.092 -33.2888 -6
    endloop
  endfacet
  facet normal 0 0 -1
    outer loop
      vertex -50.8907 -35.8418 -6
      vertex -50.8907 -32.5582 -6
      vertex -50.1 -34.2 -6
    endloop
  endfacet
  facet normal 0 0 -1
    outer loop
      vertex -52.6673 -36.2473 -6
      vertex -50.8907 -32.5582 -6
      vertex -50.8907 -35.8418 -6
    endloop
  endfacet
  facet normal 0 0 -1
    outer loop
      vertex -52.6673 -36.2473 -6
      vertex -52.6673 -32.1526 -6
      vertex -50.8907 -32.5582 -6
    endloop
  endfacet
  facet normal 0 0 -1
    outer loop
      vertex -54.092 -35.1112 -6
      vertex -52.6673 -32.1526 -6
      vertex -52.6673 -36.2473 -6
    endloop
  endfacet
  facet normal 0 0 -1
    outer loop
      vertex -52.6673 -32.1526 -6
      vertex -54.092 -35.1112 -6
      vertex -54.092 -33.2888 -6
    endloop
  endfacet
endsolid OpenSCAD_Model
