solid OpenSCAD_Model
  facet normal 0 0 -1
    outer loop
      vertex -53.5365 -34.5734 -5
      vertex -52.5 36 -5
      vertex -52.5 -36 -5
    endloop
  endfacet
  facet normal 0 0 -1
    outer loop
      vertex -53.5365 -34.5734 -5
      vertex -53.5365 34.5734 -5
      vertex -52.5 36 -5
    endloop
  endfacet
  facet normal 0 0 -1
    outer loop
      vertex -55.2135 -35.1183 -5
      vertex -53.5365 34.5734 -5
      vertex -53.5365 -34.5734 -5
    endloop
  endfacet
  facet normal -0 0 -1
    outer loop
      vertex -53.5365 34.5734 -5
      vertex -55.2135 -35.1183 -5
      vertex -55.2135 35.1183 -5
    endloop
  endfacet
  facet normal 0 0 -1
    outer loop
      vertex 54.4635 34.5734 -5
      vertex 62.5 43 -5
      vertex 54.4635 -34.5734 -5
    endloop
  endfacet
  facet normal 0 0 -1
    outer loop
      vertex 62.5 43 -5
      vertex 54.4635 34.5734 -5
      vertex 55.5 36 -5
    endloop
  endfacet
  facet normal 0 0 -1
    outer loop
      vertex 52.7865 -35.1183 -5
      vertex 54.4635 34.5734 -5
      vertex 54.4635 -34.5734 -5
    endloop
  endfacet
  facet normal -0 0 -1
    outer loop
      vertex 54.4635 34.5734 -5
      vertex 52.7865 -35.1183 -5
      vertex 52.7865 35.1183 -5
    endloop
  endfacet
  facet normal 0 0 -1
    outer loop
      vertex 54.4635 -34.5734 -5
      vertex 62.5 -43 -5
      vertex 55.5 -36 -5
    endloop
  endfacet
  facet normal 0 0 -1
    outer loop
      vertex 62.5 -43 -5
      vertex 54.4635 -37.4266 -5
      vertex 55.5 -36 -5
    endloop
  endfacet
  facet normal 0 0 -1
    outer loop
      vertex 62.5 -43 -5
      vertex 52.7865 -36.8817 -5
      vertex 54.4635 -37.4266 -5
    endloop
  endfacet
  facet normal 0 0 -1
    outer loop
      vertex -52.5 -36 -5
      vertex 52.7865 -35.1183 -5
      vertex 52.7865 -36.8817 -5
    endloop
  endfacet
  facet normal -0 0 -1
    outer loop
      vertex 52.7865 -35.1183 -5
      vertex -52.5 -36 -5
      vertex 52.7865 35.1183 -5
    endloop
  endfacet
  facet normal 0 0 -1
    outer loop
      vertex -52.5 36 -5
      vertex 52.7865 35.1183 -5
      vertex -52.5 -36 -5
    endloop
  endfacet
  facet normal 0 0 -1
    outer loop
      vertex -53.5365 -37.4266 -5
      vertex 52.7865 -36.8817 -5
      vertex 62.5 -43 -5
    endloop
  endfacet
  facet normal -0 0 -1
    outer loop
      vertex 52.7865 -36.8817 -5
      vertex -53.5365 -37.4266 -5
      vertex -52.5 -36 -5
    endloop
  endfacet
  facet normal 0 0 -1
    outer loop
      vertex -62.5 -43 -5
      vertex -55.2135 -35.1183 -5
      vertex -55.2135 -36.8817 -5
    endloop
  endfacet
  facet normal -0 0 -1
    outer loop
      vertex -55.2135 -35.1183 -5
      vertex -62.5 -43 -5
      vertex -55.2135 35.1183 -5
    endloop
  endfacet
  facet normal 0 0 -1
    outer loop
      vertex -62.5 43 -5
      vertex -55.2135 35.1183 -5
      vertex -62.5 -43 -5
    endloop
  endfacet
  facet normal -0 0 -1
    outer loop
      vertex -53.5365 -37.4266 -5
      vertex -62.5 -43 -5
      vertex -55.2135 -36.8817 -5
    endloop
  endfacet
  facet normal 0 0 -1
    outer loop
      vertex -62.5 -43 -5
      vertex -53.5365 -37.4266 -5
      vertex 62.5 -43 -5
    endloop
  endfacet
  facet normal 0 0 -1
    outer loop
      vertex 62.5 -43 -5
      vertex 54.4635 -34.5734 -5
      vertex 62.5 43 -5
    endloop
  endfacet
  facet normal 0 0 -1
    outer loop
      vertex 54.4635 37.4266 -5
      vertex 62.5 43 -5
      vertex 55.5 36 -5
    endloop
  endfacet
  facet normal 0 0 -1
    outer loop
      vertex 52.7865 36.8817 -5
      vertex 62.5 43 -5
      vertex 54.4635 37.4266 -5
    endloop
  endfacet
  facet normal 0 0 -1
    outer loop
      vertex 52.7865 35.1183 -5
      vertex -52.5 36 -5
      vertex 52.7865 36.8817 -5
    endloop
  endfacet
  facet normal 0 0 -1
    outer loop
      vertex -53.5365 37.4266 -5
      vertex 52.7865 36.8817 -5
      vertex -52.5 36 -5
    endloop
  endfacet
  facet normal 0 0 -1
    outer loop
      vertex 52.7865 36.8817 -5
      vertex -53.5365 37.4266 -5
      vertex 62.5 43 -5
    endloop
  endfacet
  facet normal 0 0 -1
    outer loop
      vertex -53.5365 37.4266 -5
      vertex -62.5 43 -5
      vertex 62.5 43 -5
    endloop
  endfacet
  facet normal 0 0 -1
    outer loop
      vertex -55.2135 36.8817 -5
      vertex -62.5 43 -5
      vertex -53.5365 37.4266 -5
    endloop
  endfacet
  facet normal 0 0 -1
    outer loop
      vertex -55.2135 35.1183 -5
      vertex -62.5 43 -5
      vertex -55.2135 36.8817 -5
    endloop
  endfacet
  facet normal -0 0 1
    outer loop
      vertex -62.5 43 5
      vertex -59.5 40 5
      vertex -59.5 43 5
    endloop
  endfacet
  facet normal 0 0 1
    outer loop
      vertex -59.5 40 5
      vertex -62.5 43 5
      vertex -59.5 -40 5
    endloop
  endfacet
  facet normal 0 0 1
    outer loop
      vertex 59.5 40 5
      vertex 62.5 43 5
      vertex 59.5 43 5
    endloop
  endfacet
  facet normal 0 0 1
    outer loop
      vertex 62.5 43 5
      vertex 59.5 40 5
      vertex 62.5 -43 5
    endloop
  endfacet
  facet normal -0 0 1
    outer loop
      vertex 59.5 -40 5
      vertex 62.5 -43 5
      vertex 59.5 40 5
    endloop
  endfacet
  facet normal -0 0 1
    outer loop
      vertex -59.5 -40 5
      vertex 62.5 -43 5
      vertex 59.5 -40 5
    endloop
  endfacet
  facet normal 0 0 1
    outer loop
      vertex -59.5 -40 5
      vertex -62.5 -43 5
      vertex 62.5 -43 5
    endloop
  endfacet
  facet normal 0 0 1
    outer loop
      vertex -62.5 -43 5
      vertex -59.5 -40 5
      vertex -62.5 43 5
    endloop
  endfacet
  facet normal 0 1 0
    outer loop
      vertex 62.5 43 5
      vertex 59.5 43 -0.5
      vertex 59.5 43 5
    endloop
  endfacet
  facet normal 0 1 0
    outer loop
      vertex 59.5 43 -0.5
      vertex 62.5 43 -5
      vertex -59.5 43 -0.5
    endloop
  endfacet
  facet normal 0 1 -0
    outer loop
      vertex 62.5 43 -5
      vertex 59.5 43 -0.5
      vertex 62.5 43 5
    endloop
  endfacet
  facet normal 0 1 -0
    outer loop
      vertex -59.5 43 -0.5
      vertex -62.5 43 5
      vertex -59.5 43 5
    endloop
  endfacet
  facet normal 0 1 0
    outer loop
      vertex -59.5 43 -0.5
      vertex -62.5 43 -5
      vertex -62.5 43 5
    endloop
  endfacet
  facet normal 0 1 0
    outer loop
      vertex -62.5 43 -5
      vertex -59.5 43 -0.5
      vertex 62.5 43 -5
    endloop
  endfacet
  facet normal -1 0 0
    outer loop
      vertex -62.5 -43 -5
      vertex -62.5 43 5
      vertex -62.5 43 -5
    endloop
  endfacet
  facet normal -1 -0 0
    outer loop
      vertex -62.5 43 5
      vertex -62.5 -43 -5
      vertex -62.5 -43 5
    endloop
  endfacet
  facet normal 0 -1 0
    outer loop
      vertex -62.5 -43 -5
      vertex 62.5 -43 5
      vertex -62.5 -43 5
    endloop
  endfacet
  facet normal 0 -1 -0
    outer loop
      vertex 62.5 -43 5
      vertex -62.5 -43 -5
      vertex 62.5 -43 -5
    endloop
  endfacet
  facet normal 1 -0 0
    outer loop
      vertex 62.5 -43 5
      vertex 62.5 43 -5
      vertex 62.5 43 5
    endloop
  endfacet
  facet normal 1 0 0
    outer loop
      vertex 62.5 43 -5
      vertex 62.5 -43 5
      vertex 62.5 -43 -5
    endloop
  endfacet
  facet normal 1 -0 0
    outer loop
      vertex -59.5 -40 5
      vertex -59.5 40 -0.5
      vertex -59.5 40 5
    endloop
  endfacet
  facet normal 1 0 0
    outer loop
      vertex -59.5 -40 -3.25
      vertex -59.5 40 -0.5
      vertex -59.5 -40 5
    endloop
  endfacet
  facet normal 1 0 0
    outer loop
      vertex -59.5 40 -0.5
      vertex -59.5 -40 -3.25
      vertex -59.5 40 -3.25
    endloop
  endfacet
  facet normal 0 -1 0
    outer loop
      vertex -59.5 40 -3.25
      vertex 59.5 40 -0.5
      vertex -59.5 40 -0.5
    endloop
  endfacet
  facet normal 0 -1 -0
    outer loop
      vertex 59.5 40 -0.5
      vertex -59.5 40 -3.25
      vertex 59.5 40 -3.25
    endloop
  endfacet
  facet normal -1 0 0
    outer loop
      vertex 59.5 -40 -3.25
      vertex 59.5 40 -0.5
      vertex 59.5 40 -3.25
    endloop
  endfacet
  facet normal -1 0 0
    outer loop
      vertex 59.5 -40 5
      vertex 59.5 40 -0.5
      vertex 59.5 -40 -3.25
    endloop
  endfacet
  facet normal -1 0 0
    outer loop
      vertex 59.5 40 -0.5
      vertex 59.5 -40 5
      vertex 59.5 40 5
    endloop
  endfacet
  facet normal 0 1 -0
    outer loop
      vertex 59.5 -40 -3.25
      vertex -59.5 -40 5
      vertex 59.5 -40 5
    endloop
  endfacet
  facet normal 0 1 0
    outer loop
      vertex -59.5 -40 5
      vertex 59.5 -40 -3.25
      vertex -59.5 -40 -3.25
    endloop
  endfacet
  facet normal -0 0 1
    outer loop
      vertex -59.5 43 -0.5
      vertex 59.5 40 -0.5
      vertex 59.5 43 -0.5
    endloop
  endfacet
  facet normal 0 0 1
    outer loop
      vertex 59.5 40 -0.5
      vertex -59.5 43 -0.5
      vertex -59.5 40 -0.5
    endloop
  endfacet
  facet normal 1 -0 0
    outer loop
      vertex -59.5 40 5
      vertex -59.5 43 -0.5
      vertex -59.5 43 5
    endloop
  endfacet
  facet normal 1 0 0
    outer loop
      vertex -59.5 43 -0.5
      vertex -59.5 40 5
      vertex -59.5 40 -0.5
    endloop
  endfacet
  facet normal -1 0 0
    outer loop
      vertex 59.5 40 -0.5
      vertex 59.5 43 5
      vertex 59.5 43 -0.5
    endloop
  endfacet
  facet normal -1 -0 0
    outer loop
      vertex 59.5 43 5
      vertex 59.5 40 -0.5
      vertex 59.5 40 5
    endloop
  endfacet
  facet normal 0 0 1
    outer loop
      vertex -51.5729 -34.2366 -3.25
      vertex 51.5729 -34.2366 -3.25
      vertex -51.5729 34.2366 -3.25
    endloop
  endfacet
  facet normal 0 0 1
    outer loop
      vertex 51.5729 -34.2366 -3.25
      vertex -51.5729 -34.2366 -3.25
      vertex -51 -36 -3.25
    endloop
  endfacet
  facet normal -0 0 1
    outer loop
      vertex -53.0729 33.1468 -3.25
      vertex -51.5729 -34.2366 -3.25
      vertex -51.5729 34.2366 -3.25
    endloop
  endfacet
  facet normal 0 0 1
    outer loop
      vertex -53.0729 33.1468 -3.25
      vertex -53.0729 -33.1468 -3.25
      vertex -51.5729 -34.2366 -3.25
    endloop
  endfacet
  facet normal -0 0 1
    outer loop
      vertex -54.9271 33.1468 -3.25
      vertex -53.0729 -33.1468 -3.25
      vertex -53.0729 33.1468 -3.25
    endloop
  endfacet
  facet normal 0 0 1
    outer loop
      vertex -54.9271 33.1468 -3.25
      vertex -54.9271 -33.1468 -3.25
      vertex -53.0729 -33.1468 -3.25
    endloop
  endfacet
  facet normal 0 0 1
    outer loop
      vertex -56.4271 34.2366 -3.25
      vertex -54.9271 -33.1468 -3.25
      vertex -54.9271 33.1468 -3.25
    endloop
  endfacet
  facet normal 0 0 1
    outer loop
      vertex -56.4271 34.2366 -3.25
      vertex -56.4271 -34.2366 -3.25
      vertex -54.9271 -33.1468 -3.25
    endloop
  endfacet
  facet normal 0 0 1
    outer loop
      vertex -59.5 40 -3.25
      vertex -56.4271 34.2366 -3.25
      vertex -57 36 -3.25
    endloop
  endfacet
  facet normal 0 0 1
    outer loop
      vertex -56.4271 34.2366 -3.25
      vertex -59.5 40 -3.25
      vertex -56.4271 -34.2366 -3.25
    endloop
  endfacet
  facet normal -0 0 1
    outer loop
      vertex 56.4271 -34.2366 -3.25
      vertex 59.5 -40 -3.25
      vertex 56.4271 34.2366 -3.25
    endloop
  endfacet
  facet normal 0 0 1
    outer loop
      vertex 59.5 -40 -3.25
      vertex 56.4271 -34.2366 -3.25
      vertex 57 -36 -3.25
    endloop
  endfacet
  facet normal -0 0 1
    outer loop
      vertex 54.9271 33.1468 -3.25
      vertex 56.4271 -34.2366 -3.25
      vertex 56.4271 34.2366 -3.25
    endloop
  endfacet
  facet normal 0 0 1
    outer loop
      vertex 54.9271 33.1468 -3.25
      vertex 54.9271 -33.1468 -3.25
      vertex 56.4271 -34.2366 -3.25
    endloop
  endfacet
  facet normal -0 0 1
    outer loop
      vertex 53.0729 33.1468 -3.25
      vertex 54.9271 -33.1468 -3.25
      vertex 54.9271 33.1468 -3.25
    endloop
  endfacet
  facet normal 0 0 1
    outer loop
      vertex 53.0729 33.1468 -3.25
      vertex 53.0729 -33.1468 -3.25
      vertex 54.9271 -33.1468 -3.25
    endloop
  endfacet
  facet normal 0 0 1
    outer loop
      vertex 51.5729 34.2366 -3.25
      vertex 53.0729 -33.1468 -3.25
      vertex 53.0729 33.1468 -3.25
    endloop
  endfacet
  facet normal 0 0 1
    outer loop
      vertex 51.5729 34.2366 -3.25
      vertex 51.5729 -34.2366 -3.25
      vertex 53.0729 -33.1468 -3.25
    endloop
  endfacet
  facet normal -0 0 1
    outer loop
      vertex -51 36 -3.25
      vertex 51.5729 34.2366 -3.25
      vertex 51 36 -3.25
    endloop
  endfacet
  facet normal 0 0 1
    outer loop
      vertex -51.5729 34.2366 -3.25
      vertex 51.5729 34.2366 -3.25
      vertex -51 36 -3.25
    endloop
  endfacet
  facet normal 0 0 1
    outer loop
      vertex 56.4271 34.2366 -3.25
      vertex 59.5 40 -3.25
      vertex 57 36 -3.25
    endloop
  endfacet
  facet normal 0 0 1
    outer loop
      vertex 59.5 40 -3.25
      vertex 56.4271 37.7634 -3.25
      vertex 57 36 -3.25
    endloop
  endfacet
  facet normal 0 0 1
    outer loop
      vertex 59.5 40 -3.25
      vertex 54.9271 38.8532 -3.25
      vertex 56.4271 37.7634 -3.25
    endloop
  endfacet
  facet normal 0 0 1
    outer loop
      vertex 59.5 40 -3.25
      vertex 53.0729 38.8532 -3.25
      vertex 54.9271 38.8532 -3.25
    endloop
  endfacet
  facet normal 0 0 1
    outer loop
      vertex 51.5729 34.2366 -3.25
      vertex -51.5729 34.2366 -3.25
      vertex 51.5729 -34.2366 -3.25
    endloop
  endfacet
  facet normal 0 0 1
    outer loop
      vertex 51.5729 37.7634 -3.25
      vertex -51 36 -3.25
      vertex 51 36 -3.25
    endloop
  endfacet
  facet normal 0 0 1
    outer loop
      vertex -51.5729 37.7634 -3.25
      vertex 51.5729 37.7634 -3.25
      vertex 53.0729 38.8532 -3.25
    endloop
  endfacet
  facet normal 0 0 1
    outer loop
      vertex -53.0729 38.8532 -3.25
      vertex 53.0729 38.8532 -3.25
      vertex 59.5 40 -3.25
    endloop
  endfacet
  facet normal 0 0 1
    outer loop
      vertex 51.5729 37.7634 -3.25
      vertex -51.5729 37.7634 -3.25
      vertex -51 36 -3.25
    endloop
  endfacet
  facet normal 0 0 1
    outer loop
      vertex 53.0729 38.8532 -3.25
      vertex -53.0729 38.8532 -3.25
      vertex -51.5729 37.7634 -3.25
    endloop
  endfacet
  facet normal -0 0 1
    outer loop
      vertex -59.5 40 -3.25
      vertex -53.0729 38.8532 -3.25
      vertex 59.5 40 -3.25
    endloop
  endfacet
  facet normal 0 0 1
    outer loop
      vertex -59.5 -40 -3.25
      vertex -56.4271 -34.2366 -3.25
      vertex -59.5 40 -3.25
    endloop
  endfacet
  facet normal 0 0 1
    outer loop
      vertex -56.4271 37.7634 -3.25
      vertex -59.5 40 -3.25
      vertex -57 36 -3.25
    endloop
  endfacet
  facet normal 0 0 1
    outer loop
      vertex -54.9271 38.8532 -3.25
      vertex -59.5 40 -3.25
      vertex -56.4271 37.7634 -3.25
    endloop
  endfacet
  facet normal 0 0 1
    outer loop
      vertex -53.0729 38.8532 -3.25
      vertex -59.5 40 -3.25
      vertex -54.9271 38.8532 -3.25
    endloop
  endfacet
  facet normal 0 0 1
    outer loop
      vertex 59.5 40 -3.25
      vertex 56.4271 34.2366 -3.25
      vertex 59.5 -40 -3.25
    endloop
  endfacet
  facet normal -0 0 1
    outer loop
      vertex 56.4271 -37.7634 -3.25
      vertex 59.5 -40 -3.25
      vertex 57 -36 -3.25
    endloop
  endfacet
  facet normal -0 0 1
    outer loop
      vertex 54.9271 -38.8532 -3.25
      vertex 59.5 -40 -3.25
      vertex 56.4271 -37.7634 -3.25
    endloop
  endfacet
  facet normal -0 0 1
    outer loop
      vertex 53.0729 -38.8532 -3.25
      vertex 59.5 -40 -3.25
      vertex 54.9271 -38.8532 -3.25
    endloop
  endfacet
  facet normal 0 0 1
    outer loop
      vertex 51.5729 -34.2366 -3.25
      vertex -51 -36 -3.25
      vertex 51 -36 -3.25
    endloop
  endfacet
  facet normal 0 0 1
    outer loop
      vertex 51 -36 -3.25
      vertex -51 -36 -3.25
      vertex 51.5729 -37.7634 -3.25
    endloop
  endfacet
  facet normal 0 0 1
    outer loop
      vertex -51.5729 -37.7634 -3.25
      vertex 51.5729 -37.7634 -3.25
      vertex -51 -36 -3.25
    endloop
  endfacet
  facet normal 0 0 1
    outer loop
      vertex 51.5729 -37.7634 -3.25
      vertex -51.5729 -37.7634 -3.25
      vertex 53.0729 -38.8532 -3.25
    endloop
  endfacet
  facet normal 0 0 1
    outer loop
      vertex -53.0729 -38.8532 -3.25
      vertex 53.0729 -38.8532 -3.25
      vertex -51.5729 -37.7634 -3.25
    endloop
  endfacet
  facet normal 0 0 1
    outer loop
      vertex 53.0729 -38.8532 -3.25
      vertex -53.0729 -38.8532 -3.25
      vertex 59.5 -40 -3.25
    endloop
  endfacet
  facet normal 0 0 1
    outer loop
      vertex -59.5 -40 -3.25
      vertex -53.0729 -38.8532 -3.25
      vertex -54.9271 -38.8532 -3.25
    endloop
  endfacet
  facet normal 0 0 1
    outer loop
      vertex -53.0729 -38.8532 -3.25
      vertex -59.5 -40 -3.25
      vertex 59.5 -40 -3.25
    endloop
  endfacet
  facet normal 0 0 1
    outer loop
      vertex -56.4271 -37.7634 -3.25
      vertex -59.5 -40 -3.25
      vertex -54.9271 -38.8532 -3.25
    endloop
  endfacet
  facet normal 0 0 1
    outer loop
      vertex -57 -36 -3.25
      vertex -59.5 -40 -3.25
      vertex -56.4271 -37.7634 -3.25
    endloop
  endfacet
  facet normal 0 0 1
    outer loop
      vertex -56.4271 -34.2366 -3.25
      vertex -59.5 -40 -3.25
      vertex -57 -36 -3.25
    endloop
  endfacet
  facet normal -0.309022 -0.951055 0
    outer loop
      vertex 52.7865 35.1183 0
      vertex 54.4635 34.5734 2
      vertex 52.7865 35.1183 2
    endloop
  endfacet
  facet normal -0.309022 -0.951055 -0
    outer loop
      vertex 54.4635 34.5734 2
      vertex 52.7865 35.1183 0
      vertex 54.4635 34.5734 0
    endloop
  endfacet
  facet normal -0.309022 -0.951055 0
    outer loop
      vertex 52.7865 35.1183 -6
      vertex 54.4635 34.5734 -5
      vertex 52.7865 35.1183 -5
    endloop
  endfacet
  facet normal -0.309022 -0.951055 -0
    outer loop
      vertex 54.4635 34.5734 -5
      vertex 52.7865 35.1183 -6
      vertex 54.4635 34.5734 -6
    endloop
  endfacet
  facet normal -0.309022 0.951055 0
    outer loop
      vertex 54.4635 37.4266 -6
      vertex 52.7865 36.8817 -5
      vertex 54.4635 37.4266 -5
    endloop
  endfacet
  facet normal -0.309022 0.951055 0
    outer loop
      vertex 52.7865 36.8817 -5
      vertex 54.4635 37.4266 -6
      vertex 52.7865 36.8817 -6
    endloop
  endfacet
  facet normal -0.309022 0.951055 0
    outer loop
      vertex 54.4635 37.4266 0
      vertex 52.7865 36.8817 2
      vertex 54.4635 37.4266 2
    endloop
  endfacet
  facet normal -0.309022 0.951055 0
    outer loop
      vertex 52.7865 36.8817 2
      vertex 54.4635 37.4266 0
      vertex 52.7865 36.8817 0
    endloop
  endfacet
  facet normal 0.809013 0.587791 0
    outer loop
      vertex 55.5 36 -5
      vertex 54.4635 37.4266 -6
      vertex 54.4635 37.4266 -5
    endloop
  endfacet
  facet normal 0.809013 0.587791 0
    outer loop
      vertex 54.4635 37.4266 -6
      vertex 55.5 36 -5
      vertex 55.5 36 -6
    endloop
  endfacet
  facet normal 0.809013 0.587791 0
    outer loop
      vertex 55.5 36 2
      vertex 54.4635 37.4266 0
      vertex 54.4635 37.4266 2
    endloop
  endfacet
  facet normal 0.809013 0.587791 0
    outer loop
      vertex 54.4635 37.4266 0
      vertex 55.5 36 2
      vertex 55.5 36 0
    endloop
  endfacet
  facet normal -1 0 0
    outer loop
      vertex 52.7865 35.1183 0
      vertex 52.7865 36.8817 2
      vertex 52.7865 36.8817 0
    endloop
  endfacet
  facet normal -1 -0 0
    outer loop
      vertex 52.7865 36.8817 2
      vertex 52.7865 35.1183 0
      vertex 52.7865 35.1183 2
    endloop
  endfacet
  facet normal -1 0 0
    outer loop
      vertex 52.7865 35.1183 -6
      vertex 52.7865 36.8817 -5
      vertex 52.7865 36.8817 -6
    endloop
  endfacet
  facet normal -1 -0 0
    outer loop
      vertex 52.7865 36.8817 -5
      vertex 52.7865 35.1183 -6
      vertex 52.7865 35.1183 -5
    endloop
  endfacet
  facet normal 0 0 1
    outer loop
      vertex 54.4635 37.4266 2
      vertex 54.4635 34.5734 2
      vertex 55.5 36 2
    endloop
  endfacet
  facet normal -0 0 1
    outer loop
      vertex 52.7865 36.8817 2
      vertex 54.4635 34.5734 2
      vertex 54.4635 37.4266 2
    endloop
  endfacet
  facet normal 0 0 1
    outer loop
      vertex 54.4635 34.5734 2
      vertex 52.7865 36.8817 2
      vertex 52.7865 35.1183 2
    endloop
  endfacet
  facet normal 0.809013 -0.587791 0
    outer loop
      vertex 54.4635 34.5734 -5
      vertex 55.5 36 -6
      vertex 55.5 36 -5
    endloop
  endfacet
  facet normal 0.809013 -0.587791 0
    outer loop
      vertex 55.5 36 -6
      vertex 54.4635 34.5734 -5
      vertex 54.4635 34.5734 -6
    endloop
  endfacet
  facet normal 0.809013 -0.587791 0
    outer loop
      vertex 54.4635 34.5734 2
      vertex 55.5 36 0
      vertex 55.5 36 2
    endloop
  endfacet
  facet normal 0.809013 -0.587791 0
    outer loop
      vertex 55.5 36 0
      vertex 54.4635 34.5734 2
      vertex 54.4635 34.5734 0
    endloop
  endfacet
  facet normal 0 0 -1
    outer loop
      vertex 54.4635 34.5734 -6
      vertex 54.4635 37.4266 -6
      vertex 55.5 36 -6
    endloop
  endfacet
  facet normal 0 0 -1
    outer loop
      vertex 52.7865 35.1183 -6
      vertex 54.4635 37.4266 -6
      vertex 54.4635 34.5734 -6
    endloop
  endfacet
  facet normal 0 0 -1
    outer loop
      vertex 54.4635 37.4266 -6
      vertex 52.7865 35.1183 -6
      vertex 52.7865 36.8817 -6
    endloop
  endfacet
  facet normal -0.309022 -0.951055 0
    outer loop
      vertex -55.2135 35.1183 0
      vertex -53.5365 34.5734 2
      vertex -55.2135 35.1183 2
    endloop
  endfacet
  facet normal -0.309022 -0.951055 -0
    outer loop
      vertex -53.5365 34.5734 2
      vertex -55.2135 35.1183 0
      vertex -53.5365 34.5734 0
    endloop
  endfacet
  facet normal -0.309022 -0.951055 0
    outer loop
      vertex -55.2135 35.1183 -6
      vertex -53.5365 34.5734 -5
      vertex -55.2135 35.1183 -5
    endloop
  endfacet
  facet normal -0.309022 -0.951055 -0
    outer loop
      vertex -53.5365 34.5734 -5
      vertex -55.2135 35.1183 -6
      vertex -53.5365 34.5734 -6
    endloop
  endfacet
  facet normal 0 0 1
    outer loop
      vertex -53.5365 37.4266 2
      vertex -53.5365 34.5734 2
      vertex -52.5 36 2
    endloop
  endfacet
  facet normal -0 0 1
    outer loop
      vertex -55.2135 36.8817 2
      vertex -53.5365 34.5734 2
      vertex -53.5365 37.4266 2
    endloop
  endfacet
  facet normal 0 0 1
    outer loop
      vertex -53.5365 34.5734 2
      vertex -55.2135 36.8817 2
      vertex -55.2135 35.1183 2
    endloop
  endfacet
  facet normal -0.309022 0.951055 0
    outer loop
      vertex -53.5365 37.4266 0
      vertex -55.2135 36.8817 2
      vertex -53.5365 37.4266 2
    endloop
  endfacet
  facet normal -0.309022 0.951055 0
    outer loop
      vertex -55.2135 36.8817 2
      vertex -53.5365 37.4266 0
      vertex -55.2135 36.8817 0
    endloop
  endfacet
  facet normal -0.309022 0.951055 0
    outer loop
      vertex -53.5365 37.4266 -6
      vertex -55.2135 36.8817 -5
      vertex -53.5365 37.4266 -5
    endloop
  endfacet
  facet normal -0.309022 0.951055 0
    outer loop
      vertex -55.2135 36.8817 -5
      vertex -53.5365 37.4266 -6
      vertex -55.2135 36.8817 -6
    endloop
  endfacet
  facet normal 0.809013 0.587791 0
    outer loop
      vertex -52.5 36 -5
      vertex -53.5365 37.4266 -6
      vertex -53.5365 37.4266 -5
    endloop
  endfacet
  facet normal 0.809013 0.587791 0
    outer loop
      vertex -53.5365 37.4266 -6
      vertex -52.5 36 -5
      vertex -52.5 36 -6
    endloop
  endfacet
  facet normal 0.809013 0.587791 0
    outer loop
      vertex -52.5 36 2
      vertex -53.5365 37.4266 0
      vertex -53.5365 37.4266 2
    endloop
  endfacet
  facet normal 0.809013 0.587791 0
    outer loop
      vertex -53.5365 37.4266 0
      vertex -52.5 36 2
      vertex -52.5 36 0
    endloop
  endfacet
  facet normal -1 0 0
    outer loop
      vertex -55.2135 35.1183 0
      vertex -55.2135 36.8817 2
      vertex -55.2135 36.8817 0
    endloop
  endfacet
  facet normal -1 -0 0
    outer loop
      vertex -55.2135 36.8817 2
      vertex -55.2135 35.1183 0
      vertex -55.2135 35.1183 2
    endloop
  endfacet
  facet normal -1 0 0
    outer loop
      vertex -55.2135 35.1183 -6
      vertex -55.2135 36.8817 -5
      vertex -55.2135 36.8817 -6
    endloop
  endfacet
  facet normal -1 -0 0
    outer loop
      vertex -55.2135 36.8817 -5
      vertex -55.2135 35.1183 -6
      vertex -55.2135 35.1183 -5
    endloop
  endfacet
  facet normal 0.809013 -0.587791 0
    outer loop
      vertex -53.5365 34.5734 2
      vertex -52.5 36 0
      vertex -52.5 36 2
    endloop
  endfacet
  facet normal 0.809013 -0.587791 0
    outer loop
      vertex -52.5 36 0
      vertex -53.5365 34.5734 2
      vertex -53.5365 34.5734 0
    endloop
  endfacet
  facet normal 0.809013 -0.587791 0
    outer loop
      vertex -53.5365 34.5734 -5
      vertex -52.5 36 -6
      vertex -52.5 36 -5
    endloop
  endfacet
  facet normal 0.809013 -0.587791 0
    outer loop
      vertex -52.5 36 -6
      vertex -53.5365 34.5734 -5
      vertex -53.5365 34.5734 -6
    endloop
  endfacet
  facet normal 0 0 -1
    outer loop
      vertex -53.5365 34.5734 -6
      vertex -53.5365 37.4266 -6
      vertex -52.5 36 -6
    endloop
  endfacet
  facet normal 0 0 -1
    outer loop
      vertex -55.2135 35.1183 -6
      vertex -53.5365 37.4266 -6
      vertex -53.5365 34.5734 -6
    endloop
  endfacet
  facet normal 0 0 -1
    outer loop
      vertex -53.5365 37.4266 -6
      vertex -55.2135 35.1183 -6
      vertex -55.2135 36.8817 -6
    endloop
  endfacet
  facet normal -0.309022 -0.951055 0
    outer loop
      vertex 52.7865 -36.8817 0
      vertex 54.4635 -37.4266 2
      vertex 52.7865 -36.8817 2
    endloop
  endfacet
  facet normal -0.309022 -0.951055 -0
    outer loop
      vertex 54.4635 -37.4266 2
      vertex 52.7865 -36.8817 0
      vertex 54.4635 -37.4266 0
    endloop
  endfacet
  facet normal -0.309022 -0.951055 0
    outer loop
      vertex 52.7865 -36.8817 -6
      vertex 54.4635 -37.4266 -5
      vertex 52.7865 -36.8817 -5
    endloop
  endfacet
  facet normal -0.309022 -0.951055 -0
    outer loop
      vertex 54.4635 -37.4266 -5
      vertex 52.7865 -36.8817 -6
      vertex 54.4635 -37.4266 -6
    endloop
  endfacet
  facet normal -0.309022 0.951055 0
    outer loop
      vertex 54.4635 -34.5734 -6
      vertex 52.7865 -35.1183 -5
      vertex 54.4635 -34.5734 -5
    endloop
  endfacet
  facet normal -0.309022 0.951055 0
    outer loop
      vertex 52.7865 -35.1183 -5
      vertex 54.4635 -34.5734 -6
      vertex 52.7865 -35.1183 -6
    endloop
  endfacet
  facet normal -0.309022 0.951055 0
    outer loop
      vertex 54.4635 -34.5734 0
      vertex 52.7865 -35.1183 2
      vertex 54.4635 -34.5734 2
    endloop
  endfacet
  facet normal -0.309022 0.951055 0
    outer loop
      vertex 52.7865 -35.1183 2
      vertex 54.4635 -34.5734 0
      vertex 52.7865 -35.1183 0
    endloop
  endfacet
  facet normal 0.809013 0.587791 0
    outer loop
      vertex 55.5 -36 -5
      vertex 54.4635 -34.5734 -6
      vertex 54.4635 -34.5734 -5
    endloop
  endfacet
  facet normal 0.809013 0.587791 0
    outer loop
      vertex 54.4635 -34.5734 -6
      vertex 55.5 -36 -5
      vertex 55.5 -36 -6
    endloop
  endfacet
  facet normal 0.809013 0.587791 0
    outer loop
      vertex 55.5 -36 2
      vertex 54.4635 -34.5734 0
      vertex 54.4635 -34.5734 2
    endloop
  endfacet
  facet normal 0.809013 0.587791 0
    outer loop
      vertex 54.4635 -34.5734 0
      vertex 55.5 -36 2
      vertex 55.5 -36 0
    endloop
  endfacet
  facet normal -1 0 0
    outer loop
      vertex 52.7865 -36.8817 0
      vertex 52.7865 -35.1183 2
      vertex 52.7865 -35.1183 0
    endloop
  endfacet
  facet normal -1 -0 0
    outer loop
      vertex 52.7865 -35.1183 2
      vertex 52.7865 -36.8817 0
      vertex 52.7865 -36.8817 2
    endloop
  endfacet
  facet normal -1 0 0
    outer loop
      vertex 52.7865 -36.8817 -6
      vertex 52.7865 -35.1183 -5
      vertex 52.7865 -35.1183 -6
    endloop
  endfacet
  facet normal -1 -0 0
    outer loop
      vertex 52.7865 -35.1183 -5
      vertex 52.7865 -36.8817 -6
      vertex 52.7865 -36.8817 -5
    endloop
  endfacet
  facet normal 0 0 1
    outer loop
      vertex 54.4635 -34.5734 2
      vertex 54.4635 -37.4266 2
      vertex 55.5 -36 2
    endloop
  endfacet
  facet normal -0 0 1
    outer loop
      vertex 52.7865 -35.1183 2
      vertex 54.4635 -37.4266 2
      vertex 54.4635 -34.5734 2
    endloop
  endfacet
  facet normal 0 0 1
    outer loop
      vertex 54.4635 -37.4266 2
      vertex 52.7865 -35.1183 2
      vertex 52.7865 -36.8817 2
    endloop
  endfacet
  facet normal 0.809013 -0.587791 0
    outer loop
      vertex 54.4635 -37.4266 -5
      vertex 55.5 -36 -6
      vertex 55.5 -36 -5
    endloop
  endfacet
  facet normal 0.809013 -0.587791 0
    outer loop
      vertex 55.5 -36 -6
      vertex 54.4635 -37.4266 -5
      vertex 54.4635 -37.4266 -6
    endloop
  endfacet
  facet normal 0.809013 -0.587791 0
    outer loop
      vertex 54.4635 -37.4266 2
      vertex 55.5 -36 0
      vertex 55.5 -36 2
    endloop
  endfacet
  facet normal 0.809013 -0.587791 0
    outer loop
      vertex 55.5 -36 0
      vertex 54.4635 -37.4266 2
      vertex 54.4635 -37.4266 0
    endloop
  endfacet
  facet normal 0 0 -1
    outer loop
      vertex 54.4635 -37.4266 -6
      vertex 54.4635 -34.5734 -6
      vertex 55.5 -36 -6
    endloop
  endfacet
  facet normal 0 0 -1
    outer loop
      vertex 52.7865 -36.8817 -6
      vertex 54.4635 -34.5734 -6
      vertex 54.4635 -37.4266 -6
    endloop
  endfacet
  facet normal 0 0 -1
    outer loop
      vertex 54.4635 -34.5734 -6
      vertex 52.7865 -36.8817 -6
      vertex 52.7865 -35.1183 -6
    endloop
  endfacet
  facet normal -0.309022 -0.951055 0
    outer loop
      vertex -55.2135 -36.8817 0
      vertex -53.5365 -37.4266 2
      vertex -55.2135 -36.8817 2
    endloop
  endfacet
  facet normal -0.309022 -0.951055 -0
    outer loop
      vertex -53.5365 -37.4266 2
      vertex -55.2135 -36.8817 0
      vertex -53.5365 -37.4266 0
    endloop
  endfacet
  facet normal -0.309022 -0.951055 0
    outer loop
      vertex -55.2135 -36.8817 -6
      vertex -53.5365 -37.4266 -5
      vertex -55.2135 -36.8817 -5
    endloop
  endfacet
  facet normal -0.309022 -0.951055 -0
    outer loop
      vertex -53.5365 -37.4266 -5
      vertex -55.2135 -36.8817 -6
      vertex -53.5365 -37.4266 -6
    endloop
  endfacet
  facet normal -0.309022 0.951055 0
    outer loop
      vertex -53.5365 -34.5734 -6
      vertex -55.2135 -35.1183 -5
      vertex -53.5365 -34.5734 -5
    endloop
  endfacet
  facet normal -0.309022 0.951055 0
    outer loop
      vertex -55.2135 -35.1183 -5
      vertex -53.5365 -34.5734 -6
      vertex -55.2135 -35.1183 -6
    endloop
  endfacet
  facet normal -0.309022 0.951055 0
    outer loop
      vertex -53.5365 -34.5734 0
      vertex -55.2135 -35.1183 2
      vertex -53.5365 -34.5734 2
    endloop
  endfacet
  facet normal -0.309022 0.951055 0
    outer loop
      vertex -55.2135 -35.1183 2
      vertex -53.5365 -34.5734 0
      vertex -55.2135 -35.1183 0
    endloop
  endfacet
  facet normal 0.809013 0.587791 0
    outer loop
      vertex -52.5 -36 -5
      vertex -53.5365 -34.5734 -6
      vertex -53.5365 -34.5734 -5
    endloop
  endfacet
  facet normal 0.809013 0.587791 0
    outer loop
      vertex -53.5365 -34.5734 -6
      vertex -52.5 -36 -5
      vertex -52.5 -36 -6
    endloop
  endfacet
  facet normal 0.809013 0.587791 0
    outer loop
      vertex -52.5 -36 2
      vertex -53.5365 -34.5734 0
      vertex -53.5365 -34.5734 2
    endloop
  endfacet
  facet normal 0.809013 0.587791 0
    outer loop
      vertex -53.5365 -34.5734 0
      vertex -52.5 -36 2
      vertex -52.5 -36 0
    endloop
  endfacet
  facet normal -1 0 0
    outer loop
      vertex -55.2135 -36.8817 0
      vertex -55.2135 -35.1183 2
      vertex -55.2135 -35.1183 0
    endloop
  endfacet
  facet normal -1 -0 0
    outer loop
      vertex -55.2135 -35.1183 2
      vertex -55.2135 -36.8817 0
      vertex -55.2135 -36.8817 2
    endloop
  endfacet
  facet normal -1 0 0
    outer loop
      vertex -55.2135 -36.8817 -6
      vertex -55.2135 -35.1183 -5
      vertex -55.2135 -35.1183 -6
    endloop
  endfacet
  facet normal -1 -0 0
    outer loop
      vertex -55.2135 -35.1183 -5
      vertex -55.2135 -36.8817 -6
      vertex -55.2135 -36.8817 -5
    endloop
  endfacet
  facet normal 0 0 1
    outer loop
      vertex -53.5365 -34.5734 2
      vertex -53.5365 -37.4266 2
      vertex -52.5 -36 2
    endloop
  endfacet
  facet normal -0 0 1
    outer loop
      vertex -55.2135 -35.1183 2
      vertex -53.5365 -37.4266 2
      vertex -53.5365 -34.5734 2
    endloop
  endfacet
  facet normal 0 0 1
    outer loop
      vertex -53.5365 -37.4266 2
      vertex -55.2135 -35.1183 2
      vertex -55.2135 -36.8817 2
    endloop
  endfacet
  facet normal 0.809013 -0.587791 0
    outer loop
      vertex -53.5365 -37.4266 -5
      vertex -52.5 -36 -6
      vertex -52.5 -36 -5
    endloop
  endfacet
  facet normal 0.809013 -0.587791 0
    outer loop
      vertex -52.5 -36 -6
      vertex -53.5365 -37.4266 -5
      vertex -53.5365 -37.4266 -6
    endloop
  endfacet
  facet normal 0.809013 -0.587791 0
    outer loop
      vertex -53.5365 -37.4266 2
      vertex -52.5 -36 0
      vertex -52.5 -36 2
    endloop
  endfacet
  facet normal 0.809013 -0.587791 0
    outer loop
      vertex -52.5 -36 0
      vertex -53.5365 -37.4266 2
      vertex -53.5365 -37.4266 0
    endloop
  endfacet
  facet normal 0 0 -1
    outer loop
      vertex -53.5365 -37.4266 -6
      vertex -53.5365 -34.5734 -6
      vertex -52.5 -36 -6
    endloop
  endfacet
  facet normal 0 0 -1
    outer loop
      vertex -55.2135 -36.8817 -6
      vertex -53.5365 -34.5734 -6
      vertex -53.5365 -37.4266 -6
    endloop
  endfacet
  facet normal 0 0 -1
    outer loop
      vertex -53.5365 -34.5734 -6
      vertex -55.2135 -36.8817 -6
      vertex -55.2135 -35.1183 -6
    endloop
  endfacet
  facet normal 0 0 1
    outer loop
      vertex 55.5 36 0
      vertex 57 36 0
      vertex 56.4271 37.7634 0
    endloop
  endfacet
  facet normal 0 0 1
    outer loop
      vertex 57 36 0
      vertex 55.5 36 0
      vertex 56.4271 34.2366 0
    endloop
  endfacet
  facet normal 0 0 1
    outer loop
      vertex 54.4635 37.4266 0
      vertex 56.4271 37.7634 0
      vertex 54.9271 38.8532 0
    endloop
  endfacet
  facet normal 0 0 1
    outer loop
      vertex 56.4271 37.7634 0
      vertex 54.4635 37.4266 0
      vertex 55.5 36 0
    endloop
  endfacet
  facet normal -0 0 1
    outer loop
      vertex 53.0729 38.8532 0
      vertex 54.4635 37.4266 0
      vertex 54.9271 38.8532 0
    endloop
  endfacet
  facet normal 0 0 1
    outer loop
      vertex 53.0729 38.8532 0
      vertex 52.7865 36.8817 0
      vertex 54.4635 37.4266 0
    endloop
  endfacet
  facet normal 0 0 1
    outer loop
      vertex 51 36 0
      vertex 52.7865 36.8817 0
      vertex 51.5729 37.7634 0
    endloop
  endfacet
  facet normal -0 0 1
    outer loop
      vertex 51.5729 37.7634 0
      vertex 52.7865 36.8817 0
      vertex 53.0729 38.8532 0
    endloop
  endfacet
  facet normal -0 0 1
    outer loop
      vertex 54.4635 34.5734 0
      vertex 56.4271 34.2366 0
      vertex 55.5 36 0
    endloop
  endfacet
  facet normal 0 0 1
    outer loop
      vertex 56.4271 34.2366 0
      vertex 54.4635 34.5734 0
      vertex 54.9271 33.1468 0
    endloop
  endfacet
  facet normal 0 0 1
    outer loop
      vertex 54.4635 34.5734 0
      vertex 53.0729 33.1468 0
      vertex 54.9271 33.1468 0
    endloop
  endfacet
  facet normal 0 0 1
    outer loop
      vertex 52.7865 35.1183 0
      vertex 53.0729 33.1468 0
      vertex 54.4635 34.5734 0
    endloop
  endfacet
  facet normal 0 0 1
    outer loop
      vertex 52.7865 36.8817 0
      vertex 51 36 0
      vertex 52.7865 35.1183 0
    endloop
  endfacet
  facet normal 0 0 1
    outer loop
      vertex 52.7865 35.1183 0
      vertex 51.5729 34.2366 0
      vertex 53.0729 33.1468 0
    endloop
  endfacet
  facet normal 0 0 1
    outer loop
      vertex 52.7865 35.1183 0
      vertex 51 36 0
      vertex 51.5729 34.2366 0
    endloop
  endfacet
  facet normal 0.58778 0.809021 -0
    outer loop
      vertex 56.4271 37.7634 -3.25
      vertex 54.9271 38.8532 0
      vertex 56.4271 37.7634 0
    endloop
  endfacet
  facet normal 0.58778 0.809021 0
    outer loop
      vertex 54.9271 38.8532 0
      vertex 56.4271 37.7634 -3.25
      vertex 54.9271 38.8532 -3.25
    endloop
  endfacet
  facet normal 0.951067 0.308986 0
    outer loop
      vertex 57 36 0
      vertex 56.4271 37.7634 -3.25
      vertex 56.4271 37.7634 0
    endloop
  endfacet
  facet normal 0.951067 0.308986 0
    outer loop
      vertex 56.4271 37.7634 -3.25
      vertex 57 36 0
      vertex 57 36 -3.25
    endloop
  endfacet
  facet normal 0 1 -0
    outer loop
      vertex 54.9271 38.8532 -3.25
      vertex 53.0729 38.8532 0
      vertex 54.9271 38.8532 0
    endloop
  endfacet
  facet normal 0 1 0
    outer loop
      vertex 53.0729 38.8532 0
      vertex 54.9271 38.8532 -3.25
      vertex 53.0729 38.8532 -3.25
    endloop
  endfacet
  facet normal -0.951067 0.308986 0
    outer loop
      vertex 51 36 -3.25
      vertex 51.5729 37.7634 0
      vertex 51.5729 37.7634 -3.25
    endloop
  endfacet
  facet normal -0.951067 0.308986 0
    outer loop
      vertex 51.5729 37.7634 0
      vertex 51 36 -3.25
      vertex 51 36 0
    endloop
  endfacet
  facet normal -0.58778 0.809021 0
    outer loop
      vertex 53.0729 38.8532 -3.25
      vertex 51.5729 37.7634 0
      vertex 53.0729 38.8532 0
    endloop
  endfacet
  facet normal -0.58778 0.809021 0
    outer loop
      vertex 51.5729 37.7634 0
      vertex 53.0729 38.8532 -3.25
      vertex 51.5729 37.7634 -3.25
    endloop
  endfacet
  facet normal -0.951067 -0.308986 0
    outer loop
      vertex 51.5729 34.2366 -3.25
      vertex 51 36 0
      vertex 51 36 -3.25
    endloop
  endfacet
  facet normal -0.951067 -0.308986 0
    outer loop
      vertex 51 36 0
      vertex 51.5729 34.2366 -3.25
      vertex 51.5729 34.2366 0
    endloop
  endfacet
  facet normal 0.58778 -0.809021 0
    outer loop
      vertex 54.9271 33.1468 -3.25
      vertex 56.4271 34.2366 0
      vertex 54.9271 33.1468 0
    endloop
  endfacet
  facet normal 0.58778 -0.809021 0
    outer loop
      vertex 56.4271 34.2366 0
      vertex 54.9271 33.1468 -3.25
      vertex 56.4271 34.2366 -3.25
    endloop
  endfacet
  facet normal 0 -1 0
    outer loop
      vertex 53.0729 33.1468 -3.25
      vertex 54.9271 33.1468 0
      vertex 53.0729 33.1468 0
    endloop
  endfacet
  facet normal 0 -1 -0
    outer loop
      vertex 54.9271 33.1468 0
      vertex 53.0729 33.1468 -3.25
      vertex 54.9271 33.1468 -3.25
    endloop
  endfacet
  facet normal -0.58778 -0.809021 0
    outer loop
      vertex 51.5729 34.2366 -3.25
      vertex 53.0729 33.1468 0
      vertex 51.5729 34.2366 0
    endloop
  endfacet
  facet normal -0.58778 -0.809021 -0
    outer loop
      vertex 53.0729 33.1468 0
      vertex 51.5729 34.2366 -3.25
      vertex 53.0729 33.1468 -3.25
    endloop
  endfacet
  facet normal 0.951067 -0.308986 0
    outer loop
      vertex 56.4271 34.2366 0
      vertex 57 36 -3.25
      vertex 57 36 0
    endloop
  endfacet
  facet normal 0.951067 -0.308986 0
    outer loop
      vertex 57 36 -3.25
      vertex 56.4271 34.2366 0
      vertex 56.4271 34.2366 -3.25
    endloop
  endfacet
  facet normal 0 0 1
    outer loop
      vertex -52.5 36 0
      vertex -51 36 0
      vertex -51.5729 37.7634 0
    endloop
  endfacet
  facet normal 0 0 1
    outer loop
      vertex -51 36 0
      vertex -52.5 36 0
      vertex -51.5729 34.2366 0
    endloop
  endfacet
  facet normal 0 0 1
    outer loop
      vertex -53.5365 37.4266 0
      vertex -51.5729 37.7634 0
      vertex -53.0729 38.8532 0
    endloop
  endfacet
  facet normal 0 0 1
    outer loop
      vertex -51.5729 37.7634 0
      vertex -53.5365 37.4266 0
      vertex -52.5 36 0
    endloop
  endfacet
  facet normal -0 0 1
    outer loop
      vertex -54.9271 38.8532 0
      vertex -53.5365 37.4266 0
      vertex -53.0729 38.8532 0
    endloop
  endfacet
  facet normal 0 0 1
    outer loop
      vertex -54.9271 38.8532 0
      vertex -55.2135 36.8817 0
      vertex -53.5365 37.4266 0
    endloop
  endfacet
  facet normal 0 0 1
    outer loop
      vertex -57 36 0
      vertex -55.2135 36.8817 0
      vertex -56.4271 37.7634 0
    endloop
  endfacet
  facet normal -0 0 1
    outer loop
      vertex -56.4271 37.7634 0
      vertex -55.2135 36.8817 0
      vertex -54.9271 38.8532 0
    endloop
  endfacet
  facet normal -0 0 1
    outer loop
      vertex -53.5365 34.5734 0
      vertex -51.5729 34.2366 0
      vertex -52.5 36 0
    endloop
  endfacet
  facet normal 0 0 1
    outer loop
      vertex -51.5729 34.2366 0
      vertex -53.5365 34.5734 0
      vertex -53.0729 33.1468 0
    endloop
  endfacet
  facet normal 0 0 1
    outer loop
      vertex -53.5365 34.5734 0
      vertex -54.9271 33.1468 0
      vertex -53.0729 33.1468 0
    endloop
  endfacet
  facet normal 0 0 1
    outer loop
      vertex -55.2135 35.1183 0
      vertex -54.9271 33.1468 0
      vertex -53.5365 34.5734 0
    endloop
  endfacet
  facet normal 0 0 1
    outer loop
      vertex -55.2135 36.8817 0
      vertex -57 36 0
      vertex -55.2135 35.1183 0
    endloop
  endfacet
  facet normal 0 0 1
    outer loop
      vertex -55.2135 35.1183 0
      vertex -56.4271 34.2366 0
      vertex -54.9271 33.1468 0
    endloop
  endfacet
  facet normal 0 0 1
    outer loop
      vertex -55.2135 35.1183 0
      vertex -57 36 0
      vertex -56.4271 34.2366 0
    endloop
  endfacet
  facet normal -0.951067 -0.308986 0
    outer loop
      vertex -56.4271 34.2366 -3.25
      vertex -57 36 0
      vertex -57 36 -3.25
    endloop
  endfacet
  facet normal -0.951067 -0.308986 0
    outer loop
      vertex -57 36 0
      vertex -56.4271 34.2366 -3.25
      vertex -56.4271 34.2366 0
    endloop
  endfacet
  facet normal 0.58778 0.809021 -0
    outer loop
      vertex -51.5729 37.7634 -3.25
      vertex -53.0729 38.8532 0
      vertex -51.5729 37.7634 0
    endloop
  endfacet
  facet normal 0.58778 0.809021 0
    outer loop
      vertex -53.0729 38.8532 0
      vertex -51.5729 37.7634 -3.25
      vertex -53.0729 38.8532 -3.25
    endloop
  endfacet
  facet normal 0.951067 0.308986 0
    outer loop
      vertex -51 36 0
      vertex -51.5729 37.7634 -3.25
      vertex -51.5729 37.7634 0
    endloop
  endfacet
  facet normal 0.951067 0.308986 0
    outer loop
      vertex -51.5729 37.7634 -3.25
      vertex -51 36 0
      vertex -51 36 -3.25
    endloop
  endfacet
  facet normal 0 1 -0
    outer loop
      vertex -53.0729 38.8532 -3.25
      vertex -54.9271 38.8532 0
      vertex -53.0729 38.8532 0
    endloop
  endfacet
  facet normal 0 1 0
    outer loop
      vertex -54.9271 38.8532 0
      vertex -53.0729 38.8532 -3.25
      vertex -54.9271 38.8532 -3.25
    endloop
  endfacet
  facet normal 0.951067 -0.308986 0
    outer loop
      vertex -51.5729 34.2366 0
      vertex -51 36 -3.25
      vertex -51 36 0
    endloop
  endfacet
  facet normal 0.951067 -0.308986 0
    outer loop
      vertex -51 36 -3.25
      vertex -51.5729 34.2366 0
      vertex -51.5729 34.2366 -3.25
    endloop
  endfacet
  facet normal -0.58778 0.809021 0
    outer loop
      vertex -54.9271 38.8532 -3.25
      vertex -56.4271 37.7634 0
      vertex -54.9271 38.8532 0
    endloop
  endfacet
  facet normal -0.58778 0.809021 0
    outer loop
      vertex -56.4271 37.7634 0
      vertex -54.9271 38.8532 -3.25
      vertex -56.4271 37.7634 -3.25
    endloop
  endfacet
  facet normal -0.58778 -0.809021 0
    outer loop
      vertex -56.4271 34.2366 -3.25
      vertex -54.9271 33.1468 0
      vertex -56.4271 34.2366 0
    endloop
  endfacet
  facet normal -0.58778 -0.809021 -0
    outer loop
      vertex -54.9271 33.1468 0
      vertex -56.4271 34.2366 -3.25
      vertex -54.9271 33.1468 -3.25
    endloop
  endfacet
  facet normal 0 -1 0
    outer loop
      vertex -54.9271 33.1468 -3.25
      vertex -53.0729 33.1468 0
      vertex -54.9271 33.1468 0
    endloop
  endfacet
  facet normal 0 -1 -0
    outer loop
      vertex -53.0729 33.1468 0
      vertex -54.9271 33.1468 -3.25
      vertex -53.0729 33.1468 -3.25
    endloop
  endfacet
  facet normal 0.58778 -0.809021 0
    outer loop
      vertex -53.0729 33.1468 -3.25
      vertex -51.5729 34.2366 0
      vertex -53.0729 33.1468 0
    endloop
  endfacet
  facet normal 0.58778 -0.809021 0
    outer loop
      vertex -51.5729 34.2366 0
      vertex -53.0729 33.1468 -3.25
      vertex -51.5729 34.2366 -3.25
    endloop
  endfacet
  facet normal -0.951067 0.308986 0
    outer loop
      vertex -57 36 -3.25
      vertex -56.4271 37.7634 0
      vertex -56.4271 37.7634 -3.25
    endloop
  endfacet
  facet normal -0.951067 0.308986 0
    outer loop
      vertex -56.4271 37.7634 0
      vertex -57 36 -3.25
      vertex -57 36 0
    endloop
  endfacet
  facet normal -0.951067 0.308986 0
    outer loop
      vertex 51 -36 -3.25
      vertex 51.5729 -34.2366 0
      vertex 51.5729 -34.2366 -3.25
    endloop
  endfacet
  facet normal -0.951067 0.308986 0
    outer loop
      vertex 51.5729 -34.2366 0
      vertex 51 -36 -3.25
      vertex 51 -36 0
    endloop
  endfacet
  facet normal -0.58778 -0.809021 0
    outer loop
      vertex 51.5729 -37.7634 -3.25
      vertex 53.0729 -38.8532 0
      vertex 51.5729 -37.7634 0
    endloop
  endfacet
  facet normal -0.58778 -0.809021 -0
    outer loop
      vertex 53.0729 -38.8532 0
      vertex 51.5729 -37.7634 -3.25
      vertex 53.0729 -38.8532 -3.25
    endloop
  endfacet
  facet normal 0.58778 0.809021 -0
    outer loop
      vertex 56.4271 -34.2366 -3.25
      vertex 54.9271 -33.1468 0
      vertex 56.4271 -34.2366 0
    endloop
  endfacet
  facet normal 0.58778 0.809021 0
    outer loop
      vertex 54.9271 -33.1468 0
      vertex 56.4271 -34.2366 -3.25
      vertex 54.9271 -33.1468 -3.25
    endloop
  endfacet
  facet normal 0.951067 0.308986 0
    outer loop
      vertex 57 -36 0
      vertex 56.4271 -34.2366 -3.25
      vertex 56.4271 -34.2366 0
    endloop
  endfacet
  facet normal 0.951067 0.308986 0
    outer loop
      vertex 56.4271 -34.2366 -3.25
      vertex 57 -36 0
      vertex 57 -36 -3.25
    endloop
  endfacet
  facet normal 0 1 -0
    outer loop
      vertex 54.9271 -33.1468 -3.25
      vertex 53.0729 -33.1468 0
      vertex 54.9271 -33.1468 0
    endloop
  endfacet
  facet normal 0 1 0
    outer loop
      vertex 53.0729 -33.1468 0
      vertex 54.9271 -33.1468 -3.25
      vertex 53.0729 -33.1468 -3.25
    endloop
  endfacet
  facet normal 0.58778 -0.809021 0
    outer loop
      vertex 54.9271 -38.8532 -3.25
      vertex 56.4271 -37.7634 0
      vertex 54.9271 -38.8532 0
    endloop
  endfacet
  facet normal 0.58778 -0.809021 0
    outer loop
      vertex 56.4271 -37.7634 0
      vertex 54.9271 -38.8532 -3.25
      vertex 56.4271 -37.7634 -3.25
    endloop
  endfacet
  facet normal 0 -1 0
    outer loop
      vertex 53.0729 -38.8532 -3.25
      vertex 54.9271 -38.8532 0
      vertex 53.0729 -38.8532 0
    endloop
  endfacet
  facet normal 0 -1 -0
    outer loop
      vertex 54.9271 -38.8532 0
      vertex 53.0729 -38.8532 -3.25
      vertex 54.9271 -38.8532 -3.25
    endloop
  endfacet
  facet normal -0.58778 0.809021 0
    outer loop
      vertex 53.0729 -33.1468 -3.25
      vertex 51.5729 -34.2366 0
      vertex 53.0729 -33.1468 0
    endloop
  endfacet
  facet normal -0.58778 0.809021 0
    outer loop
      vertex 51.5729 -34.2366 0
      vertex 53.0729 -33.1468 -3.25
      vertex 51.5729 -34.2366 -3.25
    endloop
  endfacet
  facet normal 0.951067 -0.308986 0
    outer loop
      vertex 56.4271 -37.7634 0
      vertex 57 -36 -3.25
      vertex 57 -36 0
    endloop
  endfacet
  facet normal 0.951067 -0.308986 0
    outer loop
      vertex 57 -36 -3.25
      vertex 56.4271 -37.7634 0
      vertex 56.4271 -37.7634 -3.25
    endloop
  endfacet
  facet normal -0.951067 -0.308986 0
    outer loop
      vertex 51.5729 -37.7634 -3.25
      vertex 51 -36 0
      vertex 51 -36 -3.25
    endloop
  endfacet
  facet normal -0.951067 -0.308986 0
    outer loop
      vertex 51 -36 0
      vertex 51.5729 -37.7634 -3.25
      vertex 51.5729 -37.7634 0
    endloop
  endfacet
  facet normal 0 0 1
    outer loop
      vertex 55.5 -36 0
      vertex 57 -36 0
      vertex 56.4271 -34.2366 0
    endloop
  endfacet
  facet normal 0 0 1
    outer loop
      vertex 57 -36 0
      vertex 55.5 -36 0
      vertex 56.4271 -37.7634 0
    endloop
  endfacet
  facet normal 0 0 1
    outer loop
      vertex 54.4635 -34.5734 0
      vertex 56.4271 -34.2366 0
      vertex 54.9271 -33.1468 0
    endloop
  endfacet
  facet normal 0 0 1
    outer loop
      vertex 56.4271 -34.2366 0
      vertex 54.4635 -34.5734 0
      vertex 55.5 -36 0
    endloop
  endfacet
  facet normal -0 0 1
    outer loop
      vertex 53.0729 -33.1468 0
      vertex 54.4635 -34.5734 0
      vertex 54.9271 -33.1468 0
    endloop
  endfacet
  facet normal 0 0 1
    outer loop
      vertex 53.0729 -33.1468 0
      vertex 52.7865 -35.1183 0
      vertex 54.4635 -34.5734 0
    endloop
  endfacet
  facet normal 0 0 1
    outer loop
      vertex 51 -36 0
      vertex 52.7865 -35.1183 0
      vertex 51.5729 -34.2366 0
    endloop
  endfacet
  facet normal -0 0 1
    outer loop
      vertex 51.5729 -34.2366 0
      vertex 52.7865 -35.1183 0
      vertex 53.0729 -33.1468 0
    endloop
  endfacet
  facet normal -0 0 1
    outer loop
      vertex 54.4635 -37.4266 0
      vertex 56.4271 -37.7634 0
      vertex 55.5 -36 0
    endloop
  endfacet
  facet normal 0 0 1
    outer loop
      vertex 56.4271 -37.7634 0
      vertex 54.4635 -37.4266 0
      vertex 54.9271 -38.8532 0
    endloop
  endfacet
  facet normal 0 0 1
    outer loop
      vertex 54.4635 -37.4266 0
      vertex 53.0729 -38.8532 0
      vertex 54.9271 -38.8532 0
    endloop
  endfacet
  facet normal 0 0 1
    outer loop
      vertex 52.7865 -36.8817 0
      vertex 53.0729 -38.8532 0
      vertex 54.4635 -37.4266 0
    endloop
  endfacet
  facet normal 0 0 1
    outer loop
      vertex 52.7865 -35.1183 0
      vertex 51 -36 0
      vertex 52.7865 -36.8817 0
    endloop
  endfacet
  facet normal 0 0 1
    outer loop
      vertex 52.7865 -36.8817 0
      vertex 51.5729 -37.7634 0
      vertex 53.0729 -38.8532 0
    endloop
  endfacet
  facet normal 0 0 1
    outer loop
      vertex 52.7865 -36.8817 0
      vertex 51 -36 0
      vertex 51.5729 -37.7634 0
    endloop
  endfacet
  facet normal -0.951067 -0.308986 0
    outer loop
      vertex -56.4271 -37.7634 -3.25
      vertex -57 -36 0
      vertex -57 -36 -3.25
    endloop
  endfacet
  facet normal -0.951067 -0.308986 0
    outer loop
      vertex -57 -36 0
      vertex -56.4271 -37.7634 -3.25
      vertex -56.4271 -37.7634 0
    endloop
  endfacet
  facet normal 0.58778 0.809021 -0
    outer loop
      vertex -51.5729 -34.2366 -3.25
      vertex -53.0729 -33.1468 0
      vertex -51.5729 -34.2366 0
    endloop
  endfacet
  facet normal 0.58778 0.809021 0
    outer loop
      vertex -53.0729 -33.1468 0
      vertex -51.5729 -34.2366 -3.25
      vertex -53.0729 -33.1468 -3.25
    endloop
  endfacet
  facet normal 0.951067 0.308986 0
    outer loop
      vertex -51 -36 0
      vertex -51.5729 -34.2366 -3.25
      vertex -51.5729 -34.2366 0
    endloop
  endfacet
  facet normal 0.951067 0.308986 0
    outer loop
      vertex -51.5729 -34.2366 -3.25
      vertex -51 -36 0
      vertex -51 -36 -3.25
    endloop
  endfacet
  facet normal 0 1 -0
    outer loop
      vertex -53.0729 -33.1468 -3.25
      vertex -54.9271 -33.1468 0
      vertex -53.0729 -33.1468 0
    endloop
  endfacet
  facet normal 0 1 0
    outer loop
      vertex -54.9271 -33.1468 0
      vertex -53.0729 -33.1468 -3.25
      vertex -54.9271 -33.1468 -3.25
    endloop
  endfacet
  facet normal -0.58778 0.809021 0
    outer loop
      vertex -54.9271 -33.1468 -3.25
      vertex -56.4271 -34.2366 0
      vertex -54.9271 -33.1468 0
    endloop
  endfacet
  facet normal -0.58778 0.809021 0
    outer loop
      vertex -56.4271 -34.2366 0
      vertex -54.9271 -33.1468 -3.25
      vertex -56.4271 -34.2366 -3.25
    endloop
  endfacet
  facet normal 0 0 1
    outer loop
      vertex -52.5 -36 0
      vertex -51 -36 0
      vertex -51.5729 -34.2366 0
    endloop
  endfacet
  facet normal 0 0 1
    outer loop
      vertex -51 -36 0
      vertex -52.5 -36 0
      vertex -51.5729 -37.7634 0
    endloop
  endfacet
  facet normal 0 0 1
    outer loop
      vertex -53.5365 -34.5734 0
      vertex -51.5729 -34.2366 0
      vertex -53.0729 -33.1468 0
    endloop
  endfacet
  facet normal 0 0 1
    outer loop
      vertex -51.5729 -34.2366 0
      vertex -53.5365 -34.5734 0
      vertex -52.5 -36 0
    endloop
  endfacet
  facet normal -0 0 1
    outer loop
      vertex -54.9271 -33.1468 0
      vertex -53.5365 -34.5734 0
      vertex -53.0729 -33.1468 0
    endloop
  endfacet
  facet normal 0 0 1
    outer loop
      vertex -54.9271 -33.1468 0
      vertex -55.2135 -35.1183 0
      vertex -53.5365 -34.5734 0
    endloop
  endfacet
  facet normal 0 0 1
    outer loop
      vertex -57 -36 0
      vertex -55.2135 -35.1183 0
      vertex -56.4271 -34.2366 0
    endloop
  endfacet
  facet normal -0 0 1
    outer loop
      vertex -56.4271 -34.2366 0
      vertex -55.2135 -35.1183 0
      vertex -54.9271 -33.1468 0
    endloop
  endfacet
  facet normal -0 0 1
    outer loop
      vertex -53.5365 -37.4266 0
      vertex -51.5729 -37.7634 0
      vertex -52.5 -36 0
    endloop
  endfacet
  facet normal 0 0 1
    outer loop
      vertex -51.5729 -37.7634 0
      vertex -53.5365 -37.4266 0
      vertex -53.0729 -38.8532 0
    endloop
  endfacet
  facet normal 0 0 1
    outer loop
      vertex -53.5365 -37.4266 0
      vertex -54.9271 -38.8532 0
      vertex -53.0729 -38.8532 0
    endloop
  endfacet
  facet normal 0 0 1
    outer loop
      vertex -55.2135 -36.8817 0
      vertex -54.9271 -38.8532 0
      vertex -53.5365 -37.4266 0
    endloop
  endfacet
  facet normal 0 0 1
    outer loop
      vertex -55.2135 -35.1183 0
      vertex -57 -36 0
      vertex -55.2135 -36.8817 0
    endloop
  endfacet
  facet normal 0 0 1
    outer loop
      vertex -55.2135 -36.8817 0
      vertex -56.4271 -37.7634 0
      vertex -54.9271 -38.8532 0
    endloop
  endfacet
  facet normal 0 0 1
    outer loop
      vertex -55.2135 -36.8817 0
      vertex -57 -36 0
      vertex -56.4271 -37.7634 0
    endloop
  endfacet
  facet normal 0.951067 -0.308986 0
    outer loop
      vertex -51.5729 -37.7634 0
      vertex -51 -36 -3.25
      vertex -51 -36 0
    endloop
  endfacet
  facet normal 0.951067 -0.308986 0
    outer loop
      vertex -51 -36 -3.25
      vertex -51.5729 -37.7634 0
      vertex -51.5729 -37.7634 -3.25
    endloop
  endfacet
  facet normal -0.58778 -0.809021 0
    outer loop
      vertex -56.4271 -37.7634 -3.25
      vertex -54.9271 -38.8532 0
      vertex -56.4271 -37.7634 0
    endloop
  endfacet
  facet normal -0.58778 -0.809021 -0
    outer loop
      vertex -54.9271 -38.8532 0
      vertex -56.4271 -37.7634 -3.25
      vertex -54.9271 -38.8532 -3.25
    endloop
  endfacet
  facet normal 0 -1 0
    outer loop
      vertex -54.9271 -38.8532 -3.25
      vertex -53.0729 -38.8532 0
      vertex -54.9271 -38.8532 0
    endloop
  endfacet
  facet normal 0 -1 -0
    outer loop
      vertex -53.0729 -38.8532 0
      vertex -54.9271 -38.8532 -3.25
      vertex -53.0729 -38.8532 -3.25
    endloop
  endfacet
  facet normal 0.58778 -0.809021 0
    outer loop
      vertex -53.0729 -38.8532 -3.25
      vertex -51.5729 -37.7634 0
      vertex -53.0729 -38.8532 0
    endloop
  endfacet
  facet normal 0.58778 -0.809021 0
    outer loop
      vertex -51.5729 -37.7634 0
      vertex -53.0729 -38.8532 -3.25
      vertex -51.5729 -37.7634 -3.25
    endloop
  endfacet
  facet normal -0.951067 0.308986 0
    outer loop
      vertex -57 -36 -3.25
      vertex -56.4271 -34.2366 0
      vertex -56.4271 -34.2366 -3.25
    endloop
  endfacet
  facet normal -0.951067 0.308986 0
    outer loop
      vertex -56.4271 -34.2366 0
      vertex -57 -36 -3.25
      vertex -57 -36 0
    endloop
  endfacet
endsolid OpenSCAD_Model
