solid OpenSCAD_Model
  facet normal 0 0 -1
    outer loop
      vertex -62.5 -43 -5
      vertex 62.5 43 -5
      vertex 62.5 -43 -5
    endloop
  endfacet
  facet normal -0 0 -1
    outer loop
      vertex 62.5 43 -5
      vertex -62.5 -43 -5
      vertex -62.5 43 -5
    endloop
  endfacet
  facet normal -0 0 1
    outer loop
      vertex -62.5 43 5
      vertex -59.5 40 5
      vertex -59.5 43 5
    endloop
  endfacet
  facet normal 0 0 1
    outer loop
      vertex -59.5 40 5
      vertex -62.5 43 5
      vertex -59.5 -40 5
    endloop
  endfacet
  facet normal 0 0 1
    outer loop
      vertex 59.5 40 5
      vertex 62.5 43 5
      vertex 59.5 43 5
    endloop
  endfacet
  facet normal 0 0 1
    outer loop
      vertex 62.5 43 5
      vertex 59.5 40 5
      vertex 62.5 -43 5
    endloop
  endfacet
  facet normal -0 0 1
    outer loop
      vertex 59.5 -40 5
      vertex 62.5 -43 5
      vertex 59.5 40 5
    endloop
  endfacet
  facet normal -0 0 1
    outer loop
      vertex -59.5 -40 5
      vertex 62.5 -43 5
      vertex 59.5 -40 5
    endloop
  endfacet
  facet normal 0 0 1
    outer loop
      vertex -59.5 -40 5
      vertex -62.5 -43 5
      vertex 62.5 -43 5
    endloop
  endfacet
  facet normal 0 0 1
    outer loop
      vertex -62.5 -43 5
      vertex -59.5 -40 5
      vertex -62.5 43 5
    endloop
  endfacet
  facet normal 0 1 0
    outer loop
      vertex 62.5 43 5
      vertex 59.5 43 -0.5
      vertex 59.5 43 5
    endloop
  endfacet
  facet normal 0 1 0
    outer loop
      vertex 59.5 43 -0.5
      vertex 62.5 43 -5
      vertex -59.5 43 -0.5
    endloop
  endfacet
  facet normal 0 1 -0
    outer loop
      vertex 62.5 43 -5
      vertex 59.5 43 -0.5
      vertex 62.5 43 5
    endloop
  endfacet
  facet normal 0 1 -0
    outer loop
      vertex -59.5 43 -0.5
      vertex -62.5 43 5
      vertex -59.5 43 5
    endloop
  endfacet
  facet normal 0 1 0
    outer loop
      vertex -59.5 43 -0.5
      vertex -62.5 43 -5
      vertex -62.5 43 5
    endloop
  endfacet
  facet normal 0 1 0
    outer loop
      vertex -62.5 43 -5
      vertex -59.5 43 -0.5
      vertex 62.5 43 -5
    endloop
  endfacet
  facet normal -1 0 0
    outer loop
      vertex -62.5 -43 -5
      vertex -62.5 43 5
      vertex -62.5 43 -5
    endloop
  endfacet
  facet normal -1 -0 0
    outer loop
      vertex -62.5 43 5
      vertex -62.5 -43 -5
      vertex -62.5 -43 5
    endloop
  endfacet
  facet normal 0 -1 0
    outer loop
      vertex -62.5 -43 -5
      vertex 62.5 -43 5
      vertex -62.5 -43 5
    endloop
  endfacet
  facet normal 0 -1 -0
    outer loop
      vertex 62.5 -43 5
      vertex -62.5 -43 -5
      vertex 62.5 -43 -5
    endloop
  endfacet
  facet normal 1 -0 0
    outer loop
      vertex 62.5 -43 5
      vertex 62.5 43 -5
      vertex 62.5 43 5
    endloop
  endfacet
  facet normal 1 0 0
    outer loop
      vertex 62.5 43 -5
      vertex 62.5 -43 5
      vertex 62.5 -43 -5
    endloop
  endfacet
  facet normal 1 -0 0
    outer loop
      vertex -59.5 -40 5
      vertex -59.5 40 -0.5
      vertex -59.5 40 5
    endloop
  endfacet
  facet normal 1 0 0
    outer loop
      vertex -59.5 -40 -3.25
      vertex -59.5 40 -0.5
      vertex -59.5 -40 5
    endloop
  endfacet
  facet normal 1 0 0
    outer loop
      vertex -59.5 40 -0.5
      vertex -59.5 -40 -3.25
      vertex -59.5 40 -3.25
    endloop
  endfacet
  facet normal 0 -1 0
    outer loop
      vertex -59.5 40 -3.25
      vertex 59.5 40 -0.5
      vertex -59.5 40 -0.5
    endloop
  endfacet
  facet normal 0 -1 -0
    outer loop
      vertex 59.5 40 -0.5
      vertex -59.5 40 -3.25
      vertex 59.5 40 -3.25
    endloop
  endfacet
  facet normal -1 0 0
    outer loop
      vertex 59.5 -40 -3.25
      vertex 59.5 40 -0.5
      vertex 59.5 40 -3.25
    endloop
  endfacet
  facet normal -1 0 0
    outer loop
      vertex 59.5 -40 5
      vertex 59.5 40 -0.5
      vertex 59.5 -40 -3.25
    endloop
  endfacet
  facet normal -1 0 0
    outer loop
      vertex 59.5 40 -0.5
      vertex 59.5 -40 5
      vertex 59.5 40 5
    endloop
  endfacet
  facet normal 0 1 -0
    outer loop
      vertex 59.5 -40 -3.25
      vertex -59.5 -40 5
      vertex 59.5 -40 5
    endloop
  endfacet
  facet normal 0 1 0
    outer loop
      vertex -59.5 -40 5
      vertex 59.5 -40 -3.25
      vertex -59.5 -40 -3.25
    endloop
  endfacet
  facet normal -0 0 1
    outer loop
      vertex -59.5 43 -0.5
      vertex 59.5 40 -0.5
      vertex 59.5 43 -0.5
    endloop
  endfacet
  facet normal 0 0 1
    outer loop
      vertex 59.5 40 -0.5
      vertex -59.5 43 -0.5
      vertex -59.5 40 -0.5
    endloop
  endfacet
  facet normal 1 -0 0
    outer loop
      vertex -59.5 40 5
      vertex -59.5 43 -0.5
      vertex -59.5 43 5
    endloop
  endfacet
  facet normal 1 0 0
    outer loop
      vertex -59.5 43 -0.5
      vertex -59.5 40 5
      vertex -59.5 40 -0.5
    endloop
  endfacet
  facet normal -1 0 0
    outer loop
      vertex 59.5 40 -0.5
      vertex 59.5 43 5
      vertex 59.5 43 -0.5
    endloop
  endfacet
  facet normal -1 -0 0
    outer loop
      vertex 59.5 43 5
      vertex 59.5 40 -0.5
      vertex 59.5 40 5
    endloop
  endfacet
  facet normal 0 0 1
    outer loop
      vertex 50.208 -31.8549 -3.25
      vertex -49.5556 -32.6078 -3.25
      vertex 49.1418 -33.5139 -3.25
    endloop
  endfacet
  facet normal 0 0 1
    outer loop
      vertex 49.1418 -33.5139 -3.25
      vertex -49.5556 -32.6078 -3.25
      vertex -49 -34.5 -3.25
    endloop
  endfacet
  facet normal -0 0 1
    outer loop
      vertex -51.046 31.3163 -3.25
      vertex -49.5556 -32.6078 -3.25
      vertex -49.5556 32.6078 -3.25
    endloop
  endfacet
  facet normal 0 0 1
    outer loop
      vertex -51.046 31.3163 -3.25
      vertex -51.046 -31.3163 -3.25
      vertex -49.5556 -32.6078 -3.25
    endloop
  endfacet
  facet normal -0 0 1
    outer loop
      vertex -52.9981 31.0356 -3.25
      vertex -51.046 -31.3163 -3.25
      vertex -51.046 31.3163 -3.25
    endloop
  endfacet
  facet normal 0 0 1
    outer loop
      vertex -52.9981 31.0356 -3.25
      vertex -52.9981 -31.0356 -3.25
      vertex -51.046 -31.3163 -3.25
    endloop
  endfacet
  facet normal 0 0 1
    outer loop
      vertex -54.792 31.8549 -3.25
      vertex -52.9981 -31.0356 -3.25
      vertex -52.9981 31.0356 -3.25
    endloop
  endfacet
  facet normal 0 0 1
    outer loop
      vertex -54.792 31.8549 -3.25
      vertex -54.792 -31.8549 -3.25
      vertex -52.9981 -31.0356 -3.25
    endloop
  endfacet
  facet normal 0 0 1
    outer loop
      vertex -55.8582 33.5139 -3.25
      vertex -54.792 -31.8549 -3.25
      vertex -54.792 31.8549 -3.25
    endloop
  endfacet
  facet normal 0 0 1
    outer loop
      vertex -54.792 -31.8549 -3.25
      vertex -55.8582 33.5139 -3.25
      vertex -55.8582 -33.5139 -3.25
    endloop
  endfacet
  facet normal -0 0 1
    outer loop
      vertex 55.4444 -32.6078 -3.25
      vertex 59.5 -40 -3.25
      vertex 55.4444 32.6078 -3.25
    endloop
  endfacet
  facet normal 0 0 1
    outer loop
      vertex 59.5 -40 -3.25
      vertex 55.4444 -32.6078 -3.25
      vertex 56 -34.5 -3.25
    endloop
  endfacet
  facet normal -0 0 1
    outer loop
      vertex 53.954 31.3163 -3.25
      vertex 55.4444 -32.6078 -3.25
      vertex 55.4444 32.6078 -3.25
    endloop
  endfacet
  facet normal 0 0 1
    outer loop
      vertex 53.954 31.3163 -3.25
      vertex 53.954 -31.3163 -3.25
      vertex 55.4444 -32.6078 -3.25
    endloop
  endfacet
  facet normal -0 0 1
    outer loop
      vertex 52.0019 31.0356 -3.25
      vertex 53.954 -31.3163 -3.25
      vertex 53.954 31.3163 -3.25
    endloop
  endfacet
  facet normal 0 0 1
    outer loop
      vertex 52.0019 31.0356 -3.25
      vertex 52.0019 -31.0356 -3.25
      vertex 53.954 -31.3163 -3.25
    endloop
  endfacet
  facet normal 0 0 1
    outer loop
      vertex 50.208 31.8549 -3.25
      vertex 52.0019 -31.0356 -3.25
      vertex 52.0019 31.0356 -3.25
    endloop
  endfacet
  facet normal 0 0 1
    outer loop
      vertex 50.208 31.8549 -3.25
      vertex 50.208 -31.8549 -3.25
      vertex 52.0019 -31.0356 -3.25
    endloop
  endfacet
  facet normal -0 0 1
    outer loop
      vertex -49.5556 32.6078 -3.25
      vertex 50.208 31.8549 -3.25
      vertex 49.1418 33.5139 -3.25
    endloop
  endfacet
  facet normal 0 0 1
    outer loop
      vertex 50.208 31.8549 -3.25
      vertex -49.5556 32.6078 -3.25
      vertex 50.208 -31.8549 -3.25
    endloop
  endfacet
  facet normal 0 0 1
    outer loop
      vertex 55.4444 32.6078 -3.25
      vertex 59.5 40 -3.25
      vertex 56 34.5 -3.25
    endloop
  endfacet
  facet normal 0 0 1
    outer loop
      vertex 59.5 40 -3.25
      vertex 55.4444 36.3922 -3.25
      vertex 56 34.5 -3.25
    endloop
  endfacet
  facet normal 0 0 1
    outer loop
      vertex 59.5 40 -3.25
      vertex 53.954 37.6837 -3.25
      vertex 55.4444 36.3922 -3.25
    endloop
  endfacet
  facet normal 0 0 1
    outer loop
      vertex 59.5 40 -3.25
      vertex 52.0019 37.9644 -3.25
      vertex 53.954 37.6837 -3.25
    endloop
  endfacet
  facet normal -0 0 1
    outer loop
      vertex -49 34.5 -3.25
      vertex 49.1418 33.5139 -3.25
      vertex 49.1418 35.4861 -3.25
    endloop
  endfacet
  facet normal 0 0 1
    outer loop
      vertex -49.5556 32.6078 -3.25
      vertex 49.1418 33.5139 -3.25
      vertex -49 34.5 -3.25
    endloop
  endfacet
  facet normal 0 0 1
    outer loop
      vertex -49.5556 -32.6078 -3.25
      vertex 50.208 -31.8549 -3.25
      vertex -49.5556 32.6078 -3.25
    endloop
  endfacet
  facet normal -0 0 1
    outer loop
      vertex -49.5556 36.3922 -3.25
      vertex 49.1418 35.4861 -3.25
      vertex 50.208 37.1451 -3.25
    endloop
  endfacet
  facet normal -0 0 1
    outer loop
      vertex -51.046 37.6837 -3.25
      vertex 50.208 37.1451 -3.25
      vertex 52.0019 37.9644 -3.25
    endloop
  endfacet
  facet normal 0 0 1
    outer loop
      vertex -51.046 37.6837 -3.25
      vertex 52.0019 37.9644 -3.25
      vertex 59.5 40 -3.25
    endloop
  endfacet
  facet normal 0 0 1
    outer loop
      vertex 49.1418 35.4861 -3.25
      vertex -49.5556 36.3922 -3.25
      vertex -49 34.5 -3.25
    endloop
  endfacet
  facet normal 0 0 1
    outer loop
      vertex 50.208 37.1451 -3.25
      vertex -51.046 37.6837 -3.25
      vertex -49.5556 36.3922 -3.25
    endloop
  endfacet
  facet normal -0 0 1
    outer loop
      vertex -59.5 40 -3.25
      vertex -51.046 37.6837 -3.25
      vertex 59.5 40 -3.25
    endloop
  endfacet
  facet normal 0 0 1
    outer loop
      vertex -59.5 40 -3.25
      vertex -55.8582 33.5139 -3.25
      vertex -55.8582 35.4861 -3.25
    endloop
  endfacet
  facet normal 0 0 1
    outer loop
      vertex -55.8582 33.5139 -3.25
      vertex -59.5 40 -3.25
      vertex -55.8582 -33.5139 -3.25
    endloop
  endfacet
  facet normal 0 0 1
    outer loop
      vertex -59.5 -40 -3.25
      vertex -55.8582 -33.5139 -3.25
      vertex -59.5 40 -3.25
    endloop
  endfacet
  facet normal 0 0 1
    outer loop
      vertex -54.792 37.1451 -3.25
      vertex -59.5 40 -3.25
      vertex -55.8582 35.4861 -3.25
    endloop
  endfacet
  facet normal 0 0 1
    outer loop
      vertex -52.9981 37.9644 -3.25
      vertex -59.5 40 -3.25
      vertex -54.792 37.1451 -3.25
    endloop
  endfacet
  facet normal 0 0 1
    outer loop
      vertex -51.046 37.6837 -3.25
      vertex -59.5 40 -3.25
      vertex -52.9981 37.9644 -3.25
    endloop
  endfacet
  facet normal 0 0 1
    outer loop
      vertex 59.5 40 -3.25
      vertex 55.4444 32.6078 -3.25
      vertex 59.5 -40 -3.25
    endloop
  endfacet
  facet normal -0 0 1
    outer loop
      vertex 55.4444 -36.3922 -3.25
      vertex 59.5 -40 -3.25
      vertex 56 -34.5 -3.25
    endloop
  endfacet
  facet normal -0 0 1
    outer loop
      vertex 53.954 -37.6837 -3.25
      vertex 59.5 -40 -3.25
      vertex 55.4444 -36.3922 -3.25
    endloop
  endfacet
  facet normal -0 0 1
    outer loop
      vertex 52.0019 -37.9644 -3.25
      vertex 59.5 -40 -3.25
      vertex 53.954 -37.6837 -3.25
    endloop
  endfacet
  facet normal 0 0 1
    outer loop
      vertex 49.1418 -33.5139 -3.25
      vertex -49 -34.5 -3.25
      vertex 49.1418 -35.4861 -3.25
    endloop
  endfacet
  facet normal 0 0 1
    outer loop
      vertex -49.5556 -36.3922 -3.25
      vertex 49.1418 -35.4861 -3.25
      vertex -49 -34.5 -3.25
    endloop
  endfacet
  facet normal 0 0 1
    outer loop
      vertex 49.1418 -35.4861 -3.25
      vertex -49.5556 -36.3922 -3.25
      vertex 50.208 -37.1451 -3.25
    endloop
  endfacet
  facet normal 0 0 1
    outer loop
      vertex -51.046 -37.6837 -3.25
      vertex 50.208 -37.1451 -3.25
      vertex -49.5556 -36.3922 -3.25
    endloop
  endfacet
  facet normal 0 0 1
    outer loop
      vertex 50.208 -37.1451 -3.25
      vertex -51.046 -37.6837 -3.25
      vertex 52.0019 -37.9644 -3.25
    endloop
  endfacet
  facet normal 0 0 1
    outer loop
      vertex 52.0019 -37.9644 -3.25
      vertex -51.046 -37.6837 -3.25
      vertex 59.5 -40 -3.25
    endloop
  endfacet
  facet normal 0 0 1
    outer loop
      vertex -59.5 -40 -3.25
      vertex -51.046 -37.6837 -3.25
      vertex -52.9981 -37.9644 -3.25
    endloop
  endfacet
  facet normal 0 0 1
    outer loop
      vertex -51.046 -37.6837 -3.25
      vertex -59.5 -40 -3.25
      vertex 59.5 -40 -3.25
    endloop
  endfacet
  facet normal 0 0 1
    outer loop
      vertex -54.792 -37.1451 -3.25
      vertex -59.5 -40 -3.25
      vertex -52.9981 -37.9644 -3.25
    endloop
  endfacet
  facet normal 0 0 1
    outer loop
      vertex -55.8582 -35.4861 -3.25
      vertex -59.5 -40 -3.25
      vertex -54.792 -37.1451 -3.25
    endloop
  endfacet
  facet normal 0 0 1
    outer loop
      vertex -55.8582 -33.5139 -3.25
      vertex -59.5 -40 -3.25
      vertex -55.8582 -35.4861 -3.25
    endloop
  endfacet
  facet normal -0.309022 -0.951055 0
    outer loop
      vertex 51.2865 33.6183 -2.25
      vertex 52.9635 33.0734 4
      vertex 51.2865 33.6183 4
    endloop
  endfacet
  facet normal -0.309022 -0.951055 -0
    outer loop
      vertex 52.9635 33.0734 4
      vertex 51.2865 33.6183 -2.25
      vertex 52.9635 33.0734 -2.25
    endloop
  endfacet
  facet normal -0.309022 0.951055 0
    outer loop
      vertex 52.9635 35.9266 -2.25
      vertex 51.2865 35.3817 4
      vertex 52.9635 35.9266 4
    endloop
  endfacet
  facet normal -0.309022 0.951055 0
    outer loop
      vertex 51.2865 35.3817 4
      vertex 52.9635 35.9266 -2.25
      vertex 51.2865 35.3817 -2.25
    endloop
  endfacet
  facet normal 0.809013 0.587791 0
    outer loop
      vertex 54 34.5 4
      vertex 52.9635 35.9266 -2.25
      vertex 52.9635 35.9266 4
    endloop
  endfacet
  facet normal 0.809013 0.587791 0
    outer loop
      vertex 52.9635 35.9266 -2.25
      vertex 54 34.5 4
      vertex 54 34.5 -2.25
    endloop
  endfacet
  facet normal -1 0 0
    outer loop
      vertex 51.2865 33.6183 -2.25
      vertex 51.2865 35.3817 4
      vertex 51.2865 35.3817 -2.25
    endloop
  endfacet
  facet normal -1 -0 0
    outer loop
      vertex 51.2865 35.3817 4
      vertex 51.2865 33.6183 -2.25
      vertex 51.2865 33.6183 4
    endloop
  endfacet
  facet normal 0 0 1
    outer loop
      vertex 52.9635 35.9266 4
      vertex 52.9635 33.0734 4
      vertex 54 34.5 4
    endloop
  endfacet
  facet normal -0 0 1
    outer loop
      vertex 51.2865 35.3817 4
      vertex 52.9635 33.0734 4
      vertex 52.9635 35.9266 4
    endloop
  endfacet
  facet normal 0 0 1
    outer loop
      vertex 52.9635 33.0734 4
      vertex 51.2865 35.3817 4
      vertex 51.2865 33.6183 4
    endloop
  endfacet
  facet normal 0.809013 -0.587791 0
    outer loop
      vertex 52.9635 33.0734 4
      vertex 54 34.5 -2.25
      vertex 54 34.5 4
    endloop
  endfacet
  facet normal 0.809013 -0.587791 0
    outer loop
      vertex 54 34.5 -2.25
      vertex 52.9635 33.0734 4
      vertex 52.9635 33.0734 -2.25
    endloop
  endfacet
  facet normal -0.309022 -0.951055 0
    outer loop
      vertex -53.7135 33.6183 -2.25
      vertex -52.0365 33.0734 4
      vertex -53.7135 33.6183 4
    endloop
  endfacet
  facet normal -0.309022 -0.951055 -0
    outer loop
      vertex -52.0365 33.0734 4
      vertex -53.7135 33.6183 -2.25
      vertex -52.0365 33.0734 -2.25
    endloop
  endfacet
  facet normal 0 0 1
    outer loop
      vertex -52.0365 35.9266 4
      vertex -52.0365 33.0734 4
      vertex -51 34.5 4
    endloop
  endfacet
  facet normal -0 0 1
    outer loop
      vertex -53.7135 35.3817 4
      vertex -52.0365 33.0734 4
      vertex -52.0365 35.9266 4
    endloop
  endfacet
  facet normal 0 0 1
    outer loop
      vertex -52.0365 33.0734 4
      vertex -53.7135 35.3817 4
      vertex -53.7135 33.6183 4
    endloop
  endfacet
  facet normal -0.309022 0.951055 0
    outer loop
      vertex -52.0365 35.9266 -2.25
      vertex -53.7135 35.3817 4
      vertex -52.0365 35.9266 4
    endloop
  endfacet
  facet normal -0.309022 0.951055 0
    outer loop
      vertex -53.7135 35.3817 4
      vertex -52.0365 35.9266 -2.25
      vertex -53.7135 35.3817 -2.25
    endloop
  endfacet
  facet normal 0.809013 0.587791 0
    outer loop
      vertex -51 34.5 4
      vertex -52.0365 35.9266 -2.25
      vertex -52.0365 35.9266 4
    endloop
  endfacet
  facet normal 0.809013 0.587791 0
    outer loop
      vertex -52.0365 35.9266 -2.25
      vertex -51 34.5 4
      vertex -51 34.5 -2.25
    endloop
  endfacet
  facet normal -1 0 0
    outer loop
      vertex -53.7135 33.6183 -2.25
      vertex -53.7135 35.3817 4
      vertex -53.7135 35.3817 -2.25
    endloop
  endfacet
  facet normal -1 -0 0
    outer loop
      vertex -53.7135 35.3817 4
      vertex -53.7135 33.6183 -2.25
      vertex -53.7135 33.6183 4
    endloop
  endfacet
  facet normal 0.809013 -0.587791 0
    outer loop
      vertex -52.0365 33.0734 4
      vertex -51 34.5 -2.25
      vertex -51 34.5 4
    endloop
  endfacet
  facet normal 0.809013 -0.587791 0
    outer loop
      vertex -51 34.5 -2.25
      vertex -52.0365 33.0734 4
      vertex -52.0365 33.0734 -2.25
    endloop
  endfacet
  facet normal -0.309022 -0.951055 0
    outer loop
      vertex 51.2865 -35.3817 -2.25
      vertex 52.9635 -35.9266 4
      vertex 51.2865 -35.3817 4
    endloop
  endfacet
  facet normal -0.309022 -0.951055 -0
    outer loop
      vertex 52.9635 -35.9266 4
      vertex 51.2865 -35.3817 -2.25
      vertex 52.9635 -35.9266 -2.25
    endloop
  endfacet
  facet normal -0.309022 0.951055 0
    outer loop
      vertex 52.9635 -33.0734 -2.25
      vertex 51.2865 -33.6183 4
      vertex 52.9635 -33.0734 4
    endloop
  endfacet
  facet normal -0.309022 0.951055 0
    outer loop
      vertex 51.2865 -33.6183 4
      vertex 52.9635 -33.0734 -2.25
      vertex 51.2865 -33.6183 -2.25
    endloop
  endfacet
  facet normal 0.809013 0.587791 0
    outer loop
      vertex 54 -34.5 4
      vertex 52.9635 -33.0734 -2.25
      vertex 52.9635 -33.0734 4
    endloop
  endfacet
  facet normal 0.809013 0.587791 0
    outer loop
      vertex 52.9635 -33.0734 -2.25
      vertex 54 -34.5 4
      vertex 54 -34.5 -2.25
    endloop
  endfacet
  facet normal -1 0 0
    outer loop
      vertex 51.2865 -35.3817 -2.25
      vertex 51.2865 -33.6183 4
      vertex 51.2865 -33.6183 -2.25
    endloop
  endfacet
  facet normal -1 -0 0
    outer loop
      vertex 51.2865 -33.6183 4
      vertex 51.2865 -35.3817 -2.25
      vertex 51.2865 -35.3817 4
    endloop
  endfacet
  facet normal 0 0 1
    outer loop
      vertex 52.9635 -33.0734 4
      vertex 52.9635 -35.9266 4
      vertex 54 -34.5 4
    endloop
  endfacet
  facet normal -0 0 1
    outer loop
      vertex 51.2865 -33.6183 4
      vertex 52.9635 -35.9266 4
      vertex 52.9635 -33.0734 4
    endloop
  endfacet
  facet normal 0 0 1
    outer loop
      vertex 52.9635 -35.9266 4
      vertex 51.2865 -33.6183 4
      vertex 51.2865 -35.3817 4
    endloop
  endfacet
  facet normal 0.809013 -0.587791 0
    outer loop
      vertex 52.9635 -35.9266 4
      vertex 54 -34.5 -2.25
      vertex 54 -34.5 4
    endloop
  endfacet
  facet normal 0.809013 -0.587791 0
    outer loop
      vertex 54 -34.5 -2.25
      vertex 52.9635 -35.9266 4
      vertex 52.9635 -35.9266 -2.25
    endloop
  endfacet
  facet normal -0.309022 -0.951055 0
    outer loop
      vertex -53.7135 -35.3817 -2.25
      vertex -52.0365 -35.9266 4
      vertex -53.7135 -35.3817 4
    endloop
  endfacet
  facet normal -0.309022 -0.951055 -0
    outer loop
      vertex -52.0365 -35.9266 4
      vertex -53.7135 -35.3817 -2.25
      vertex -52.0365 -35.9266 -2.25
    endloop
  endfacet
  facet normal -0.309022 0.951055 0
    outer loop
      vertex -52.0365 -33.0734 -2.25
      vertex -53.7135 -33.6183 4
      vertex -52.0365 -33.0734 4
    endloop
  endfacet
  facet normal -0.309022 0.951055 0
    outer loop
      vertex -53.7135 -33.6183 4
      vertex -52.0365 -33.0734 -2.25
      vertex -53.7135 -33.6183 -2.25
    endloop
  endfacet
  facet normal 0.809013 0.587791 0
    outer loop
      vertex -51 -34.5 4
      vertex -52.0365 -33.0734 -2.25
      vertex -52.0365 -33.0734 4
    endloop
  endfacet
  facet normal 0.809013 0.587791 0
    outer loop
      vertex -52.0365 -33.0734 -2.25
      vertex -51 -34.5 4
      vertex -51 -34.5 -2.25
    endloop
  endfacet
  facet normal -1 0 0
    outer loop
      vertex -53.7135 -35.3817 -2.25
      vertex -53.7135 -33.6183 4
      vertex -53.7135 -33.6183 -2.25
    endloop
  endfacet
  facet normal -1 -0 0
    outer loop
      vertex -53.7135 -33.6183 4
      vertex -53.7135 -35.3817 -2.25
      vertex -53.7135 -35.3817 4
    endloop
  endfacet
  facet normal 0 0 1
    outer loop
      vertex -52.0365 -33.0734 4
      vertex -52.0365 -35.9266 4
      vertex -51 -34.5 4
    endloop
  endfacet
  facet normal -0 0 1
    outer loop
      vertex -53.7135 -33.6183 4
      vertex -52.0365 -35.9266 4
      vertex -52.0365 -33.0734 4
    endloop
  endfacet
  facet normal 0 0 1
    outer loop
      vertex -52.0365 -35.9266 4
      vertex -53.7135 -33.6183 4
      vertex -53.7135 -35.3817 4
    endloop
  endfacet
  facet normal 0.809013 -0.587791 0
    outer loop
      vertex -52.0365 -35.9266 4
      vertex -51 -34.5 -2.25
      vertex -51 -34.5 4
    endloop
  endfacet
  facet normal 0.809013 -0.587791 0
    outer loop
      vertex -51 -34.5 -2.25
      vertex -52.0365 -35.9266 4
      vertex -52.0365 -35.9266 -2.25
    endloop
  endfacet
  facet normal 0.654878 0.755734 -0
    outer loop
      vertex 55.4444 36.3922 -3.25
      vertex 53.954 37.6837 -2.25
      vertex 55.4444 36.3922 -2.25
    endloop
  endfacet
  facet normal 0.654878 0.755734 0
    outer loop
      vertex 53.954 37.6837 -2.25
      vertex 55.4444 36.3922 -3.25
      vertex 53.954 37.6837 -3.25
    endloop
  endfacet
  facet normal 0.959493 0.281733 0
    outer loop
      vertex 56 34.5 -2.25
      vertex 55.4444 36.3922 -3.25
      vertex 55.4444 36.3922 -2.25
    endloop
  endfacet
  facet normal 0.959493 0.281733 0
    outer loop
      vertex 55.4444 36.3922 -3.25
      vertex 56 34.5 -2.25
      vertex 56 34.5 -3.25
    endloop
  endfacet
  facet normal 0.14233 0.989819 -0
    outer loop
      vertex 53.954 37.6837 -3.25
      vertex 52.0019 37.9644 -2.25
      vertex 53.954 37.6837 -2.25
    endloop
  endfacet
  facet normal 0.14233 0.989819 0
    outer loop
      vertex 52.0019 37.9644 -2.25
      vertex 53.954 37.6837 -3.25
      vertex 52.0019 37.9644 -3.25
    endloop
  endfacet
  facet normal -0.415437 0.909622 0
    outer loop
      vertex 52.0019 37.9644 -3.25
      vertex 50.208 37.1451 -2.25
      vertex 52.0019 37.9644 -2.25
    endloop
  endfacet
  facet normal -0.415437 0.909622 0
    outer loop
      vertex 50.208 37.1451 -2.25
      vertex 52.0019 37.9644 -3.25
      vertex 50.208 37.1451 -3.25
    endloop
  endfacet
  facet normal -1 0 0
    outer loop
      vertex 49.1418 33.5139 -3.25
      vertex 49.1418 35.4861 -2.25
      vertex 49.1418 35.4861 -3.25
    endloop
  endfacet
  facet normal -1 -0 0
    outer loop
      vertex 49.1418 35.4861 -2.25
      vertex 49.1418 33.5139 -3.25
      vertex 49.1418 33.5139 -2.25
    endloop
  endfacet
  facet normal 0.14233 -0.989819 0
    outer loop
      vertex 52.0019 31.0356 -3.25
      vertex 53.954 31.3163 -2.25
      vertex 52.0019 31.0356 -2.25
    endloop
  endfacet
  facet normal 0.14233 -0.989819 0
    outer loop
      vertex 53.954 31.3163 -2.25
      vertex 52.0019 31.0356 -3.25
      vertex 53.954 31.3163 -3.25
    endloop
  endfacet
  facet normal 0.654878 -0.755734 0
    outer loop
      vertex 53.954 31.3163 -3.25
      vertex 55.4444 32.6078 -2.25
      vertex 53.954 31.3163 -2.25
    endloop
  endfacet
  facet normal 0.654878 -0.755734 0
    outer loop
      vertex 55.4444 32.6078 -2.25
      vertex 53.954 31.3163 -3.25
      vertex 55.4444 32.6078 -3.25
    endloop
  endfacet
  facet normal -0.841248 -0.54065 0
    outer loop
      vertex 50.208 31.8549 -3.25
      vertex 49.1418 33.5139 -2.25
      vertex 49.1418 33.5139 -3.25
    endloop
  endfacet
  facet normal -0.841248 -0.54065 0
    outer loop
      vertex 49.1418 33.5139 -2.25
      vertex 50.208 31.8549 -3.25
      vertex 50.208 31.8549 -2.25
    endloop
  endfacet
  facet normal 0.959493 -0.281733 0
    outer loop
      vertex 55.4444 32.6078 -2.25
      vertex 56 34.5 -3.25
      vertex 56 34.5 -2.25
    endloop
  endfacet
  facet normal 0.959493 -0.281733 0
    outer loop
      vertex 56 34.5 -3.25
      vertex 55.4444 32.6078 -2.25
      vertex 55.4444 32.6078 -3.25
    endloop
  endfacet
  facet normal -0.841248 0.54065 0
    outer loop
      vertex 49.1418 35.4861 -3.25
      vertex 50.208 37.1451 -2.25
      vertex 50.208 37.1451 -3.25
    endloop
  endfacet
  facet normal -0.841248 0.54065 0
    outer loop
      vertex 50.208 37.1451 -2.25
      vertex 49.1418 35.4861 -3.25
      vertex 49.1418 35.4861 -2.25
    endloop
  endfacet
  facet normal 0 0 1
    outer loop
      vertex 54 34.5 -2.25
      vertex 56 34.5 -2.25
      vertex 55.4444 36.3922 -2.25
    endloop
  endfacet
  facet normal 0 0 1
    outer loop
      vertex 56 34.5 -2.25
      vertex 54 34.5 -2.25
      vertex 55.4444 32.6078 -2.25
    endloop
  endfacet
  facet normal 0 0 1
    outer loop
      vertex 52.9635 35.9266 -2.25
      vertex 55.4444 36.3922 -2.25
      vertex 53.954 37.6837 -2.25
    endloop
  endfacet
  facet normal 0 0 1
    outer loop
      vertex 55.4444 36.3922 -2.25
      vertex 52.9635 35.9266 -2.25
      vertex 54 34.5 -2.25
    endloop
  endfacet
  facet normal 0 0 1
    outer loop
      vertex 52.0019 37.9644 -2.25
      vertex 52.9635 35.9266 -2.25
      vertex 53.954 37.6837 -2.25
    endloop
  endfacet
  facet normal 0 0 1
    outer loop
      vertex 52.0019 37.9644 -2.25
      vertex 51.2865 35.3817 -2.25
      vertex 52.9635 35.9266 -2.25
    endloop
  endfacet
  facet normal -0 0 1
    outer loop
      vertex 49.1418 35.4861 -2.25
      vertex 51.2865 35.3817 -2.25
      vertex 50.208 37.1451 -2.25
    endloop
  endfacet
  facet normal -0 0 1
    outer loop
      vertex 50.208 37.1451 -2.25
      vertex 51.2865 35.3817 -2.25
      vertex 52.0019 37.9644 -2.25
    endloop
  endfacet
  facet normal -0 0 1
    outer loop
      vertex 52.9635 33.0734 -2.25
      vertex 55.4444 32.6078 -2.25
      vertex 54 34.5 -2.25
    endloop
  endfacet
  facet normal 0 0 1
    outer loop
      vertex 55.4444 32.6078 -2.25
      vertex 52.9635 33.0734 -2.25
      vertex 53.954 31.3163 -2.25
    endloop
  endfacet
  facet normal 0 0 1
    outer loop
      vertex 52.9635 33.0734 -2.25
      vertex 52.0019 31.0356 -2.25
      vertex 53.954 31.3163 -2.25
    endloop
  endfacet
  facet normal 0 0 1
    outer loop
      vertex 51.2865 33.6183 -2.25
      vertex 52.0019 31.0356 -2.25
      vertex 52.9635 33.0734 -2.25
    endloop
  endfacet
  facet normal 0 0 1
    outer loop
      vertex 51.2865 35.3817 -2.25
      vertex 49.1418 35.4861 -2.25
      vertex 51.2865 33.6183 -2.25
    endloop
  endfacet
  facet normal 0 0 1
    outer loop
      vertex 51.2865 33.6183 -2.25
      vertex 50.208 31.8549 -2.25
      vertex 52.0019 31.0356 -2.25
    endloop
  endfacet
  facet normal 0 0 1
    outer loop
      vertex 49.1418 33.5139 -2.25
      vertex 51.2865 33.6183 -2.25
      vertex 49.1418 35.4861 -2.25
    endloop
  endfacet
  facet normal 0 0 1
    outer loop
      vertex 51.2865 33.6183 -2.25
      vertex 49.1418 33.5139 -2.25
      vertex 50.208 31.8549 -2.25
    endloop
  endfacet
  facet normal -0.415437 -0.909622 0
    outer loop
      vertex 50.208 31.8549 -3.25
      vertex 52.0019 31.0356 -2.25
      vertex 50.208 31.8549 -2.25
    endloop
  endfacet
  facet normal -0.415437 -0.909622 -0
    outer loop
      vertex 52.0019 31.0356 -2.25
      vertex 50.208 31.8549 -3.25
      vertex 52.0019 31.0356 -3.25
    endloop
  endfacet
  facet normal 0.654878 0.755734 -0
    outer loop
      vertex -49.5556 36.3922 -3.25
      vertex -51.046 37.6837 -2.25
      vertex -49.5556 36.3922 -2.25
    endloop
  endfacet
  facet normal 0.654878 0.755734 0
    outer loop
      vertex -51.046 37.6837 -2.25
      vertex -49.5556 36.3922 -3.25
      vertex -51.046 37.6837 -3.25
    endloop
  endfacet
  facet normal 0.959493 0.281733 0
    outer loop
      vertex -49 34.5 -2.25
      vertex -49.5556 36.3922 -3.25
      vertex -49.5556 36.3922 -2.25
    endloop
  endfacet
  facet normal 0.959493 0.281733 0
    outer loop
      vertex -49.5556 36.3922 -3.25
      vertex -49 34.5 -2.25
      vertex -49 34.5 -3.25
    endloop
  endfacet
  facet normal 0.14233 0.989819 -0
    outer loop
      vertex -51.046 37.6837 -3.25
      vertex -52.9981 37.9644 -2.25
      vertex -51.046 37.6837 -2.25
    endloop
  endfacet
  facet normal 0.14233 0.989819 0
    outer loop
      vertex -52.9981 37.9644 -2.25
      vertex -51.046 37.6837 -3.25
      vertex -52.9981 37.9644 -3.25
    endloop
  endfacet
  facet normal -0.415437 0.909622 0
    outer loop
      vertex -52.9981 37.9644 -3.25
      vertex -54.792 37.1451 -2.25
      vertex -52.9981 37.9644 -2.25
    endloop
  endfacet
  facet normal -0.415437 0.909622 0
    outer loop
      vertex -54.792 37.1451 -2.25
      vertex -52.9981 37.9644 -3.25
      vertex -54.792 37.1451 -3.25
    endloop
  endfacet
  facet normal -1 0 0
    outer loop
      vertex -55.8582 33.5139 -3.25
      vertex -55.8582 35.4861 -2.25
      vertex -55.8582 35.4861 -3.25
    endloop
  endfacet
  facet normal -1 -0 0
    outer loop
      vertex -55.8582 35.4861 -2.25
      vertex -55.8582 33.5139 -3.25
      vertex -55.8582 33.5139 -2.25
    endloop
  endfacet
  facet normal 0.14233 -0.989819 0
    outer loop
      vertex -52.9981 31.0356 -3.25
      vertex -51.046 31.3163 -2.25
      vertex -52.9981 31.0356 -2.25
    endloop
  endfacet
  facet normal 0.14233 -0.989819 0
    outer loop
      vertex -51.046 31.3163 -2.25
      vertex -52.9981 31.0356 -3.25
      vertex -51.046 31.3163 -3.25
    endloop
  endfacet
  facet normal -0.841248 0.54065 0
    outer loop
      vertex -55.8582 35.4861 -3.25
      vertex -54.792 37.1451 -2.25
      vertex -54.792 37.1451 -3.25
    endloop
  endfacet
  facet normal -0.841248 0.54065 0
    outer loop
      vertex -54.792 37.1451 -2.25
      vertex -55.8582 35.4861 -3.25
      vertex -55.8582 35.4861 -2.25
    endloop
  endfacet
  facet normal -0.841248 -0.54065 0
    outer loop
      vertex -54.792 31.8549 -3.25
      vertex -55.8582 33.5139 -2.25
      vertex -55.8582 33.5139 -3.25
    endloop
  endfacet
  facet normal -0.841248 -0.54065 0
    outer loop
      vertex -55.8582 33.5139 -2.25
      vertex -54.792 31.8549 -3.25
      vertex -54.792 31.8549 -2.25
    endloop
  endfacet
  facet normal 0.959493 -0.281733 0
    outer loop
      vertex -49.5556 32.6078 -2.25
      vertex -49 34.5 -3.25
      vertex -49 34.5 -2.25
    endloop
  endfacet
  facet normal 0.959493 -0.281733 0
    outer loop
      vertex -49 34.5 -3.25
      vertex -49.5556 32.6078 -2.25
      vertex -49.5556 32.6078 -3.25
    endloop
  endfacet
  facet normal 0.654878 -0.755734 0
    outer loop
      vertex -51.046 31.3163 -3.25
      vertex -49.5556 32.6078 -2.25
      vertex -51.046 31.3163 -2.25
    endloop
  endfacet
  facet normal 0.654878 -0.755734 0
    outer loop
      vertex -49.5556 32.6078 -2.25
      vertex -51.046 31.3163 -3.25
      vertex -49.5556 32.6078 -3.25
    endloop
  endfacet
  facet normal 0 0 1
    outer loop
      vertex -51 34.5 -2.25
      vertex -49 34.5 -2.25
      vertex -49.5556 36.3922 -2.25
    endloop
  endfacet
  facet normal 0 0 1
    outer loop
      vertex -49 34.5 -2.25
      vertex -51 34.5 -2.25
      vertex -49.5556 32.6078 -2.25
    endloop
  endfacet
  facet normal 0 0 1
    outer loop
      vertex -52.0365 35.9266 -2.25
      vertex -49.5556 36.3922 -2.25
      vertex -51.046 37.6837 -2.25
    endloop
  endfacet
  facet normal 0 0 1
    outer loop
      vertex -49.5556 36.3922 -2.25
      vertex -52.0365 35.9266 -2.25
      vertex -51 34.5 -2.25
    endloop
  endfacet
  facet normal 0 0 1
    outer loop
      vertex -52.9981 37.9644 -2.25
      vertex -52.0365 35.9266 -2.25
      vertex -51.046 37.6837 -2.25
    endloop
  endfacet
  facet normal 0 0 1
    outer loop
      vertex -52.9981 37.9644 -2.25
      vertex -53.7135 35.3817 -2.25
      vertex -52.0365 35.9266 -2.25
    endloop
  endfacet
  facet normal -0 0 1
    outer loop
      vertex -55.8582 35.4861 -2.25
      vertex -53.7135 35.3817 -2.25
      vertex -54.792 37.1451 -2.25
    endloop
  endfacet
  facet normal -0 0 1
    outer loop
      vertex -54.792 37.1451 -2.25
      vertex -53.7135 35.3817 -2.25
      vertex -52.9981 37.9644 -2.25
    endloop
  endfacet
  facet normal -0 0 1
    outer loop
      vertex -52.0365 33.0734 -2.25
      vertex -49.5556 32.6078 -2.25
      vertex -51 34.5 -2.25
    endloop
  endfacet
  facet normal 0 0 1
    outer loop
      vertex -49.5556 32.6078 -2.25
      vertex -52.0365 33.0734 -2.25
      vertex -51.046 31.3163 -2.25
    endloop
  endfacet
  facet normal 0 0 1
    outer loop
      vertex -52.0365 33.0734 -2.25
      vertex -52.9981 31.0356 -2.25
      vertex -51.046 31.3163 -2.25
    endloop
  endfacet
  facet normal 0 0 1
    outer loop
      vertex -53.7135 33.6183 -2.25
      vertex -52.9981 31.0356 -2.25
      vertex -52.0365 33.0734 -2.25
    endloop
  endfacet
  facet normal 0 0 1
    outer loop
      vertex -53.7135 35.3817 -2.25
      vertex -55.8582 35.4861 -2.25
      vertex -53.7135 33.6183 -2.25
    endloop
  endfacet
  facet normal 0 0 1
    outer loop
      vertex -53.7135 33.6183 -2.25
      vertex -54.792 31.8549 -2.25
      vertex -52.9981 31.0356 -2.25
    endloop
  endfacet
  facet normal 0 0 1
    outer loop
      vertex -55.8582 33.5139 -2.25
      vertex -53.7135 33.6183 -2.25
      vertex -55.8582 35.4861 -2.25
    endloop
  endfacet
  facet normal 0 0 1
    outer loop
      vertex -53.7135 33.6183 -2.25
      vertex -55.8582 33.5139 -2.25
      vertex -54.792 31.8549 -2.25
    endloop
  endfacet
  facet normal -0.415437 -0.909622 0
    outer loop
      vertex -54.792 31.8549 -3.25
      vertex -52.9981 31.0356 -2.25
      vertex -54.792 31.8549 -2.25
    endloop
  endfacet
  facet normal -0.415437 -0.909622 -0
    outer loop
      vertex -52.9981 31.0356 -2.25
      vertex -54.792 31.8549 -3.25
      vertex -52.9981 31.0356 -3.25
    endloop
  endfacet
  facet normal 0.654878 0.755734 -0
    outer loop
      vertex 55.4444 -32.6078 -3.25
      vertex 53.954 -31.3163 -2.25
      vertex 55.4444 -32.6078 -2.25
    endloop
  endfacet
  facet normal 0.654878 0.755734 0
    outer loop
      vertex 53.954 -31.3163 -2.25
      vertex 55.4444 -32.6078 -3.25
      vertex 53.954 -31.3163 -3.25
    endloop
  endfacet
  facet normal 0.959493 0.281733 0
    outer loop
      vertex 56 -34.5 -2.25
      vertex 55.4444 -32.6078 -3.25
      vertex 55.4444 -32.6078 -2.25
    endloop
  endfacet
  facet normal 0.959493 0.281733 0
    outer loop
      vertex 55.4444 -32.6078 -3.25
      vertex 56 -34.5 -2.25
      vertex 56 -34.5 -3.25
    endloop
  endfacet
  facet normal 0.14233 0.989819 -0
    outer loop
      vertex 53.954 -31.3163 -3.25
      vertex 52.0019 -31.0356 -2.25
      vertex 53.954 -31.3163 -2.25
    endloop
  endfacet
  facet normal 0.14233 0.989819 0
    outer loop
      vertex 52.0019 -31.0356 -2.25
      vertex 53.954 -31.3163 -3.25
      vertex 52.0019 -31.0356 -3.25
    endloop
  endfacet
  facet normal -0.415437 0.909622 0
    outer loop
      vertex 52.0019 -31.0356 -3.25
      vertex 50.208 -31.8549 -2.25
      vertex 52.0019 -31.0356 -2.25
    endloop
  endfacet
  facet normal -0.415437 0.909622 0
    outer loop
      vertex 50.208 -31.8549 -2.25
      vertex 52.0019 -31.0356 -3.25
      vertex 50.208 -31.8549 -3.25
    endloop
  endfacet
  facet normal -1 0 0
    outer loop
      vertex 49.1418 -35.4861 -3.25
      vertex 49.1418 -33.5139 -2.25
      vertex 49.1418 -33.5139 -3.25
    endloop
  endfacet
  facet normal -1 -0 0
    outer loop
      vertex 49.1418 -33.5139 -2.25
      vertex 49.1418 -35.4861 -3.25
      vertex 49.1418 -35.4861 -2.25
    endloop
  endfacet
  facet normal 0.14233 -0.989819 0
    outer loop
      vertex 52.0019 -37.9644 -3.25
      vertex 53.954 -37.6837 -2.25
      vertex 52.0019 -37.9644 -2.25
    endloop
  endfacet
  facet normal 0.14233 -0.989819 0
    outer loop
      vertex 53.954 -37.6837 -2.25
      vertex 52.0019 -37.9644 -3.25
      vertex 53.954 -37.6837 -3.25
    endloop
  endfacet
  facet normal 0.654878 -0.755734 0
    outer loop
      vertex 53.954 -37.6837 -3.25
      vertex 55.4444 -36.3922 -2.25
      vertex 53.954 -37.6837 -2.25
    endloop
  endfacet
  facet normal 0.654878 -0.755734 0
    outer loop
      vertex 55.4444 -36.3922 -2.25
      vertex 53.954 -37.6837 -3.25
      vertex 55.4444 -36.3922 -3.25
    endloop
  endfacet
  facet normal -0.841248 -0.54065 0
    outer loop
      vertex 50.208 -37.1451 -3.25
      vertex 49.1418 -35.4861 -2.25
      vertex 49.1418 -35.4861 -3.25
    endloop
  endfacet
  facet normal -0.841248 -0.54065 0
    outer loop
      vertex 49.1418 -35.4861 -2.25
      vertex 50.208 -37.1451 -3.25
      vertex 50.208 -37.1451 -2.25
    endloop
  endfacet
  facet normal 0.959493 -0.281733 0
    outer loop
      vertex 55.4444 -36.3922 -2.25
      vertex 56 -34.5 -3.25
      vertex 56 -34.5 -2.25
    endloop
  endfacet
  facet normal 0.959493 -0.281733 0
    outer loop
      vertex 56 -34.5 -3.25
      vertex 55.4444 -36.3922 -2.25
      vertex 55.4444 -36.3922 -3.25
    endloop
  endfacet
  facet normal -0.841248 0.54065 0
    outer loop
      vertex 49.1418 -33.5139 -3.25
      vertex 50.208 -31.8549 -2.25
      vertex 50.208 -31.8549 -3.25
    endloop
  endfacet
  facet normal -0.841248 0.54065 0
    outer loop
      vertex 50.208 -31.8549 -2.25
      vertex 49.1418 -33.5139 -3.25
      vertex 49.1418 -33.5139 -2.25
    endloop
  endfacet
  facet normal 0 0 1
    outer loop
      vertex 54 -34.5 -2.25
      vertex 56 -34.5 -2.25
      vertex 55.4444 -32.6078 -2.25
    endloop
  endfacet
  facet normal 0 0 1
    outer loop
      vertex 56 -34.5 -2.25
      vertex 54 -34.5 -2.25
      vertex 55.4444 -36.3922 -2.25
    endloop
  endfacet
  facet normal 0 0 1
    outer loop
      vertex 52.9635 -33.0734 -2.25
      vertex 55.4444 -32.6078 -2.25
      vertex 53.954 -31.3163 -2.25
    endloop
  endfacet
  facet normal 0 0 1
    outer loop
      vertex 55.4444 -32.6078 -2.25
      vertex 52.9635 -33.0734 -2.25
      vertex 54 -34.5 -2.25
    endloop
  endfacet
  facet normal 0 0 1
    outer loop
      vertex 52.0019 -31.0356 -2.25
      vertex 52.9635 -33.0734 -2.25
      vertex 53.954 -31.3163 -2.25
    endloop
  endfacet
  facet normal 0 0 1
    outer loop
      vertex 52.0019 -31.0356 -2.25
      vertex 51.2865 -33.6183 -2.25
      vertex 52.9635 -33.0734 -2.25
    endloop
  endfacet
  facet normal -0 0 1
    outer loop
      vertex 49.1418 -33.5139 -2.25
      vertex 51.2865 -33.6183 -2.25
      vertex 50.208 -31.8549 -2.25
    endloop
  endfacet
  facet normal -0 0 1
    outer loop
      vertex 50.208 -31.8549 -2.25
      vertex 51.2865 -33.6183 -2.25
      vertex 52.0019 -31.0356 -2.25
    endloop
  endfacet
  facet normal -0 0 1
    outer loop
      vertex 52.9635 -35.9266 -2.25
      vertex 55.4444 -36.3922 -2.25
      vertex 54 -34.5 -2.25
    endloop
  endfacet
  facet normal 0 0 1
    outer loop
      vertex 55.4444 -36.3922 -2.25
      vertex 52.9635 -35.9266 -2.25
      vertex 53.954 -37.6837 -2.25
    endloop
  endfacet
  facet normal 0 0 1
    outer loop
      vertex 52.9635 -35.9266 -2.25
      vertex 52.0019 -37.9644 -2.25
      vertex 53.954 -37.6837 -2.25
    endloop
  endfacet
  facet normal 0 0 1
    outer loop
      vertex 51.2865 -35.3817 -2.25
      vertex 52.0019 -37.9644 -2.25
      vertex 52.9635 -35.9266 -2.25
    endloop
  endfacet
  facet normal 0 0 1
    outer loop
      vertex 51.2865 -33.6183 -2.25
      vertex 49.1418 -33.5139 -2.25
      vertex 51.2865 -35.3817 -2.25
    endloop
  endfacet
  facet normal 0 0 1
    outer loop
      vertex 51.2865 -35.3817 -2.25
      vertex 50.208 -37.1451 -2.25
      vertex 52.0019 -37.9644 -2.25
    endloop
  endfacet
  facet normal 0 0 1
    outer loop
      vertex 49.1418 -35.4861 -2.25
      vertex 51.2865 -35.3817 -2.25
      vertex 49.1418 -33.5139 -2.25
    endloop
  endfacet
  facet normal 0 0 1
    outer loop
      vertex 51.2865 -35.3817 -2.25
      vertex 49.1418 -35.4861 -2.25
      vertex 50.208 -37.1451 -2.25
    endloop
  endfacet
  facet normal -0.415437 -0.909622 0
    outer loop
      vertex 50.208 -37.1451 -3.25
      vertex 52.0019 -37.9644 -2.25
      vertex 50.208 -37.1451 -2.25
    endloop
  endfacet
  facet normal -0.415437 -0.909622 -0
    outer loop
      vertex 52.0019 -37.9644 -2.25
      vertex 50.208 -37.1451 -3.25
      vertex 52.0019 -37.9644 -3.25
    endloop
  endfacet
  facet normal 0.654878 0.755734 -0
    outer loop
      vertex -49.5556 -32.6078 -3.25
      vertex -51.046 -31.3163 -2.25
      vertex -49.5556 -32.6078 -2.25
    endloop
  endfacet
  facet normal 0.654878 0.755734 0
    outer loop
      vertex -51.046 -31.3163 -2.25
      vertex -49.5556 -32.6078 -3.25
      vertex -51.046 -31.3163 -3.25
    endloop
  endfacet
  facet normal 0.959493 0.281733 0
    outer loop
      vertex -49 -34.5 -2.25
      vertex -49.5556 -32.6078 -3.25
      vertex -49.5556 -32.6078 -2.25
    endloop
  endfacet
  facet normal 0.959493 0.281733 0
    outer loop
      vertex -49.5556 -32.6078 -3.25
      vertex -49 -34.5 -2.25
      vertex -49 -34.5 -3.25
    endloop
  endfacet
  facet normal 0.14233 0.989819 -0
    outer loop
      vertex -51.046 -31.3163 -3.25
      vertex -52.9981 -31.0356 -2.25
      vertex -51.046 -31.3163 -2.25
    endloop
  endfacet
  facet normal 0.14233 0.989819 0
    outer loop
      vertex -52.9981 -31.0356 -2.25
      vertex -51.046 -31.3163 -3.25
      vertex -52.9981 -31.0356 -3.25
    endloop
  endfacet
  facet normal -0.415437 0.909622 0
    outer loop
      vertex -52.9981 -31.0356 -3.25
      vertex -54.792 -31.8549 -2.25
      vertex -52.9981 -31.0356 -2.25
    endloop
  endfacet
  facet normal -0.415437 0.909622 0
    outer loop
      vertex -54.792 -31.8549 -2.25
      vertex -52.9981 -31.0356 -3.25
      vertex -54.792 -31.8549 -3.25
    endloop
  endfacet
  facet normal -1 0 0
    outer loop
      vertex -55.8582 -35.4861 -3.25
      vertex -55.8582 -33.5139 -2.25
      vertex -55.8582 -33.5139 -3.25
    endloop
  endfacet
  facet normal -1 -0 0
    outer loop
      vertex -55.8582 -33.5139 -2.25
      vertex -55.8582 -35.4861 -3.25
      vertex -55.8582 -35.4861 -2.25
    endloop
  endfacet
  facet normal 0.14233 -0.989819 0
    outer loop
      vertex -52.9981 -37.9644 -3.25
      vertex -51.046 -37.6837 -2.25
      vertex -52.9981 -37.9644 -2.25
    endloop
  endfacet
  facet normal 0.14233 -0.989819 0
    outer loop
      vertex -51.046 -37.6837 -2.25
      vertex -52.9981 -37.9644 -3.25
      vertex -51.046 -37.6837 -3.25
    endloop
  endfacet
  facet normal 0.654878 -0.755734 0
    outer loop
      vertex -51.046 -37.6837 -3.25
      vertex -49.5556 -36.3922 -2.25
      vertex -51.046 -37.6837 -2.25
    endloop
  endfacet
  facet normal 0.654878 -0.755734 0
    outer loop
      vertex -49.5556 -36.3922 -2.25
      vertex -51.046 -37.6837 -3.25
      vertex -49.5556 -36.3922 -3.25
    endloop
  endfacet
  facet normal -0.841248 -0.54065 0
    outer loop
      vertex -54.792 -37.1451 -3.25
      vertex -55.8582 -35.4861 -2.25
      vertex -55.8582 -35.4861 -3.25
    endloop
  endfacet
  facet normal -0.841248 -0.54065 0
    outer loop
      vertex -55.8582 -35.4861 -2.25
      vertex -54.792 -37.1451 -3.25
      vertex -54.792 -37.1451 -2.25
    endloop
  endfacet
  facet normal 0.959493 -0.281733 0
    outer loop
      vertex -49.5556 -36.3922 -2.25
      vertex -49 -34.5 -3.25
      vertex -49 -34.5 -2.25
    endloop
  endfacet
  facet normal 0.959493 -0.281733 0
    outer loop
      vertex -49 -34.5 -3.25
      vertex -49.5556 -36.3922 -2.25
      vertex -49.5556 -36.3922 -3.25
    endloop
  endfacet
  facet normal -0.841248 0.54065 0
    outer loop
      vertex -55.8582 -33.5139 -3.25
      vertex -54.792 -31.8549 -2.25
      vertex -54.792 -31.8549 -3.25
    endloop
  endfacet
  facet normal -0.841248 0.54065 0
    outer loop
      vertex -54.792 -31.8549 -2.25
      vertex -55.8582 -33.5139 -3.25
      vertex -55.8582 -33.5139 -2.25
    endloop
  endfacet
  facet normal 0 0 1
    outer loop
      vertex -51 -34.5 -2.25
      vertex -49 -34.5 -2.25
      vertex -49.5556 -32.6078 -2.25
    endloop
  endfacet
  facet normal 0 0 1
    outer loop
      vertex -49 -34.5 -2.25
      vertex -51 -34.5 -2.25
      vertex -49.5556 -36.3922 -2.25
    endloop
  endfacet
  facet normal 0 0 1
    outer loop
      vertex -52.0365 -33.0734 -2.25
      vertex -49.5556 -32.6078 -2.25
      vertex -51.046 -31.3163 -2.25
    endloop
  endfacet
  facet normal 0 0 1
    outer loop
      vertex -49.5556 -32.6078 -2.25
      vertex -52.0365 -33.0734 -2.25
      vertex -51 -34.5 -2.25
    endloop
  endfacet
  facet normal 0 0 1
    outer loop
      vertex -52.9981 -31.0356 -2.25
      vertex -52.0365 -33.0734 -2.25
      vertex -51.046 -31.3163 -2.25
    endloop
  endfacet
  facet normal 0 0 1
    outer loop
      vertex -52.9981 -31.0356 -2.25
      vertex -53.7135 -33.6183 -2.25
      vertex -52.0365 -33.0734 -2.25
    endloop
  endfacet
  facet normal -0 0 1
    outer loop
      vertex -55.8582 -33.5139 -2.25
      vertex -53.7135 -33.6183 -2.25
      vertex -54.792 -31.8549 -2.25
    endloop
  endfacet
  facet normal -0 0 1
    outer loop
      vertex -54.792 -31.8549 -2.25
      vertex -53.7135 -33.6183 -2.25
      vertex -52.9981 -31.0356 -2.25
    endloop
  endfacet
  facet normal -0 0 1
    outer loop
      vertex -52.0365 -35.9266 -2.25
      vertex -49.5556 -36.3922 -2.25
      vertex -51 -34.5 -2.25
    endloop
  endfacet
  facet normal 0 0 1
    outer loop
      vertex -49.5556 -36.3922 -2.25
      vertex -52.0365 -35.9266 -2.25
      vertex -51.046 -37.6837 -2.25
    endloop
  endfacet
  facet normal 0 0 1
    outer loop
      vertex -52.0365 -35.9266 -2.25
      vertex -52.9981 -37.9644 -2.25
      vertex -51.046 -37.6837 -2.25
    endloop
  endfacet
  facet normal 0 0 1
    outer loop
      vertex -53.7135 -35.3817 -2.25
      vertex -52.9981 -37.9644 -2.25
      vertex -52.0365 -35.9266 -2.25
    endloop
  endfacet
  facet normal 0 0 1
    outer loop
      vertex -53.7135 -33.6183 -2.25
      vertex -55.8582 -33.5139 -2.25
      vertex -53.7135 -35.3817 -2.25
    endloop
  endfacet
  facet normal 0 0 1
    outer loop
      vertex -53.7135 -35.3817 -2.25
      vertex -54.792 -37.1451 -2.25
      vertex -52.9981 -37.9644 -2.25
    endloop
  endfacet
  facet normal 0 0 1
    outer loop
      vertex -55.8582 -35.4861 -2.25
      vertex -53.7135 -35.3817 -2.25
      vertex -55.8582 -33.5139 -2.25
    endloop
  endfacet
  facet normal 0 0 1
    outer loop
      vertex -53.7135 -35.3817 -2.25
      vertex -55.8582 -35.4861 -2.25
      vertex -54.792 -37.1451 -2.25
    endloop
  endfacet
  facet normal -0.415437 -0.909622 0
    outer loop
      vertex -54.792 -37.1451 -3.25
      vertex -52.9981 -37.9644 -2.25
      vertex -54.792 -37.1451 -2.25
    endloop
  endfacet
  facet normal -0.415437 -0.909622 -0
    outer loop
      vertex -52.9981 -37.9644 -2.25
      vertex -54.792 -37.1451 -3.25
      vertex -52.9981 -37.9644 -3.25
    endloop
  endfacet
endsolid OpenSCAD_Model
