solid OpenSCAD_Model
  facet normal 0 0 -1
    outer loop
      vertex -62.5 -43 -5
      vertex 62.5 43 -5
      vertex 62.5 -43 -5
    endloop
  endfacet
  facet normal -0 0 -1
    outer loop
      vertex 62.5 43 -5
      vertex -62.5 -43 -5
      vertex -62.5 43 -5
    endloop
  endfacet
  facet normal -0 0 1
    outer loop
      vertex -62.5 43 5
      vertex -59.5 40 5
      vertex -59.5 43 5
    endloop
  endfacet
  facet normal 0 0 1
    outer loop
      vertex -59.5 40 5
      vertex -62.5 43 5
      vertex -59.5 -40 5
    endloop
  endfacet
  facet normal 0 0 1
    outer loop
      vertex 59.5 40 5
      vertex 62.5 43 5
      vertex 59.5 43 5
    endloop
  endfacet
  facet normal 0 0 1
    outer loop
      vertex 62.5 43 5
      vertex 59.5 40 5
      vertex 62.5 -43 5
    endloop
  endfacet
  facet normal -0 0 1
    outer loop
      vertex 59.5 -40 5
      vertex 62.5 -43 5
      vertex 59.5 40 5
    endloop
  endfacet
  facet normal -0 0 1
    outer loop
      vertex -59.5 -40 5
      vertex 62.5 -43 5
      vertex 59.5 -40 5
    endloop
  endfacet
  facet normal 0 0 1
    outer loop
      vertex -59.5 -40 5
      vertex -62.5 -43 5
      vertex 62.5 -43 5
    endloop
  endfacet
  facet normal 0 0 1
    outer loop
      vertex -62.5 -43 5
      vertex -59.5 -40 5
      vertex -62.5 43 5
    endloop
  endfacet
  facet normal 0 1 0
    outer loop
      vertex 62.5 43 5
      vertex 59.5 43 -2.5
      vertex 59.5 43 5
    endloop
  endfacet
  facet normal 0 1 0
    outer loop
      vertex 59.5 43 -2.5
      vertex 62.5 43 -5
      vertex -59.5 43 -2.5
    endloop
  endfacet
  facet normal 0 1 -0
    outer loop
      vertex 62.5 43 -5
      vertex 59.5 43 -2.5
      vertex 62.5 43 5
    endloop
  endfacet
  facet normal 0 1 -0
    outer loop
      vertex -59.5 43 -2.5
      vertex -62.5 43 5
      vertex -59.5 43 5
    endloop
  endfacet
  facet normal 0 1 0
    outer loop
      vertex -59.5 43 -2.5
      vertex -62.5 43 -5
      vertex -62.5 43 5
    endloop
  endfacet
  facet normal 0 1 0
    outer loop
      vertex -62.5 43 -5
      vertex -59.5 43 -2.5
      vertex 62.5 43 -5
    endloop
  endfacet
  facet normal -1 0 0
    outer loop
      vertex -62.5 -43 -5
      vertex -62.5 43 5
      vertex -62.5 43 -5
    endloop
  endfacet
  facet normal -1 -0 0
    outer loop
      vertex -62.5 43 5
      vertex -62.5 -43 -5
      vertex -62.5 -43 5
    endloop
  endfacet
  facet normal 0 -1 0
    outer loop
      vertex -62.5 -43 -5
      vertex 62.5 -43 5
      vertex -62.5 -43 5
    endloop
  endfacet
  facet normal 0 -1 -0
    outer loop
      vertex 62.5 -43 5
      vertex -62.5 -43 -5
      vertex 62.5 -43 -5
    endloop
  endfacet
  facet normal 1 -0 0
    outer loop
      vertex 62.5 -43 5
      vertex 62.5 43 -5
      vertex 62.5 43 5
    endloop
  endfacet
  facet normal 1 0 0
    outer loop
      vertex 62.5 43 -5
      vertex 62.5 -43 5
      vertex 62.5 -43 -5
    endloop
  endfacet
  facet normal 1 -0 0
    outer loop
      vertex -59.5 -40 5
      vertex -59.5 40 -2.5
      vertex -59.5 40 5
    endloop
  endfacet
  facet normal 1 0 0
    outer loop
      vertex -59.5 -40 -3.25
      vertex -59.5 40 -2.5
      vertex -59.5 -40 5
    endloop
  endfacet
  facet normal 1 0 0
    outer loop
      vertex -59.5 40 -2.5
      vertex -59.5 -40 -3.25
      vertex -59.5 40 -3.25
    endloop
  endfacet
  facet normal 0 -1 0
    outer loop
      vertex -59.5 40 -3.25
      vertex 59.5 40 -2.5
      vertex -59.5 40 -2.5
    endloop
  endfacet
  facet normal 0 -1 -0
    outer loop
      vertex 59.5 40 -2.5
      vertex -59.5 40 -3.25
      vertex 59.5 40 -3.25
    endloop
  endfacet
  facet normal -1 0 0
    outer loop
      vertex 59.5 -40 -3.25
      vertex 59.5 40 -2.5
      vertex 59.5 40 -3.25
    endloop
  endfacet
  facet normal -1 -0 0
    outer loop
      vertex 59.5 40 -2.5
      vertex 59.5 -40 -3.25
      vertex 59.5 40 5
    endloop
  endfacet
  facet normal -1 -0 0
    outer loop
      vertex 59.5 40 5
      vertex 59.5 -40 -3.25
      vertex 59.5 -40 5
    endloop
  endfacet
  facet normal 0 1 -0
    outer loop
      vertex 59.5 -40 -3.25
      vertex -59.5 -40 5
      vertex 59.5 -40 5
    endloop
  endfacet
  facet normal 0 1 0
    outer loop
      vertex -59.5 -40 5
      vertex 59.5 -40 -3.25
      vertex -59.5 -40 -3.25
    endloop
  endfacet
  facet normal -0 0 1
    outer loop
      vertex -59.5 43 -2.5
      vertex 59.5 40 -2.5
      vertex 59.5 43 -2.5
    endloop
  endfacet
  facet normal 0 0 1
    outer loop
      vertex 59.5 40 -2.5
      vertex -59.5 43 -2.5
      vertex -59.5 40 -2.5
    endloop
  endfacet
  facet normal 1 -0 0
    outer loop
      vertex -59.5 40 5
      vertex -59.5 43 -2.5
      vertex -59.5 43 5
    endloop
  endfacet
  facet normal 1 0 0
    outer loop
      vertex -59.5 43 -2.5
      vertex -59.5 40 5
      vertex -59.5 40 -2.5
    endloop
  endfacet
  facet normal -1 0 0
    outer loop
      vertex 59.5 40 -2.5
      vertex 59.5 43 5
      vertex 59.5 43 -2.5
    endloop
  endfacet
  facet normal -1 -0 0
    outer loop
      vertex 59.5 43 5
      vertex 59.5 40 -2.5
      vertex 59.5 40 5
    endloop
  endfacet
  facet normal -0 0 1
    outer loop
      vertex -59.5 40 -3.25
      vertex 59.5 -40 -3.25
      vertex 59.5 40 -3.25
    endloop
  endfacet
  facet normal 0 0 1
    outer loop
      vertex 59.5 -40 -3.25
      vertex -59.5 40 -3.25
      vertex -59.5 -40 -3.25
    endloop
  endfacet
  facet normal 0 0 1
    outer loop
      vertex 54.9761 35.9841 2.25
      vertex 54.9761 32.4159 2.25
      vertex 55.5 34.2 2.25
    endloop
  endfacet
  facet normal 0 0 1
    outer loop
      vertex 53.5709 37.2018 2.25
      vertex 54.9761 32.4159 2.25
      vertex 54.9761 35.9841 2.25
    endloop
  endfacet
  facet normal 0 0 1
    outer loop
      vertex 53.5709 37.2018 2.25
      vertex 53.5709 31.1982 2.25
      vertex 54.9761 32.4159 2.25
    endloop
  endfacet
  facet normal 0 0 1
    outer loop
      vertex 51.7304 37.4664 2.25
      vertex 53.5709 31.1982 2.25
      vertex 53.5709 37.2018 2.25
    endloop
  endfacet
  facet normal 0 0 1
    outer loop
      vertex 51.7304 37.4664 2.25
      vertex 51.7304 30.9336 2.25
      vertex 53.5709 31.1982 2.25
    endloop
  endfacet
  facet normal -0 0 1
    outer loop
      vertex 50.039 36.694 2.25
      vertex 51.7304 30.9336 2.25
      vertex 51.7304 37.4664 2.25
    endloop
  endfacet
  facet normal 0 0 1
    outer loop
      vertex 50.039 36.694 2.25
      vertex 50.039 31.706 2.25
      vertex 51.7304 30.9336 2.25
    endloop
  endfacet
  facet normal -0 0 1
    outer loop
      vertex 49.0337 35.1297 2.25
      vertex 50.039 31.706 2.25
      vertex 50.039 36.694 2.25
    endloop
  endfacet
  facet normal 0 0 1
    outer loop
      vertex 50.039 31.706 2.25
      vertex 49.0337 35.1297 2.25
      vertex 49.0337 33.2703 2.25
    endloop
  endfacet
  facet normal 0.142302 -0.989823 0
    outer loop
      vertex 51.7304 30.9336 -2.25
      vertex 53.5709 31.1982 2.25
      vertex 51.7304 30.9336 2.25
    endloop
  endfacet
  facet normal 0.142302 -0.989823 0
    outer loop
      vertex 53.5709 31.1982 2.25
      vertex 51.7304 30.9336 -2.25
      vertex 53.5709 31.1982 -2.25
    endloop
  endfacet
  facet normal 0.654888 0.755726 -0
    outer loop
      vertex 54.9761 35.9841 -2.25
      vertex 53.5709 37.2018 2.25
      vertex 54.9761 35.9841 2.25
    endloop
  endfacet
  facet normal 0.654888 0.755726 0
    outer loop
      vertex 53.5709 37.2018 2.25
      vertex 54.9761 35.9841 -2.25
      vertex 53.5709 37.2018 -2.25
    endloop
  endfacet
  facet normal 0.959487 0.281753 0
    outer loop
      vertex 55.5 34.2 2.25
      vertex 54.9761 35.9841 -2.25
      vertex 54.9761 35.9841 2.25
    endloop
  endfacet
  facet normal 0.959487 0.281753 0
    outer loop
      vertex 54.9761 35.9841 -2.25
      vertex 55.5 34.2 2.25
      vertex 55.5 34.2 -2.25
    endloop
  endfacet
  facet normal 0.142302 0.989823 -0
    outer loop
      vertex 53.5709 37.2018 -2.25
      vertex 51.7304 37.4664 2.25
      vertex 53.5709 37.2018 2.25
    endloop
  endfacet
  facet normal 0.142302 0.989823 0
    outer loop
      vertex 51.7304 37.4664 2.25
      vertex 53.5709 37.2018 -2.25
      vertex 51.7304 37.4664 -2.25
    endloop
  endfacet
  facet normal -0.415399 0.909639 0
    outer loop
      vertex 51.7304 37.4664 -2.25
      vertex 50.039 36.694 2.25
      vertex 51.7304 37.4664 2.25
    endloop
  endfacet
  facet normal -0.415399 0.909639 0
    outer loop
      vertex 50.039 36.694 2.25
      vertex 51.7304 37.4664 -2.25
      vertex 50.039 36.694 -2.25
    endloop
  endfacet
  facet normal 0.654888 -0.755726 0
    outer loop
      vertex 53.5709 31.1982 -2.25
      vertex 54.9761 32.4159 2.25
      vertex 53.5709 31.1982 2.25
    endloop
  endfacet
  facet normal 0.654888 -0.755726 0
    outer loop
      vertex 54.9761 32.4159 2.25
      vertex 53.5709 31.1982 -2.25
      vertex 54.9761 32.4159 -2.25
    endloop
  endfacet
  facet normal -1 0 0
    outer loop
      vertex 49.0337 33.2703 -2.25
      vertex 49.0337 35.1297 2.25
      vertex 49.0337 35.1297 -2.25
    endloop
  endfacet
  facet normal -1 -0 0
    outer loop
      vertex 49.0337 35.1297 2.25
      vertex 49.0337 33.2703 -2.25
      vertex 49.0337 33.2703 2.25
    endloop
  endfacet
  facet normal -0.841257 0.540635 0
    outer loop
      vertex 49.0337 35.1297 -2.25
      vertex 50.039 36.694 2.25
      vertex 50.039 36.694 -2.25
    endloop
  endfacet
  facet normal -0.841257 0.540635 0
    outer loop
      vertex 50.039 36.694 2.25
      vertex 49.0337 35.1297 -2.25
      vertex 49.0337 35.1297 2.25
    endloop
  endfacet
  facet normal 0.959487 -0.281753 0
    outer loop
      vertex 54.9761 32.4159 2.25
      vertex 55.5 34.2 -2.25
      vertex 55.5 34.2 2.25
    endloop
  endfacet
  facet normal 0.959487 -0.281753 0
    outer loop
      vertex 55.5 34.2 -2.25
      vertex 54.9761 32.4159 2.25
      vertex 54.9761 32.4159 -2.25
    endloop
  endfacet
  facet normal -0.841257 -0.540635 0
    outer loop
      vertex 50.039 31.706 -2.25
      vertex 49.0337 33.2703 2.25
      vertex 49.0337 33.2703 -2.25
    endloop
  endfacet
  facet normal -0.841257 -0.540635 0
    outer loop
      vertex 49.0337 33.2703 2.25
      vertex 50.039 31.706 -2.25
      vertex 50.039 31.706 2.25
    endloop
  endfacet
  facet normal -0.415399 -0.909639 0
    outer loop
      vertex 50.039 31.706 -2.25
      vertex 51.7304 30.9336 2.25
      vertex 50.039 31.706 2.25
    endloop
  endfacet
  facet normal -0.415399 -0.909639 -0
    outer loop
      vertex 51.7304 30.9336 2.25
      vertex 50.039 31.706 -2.25
      vertex 51.7304 30.9336 -2.25
    endloop
  endfacet
  facet normal 0 0 -1
    outer loop
      vertex 54.9761 32.4159 -2.25
      vertex 54.9761 35.9841 -2.25
      vertex 55.5 34.2 -2.25
    endloop
  endfacet
  facet normal 0 0 -1
    outer loop
      vertex 53.5709 31.1982 -2.25
      vertex 54.9761 35.9841 -2.25
      vertex 54.9761 32.4159 -2.25
    endloop
  endfacet
  facet normal 0 0 -1
    outer loop
      vertex 53.5709 31.1982 -2.25
      vertex 53.5709 37.2018 -2.25
      vertex 54.9761 35.9841 -2.25
    endloop
  endfacet
  facet normal 0 0 -1
    outer loop
      vertex 51.7304 30.9336 -2.25
      vertex 53.5709 37.2018 -2.25
      vertex 53.5709 31.1982 -2.25
    endloop
  endfacet
  facet normal 0 0 -1
    outer loop
      vertex 51.7304 30.9336 -2.25
      vertex 51.7304 37.4664 -2.25
      vertex 53.5709 37.2018 -2.25
    endloop
  endfacet
  facet normal 0 0 -1
    outer loop
      vertex 50.039 31.706 -2.25
      vertex 51.7304 37.4664 -2.25
      vertex 51.7304 30.9336 -2.25
    endloop
  endfacet
  facet normal 0 0 -1
    outer loop
      vertex 50.039 31.706 -2.25
      vertex 50.039 36.694 -2.25
      vertex 51.7304 37.4664 -2.25
    endloop
  endfacet
  facet normal 0 0 -1
    outer loop
      vertex 49.0337 33.2703 -2.25
      vertex 50.039 36.694 -2.25
      vertex 50.039 31.706 -2.25
    endloop
  endfacet
  facet normal 0 0 -1
    outer loop
      vertex 50.039 36.694 -2.25
      vertex 49.0337 33.2703 -2.25
      vertex 49.0337 35.1297 -2.25
    endloop
  endfacet
  facet normal 0.654888 0.755726 -0
    outer loop
      vertex -49.4239 35.9841 -2.25
      vertex -50.8291 37.2018 2.25
      vertex -49.4239 35.9841 2.25
    endloop
  endfacet
  facet normal 0.654888 0.755726 0
    outer loop
      vertex -50.8291 37.2018 2.25
      vertex -49.4239 35.9841 -2.25
      vertex -50.8291 37.2018 -2.25
    endloop
  endfacet
  facet normal 0.959487 0.281753 0
    outer loop
      vertex -48.9 34.2 2.25
      vertex -49.4239 35.9841 -2.25
      vertex -49.4239 35.9841 2.25
    endloop
  endfacet
  facet normal 0.959487 0.281753 0
    outer loop
      vertex -49.4239 35.9841 -2.25
      vertex -48.9 34.2 2.25
      vertex -48.9 34.2 -2.25
    endloop
  endfacet
  facet normal 0.142302 0.989823 -0
    outer loop
      vertex -50.8291 37.2018 -2.25
      vertex -52.6696 37.4664 2.25
      vertex -50.8291 37.2018 2.25
    endloop
  endfacet
  facet normal 0.142302 0.989823 0
    outer loop
      vertex -52.6696 37.4664 2.25
      vertex -50.8291 37.2018 -2.25
      vertex -52.6696 37.4664 -2.25
    endloop
  endfacet
  facet normal -0.415399 -0.909639 0
    outer loop
      vertex -54.361 31.706 -2.25
      vertex -52.6696 30.9336 2.25
      vertex -54.361 31.706 2.25
    endloop
  endfacet
  facet normal -0.415399 -0.909639 -0
    outer loop
      vertex -52.6696 30.9336 2.25
      vertex -54.361 31.706 -2.25
      vertex -52.6696 30.9336 -2.25
    endloop
  endfacet
  facet normal -0.415399 0.909639 0
    outer loop
      vertex -52.6696 37.4664 -2.25
      vertex -54.361 36.694 2.25
      vertex -52.6696 37.4664 2.25
    endloop
  endfacet
  facet normal -0.415399 0.909639 0
    outer loop
      vertex -54.361 36.694 2.25
      vertex -52.6696 37.4664 -2.25
      vertex -54.361 36.694 -2.25
    endloop
  endfacet
  facet normal -1 0 0
    outer loop
      vertex -55.3663 33.2703 -2.25
      vertex -55.3663 35.1297 2.25
      vertex -55.3663 35.1297 -2.25
    endloop
  endfacet
  facet normal -1 -0 0
    outer loop
      vertex -55.3663 35.1297 2.25
      vertex -55.3663 33.2703 -2.25
      vertex -55.3663 33.2703 2.25
    endloop
  endfacet
  facet normal 0.654888 -0.755726 0
    outer loop
      vertex -50.8291 31.1982 -2.25
      vertex -49.4239 32.4159 2.25
      vertex -50.8291 31.1982 2.25
    endloop
  endfacet
  facet normal 0.654888 -0.755726 0
    outer loop
      vertex -49.4239 32.4159 2.25
      vertex -50.8291 31.1982 -2.25
      vertex -49.4239 32.4159 -2.25
    endloop
  endfacet
  facet normal -0.841257 0.540635 0
    outer loop
      vertex -55.3663 35.1297 -2.25
      vertex -54.361 36.694 2.25
      vertex -54.361 36.694 -2.25
    endloop
  endfacet
  facet normal -0.841257 0.540635 0
    outer loop
      vertex -54.361 36.694 2.25
      vertex -55.3663 35.1297 -2.25
      vertex -55.3663 35.1297 2.25
    endloop
  endfacet
  facet normal -0.841257 -0.540635 0
    outer loop
      vertex -54.361 31.706 -2.25
      vertex -55.3663 33.2703 2.25
      vertex -55.3663 33.2703 -2.25
    endloop
  endfacet
  facet normal -0.841257 -0.540635 0
    outer loop
      vertex -55.3663 33.2703 2.25
      vertex -54.361 31.706 -2.25
      vertex -54.361 31.706 2.25
    endloop
  endfacet
  facet normal 0.959487 -0.281753 0
    outer loop
      vertex -49.4239 32.4159 2.25
      vertex -48.9 34.2 -2.25
      vertex -48.9 34.2 2.25
    endloop
  endfacet
  facet normal 0.959487 -0.281753 0
    outer loop
      vertex -48.9 34.2 -2.25
      vertex -49.4239 32.4159 2.25
      vertex -49.4239 32.4159 -2.25
    endloop
  endfacet
  facet normal 0 0 1
    outer loop
      vertex -49.4239 35.9841 2.25
      vertex -49.4239 32.4159 2.25
      vertex -48.9 34.2 2.25
    endloop
  endfacet
  facet normal 0 0 1
    outer loop
      vertex -50.8291 37.2018 2.25
      vertex -49.4239 32.4159 2.25
      vertex -49.4239 35.9841 2.25
    endloop
  endfacet
  facet normal 0 0 1
    outer loop
      vertex -50.8291 37.2018 2.25
      vertex -50.8291 31.1982 2.25
      vertex -49.4239 32.4159 2.25
    endloop
  endfacet
  facet normal 0 0 1
    outer loop
      vertex -52.6696 37.4664 2.25
      vertex -50.8291 31.1982 2.25
      vertex -50.8291 37.2018 2.25
    endloop
  endfacet
  facet normal 0 0 1
    outer loop
      vertex -52.6696 37.4664 2.25
      vertex -52.6696 30.9336 2.25
      vertex -50.8291 31.1982 2.25
    endloop
  endfacet
  facet normal -0 0 1
    outer loop
      vertex -54.361 36.694 2.25
      vertex -52.6696 30.9336 2.25
      vertex -52.6696 37.4664 2.25
    endloop
  endfacet
  facet normal 0 0 1
    outer loop
      vertex -54.361 36.694 2.25
      vertex -54.361 31.706 2.25
      vertex -52.6696 30.9336 2.25
    endloop
  endfacet
  facet normal -0 0 1
    outer loop
      vertex -55.3663 35.1297 2.25
      vertex -54.361 31.706 2.25
      vertex -54.361 36.694 2.25
    endloop
  endfacet
  facet normal 0 0 1
    outer loop
      vertex -54.361 31.706 2.25
      vertex -55.3663 35.1297 2.25
      vertex -55.3663 33.2703 2.25
    endloop
  endfacet
  facet normal 0.142302 -0.989823 0
    outer loop
      vertex -52.6696 30.9336 -2.25
      vertex -50.8291 31.1982 2.25
      vertex -52.6696 30.9336 2.25
    endloop
  endfacet
  facet normal 0.142302 -0.989823 0
    outer loop
      vertex -50.8291 31.1982 2.25
      vertex -52.6696 30.9336 -2.25
      vertex -50.8291 31.1982 -2.25
    endloop
  endfacet
  facet normal 0 0 -1
    outer loop
      vertex -49.4239 32.4159 -2.25
      vertex -49.4239 35.9841 -2.25
      vertex -48.9 34.2 -2.25
    endloop
  endfacet
  facet normal 0 0 -1
    outer loop
      vertex -50.8291 31.1982 -2.25
      vertex -49.4239 35.9841 -2.25
      vertex -49.4239 32.4159 -2.25
    endloop
  endfacet
  facet normal 0 0 -1
    outer loop
      vertex -50.8291 31.1982 -2.25
      vertex -50.8291 37.2018 -2.25
      vertex -49.4239 35.9841 -2.25
    endloop
  endfacet
  facet normal 0 0 -1
    outer loop
      vertex -52.6696 30.9336 -2.25
      vertex -50.8291 37.2018 -2.25
      vertex -50.8291 31.1982 -2.25
    endloop
  endfacet
  facet normal 0 0 -1
    outer loop
      vertex -52.6696 30.9336 -2.25
      vertex -52.6696 37.4664 -2.25
      vertex -50.8291 37.2018 -2.25
    endloop
  endfacet
  facet normal 0 0 -1
    outer loop
      vertex -54.361 31.706 -2.25
      vertex -52.6696 37.4664 -2.25
      vertex -52.6696 30.9336 -2.25
    endloop
  endfacet
  facet normal 0 0 -1
    outer loop
      vertex -54.361 31.706 -2.25
      vertex -54.361 36.694 -2.25
      vertex -52.6696 37.4664 -2.25
    endloop
  endfacet
  facet normal 0 0 -1
    outer loop
      vertex -55.3663 33.2703 -2.25
      vertex -54.361 36.694 -2.25
      vertex -54.361 31.706 -2.25
    endloop
  endfacet
  facet normal 0 0 -1
    outer loop
      vertex -54.361 36.694 -2.25
      vertex -55.3663 33.2703 -2.25
      vertex -55.3663 35.1297 -2.25
    endloop
  endfacet
  facet normal -0.841257 -0.540635 0
    outer loop
      vertex 50.039 -36.694 -2.25
      vertex 49.0337 -35.1297 2.25
      vertex 49.0337 -35.1297 -2.25
    endloop
  endfacet
  facet normal -0.841257 -0.540635 0
    outer loop
      vertex 49.0337 -35.1297 2.25
      vertex 50.039 -36.694 -2.25
      vertex 50.039 -36.694 2.25
    endloop
  endfacet
  facet normal 0.654888 0.755726 -0
    outer loop
      vertex 54.9761 -32.4159 -2.25
      vertex 53.5709 -31.1982 2.25
      vertex 54.9761 -32.4159 2.25
    endloop
  endfacet
  facet normal 0.654888 0.755726 0
    outer loop
      vertex 53.5709 -31.1982 2.25
      vertex 54.9761 -32.4159 -2.25
      vertex 53.5709 -31.1982 -2.25
    endloop
  endfacet
  facet normal 0.959487 0.281753 0
    outer loop
      vertex 55.5 -34.2 2.25
      vertex 54.9761 -32.4159 -2.25
      vertex 54.9761 -32.4159 2.25
    endloop
  endfacet
  facet normal 0.959487 0.281753 0
    outer loop
      vertex 54.9761 -32.4159 -2.25
      vertex 55.5 -34.2 2.25
      vertex 55.5 -34.2 -2.25
    endloop
  endfacet
  facet normal 0.142302 0.989823 -0
    outer loop
      vertex 53.5709 -31.1982 -2.25
      vertex 51.7304 -30.9336 2.25
      vertex 53.5709 -31.1982 2.25
    endloop
  endfacet
  facet normal 0.142302 0.989823 0
    outer loop
      vertex 51.7304 -30.9336 2.25
      vertex 53.5709 -31.1982 -2.25
      vertex 51.7304 -30.9336 -2.25
    endloop
  endfacet
  facet normal -0.415399 0.909639 0
    outer loop
      vertex 51.7304 -30.9336 -2.25
      vertex 50.039 -31.706 2.25
      vertex 51.7304 -30.9336 2.25
    endloop
  endfacet
  facet normal -0.415399 0.909639 0
    outer loop
      vertex 50.039 -31.706 2.25
      vertex 51.7304 -30.9336 -2.25
      vertex 50.039 -31.706 -2.25
    endloop
  endfacet
  facet normal 0.142302 -0.989823 0
    outer loop
      vertex 51.7304 -37.4664 -2.25
      vertex 53.5709 -37.2018 2.25
      vertex 51.7304 -37.4664 2.25
    endloop
  endfacet
  facet normal 0.142302 -0.989823 0
    outer loop
      vertex 53.5709 -37.2018 2.25
      vertex 51.7304 -37.4664 -2.25
      vertex 53.5709 -37.2018 -2.25
    endloop
  endfacet
  facet normal 0.959487 -0.281753 0
    outer loop
      vertex 54.9761 -35.9841 2.25
      vertex 55.5 -34.2 -2.25
      vertex 55.5 -34.2 2.25
    endloop
  endfacet
  facet normal 0.959487 -0.281753 0
    outer loop
      vertex 55.5 -34.2 -2.25
      vertex 54.9761 -35.9841 2.25
      vertex 54.9761 -35.9841 -2.25
    endloop
  endfacet
  facet normal 0.654888 -0.755726 0
    outer loop
      vertex 53.5709 -37.2018 -2.25
      vertex 54.9761 -35.9841 2.25
      vertex 53.5709 -37.2018 2.25
    endloop
  endfacet
  facet normal 0.654888 -0.755726 0
    outer loop
      vertex 54.9761 -35.9841 2.25
      vertex 53.5709 -37.2018 -2.25
      vertex 54.9761 -35.9841 -2.25
    endloop
  endfacet
  facet normal -0.415399 -0.909639 0
    outer loop
      vertex 50.039 -36.694 -2.25
      vertex 51.7304 -37.4664 2.25
      vertex 50.039 -36.694 2.25
    endloop
  endfacet
  facet normal -0.415399 -0.909639 -0
    outer loop
      vertex 51.7304 -37.4664 2.25
      vertex 50.039 -36.694 -2.25
      vertex 51.7304 -37.4664 -2.25
    endloop
  endfacet
  facet normal -0.841257 0.540635 0
    outer loop
      vertex 49.0337 -33.2703 -2.25
      vertex 50.039 -31.706 2.25
      vertex 50.039 -31.706 -2.25
    endloop
  endfacet
  facet normal -0.841257 0.540635 0
    outer loop
      vertex 50.039 -31.706 2.25
      vertex 49.0337 -33.2703 -2.25
      vertex 49.0337 -33.2703 2.25
    endloop
  endfacet
  facet normal -1 0 0
    outer loop
      vertex 49.0337 -35.1297 -2.25
      vertex 49.0337 -33.2703 2.25
      vertex 49.0337 -33.2703 -2.25
    endloop
  endfacet
  facet normal -1 -0 0
    outer loop
      vertex 49.0337 -33.2703 2.25
      vertex 49.0337 -35.1297 -2.25
      vertex 49.0337 -35.1297 2.25
    endloop
  endfacet
  facet normal 0 0 1
    outer loop
      vertex 54.9761 -32.4159 2.25
      vertex 54.9761 -35.9841 2.25
      vertex 55.5 -34.2 2.25
    endloop
  endfacet
  facet normal 0 0 1
    outer loop
      vertex 53.5709 -31.1982 2.25
      vertex 54.9761 -35.9841 2.25
      vertex 54.9761 -32.4159 2.25
    endloop
  endfacet
  facet normal 0 0 1
    outer loop
      vertex 53.5709 -31.1982 2.25
      vertex 53.5709 -37.2018 2.25
      vertex 54.9761 -35.9841 2.25
    endloop
  endfacet
  facet normal 0 0 1
    outer loop
      vertex 51.7304 -30.9336 2.25
      vertex 53.5709 -37.2018 2.25
      vertex 53.5709 -31.1982 2.25
    endloop
  endfacet
  facet normal 0 0 1
    outer loop
      vertex 51.7304 -30.9336 2.25
      vertex 51.7304 -37.4664 2.25
      vertex 53.5709 -37.2018 2.25
    endloop
  endfacet
  facet normal -0 0 1
    outer loop
      vertex 50.039 -31.706 2.25
      vertex 51.7304 -37.4664 2.25
      vertex 51.7304 -30.9336 2.25
    endloop
  endfacet
  facet normal 0 0 1
    outer loop
      vertex 50.039 -31.706 2.25
      vertex 50.039 -36.694 2.25
      vertex 51.7304 -37.4664 2.25
    endloop
  endfacet
  facet normal -0 0 1
    outer loop
      vertex 49.0337 -33.2703 2.25
      vertex 50.039 -36.694 2.25
      vertex 50.039 -31.706 2.25
    endloop
  endfacet
  facet normal 0 0 1
    outer loop
      vertex 50.039 -36.694 2.25
      vertex 49.0337 -33.2703 2.25
      vertex 49.0337 -35.1297 2.25
    endloop
  endfacet
  facet normal 0 0 -1
    outer loop
      vertex 54.9761 -35.9841 -2.25
      vertex 54.9761 -32.4159 -2.25
      vertex 55.5 -34.2 -2.25
    endloop
  endfacet
  facet normal 0 0 -1
    outer loop
      vertex 53.5709 -37.2018 -2.25
      vertex 54.9761 -32.4159 -2.25
      vertex 54.9761 -35.9841 -2.25
    endloop
  endfacet
  facet normal 0 0 -1
    outer loop
      vertex 53.5709 -37.2018 -2.25
      vertex 53.5709 -31.1982 -2.25
      vertex 54.9761 -32.4159 -2.25
    endloop
  endfacet
  facet normal 0 0 -1
    outer loop
      vertex 51.7304 -37.4664 -2.25
      vertex 53.5709 -31.1982 -2.25
      vertex 53.5709 -37.2018 -2.25
    endloop
  endfacet
  facet normal 0 0 -1
    outer loop
      vertex 51.7304 -37.4664 -2.25
      vertex 51.7304 -30.9336 -2.25
      vertex 53.5709 -31.1982 -2.25
    endloop
  endfacet
  facet normal 0 0 -1
    outer loop
      vertex 50.039 -36.694 -2.25
      vertex 51.7304 -30.9336 -2.25
      vertex 51.7304 -37.4664 -2.25
    endloop
  endfacet
  facet normal 0 0 -1
    outer loop
      vertex 50.039 -36.694 -2.25
      vertex 50.039 -31.706 -2.25
      vertex 51.7304 -30.9336 -2.25
    endloop
  endfacet
  facet normal 0 0 -1
    outer loop
      vertex 49.0337 -35.1297 -2.25
      vertex 50.039 -31.706 -2.25
      vertex 50.039 -36.694 -2.25
    endloop
  endfacet
  facet normal 0 0 -1
    outer loop
      vertex 50.039 -31.706 -2.25
      vertex 49.0337 -35.1297 -2.25
      vertex 49.0337 -33.2703 -2.25
    endloop
  endfacet
  facet normal -0.841257 -0.540635 0
    outer loop
      vertex -54.361 -36.694 -2.25
      vertex -55.3663 -35.1297 2.25
      vertex -55.3663 -35.1297 -2.25
    endloop
  endfacet
  facet normal -0.841257 -0.540635 0
    outer loop
      vertex -55.3663 -35.1297 2.25
      vertex -54.361 -36.694 -2.25
      vertex -54.361 -36.694 2.25
    endloop
  endfacet
  facet normal 0.654888 0.755726 -0
    outer loop
      vertex -49.4239 -32.4159 -2.25
      vertex -50.8291 -31.1982 2.25
      vertex -49.4239 -32.4159 2.25
    endloop
  endfacet
  facet normal 0.654888 0.755726 0
    outer loop
      vertex -50.8291 -31.1982 2.25
      vertex -49.4239 -32.4159 -2.25
      vertex -50.8291 -31.1982 -2.25
    endloop
  endfacet
  facet normal 0.959487 0.281753 0
    outer loop
      vertex -48.9 -34.2 2.25
      vertex -49.4239 -32.4159 -2.25
      vertex -49.4239 -32.4159 2.25
    endloop
  endfacet
  facet normal 0.959487 0.281753 0
    outer loop
      vertex -49.4239 -32.4159 -2.25
      vertex -48.9 -34.2 2.25
      vertex -48.9 -34.2 -2.25
    endloop
  endfacet
  facet normal 0.142302 0.989823 -0
    outer loop
      vertex -50.8291 -31.1982 -2.25
      vertex -52.6696 -30.9336 2.25
      vertex -50.8291 -31.1982 2.25
    endloop
  endfacet
  facet normal 0.142302 0.989823 0
    outer loop
      vertex -52.6696 -30.9336 2.25
      vertex -50.8291 -31.1982 -2.25
      vertex -52.6696 -30.9336 -2.25
    endloop
  endfacet
  facet normal 0.959487 -0.281753 0
    outer loop
      vertex -49.4239 -35.9841 2.25
      vertex -48.9 -34.2 -2.25
      vertex -48.9 -34.2 2.25
    endloop
  endfacet
  facet normal 0.959487 -0.281753 0
    outer loop
      vertex -48.9 -34.2 -2.25
      vertex -49.4239 -35.9841 2.25
      vertex -49.4239 -35.9841 -2.25
    endloop
  endfacet
  facet normal 0.142302 -0.989823 0
    outer loop
      vertex -52.6696 -37.4664 -2.25
      vertex -50.8291 -37.2018 2.25
      vertex -52.6696 -37.4664 2.25
    endloop
  endfacet
  facet normal 0.142302 -0.989823 0
    outer loop
      vertex -50.8291 -37.2018 2.25
      vertex -52.6696 -37.4664 -2.25
      vertex -50.8291 -37.2018 -2.25
    endloop
  endfacet
  facet normal -0.415399 0.909639 0
    outer loop
      vertex -52.6696 -30.9336 -2.25
      vertex -54.361 -31.706 2.25
      vertex -52.6696 -30.9336 2.25
    endloop
  endfacet
  facet normal -0.415399 0.909639 0
    outer loop
      vertex -54.361 -31.706 2.25
      vertex -52.6696 -30.9336 -2.25
      vertex -54.361 -31.706 -2.25
    endloop
  endfacet
  facet normal -1 0 0
    outer loop
      vertex -55.3663 -35.1297 -2.25
      vertex -55.3663 -33.2703 2.25
      vertex -55.3663 -33.2703 -2.25
    endloop
  endfacet
  facet normal -1 -0 0
    outer loop
      vertex -55.3663 -33.2703 2.25
      vertex -55.3663 -35.1297 -2.25
      vertex -55.3663 -35.1297 2.25
    endloop
  endfacet
  facet normal 0.654888 -0.755726 0
    outer loop
      vertex -50.8291 -37.2018 -2.25
      vertex -49.4239 -35.9841 2.25
      vertex -50.8291 -37.2018 2.25
    endloop
  endfacet
  facet normal 0.654888 -0.755726 0
    outer loop
      vertex -49.4239 -35.9841 2.25
      vertex -50.8291 -37.2018 -2.25
      vertex -49.4239 -35.9841 -2.25
    endloop
  endfacet
  facet normal 0 0 1
    outer loop
      vertex -49.4239 -32.4159 2.25
      vertex -49.4239 -35.9841 2.25
      vertex -48.9 -34.2 2.25
    endloop
  endfacet
  facet normal 0 0 1
    outer loop
      vertex -50.8291 -31.1982 2.25
      vertex -49.4239 -35.9841 2.25
      vertex -49.4239 -32.4159 2.25
    endloop
  endfacet
  facet normal 0 0 1
    outer loop
      vertex -50.8291 -31.1982 2.25
      vertex -50.8291 -37.2018 2.25
      vertex -49.4239 -35.9841 2.25
    endloop
  endfacet
  facet normal 0 0 1
    outer loop
      vertex -52.6696 -30.9336 2.25
      vertex -50.8291 -37.2018 2.25
      vertex -50.8291 -31.1982 2.25
    endloop
  endfacet
  facet normal 0 0 1
    outer loop
      vertex -52.6696 -30.9336 2.25
      vertex -52.6696 -37.4664 2.25
      vertex -50.8291 -37.2018 2.25
    endloop
  endfacet
  facet normal -0 0 1
    outer loop
      vertex -54.361 -31.706 2.25
      vertex -52.6696 -37.4664 2.25
      vertex -52.6696 -30.9336 2.25
    endloop
  endfacet
  facet normal 0 0 1
    outer loop
      vertex -54.361 -31.706 2.25
      vertex -54.361 -36.694 2.25
      vertex -52.6696 -37.4664 2.25
    endloop
  endfacet
  facet normal -0 0 1
    outer loop
      vertex -55.3663 -33.2703 2.25
      vertex -54.361 -36.694 2.25
      vertex -54.361 -31.706 2.25
    endloop
  endfacet
  facet normal 0 0 1
    outer loop
      vertex -54.361 -36.694 2.25
      vertex -55.3663 -33.2703 2.25
      vertex -55.3663 -35.1297 2.25
    endloop
  endfacet
  facet normal 0 0 -1
    outer loop
      vertex -49.4239 -35.9841 -2.25
      vertex -49.4239 -32.4159 -2.25
      vertex -48.9 -34.2 -2.25
    endloop
  endfacet
  facet normal 0 0 -1
    outer loop
      vertex -50.8291 -37.2018 -2.25
      vertex -49.4239 -32.4159 -2.25
      vertex -49.4239 -35.9841 -2.25
    endloop
  endfacet
  facet normal 0 0 -1
    outer loop
      vertex -50.8291 -37.2018 -2.25
      vertex -50.8291 -31.1982 -2.25
      vertex -49.4239 -32.4159 -2.25
    endloop
  endfacet
  facet normal 0 0 -1
    outer loop
      vertex -52.6696 -37.4664 -2.25
      vertex -50.8291 -31.1982 -2.25
      vertex -50.8291 -37.2018 -2.25
    endloop
  endfacet
  facet normal 0 0 -1
    outer loop
      vertex -52.6696 -37.4664 -2.25
      vertex -52.6696 -30.9336 -2.25
      vertex -50.8291 -31.1982 -2.25
    endloop
  endfacet
  facet normal 0 0 -1
    outer loop
      vertex -54.361 -36.694 -2.25
      vertex -52.6696 -30.9336 -2.25
      vertex -52.6696 -37.4664 -2.25
    endloop
  endfacet
  facet normal 0 0 -1
    outer loop
      vertex -54.361 -36.694 -2.25
      vertex -54.361 -31.706 -2.25
      vertex -52.6696 -30.9336 -2.25
    endloop
  endfacet
  facet normal 0 0 -1
    outer loop
      vertex -55.3663 -35.1297 -2.25
      vertex -54.361 -31.706 -2.25
      vertex -54.361 -36.694 -2.25
    endloop
  endfacet
  facet normal 0 0 -1
    outer loop
      vertex -54.361 -31.706 -2.25
      vertex -55.3663 -35.1297 -2.25
      vertex -55.3663 -33.2703 -2.25
    endloop
  endfacet
  facet normal -0.415399 -0.909639 0
    outer loop
      vertex -54.361 -36.694 -2.25
      vertex -52.6696 -37.4664 2.25
      vertex -54.361 -36.694 2.25
    endloop
  endfacet
  facet normal -0.415399 -0.909639 -0
    outer loop
      vertex -52.6696 -37.4664 2.25
      vertex -54.361 -36.694 -2.25
      vertex -52.6696 -37.4664 -2.25
    endloop
  endfacet
  facet normal -0.841257 0.540635 0
    outer loop
      vertex -55.3663 -33.2703 -2.25
      vertex -54.361 -31.706 2.25
      vertex -54.361 -31.706 -2.25
    endloop
  endfacet
  facet normal -0.841257 0.540635 0
    outer loop
      vertex -54.361 -31.706 2.25
      vertex -55.3663 -33.2703 -2.25
      vertex -55.3663 -33.2703 2.25
    endloop
  endfacet
endsolid OpenSCAD_Model
